<svg width="240px" height="185px" viewBox="0 0 240 185" version="1.1" xmlns="http://www.w3.org/2000/svg" xmlns:xlink="http://www.w3.org/1999/xlink"><title>app-icon-regression</title><desc>Created with Sketch.</desc><defs/><g transform="translate(3 2)" stroke="none" stroke-width="1" fill="none" fill-rule="evenodd"><circle id="Oval" fill="#000" cx="188.6" cy="54.6" r="1.6"/><circle id="Oval" fill="#000" cx="225.6" cy="60.6" r="1.6"/><circle id="Oval" fill="#000" cx="210.6" cy="54.6" r="1.6"/><path d="M7,46.3 L7,174.8" id="Shape" stroke="#000" stroke-width="0.75"/><path d="M2.3,174.7 L231.8,174.7" id="Shape" stroke="#000" stroke-width="0.75"/><circle id="Oval" fill="#000" cx="2.5" cy="2.5" r="2.5"/><circle id="Oval" fill="#000" cx="231.5" cy="2.5" r="2.5"/><circle id="Oval" fill="#000" cx="2.5" cy="178.5" r="2.5"/><circle id="Oval" fill="#000" cx="231.5" cy="178.5" r="2.5"/><rect id="Rectangle-path" stroke="#000" stroke-width="0.75" x="3" y="2" width="229.1" height="176.5"/><path d="M2.7,12.4 C4,14 5.9,15 8.1,15 C11.6,15 14.5,12.3 15,8.9 L231.9,8.9" id="Shape" stroke="#000" stroke-width="0.675"/><circle id="Oval" fill="#000" cx="7.6" cy="7.6" r="3.6"/><circle id="Oval" fill="#000" cx="17.6" cy="5.6" r="1.6"/><circle id="Oval" fill="#000" cx="24.6" cy="5.6" r="1.6"/><circle id="Oval" fill="#000" cx="33.6" cy="5.6" r="1.6"/><circle id="Oval" fill="#000" cx="39.6" cy="5.6" r="1.6"/><circle id="Oval" fill="#000" cx="45.6" cy="5.6" r="1.6"/><circle id="Oval" fill="#BCBEC0" cx="217.6" cy="5.6" r="1.6"/><circle id="Oval" fill="#000" cx="83.6" cy="26.6" r="1.6"/><circle id="Oval" fill="#000" cx="83.6" cy="33.6" r="1.6"/><circle id="Oval" fill="#BCBEC0" cx="222.6" cy="5.6" r="1.6"/><circle id="Oval" fill="#BCBEC0" cx="227.6" cy="5.6" r="1.6"/><path d="M2.7,19.2 L15.5,19.2 L15.5,15 L26.5,15 L26.5,19.2 L29.6,19.2 L29.6,15 L50.6,15 L50.6,19.2 L53.6,19.2 L53.6,15 L64.2,15 L64.2,19.2 L231.8,19.2" id="Shape" stroke="#000" stroke-width="0.675"/><path d="M2.7,46.6 L231.8,46.6" id="Shape" stroke="#000" stroke-width="0.675"/><rect id="Rectangle-path" stroke="#000" stroke-width="0.675" x="5" y="22" width="72" height="22"/><rect id="Rectangle-path" stroke="#000" stroke-width="0.675" x="80" y="22" width="34.8" height="22"/><rect id="Rectangle-path" stroke="#000" stroke-width="0.675" x="117" y="22" width="34.8" height="22"/><rect id="Rectangle-path" stroke="#000" stroke-width="0.675" x="154" y="22" width="47.4" height="22"/><path d="M5.4,38.9 L77.4,38.9" id="Shape" stroke="#000" stroke-width="0.675"/><path d="M79.8,38.9 L114.4,38.9" id="Shape" stroke="#000" stroke-width="0.675"/><path d="M116.8,38.9 L151.6,38.9" id="Shape" stroke="#000" stroke-width="0.675"/><path d="M154,38.9 L201.4,38.9" id="Shape" stroke="#000" stroke-width="0.675"/><g transform="translate(24 24)" stroke="#000" stroke-width="0.75"><rect id="Rectangle-path" x="0" y="0" width="35.5" height="4.9"/><path d="M32,0.3 L32,5.3" id="Shape"/></g><g transform="translate(24 31)" stroke="#000" stroke-width="0.75"><rect id="Rectangle-path" x="0" y="0" width="35.5" height="4.9"/><path d="M32,0.1 L32,5" id="Shape"/></g><path d="M17.5,17.1 L24.3,17.1" id="Shape" stroke="#000"/><path d="M31.3,17.1 L48.8,17.1" id="Shape" stroke="#000"/><path d="M55.3,17.1 L62.4,17.1" id="Shape" stroke="#000"/><path d="M8,26.8 L19.9,26.8" id="Shape" stroke="#000"/><path d="M8,33.6 L22,33.6" id="Shape" stroke="#000"/><path d="M86.7,26.8 L107.4,26.8" id="Shape" stroke="#000"/><circle id="Oval" fill="#000" cx="122.6" cy="27.6" r="1.6"/><path d="M126.3,27.5 L146.9,27.5" id="Shape" stroke="#000"/><circle id="Oval" fill="#000" cx="122.6" cy="33.6" r="1.6"/><path d="M126.3,33.6 L146.9,33.6" id="Shape" stroke="#000"/><circle id="Oval" fill="#000" cx="158.6" cy="25.6" r="1.6"/><path d="M161.6,25.2 L170.8,25.2" id="Shape" stroke="#000"/><circle id="Oval" fill="#000" cx="158.6" cy="30.6" r="1.6"/><path d="M161.6,30.2 L170.8,30.2" id="Shape" stroke="#000"/><circle id="Oval" fill="#000" cx="158.6" cy="35.6" r="1.6"/><path d="M161.6,35.3 L170.8,35.3" id="Shape" stroke="#000"/><circle id="Oval" fill="#000" cx="183.6" cy="25.6" r="1.6"/><path d="M186.8,25.2 L195.9,25.2" id="Shape" stroke="#000"/><circle id="Oval" fill="#000" cx="183.6" cy="30.6" r="1.6"/><path d="M186.8,30.2 L195.9,30.2" id="Shape" stroke="#000"/><circle fill="#000" cx="183.6" cy="35.6" r="1.6"/><path d="M186.8,35.3 L195.9,35.3" id="Shape" stroke="#000"/><path d="M86.7,33.6 L110.5,33.6" id="Shape" stroke="#000"/><path d="M28.5,41.3 L51.4,41.3" id="Shape" stroke="#000"/><path d="M87.6,41.3 L102.7,41.3" id="Shape" stroke="#000"/><path d="M126.8,41.3 L141.8,41.3" id="Shape" stroke="#000"/><path d="M170.3,41.3 L185.2,41.3" id="Shape" stroke="#000"/><rect id="Rectangle-path" stroke="#000" stroke-width="0.75" x="10" y="52" width="118.5" height="38.9"/><path d="M10.3,57.2 L128.8,57.2" id="Shape" stroke="#000" stroke-width="0.75"/><path d="M10.3,63.9 L128.8,63.9" id="Shape" stroke="#000" stroke-width="0.75"/><path d="M31.6,57.2 L31.6,90.4" id="Shape" stroke="#000" stroke-width="0.25"/><path d="M42,57.2 L42,90.4" id="Shape" stroke="#000" stroke-width="0.25"/><path d="M52.5,57.2 L52.5,90.4" id="Shape" stroke="#000" stroke-width="0.25"/><path d="M78.6,57.2 L78.6,90.4" id="Shape" stroke="#000" stroke-width="0.25"/><path d="M99.4,57.2 L99.4,90.4" id="Shape" stroke="#000" stroke-width="0.25"/><path d="M12.6,54.5 L35.5,54.5" id="Shape" stroke="#000"/><path d="M12.6,60.7 L29.3,60.7" id="Shape" stroke="#000"/><path d="M33.5,60.7 L39.6,60.7" id="Shape" stroke="#000"/><path d="M43.9,60.7 L50.1,60.7" id="Shape" stroke="#000"/><path d="M54.4,60.7 L60.5,60.7" id="Shape" stroke="#000"/><path d="M70,60.7 L76.2,60.7" id="Shape" stroke="#000"/><path d="M85.7,60.7 L91.8,60.7" id="Shape" stroke="#000"/><path d="M101.3,60.7 L126.3,60.7" id="Shape" stroke="#000"/><path d="M10.3,69.1 L128.8,69.1" id="Shape" stroke="#000" stroke-width="0.25"/><path d="M10.3,74.3 L128.8,74.3" id="Shape" stroke="#000" stroke-width="0.25"/><path d="M10.3,79.6 L128.8,79.6" id="Shape" stroke="#000" stroke-width="0.25"/><rect id="Rectangle-path" stroke="#000" stroke-width="0.75" x="10" y="138" width="118.5" height="33.1"/><path d="M10.3,143.6 L128.8,143.6" id="Shape" stroke="#000" stroke-width="0.75"/><path d="M10.3,150.3 L128.8,150.3" id="Shape" stroke="#000" stroke-width="0.75"/><path d="M31.6,143.6 L31.6,170.9" id="Shape" stroke="#000" stroke-width="0.25"/><path d="M12.6,140.8 L35.5,140.8" id="Shape" stroke="#000"/><path d="M12.6,147.1 L29.3,147.1" id="Shape" stroke="#000"/><path d="M10.3,155.5 L128.8,155.5" id="Shape" stroke="#000" stroke-width="0.25"/><path d="M10.3,160.7 L128.8,160.7" id="Shape" stroke="#000" stroke-width="0.25"/><path d="M10.3,165.9 L128.8,165.9" id="Shape" stroke="#000" stroke-width="0.25"/><path d="M10.3,84.8 L128.8,84.8" id="Shape" stroke="#000" stroke-width="0.25"/><path d="M10.3,90 L128.8,90" id="Shape" stroke="#000" stroke-width="0.25"/><rect id="Rectangle-path" stroke="#000" stroke-width="0.75" x="10" y="94" width="118.5" height="38.9"/><path d="M10.3,100 L128.8,100" id="Shape" stroke="#000" stroke-width="0.75"/><path d="M78.6,94.3 L78.6,133.1" id="Shape" stroke="#000" stroke-width="0.25"/><path d="M12.6,97.3 L35.5,97.3" id="Shape" stroke="#000"/><path d="M81.4,97.3 L104.2,97.3" id="Shape" stroke="#000"/><path d="M10.3,111.9 L128.8,111.9" id="Shape" stroke="#000" stroke-width="0.25"/><path d="M10.3,106.1 L128.8,106.1" id="Shape" stroke="#000" stroke-width="0.25"/><path d="M10.3,117.1 L128.8,117.1" id="Shape" stroke="#000" stroke-width="0.25"/><path d="M10.3,122.3 L128.8,122.3" id="Shape" stroke="#000" stroke-width="0.25"/><path d="M10.3,127.6 L128.8,127.6" id="Shape" stroke="#000" stroke-width="0.25"/><path d="M10.3,132.8 L128.8,132.8" id="Shape" stroke="#000" stroke-width="0.25"/><rect id="Rectangle-path" stroke="#000" stroke-width="0.75" x="131" y="52" width="97.7" height="103.7"/><path d="M131.4,57.2 L229.1,57.2" id="Shape" stroke="#000" stroke-width="0.75"/><path d="M131.4,63.9 L229.1,63.9" id="Shape" stroke="#000" stroke-width="0.75"/><rect id="Rectangle-path" stroke="#000" stroke-width="0.75" x="134" y="67" width="92.4" height="42.4"/><path d="M133.7,54.5 L156.5,54.5" id="Shape" stroke="#000"/><path d="M191.6,54.5 L205.1,54.5" id="Shape" stroke="#000"/><path d="M213.5,54.5 L227,54.5" id="Shape" stroke="#000"/><path d="M199.4,61.3 L222.6,61.3" id="Shape" stroke="#000"/><path d="M133.7,60.7 L156.5,60.7" id="Shape" stroke="#000"/><rect id="Rectangle-path" stroke="#000" stroke-width="0.75" x="134" y="112" width="50.7" height="40.9"/><rect id="Rectangle-path" stroke="#000" stroke-width="0.75" x="188" y="112" width="31.4" height="19.4"/><path d="M193.2,111.9 L193.2,131.2" id="Shape" stroke="#000" stroke-width="0.25"/><path d="M187.7,117.9 L219.1,117.9" id="Shape" stroke="#000" stroke-width="0.25"/><path d="M187.7,124.9 L219.1,124.9" id="Shape" stroke="#000" stroke-width="0.25"/><rect stroke="#000" stroke-width="0.75" x="188" y="134" width="31.4" height="19.4"/><path d="M193.2,133.6 L193.2,152.9" id="Shape" stroke="#000" stroke-width="0.25"/><path d="M187.7,139.6 L219.1,139.6" id="Shape" stroke="#000" stroke-width="0.25"/><path d="M187.7,146.6 L219.1,146.6" id="Shape" stroke="#000" stroke-width="0.25"/><path d="M221.4,111.9 L226.4,111.9" id="Shape" stroke="#000"/><path d="M221.4,117 L226.4,117" id="Shape" stroke="#000"/><path d="M221.4,122 L226.4,122" id="Shape" stroke="#000"/><path d="M221.4,133.6 L226.4,133.6" id="Shape" stroke="#000"/><path d="M221.4,138.6 L226.4,138.6" id="Shape" stroke="#000"/><path d="M221.4,143.7 L226.4,143.7" stroke="#000"/></g></svg>