<svg width="240px" height="185px" viewBox="0 0 240 185" version="1.1" xmlns="http://www.w3.org/2000/svg" xmlns:xlink="http://www.w3.org/1999/xlink"><title>app-icon-spreadsheet</title><desc>Created with Sketch.</desc><defs/><g transform="translate(3 2)" stroke="none" stroke-width="1" fill="none" fill-rule="evenodd"><rect id="Rectangle-path" fill="#23516E" x="11" y="57" width="12.2" height="3.8"/><rect id="Rectangle-path" fill="#23516E" x="8" y="61" width="3.5" height="3.8"/><path d="M7.3,171.1 L227.7,171.1" id="Shape" stroke="#000" stroke-width="0.75"/><rect id="Rectangle-path" stroke="#000" stroke-width="0.75" x="7" y="50" width="171.7" height="4.9"/><path d="M10.5,52.2 L24.5,52.2" id="Shape" stroke="#000"/><g transform="translate(200 51)"><circle id="Oval" fill="#000" cx="1.6" cy="1.6" r="1.6"/><path d="M4.4,1.8 L11.4,1.8" id="Shape" stroke="#000"/></g><g transform="translate(213 51)"><circle id="Oval" fill="#000" cx="1.6" cy="1.6" r="1.6"/><path d="M4.8,1.8 L14.7,1.8" id="Shape" stroke="#000"/></g><path d="M2.5,57.1 L232.2,57.1" id="Shape" stroke="#000" stroke-width="0.75"/><path d="M2.5,175.3 L232.1,175.3" id="Shape" stroke="#000" stroke-width="0.75"/><path d="M7.2,57.4 L7.2,175.3" id="Shape" stroke="#000" stroke-width="0.75"/><circle id="Oval" fill="#000" cx="2.5" cy="2.5" r="2.5"/><circle id="Oval" fill="#000" cx="232.5" cy="2.5" r="2.5"/><circle id="Oval" fill="#000" cx="2.5" cy="179.5" r="2.5"/><circle id="Oval" fill="#000" cx="232.5" cy="179.5" r="2.5"/><rect id="Rectangle-path" stroke="#000" stroke-width="0.75" x="3" y="3" width="229.1" height="176.5"/><path d="M2.9,12.5 C4.2,14.1 6.1,15.1 8.3,15.1 C11.8,15.1 14.7,12.4 15.2,9 L232.1,9" id="Shape" stroke="#000" stroke-width="0.675"/><circle id="Oval" fill="#000" cx="8.6" cy="8.6" r="3.6"/><circle id="Oval" fill="#000" cx="18.6" cy="5.6" r="1.6"/><circle id="Oval" fill="#000" cx="24.6" cy="5.6" r="1.6"/><circle id="Oval" fill="#000" cx="33.6" cy="5.6" r="1.6"/><circle id="Oval" fill="#000" cx="39.6" cy="5.6" r="1.6"/><circle id="Oval" fill="#000" cx="45.6" cy="5.6" r="1.6"/><circle id="Oval" fill="#BCBEC0" cx="217.6" cy="5.6" r="1.6"/><circle id="Oval" fill="#000" cx="83.6" cy="26.6" r="1.6"/><circle id="Oval" fill="#000" cx="83.6" cy="33.6" r="1.6"/><circle id="Oval" fill="#BCBEC0" cx="222.6" cy="5.6" r="1.6"/><circle id="Oval" fill="#BCBEC0" cx="228.6" cy="5.6" r="1.6"/><path d="M2.9,19.3 L15.7,19.3 L15.7,15.1 L26.7,15.1 L26.7,19.3 L29.9,19.3 L29.9,15.1 L50.8,15.1 L50.8,19.3 L53.8,19.3 L53.8,15.1 L64.4,15.1 L64.4,19.3 L232.1,19.3" id="Shape" stroke="#000" stroke-width="0.675"/><path d="M2.9,46.7 L232.1,46.7" id="Shape" stroke="#000" stroke-width="0.675"/><rect id="Rectangle-path" stroke="#000" stroke-width="0.675" x="6" y="22" width="72" height="22"/><rect id="Rectangle-path" stroke="#000" stroke-width="0.675" x="80" y="22" width="34.8" height="22"/><rect id="Rectangle-path" stroke="#000" stroke-width="0.675" x="117" y="22" width="34.8" height="22"/><path d="M5.7,39 L77.7,39" id="Shape" stroke="#000" stroke-width="0.675"/><path d="M80.1,39 L114.6,39" id="Shape" stroke="#000" stroke-width="0.675"/><path d="M117.1,39 L151.9,39" id="Shape" stroke="#000" stroke-width="0.675"/><g transform="translate(24 25)" stroke="#000" stroke-width="0.75"><rect id="Rectangle-path" x="0" y="0" width="35.5" height="4.9"/><path d="M32.2,-0.5 L32.2,4.4" id="Shape"/></g><g transform="translate(24 31)" stroke="#000" stroke-width="0.75"><rect id="Rectangle-path" x="0" y="0" width="35.5" height="4.9"/><path d="M32.2,0.3 L32.2,5.2" id="Shape"/></g><path d="M17.8,17.2 L24.6,17.2" id="Shape" stroke="#000"/><path d="M31.5,17.2 L49,17.2" id="Shape" stroke="#000"/><path d="M55.6,17.2 L62.6,17.2" id="Shape" stroke="#000"/><path d="M8.3,26.9 L20.2,26.9" id="Shape" stroke="#000"/><path d="M8.3,33.7 L22.3,33.7" id="Shape" stroke="#000"/><path d="M87,26.9 L107.6,26.9" id="Shape" stroke="#000"/><g transform="translate(122 26)"><circle id="Oval" fill="#000" cx="1.6" cy="1.6" r="1.6"/><path d="M4.6,1.7 L25.2,1.7" id="Shape" stroke="#000"/></g><g transform="translate(158 26)"><circle id="Oval" fill="#000" cx="1.6" cy="1.6" r="1.6"/><path d="M4.7,1.7 L11.2,1.7" id="Shape" stroke="#000"/></g><g transform="translate(158 32)"><circle id="Oval" fill="#000" cx="1.6" cy="1.6" r="1.6"/><path d="M4.7,1.8 L11.2,1.8" id="Shape" stroke="#000"/></g><g transform="translate(174 26)"><circle id="Oval" fill="#000" cx="1.6" cy="1.6" r="1.6"/><path d="M4.7,1.7 L11.2,1.7" id="Shape" stroke="#000"/></g><g transform="translate(174 32)"><circle id="Oval" fill="#000" cx="1.6" cy="1.6" r="1.6"/><path d="M4.7,1.8 L11.2,1.8" id="Shape" stroke="#000"/></g><g transform="translate(194 29)"><circle id="Oval" fill="#000" cx="1.6" cy="1.6" r="1.6"/><path d="M5.3,1.3 L9.7,1.3" id="Shape" stroke="#000"/></g><g transform="translate(194 23)"><circle id="Oval" fill="#000" cx="1.6" cy="1.6" r="1.6"/><path d="M5.3,1.9 L9.7,1.9" id="Shape" stroke="#000"/></g><g transform="translate(194 34)"><circle id="Oval" fill="#000" cx="1.6" cy="1.6" r="1.6"/><path d="M5.3,1.4 L9.7,1.4" id="Shape" stroke="#000"/></g><g transform="translate(211 29)"><circle id="Oval" fill="#000" cx="1.6" cy="1.6" r="1.6"/><path d="M4.4,1.3 L14.2,1.3" id="Shape" stroke="#000"/></g><g transform="translate(211 23)"><circle id="Oval" fill="#000" cx="1.6" cy="1.6" r="1.6"/><path d="M4.4,1.9 L14.2,1.9" id="Shape" stroke="#000"/></g><g transform="translate(211 34)"><circle id="Oval" fill="#000" cx="1.6" cy="1.6" r="1.6"/><path d="M4.4,1.4 L14.2,1.4" id="Shape" stroke="#000"/></g><g transform="translate(122 32)"><circle fill="#000" cx="1.6" cy="1.6" r="1.6"/><path d="M4.6,1.7 L25.2,1.7" id="Shape" stroke="#000"/></g><path d="M87,33.7 L110.8,33.7" id="Shape" stroke="#000"/><path d="M28.7,41.5 L51.6,41.5" id="Shape" stroke="#000"/><path d="M87.9,41.5 L102.9,41.5" id="Shape" stroke="#000"/><path d="M127.1,41.5 L142,41.5" id="Shape" stroke="#000"/><rect id="Rectangle-path" stroke="#000" stroke-width="0.675" x="155" y="22" width="34.8" height="22"/><path d="M154.5,39 L189.3,39" id="Shape" stroke="#000" stroke-width="0.675"/><path d="M164.6,41.5 L179.5,41.5" id="Shape" stroke="#000"/><rect id="Rectangle-path" stroke="#000" stroke-width="0.675" x="192" y="22" width="14" height="22"/><path d="M192,39 L206,39" id="Shape" stroke="#000" stroke-width="0.675"/><path d="M202,41.5 L196.1,41.5" id="Shape" stroke="#000"/><rect stroke="#000" stroke-width="0.675" x="208" y="22" width="19" height="22"/><path d="M208.4,39 L227.3,39" id="Shape" stroke="#000" stroke-width="0.675"/><path d="M223.4,41.5 L212.5,41.5" id="Shape" stroke="#000"/><path d="M227.7,57.4 L227.7,175.3" id="Shape" stroke="#000" stroke-width="0.75"/><path d="M223.5,57.1 L223.5,171.1" id="Shape" stroke="#000" stroke-width="0.75"/><path d="M11,57 L11,171.1" id="Shape" stroke="#000" stroke-width="0.25"/><path d="M23.2,57 L23.2,171.1" id="Shape" stroke="#000" stroke-width="0.25"/><path d="M35.5,57 L35.5,171.1" id="Shape" stroke="#000" stroke-width="0.25"/><path d="M47.7,57 L47.7,171.1" id="Shape" stroke="#000" stroke-width="0.25"/><path d="M59.9,57 L59.9,171.1" id="Shape" stroke="#000" stroke-width="0.25"/><path d="M72.1,57 L72.1,171.1" id="Shape" stroke="#000" stroke-width="0.25"/><path d="M84.3,57 L84.3,171.1" id="Shape" stroke="#000" stroke-width="0.25"/><path d="M96.5,57 L96.5,171.1" id="Shape" stroke="#000" stroke-width="0.25"/><path d="M108.8,57 L108.8,171.1" id="Shape" stroke="#000" stroke-width="0.25"/><path d="M121,57 L121,171.1" id="Shape" stroke="#000" stroke-width="0.25"/><path d="M133.2,57 L133.2,171.1" id="Shape" stroke="#000" stroke-width="0.25"/><path d="M145.4,57 L145.4,171.1" id="Shape" stroke="#000" stroke-width="0.25"/><path d="M157.6,57 L157.6,171.1" id="Shape" stroke="#000" stroke-width="0.25"/><path d="M169.9,57 L169.9,171.1" id="Shape" stroke="#000" stroke-width="0.25"/><path d="M182.1,57 L182.1,171.1" id="Shape" stroke="#000" stroke-width="0.25"/><path d="M194.3,57 L194.3,171.1" id="Shape" stroke="#000" stroke-width="0.25"/><path d="M206.5,57 L206.5,171.1" id="Shape" stroke="#000" stroke-width="0.25"/><path d="M7.5,60.8 L223.5,60.8" id="Shape" stroke="#000" stroke-width="0.25"/><path d="M7.5,64.6 L223.5,64.6" id="Shape" stroke="#000" stroke-width="0.25"/><path d="M7.5,68.4 L223.5,68.4" id="Shape" stroke="#000" stroke-width="0.25"/><path d="M7.5,72.2 L223.5,72.2" id="Shape" stroke="#000" stroke-width="0.25"/><path d="M7.5,76 L223.5,76" id="Shape" stroke="#000" stroke-width="0.25"/><path d="M7.5,79.8 L223.5,79.8" id="Shape" stroke="#000" stroke-width="0.25"/><path d="M7.5,83.6 L223.5,83.6" id="Shape" stroke="#000" stroke-width="0.25"/><path d="M7.5,87.4 L223.5,87.4" id="Shape" stroke="#000" stroke-width="0.25"/><path d="M7.5,91.2 L223.5,91.2" id="Shape" stroke="#000" stroke-width="0.25"/><path d="M7.5,95 L223.5,95" id="Shape" stroke="#000" stroke-width="0.25"/><path d="M7.5,98.8 L223.5,98.8" id="Shape" stroke="#000" stroke-width="0.25"/><path d="M7.5,102.6 L223.5,102.6" id="Shape" stroke="#000" stroke-width="0.25"/><path d="M7.5,106.4 L223.5,106.4" id="Shape" stroke="#000" stroke-width="0.25"/><path d="M7.5,110.2 L223.5,110.2" id="Shape" stroke="#000" stroke-width="0.25"/><path d="M7.5,114 L223.5,114" id="Shape" stroke="#000" stroke-width="0.25"/><path d="M7.5,117.8 L223.5,117.8" id="Shape" stroke="#000" stroke-width="0.25"/><path d="M7.5,121.6 L223.5,121.6" id="Shape" stroke="#000" stroke-width="0.25"/><path d="M7.5,125.4 L223.5,125.4" id="Shape" stroke="#000" stroke-width="0.25"/><path d="M7.5,129.2 L223.5,129.2" id="Shape" stroke="#000" stroke-width="0.25"/><path d="M7.5,133 L223.5,133" id="Shape" stroke="#000" stroke-width="0.25"/><path d="M7.5,136.8 L223.5,136.8" id="Shape" stroke="#000" stroke-width="0.25"/><path d="M7.5,140.6 L223.5,140.6" id="Shape" stroke="#000" stroke-width="0.25"/><path d="M7.5,144.4 L223.5,144.4" id="Shape" stroke="#000" stroke-width="0.25"/><path d="M7.5,148.2 L223.5,148.2" id="Shape" stroke="#000" stroke-width="0.25"/><path d="M7.5,152 L223.5,152" id="Shape" stroke="#000" stroke-width="0.25"/><path d="M7.5,155.8 L223.5,155.8" id="Shape" stroke="#000" stroke-width="0.25"/><path d="M7.5,159.6 L223.5,159.6" id="Shape" stroke="#000" stroke-width="0.25"/><path d="M7.5,163.4 L223.5,163.4" id="Shape" stroke="#000" stroke-width="0.25"/><path d="M7.5,167.2 L223.5,167.2" id="Shape" stroke="#000" stroke-width="0.25"/><path d="M223.5,85.5 L228,85.5" stroke="#000"/></g></svg>