<svg width="240px" height="185px" viewBox="0 0 240 185" version="1.1" xmlns="http://www.w3.org/2000/svg" xmlns:xlink="http://www.w3.org/1999/xlink"><title>app-icon-explorer</title><desc>Created with Sketch.</desc><defs/><g stroke="none" stroke-width="1" fill="none" fill-rule="evenodd"><g id="Shape" stroke="#23516E" stroke-width="0.75"><path d="M0.1,1.8 L2.1,1.8 L3,0.7 L4.2,3 L4.9,1.6 L6.3,2.1 L7.5,1.4 L9.1,1.6 L9.9,2.1 L11.8,0.9 L13.4,2 L15,2 L16,1.1 L16.9,1.3 L18.1,1.8 L20.7,2.3 L22.3,1.8 L24.4,1.3 L27.1,1.6 L28.2,2.3 L31,1.6 L34.3,1.6 L36.2,3 L38.9,2.5 L41,1.1 L42.1,0.2 L42.6,1.4" transform="translate(183 108)"/><path d="M0.1,22.6 L2.1,22.6 L3,21.6 L4.2,23.9 L4.9,22.5 L6.3,23 L7.5,22.3 L9.1,22.5 L9.9,23 L11.8,21.8 L13.4,22.8 L15,22.8 L16,22 L16.9,22.1 L18.1,22.6 L20.7,23.2 L22.3,22.6 L24.4,22.1 L27.1,22.5 L28.2,23.2 L31,22.5 L34.3,22.5 L36.2,23.9 L38.9,23.3 L41,22 L42.1,21.1 L42.6,22.3" transform="translate(183 108)"/><path d="M0.1,38.3 L2.1,38.3 L3,37.3 L4.2,39.5 L4.9,38.1 L6.3,38.7 L7.5,38 L9.1,38.1 L9.9,38.7 L11.8,37.4 L13.4,38.5 L15,38.5 L16,37.6 L16.9,37.8 L18.1,38.3 L20.7,38.8 L22.3,38.3 L24.4,37.8 L27.1,38.1 L28.2,38.8 L31,38.1 L34.3,38.1 L36.2,39.5 L38.9,39 L41,37.6 L42.1,36.7 L42.6,38" transform="translate(183 108)"/><path d="M0.1,53.9 L2.1,53.9 L3,52.9 L4.2,55.2 L4.9,53.8 L6.3,54.3 L7.5,53.6 L9.1,53.8 L9.9,54.3 L11.8,53.1 L13.4,54.1 L15,54.1 L16,53.2 L16.9,53.4 L18.1,53.9 L20.7,54.5 L22.3,53.9 L24.4,53.4 L27.1,53.8 L28.2,54.5 L31,53.8 L34.3,53.8 L36.2,55.2 L38.9,54.6 L41,53.2 L42.1,52.4 L42.6,53.6" transform="translate(183 108)"/><path d="M0,7.2 L15.1,7.2 L16.5,8 L18.3,5.4 L21.2,7.7 L29.4,7.7 L36.9,6.5 L37.7,8.2 L39.1,7.5 L42.2,7.5" transform="translate(183 108)"/><path d="M0,33.3 L15.1,33.3 L16.5,34.1 L18.3,31.5 L21.2,33.8 L29.4,33.8 L36.9,32.6 L37.7,34.3 L39.1,33.6 L42.2,33.6" transform="translate(183 108)"/><path d="M0,59.1 L15.1,59.1 L16.5,60 L18.3,57.4 L21.2,59.7 L29.4,59.7 L36.9,58.4 L37.7,60.2 L39.1,59.5 L42.2,59.5" transform="translate(183 108)"/><path d="M0,12 L42,12" transform="translate(183 108)"/><path d="M0,43.3 L42,43.3" transform="translate(183 108)"/><path d="M0.2,17.3 L0.9,16.8 L1.4,17.5 L2.3,16.8 L3.3,18.4 L3.7,17 L4.9,16.5 L5.2,17.2 L6.5,18 L7,16.8 L8,16.8 L8.9,17.7 L9.8,16.6 L11.3,17.7 L12.2,16.8 L15,18.2 L15.7,16.8 L17.2,18.2 L18.4,17.2 L24.9,17.2 L25.7,18.4 L26.6,16.1 L28.2,17.3 L32,17.3 L35.8,16.1 L37.2,17.7 L38.8,17 L41.9,17" transform="translate(183 108)"/><path d="M0.2,27.6 L0.9,28.1 L1.4,27.4 L2.3,28.1 L3.3,26.6 L3.7,28 L4.9,28.5 L5.2,27.8 L6.5,26.9 L7,28.1 L8,28.1 L8.9,27.3 L9.8,28.3 L11.3,27.3 L12.2,28.1 L15,26.7 L15.7,28.1 L17.2,26.7 L18.4,27.8 L24.9,27.8 L25.7,26.6 L26.6,28.8 L28.2,27.6 L32,27.6 L35.8,28.8 L37.2,27.3 L38.8,28 L41.9,28" transform="translate(183 108)"/></g><g transform="translate(3 2)"><path d="M2.6,175.3 L231.2,175.3" id="Shape" stroke="#000" stroke-width="0.75"/><path d="M6.7,46.7 L6.7,175.3" id="Shape" stroke="#000" stroke-width="0.75"/><circle id="Oval" fill="#000" cx="2.5" cy="2.5" r="2.5"/><circle id="Oval" fill="#000" cx="231.5" cy="2.5" r="2.5"/><circle id="Oval" fill="#000" cx="2.5" cy="179.5" r="2.5"/><circle id="Oval" fill="#000" cx="231.5" cy="179.5" r="2.5"/><rect id="Rectangle-path" stroke="#000" stroke-width="0.75" x="2" y="3" width="229.1" height="176.5"/><path d="M2.4,12.5 C3.7,14.1 5.6,15.1 7.8,15.1 C11.3,15.1 14.2,12.4 14.7,9 L231.6,9" id="Shape" stroke="#000" stroke-width="0.675"/><circle id="Oval" fill="#000" cx="7.6" cy="8.6" r="3.6"/><circle id="Oval" fill="#000" cx="17.6" cy="5.6" r="1.6"/><circle id="Oval" fill="#000" cx="23.6" cy="5.6" r="1.6"/><circle id="Oval" fill="#000" cx="32.6" cy="5.6" r="1.6"/><circle id="Oval" fill="#000" cx="39.6" cy="5.6" r="1.6"/><circle id="Oval" fill="#000" cx="45.6" cy="5.6" r="1.6"/><circle id="Oval" fill="#BCBEC0" cx="217.6" cy="5.6" r="1.6"/><circle id="Oval" fill="#BCBEC0" cx="222.6" cy="5.6" r="1.6"/><circle id="Oval" fill="#BCBEC0" cx="227.6" cy="5.6" r="1.6"/><path d="M2.4,19.3 L15.2,19.3 L15.2,15.1 L26.2,15.1 L26.2,19.3 L29.3,19.3 L29.3,15.1 L50.3,15.1 L50.3,19.3 L53.3,19.3 L53.3,15.1 L63.9,15.1 L63.9,19.3 L231.5,19.3" id="Shape" stroke="#000" stroke-width="0.675"/><path d="M2.4,46.7 L231.5,46.7" id="Shape" stroke="#000" stroke-width="0.675"/><rect id="Rectangle-path" stroke="#000" stroke-width="0.675" x="5" y="22" width="48" height="22"/><rect id="Rectangle-path" stroke="#000" stroke-width="0.675" x="56" y="22" width="20.8" height="22"/><path d="M5.1,39 L53.1,39" id="Shape" stroke="#000" stroke-width="0.675"/><path d="M55.7,39 L76.3,39" id="Shape" stroke="#000" stroke-width="0.675"/><g transform="translate(23 25)" stroke="#000" stroke-width="0.75"><rect id="Rectangle-path" x="0" y="0" width="26.5" height="4.9"/><path d="M23.7,-0.5 L23.7,4.4" id="Shape"/></g><g transform="translate(23 31)" stroke="#000" stroke-width="0.75"><rect id="Rectangle-path" x="0" y="0" width="26.5" height="4.9"/><path d="M23.7,0.3 L23.7,5.2" id="Shape"/></g><path d="M17.2,17.2 L24,17.2" id="Shape" stroke="#000"/><path d="M31,17.2 L48.5,17.2" id="Shape" stroke="#000"/><path d="M55,17.2 L62.1,17.2" id="Shape" stroke="#000"/><path d="M7.7,26.9 L19.6,26.9" id="Shape" stroke="#000"/><path d="M7.7,33.7 L21.7,33.7" id="Shape" stroke="#000"/><g transform="translate(157 26)"><circle id="Oval" fill="#000" cx="1.6" cy="1.6" r="1.6"/><path d="M5.2,1.7 L11.6,1.7" id="Shape" stroke="#000"/></g><g transform="translate(157 32)"><circle id="Oval" fill="#000" cx="1.6" cy="1.6" r="1.6"/><path d="M5.2,1.8 L11.6,1.8" id="Shape" stroke="#000"/></g><g transform="translate(173 26)"><circle id="Oval" fill="#000" cx="1.6" cy="1.6" r="1.6"/><path d="M5.2,1.7 L11.6,1.7" id="Shape" stroke="#000"/></g><g transform="translate(173 32)"><circle id="Oval" fill="#000" cx="1.6" cy="1.6" r="1.6"/><path d="M5.2,1.8 L11.6,1.8" id="Shape" stroke="#000"/></g><g transform="translate(194 29)"><circle id="Oval" fill="#000" cx="1.6" cy="1.6" r="1.6"/><path d="M4.7,1.3 L9.2,1.3" id="Shape" stroke="#000"/></g><g transform="translate(194 23)"><circle id="Oval" fill="#000" cx="1.6" cy="1.6" r="1.6"/><path d="M4.7,1.9 L9.2,1.9" id="Shape" stroke="#000"/></g><g transform="translate(194 34)"><circle id="Oval" fill="#000" cx="1.6" cy="1.6" r="1.6"/><path d="M4.7,1.4 L9.2,1.4" id="Shape" stroke="#000"/></g><g transform="translate(210 29)"><circle id="Oval" fill="#000" cx="1.6" cy="1.6" r="1.6"/><path d="M4.9,1.3 L14.6,1.3" id="Shape" stroke="#000"/></g><g transform="translate(210 23)"><circle id="Oval" fill="#000" cx="1.6" cy="1.6" r="1.6"/><path d="M4.9,1.9 L14.6,1.9" id="Shape" stroke="#000"/></g><g transform="translate(210 34)"><circle id="Oval" fill="#000" cx="1.6" cy="1.6" r="1.6"/><path d="M4.9,1.4 L14.6,1.4" id="Shape" stroke="#000"/></g><path d="M22.6,41.5 L36.5,41.5" id="Shape" stroke="#000"/><path d="M60.9,41.5 L70.3,41.5" id="Shape" stroke="#000"/><path d="M78.7,39 L99.2,39" id="Shape" stroke="#000" stroke-width="0.675"/><path d="M83.8,41.5 L93.2,41.5" id="Shape" stroke="#000"/><rect id="Rectangle-path" stroke="#000" stroke-width="0.675" x="102" y="22" width="49.8" height="22"/><path d="M101.9,39 L151.4,39" id="Shape" stroke="#000" stroke-width="0.675"/><path d="M107,41.5 L145.4,41.5" id="Shape" stroke="#000"/><rect id="Rectangle-path" stroke="#000" stroke-width="0.675" x="154" y="22" width="34.8" height="22"/><path d="M154,39 L188.8,39" id="Shape" stroke="#000" stroke-width="0.675"/><path d="M164,41.5 L178.9,41.5" id="Shape" stroke="#000"/><rect id="Rectangle-path" stroke="#000" stroke-width="0.675" x="191" y="22" width="14" height="22"/><path d="M191.4,39 L205.4,39" id="Shape" stroke="#000" stroke-width="0.675"/><path d="M201.5,41.5 L195.6,41.5" id="Shape" stroke="#000"/><rect id="Rectangle-path" stroke="#000" stroke-width="0.675" x="208" y="22" width="19" height="22"/><path d="M207.8,39 L226.8,39" id="Shape" stroke="#000" stroke-width="0.675"/><path d="M222.9,41.5 L212,41.5" id="Shape" stroke="#000"/><path d="M227.1,46.7 L227.1,175.3" id="Shape" stroke="#000" stroke-width="0.75"/><g transform="translate(57 24)" id="Rectangle-path" fill="#23516E"><rect x="0" y="0" width="0.8" height="0.8"/><rect x="1" y="0" width="4.8" height="0.8"/><rect x="0" y="1" width="0.8" height="0.8"/><rect x="1" y="1" width="4.8" height="0.8"/><rect x="0" y="3" width="0.8" height="0.8"/><rect x="1" y="3" width="4.8" height="0.8"/></g><g transform="translate(80 24)" id="Rectangle-path" fill="#23516E"><rect x="0" y="0" width="0.8" height="3.8"/><rect x="2" y="2" width="0.8" height="1.8"/><rect x="3" y="0" width="0.8" height="3.8"/><rect x="5" y="1" width="0.8" height="2.8"/></g><path d="M64.7,25.6 L74.1,25.6" id="Shape" stroke="#000"/><path d="M87.2,25.6 L96.7,25.6" id="Shape" stroke="#000"/><g transform="translate(103 24)" id="Rectangle-path" fill="#23516E"><rect x="0" y="3" width="0.8" height="0.8"/><rect x="2" y="2" width="0.8" height="1.8"/><rect x="3" y="1" width="0.8" height="2.8"/><rect x="4" y="0" width="0.8" height="3.8"/></g><g transform="translate(103 30)" id="Rectangle-path" fill="#23516E"><rect x="0" y="0" width="0.8" height="0.8"/><rect x="0" y="1" width="1.8" height="0.8"/><rect x="0" y="2" width="2.8" height="0.8"/><rect x="0" y="3" width="3.8" height="0.8"/></g><path d="M110.3,25.6 L121.7,25.6" id="Shape" stroke="#000"/><path d="M136.3,25.6 L147.7,25.6" id="Shape" stroke="#000"/><path d="M110.3,32 L121.7,32" id="Shape" stroke="#000"/><path d="M136.3,30 L147.7,30" id="Shape" stroke="#000"/><path d="M136.3,34.6 L147.7,34.6" id="Shape" stroke="#000"/><g transform="translate(131 28)" id="Oval" fill="#23516E"><circle cx="0.4" cy="3.4" r="0.4"/><circle cx="2.4" cy="2.4" r="0.4"/><circle cx="1.4" cy="1.4" r="0.4"/><circle cx="2.4" cy="1.4" r="0.4"/><circle cx="1.4" cy="0.4" r="0.4"/></g><g transform="translate(132 24)" fill="#23516E"><circle cx="1.4" cy="0.4" r="0.4"/><circle cx="1.4" cy="2.4" r="0.4"/><circle cx="0.4" cy="1.4" r="0.4"/><circle cx="1.4" cy="1.4" r="0.4"/></g><path d="M131.6,34 L134.3,34 L133.2,35 L133.2,36 L132.7,36 L132.7,35 L131.6,34 Z" id="Shape" fill="#23516E"/><rect id="Rectangle-path" stroke="#000" stroke-width="0.75" x="10" y="51" width="215" height="39.4"/><path d="M9.6,56.7 L224.6,56.7" id="Shape" stroke="#000" stroke-width="0.75"/><path d="M11.9,53.9 L34.8,53.9" id="Shape" stroke="#000"/><rect stroke="#000" stroke-width="0.75" x="10" y="93" width="215" height="78.8"/><path d="M9.6,98.7 L224.6,98.7" id="Shape" stroke="#000" stroke-width="0.75"/><path d="M11.9,96 L34.8,96" id="Shape" stroke="#000"/><path d="M100.9,98.7 L100.9,171.7" id="Shape" stroke="#000" stroke-width="0.25"/><path d="M178.4,98.7 L178.4,171.7" id="Shape" stroke="#000" stroke-width="0.25"/><path d="M9.6,105 L224.6,105" id="Shape" stroke="#000" stroke-width="0.25"/><path d="M9.6,110.2 L224.6,110.2" id="Shape" stroke="#000" stroke-width="0.25"/><path d="M9.6,115.4 L224.6,115.4" id="Shape" stroke="#000" stroke-width="0.25"/><path d="M9.6,120.6 L224.6,120.6" id="Shape" stroke="#000" stroke-width="0.25"/><path d="M9.6,125.9 L224.6,125.9" id="Shape" stroke="#000" stroke-width="0.25"/><path d="M9.6,131.1 L224.6,131.1" id="Shape" stroke="#000" stroke-width="0.25"/><path d="M9.6,136.3 L224.6,136.3" id="Shape" stroke="#000" stroke-width="0.25"/><path d="M9.6,141.5 L224.6,141.5" id="Shape" stroke="#000" stroke-width="0.25"/><path d="M9.6,146.7 L224.6,146.7" id="Shape" stroke="#000" stroke-width="0.25"/><path d="M9.6,151.9 L224.6,151.9" id="Shape" stroke="#000" stroke-width="0.25"/><path d="M9.6,157.2 L224.6,157.2" id="Shape" stroke="#000" stroke-width="0.25"/><path d="M9.6,162.4 L224.6,162.4" id="Shape" stroke="#000" stroke-width="0.25"/><path d="M9.6,167.6 L224.6,167.6" id="Shape" stroke="#000" stroke-width="0.25"/><path d="M11.9,101.8 L24.3,101.8" id="Shape" stroke="#000"/><path d="M11.9,107.6 L29.5,107.6" id="Shape" stroke="#000"/><path d="M11.9,112.8 L19.1,112.8" id="Shape" stroke="#000"/><path d="M11.9,118 L22.2,118" id="Shape" stroke="#000"/><path d="M11.9,123.3 L17,123.3" id="Shape" stroke="#000"/><path d="M11.9,128.5 L28.8,128.5" id="Shape" stroke="#000"/><path d="M11.9,133.7 L19.9,133.7" id="Shape" stroke="#000"/><path d="M11.9,138.9 L25.9,138.9" id="Shape" stroke="#000"/><path d="M11.9,144.1 L22.8,144.1" id="Shape" stroke="#000"/><path d="M11.9,149.3 L29.5,149.3" id="Shape" stroke="#000"/><path d="M11.9,154.6 L18.1,154.6" id="Shape" stroke="#000"/><path d="M11.9,159.8 L20.7,159.8" id="Shape" stroke="#000"/><path d="M11.9,165 L24.3,165" id="Shape" stroke="#000"/><path d="M103.4,101.8 L109.5,101.8" id="Shape" stroke="#000"/><path d="M181.1,101.8 L195,101.8" id="Shape" stroke="#000"/><path d="M103.4,107.6 L109.5,107.6" id="Shape" stroke="#000"/><path d="M103.4,112.8 L109.5,112.8" id="Shape" stroke="#000"/><path d="M103.4,118 L109.5,118" id="Shape" stroke="#000"/><path d="M103.4,123.3 L109.5,123.3" id="Shape" stroke="#000"/><path d="M103.4,128.5 L109.5,128.5" id="Shape" stroke="#000"/><path d="M103.4,133.7 L109.5,133.7" id="Shape" stroke="#000"/><path d="M103.4,138.9 L109.5,138.9" id="Shape" stroke="#000"/><path d="M103.4,144.1 L109.5,144.1" id="Shape" stroke="#000"/><path d="M103.4,149.3 L109.5,149.3" stroke="#000"/></g></g></svg>