<svg width="240px" height="185px" viewBox="0 0 240 185" version="1.1" xmlns="http://www.w3.org/2000/svg" xmlns:xlink="http://www.w3.org/1999/xlink"><title>app-icon-metric</title><desc>Created with Sketch.</desc><defs/><g transform="translate(2 2)" stroke="none" stroke-width="1" fill="none" fill-rule="evenodd"><circle id="Oval" fill="#000" cx="136.6" cy="64.6" r="1.6"/><circle id="Oval" fill="#000" cx="154.6" cy="76.6" r="1.6"/><circle id="Oval" fill="#000" cx="152.6" cy="92.6" r="1.6"/><circle id="Oval" fill="#000" cx="189.6" cy="92.6" r="1.6"/><circle id="Oval" fill="#000" cx="221.6" cy="99.6" r="1.6"/><circle id="Oval" fill="#000" cx="221.6" cy="70.6" r="1.6"/><circle id="Oval" fill="#000" cx="220.6" cy="106.6" r="1.6"/><circle id="Oval" fill="#000" cx="163.6" cy="134.6" r="1.6"/><circle id="Oval" fill="#000" cx="221.6" cy="153.6" r="1.6"/><circle id="Oval" fill="#000" cx="220.6" cy="160.6" r="1.6"/><circle id="Oval" fill="#000" cx="221.6" cy="121.6" r="1.6"/><circle id="Oval" fill="#000" cx="158.6" cy="142.6" r="1.6"/><rect id="Rectangle-path" stroke="#000" stroke-width="0.75" x="12" y="56" width="16.4" height="4.9"/><rect id="Rectangle-path" stroke="#000" stroke-width="0.75" x="134" y="124" width="79.5" height="4.9"/><rect id="Rectangle-path" stroke="#000" stroke-width="0.75" x="134" y="132" width="9.9" height="4.9"/><rect id="Rectangle-path" stroke="#000" stroke-width="0.75" x="145" y="132" width="14.7" height="4.9"/><rect id="Rectangle-path" stroke="#000" stroke-width="0.75" x="182" y="132" width="16.2" height="4.9"/><rect id="Rectangle-path" stroke="#000" stroke-width="0.75" x="10" y="50" width="119.1" height="122.8"/><rect id="Rectangle-path" stroke="#000" stroke-width="0.75" x="132" y="50" width="97.8" height="122.8"/><path d="M9.6,54.2 L128.5,54.2" id="Shape" stroke="#000" stroke-width="0.75"/><path d="M131.7,54.2 L229.2,54.2" id="Shape" stroke="#000" stroke-width="0.75"/><path d="M132.1,59 L229.2,59" id="Shape" stroke="#000" stroke-width="0.75"/><rect id="Rectangle-path" stroke="#000" stroke-width="0.75" x="12" y="63" width="113.5" height="107.1"/><path d="M14.7,91.8 L122.6,91.8" id="Shape" stroke="#000" stroke-width="0.25"/><path d="M19,89.5 L19,78.1" id="Shape" stroke="#23516E" stroke-width="3"/><path d="M24.6,89.5 L24.6,73.8" id="Shape" stroke="#23516E" stroke-width="3"/><path d="M30.1,89.5 L30.1,71.5" id="Shape" stroke="#23516E" stroke-width="3"/><path d="M35.6,89.5 L35.6,75.7" id="Shape" stroke="#23516E" stroke-width="3"/><path d="M41.1,89.5 L41.1,81.7" id="Shape" stroke="#23516E" stroke-width="3"/><path d="M46.7,89.5 L46.7,86.1" id="Shape" stroke="#23516E" stroke-width="3"/><path d="M52.2,89.5 L52.2,82.6" id="Shape" stroke="#23516E" stroke-width="3"/><path d="M57.7,89.5 L57.7,81.7" id="Shape" stroke="#23516E" stroke-width="3"/><path d="M63.2,89.5 L63.2,80.1" id="Shape" stroke="#23516E" stroke-width="3"/><path d="M68.8,89.5 L68.8,81.7" id="Shape" stroke="#23516E" stroke-width="3"/><path d="M74.3,89.5 L74.3,82.6" id="Shape" stroke="#23516E" stroke-width="3"/><path d="M79.8,89.5 L79.8,80.1" id="Shape" stroke="#23516E" stroke-width="3"/><path d="M85.3,89.5 L85.3,78.1" id="Shape" stroke="#23516E" stroke-width="3"/><path d="M90.9,89.5 L90.9,75.7" id="Shape" stroke="#23516E" stroke-width="3"/><path d="M96.4,89.5 L96.4,72.7" id="Shape" stroke="#23516E" stroke-width="3"/><path d="M101.9,89.5 L101.9,72.7" id="Shape" stroke="#23516E" stroke-width="3"/><path d="M107.5,89.5 L107.5,71.5" id="Shape" stroke="#23516E" stroke-width="3"/><path d="M113,89.5 L113,73" id="Shape" stroke="#23516E" stroke-width="3"/><path d="M118.5,89.5 L118.5,78.1" id="Shape" stroke="#23516E" stroke-width="3"/><path d="M14.7,125.7 L122.6,125.7" id="Shape" stroke="#000" stroke-width="0.25"/><path d="M19,123.5 L19,112" id="Shape" stroke="#23516E" stroke-width="3"/><path d="M24.6,123.5 L24.6,115.6" id="Shape" stroke="#23516E" stroke-width="3"/><path d="M30.1,123.5 L30.1,114" id="Shape" stroke="#23516E" stroke-width="3"/><path d="M35.6,123.5 L35.6,116.5" id="Shape" stroke="#23516E" stroke-width="3"/><path d="M41.1,123.5 L41.1,115.6" id="Shape" stroke="#23516E" stroke-width="3"/><path d="M46.7,123.5 L46.7,113.5" id="Shape" stroke="#23516E" stroke-width="3"/><path d="M52.2,123.5 L52.2,106.7" id="Shape" stroke="#23516E" stroke-width="3"/><path d="M57.7,123.5 L57.7,104.8" id="Shape" stroke="#23516E" stroke-width="3"/><path d="M63.2,123.5 L63.2,108.7" id="Shape" stroke="#23516E" stroke-width="3"/><path d="M68.8,123.5 L68.8,111" id="Shape" stroke="#23516E" stroke-width="3"/><path d="M74.3,123.5 L74.3,117.4" id="Shape" stroke="#23516E" stroke-width="3"/><path d="M79.8,123.5 L79.8,114" id="Shape" stroke="#23516E" stroke-width="3"/><path d="M85.3,123.5 L85.3,111.5" id="Shape" stroke="#23516E" stroke-width="3"/><path d="M90.9,123.5 L90.9,116.1" id="Shape" stroke="#23516E" stroke-width="3"/><path d="M96.4,123.5 L96.4,114" id="Shape" stroke="#23516E" stroke-width="3"/><path d="M101.9,123.5 L101.9,113.5" id="Shape" stroke="#23516E" stroke-width="3"/><path d="M107.5,123.5 L107.5,110.3" id="Shape" stroke="#23516E" stroke-width="3"/><path d="M113,123.5 L113,111" id="Shape" stroke="#23516E" stroke-width="3"/><path d="M118.5,123.5 L118.5,112" id="Shape" stroke="#23516E" stroke-width="3"/><path d="M14.7,159.6 L122.6,159.6" id="Shape" stroke="#000" stroke-width="0.25"/><path d="M19,157.4 L19,141.1" id="Shape" stroke="#23516E" stroke-width="3"/><path d="M24.6,157.4 L24.6,144.7" id="Shape" stroke="#23516E" stroke-width="3"/><path d="M30.1,157.4 L30.1,142.5" id="Shape" stroke="#23516E" stroke-width="3"/><path d="M35.6,157.4 L35.6,145.3" id="Shape" stroke="#23516E" stroke-width="3"/><path d="M41.1,157.4 L41.1,144.7" id="Shape" stroke="#23516E" stroke-width="3"/><path d="M46.7,157.4 L46.7,149.8" id="Shape" stroke="#23516E" stroke-width="3"/><path d="M52.2,157.4 L52.2,145.6" id="Shape" stroke="#23516E" stroke-width="3"/><path d="M57.7,157.4 L57.7,145.6" id="Shape" stroke="#23516E" stroke-width="3"/><path d="M63.2,157.4 L63.2,146.4" id="Shape" stroke="#23516E" stroke-width="3"/><path d="M68.8,157.4 L68.8,149.6" id="Shape" stroke="#23516E" stroke-width="3"/><path d="M74.3,157.4 L74.3,146.8" id="Shape" stroke="#23516E" stroke-width="3"/><path d="M79.8,157.4 L79.8,150.2" id="Shape" stroke="#23516E" stroke-width="3"/><path d="M85.3,157.4 L85.3,151.8" id="Shape" stroke="#23516E" stroke-width="3"/><path d="M90.9,157.4 L90.9,144.7" id="Shape" stroke="#23516E" stroke-width="3"/><path d="M96.4,157.4 L96.4,143.5" id="Shape" stroke="#23516E" stroke-width="3"/><path d="M101.9,157.4 L101.9,149" id="Shape" stroke="#23516E" stroke-width="3"/><path d="M107.5,157.4 L107.5,147.5" id="Shape" stroke="#23516E" stroke-width="3"/><path d="M113,157.4 L113,145.6" id="Shape" stroke="#23516E" stroke-width="3"/><path d="M118.5,157.4 L118.5,150.2" id="Shape" stroke="#23516E" stroke-width="3"/><path d="M229.2,68 L131.7,68" id="Shape" stroke="#000" stroke-width="0.75"/><path d="M225.9,68 L225.9,172.4" id="Shape" stroke="#000" stroke-width="0.75"/><path d="M225.9,143.8 L229.5,143.8" id="Shape" stroke="#000" stroke-width="0.75"/><path d="M131.7,103.4 L225.9,103.4" id="Shape" stroke="#000" stroke-width="0.75"/><path d="M131.7,73.6 L225.9,73.6" id="Shape" stroke="#000" stroke-width="0.75"/><path d="M131.7,108.9 L225.9,108.9" id="Shape" stroke="#000" stroke-width="0.75"/><path d="M131.7,118.1 L225.9,118.1" id="Shape" stroke="#000" stroke-width="0.75"/><path d="M136.5,103.4 L136.5,118.1" id="Shape" stroke="#000" stroke-width="0.25"/><path d="M157.4,103.4 L157.4,118.1" id="Shape" stroke="#000" stroke-width="0.25"/><path d="M188.9,103.4 L188.9,118.1" id="Shape" stroke="#000" stroke-width="0.25"/><path d="M215,103.4 L215,118.1" id="Shape" stroke="#000" stroke-width="0.25"/><path d="M131.7,113.4 L225.9,113.4" id="Shape" stroke="#000" stroke-width="0.25"/><path d="M131.7,157.6 L225.9,157.6" id="Shape" stroke="#000" stroke-width="0.75"/><path d="M131.7,163.2 L225.9,163.2" id="Shape" stroke="#000" stroke-width="0.75"/><path d="M131.7,172.4 L225.9,172.4" id="Shape" stroke="#000" stroke-width="0.75"/><path d="M136.5,157.6 L136.5,172.4" id="Shape" stroke="#000" stroke-width="0.25"/><path d="M157.4,157.6 L157.4,172.4" id="Shape" stroke="#000" stroke-width="0.25"/><path d="M188.9,157.6 L188.9,172.4" id="Shape" stroke="#000" stroke-width="0.25"/><path d="M215,157.6 L215,172.4" id="Shape" stroke="#000" stroke-width="0.25"/><path d="M131.7,167.7 L225.9,167.7" id="Shape" stroke="#000" stroke-width="0.25"/><path d="M131.7,139.4 L225.9,139.4" id="Shape" stroke="#000" stroke-width="0.75"/><path d="M131.7,145 L225.9,145" id="Shape" stroke="#000" stroke-width="0.75"/><path d="M136.5,139.4 L136.5,149.4" id="Shape" stroke="#000" stroke-width="0.25"/><path d="M131.7,149.5 L225.9,149.5" id="Shape" stroke="#000" stroke-width="0.75"/><path d="M133.4,52.1 L156.4,52.1" id="Shape" stroke="#000"/><path d="M133.4,56.8 L156.4,56.8" id="Shape" stroke="#000"/><path d="M133.4,70.8 L156.4,70.8" id="Shape" stroke="#000"/><path d="M7.2,46.9 L7.2,175.5" id="Shape" stroke="#000" stroke-width="0.75"/><path d="M2.5,175.5 L232.1,175.5" id="Shape" stroke="#000" stroke-width="0.75"/><circle id="Oval" fill="#000" cx="2.5" cy="2.5" r="2.5"/><circle id="Oval" fill="#000" cx="232.5" cy="2.5" r="2.5"/><circle id="Oval" fill="#000" cx="2.5" cy="179.5" r="2.5"/><circle id="Oval" fill="#000" cx="232.5" cy="179.5" r="2.5"/><rect id="Rectangle-path" stroke="#000" stroke-width="0.75" x="3" y="3" width="229.1" height="176.5"/><path d="M2.9,12.7 C4.2,14.3 6.1,15.3 8.3,15.3 C11.8,15.3 14.7,12.6 15.2,9.2 L232.1,9.2" id="Shape" stroke="#000" stroke-width="0.675"/><circle id="Oval" fill="#000" cx="8.6" cy="8.6" r="3.6"/><circle id="Oval" fill="#000" cx="18.6" cy="5.6" r="1.6"/><circle id="Oval" fill="#000" cx="24.6" cy="5.6" r="1.6"/><circle id="Oval" fill="#000" cx="33.6" cy="5.6" r="1.6"/><circle id="Oval" fill="#000" cx="39.6" cy="5.6" r="1.6"/><circle id="Oval" fill="#000" cx="45.6" cy="5.6" r="1.6"/><circle id="Oval" fill="#BCBEC0" cx="217.6" cy="5.6" r="1.6"/><circle id="Oval" fill="#000" cx="83.6" cy="27.6" r="1.6"/><circle id="Oval" fill="#000" cx="83.6" cy="33.6" r="1.6"/><circle id="Oval" fill="#BCBEC0" cx="222.6" cy="5.6" r="1.6"/><circle id="Oval" fill="#BCBEC0" cx="228.6" cy="5.6" r="1.6"/><path d="M2.9,19.5 L15.7,19.5 L15.7,15.3 L26.7,15.3 L26.7,19.5 L29.9,19.5 L29.9,15.3 L50.8,15.3 L50.8,19.5 L53.8,19.5 L53.8,15.3 L64.4,15.3 L64.4,19.5 L232.1,19.5" id="Shape" stroke="#000" stroke-width="0.675"/><path d="M2.9,46.9 L232.1,46.9" id="Shape" stroke="#000" stroke-width="0.675"/><rect id="Rectangle-path" stroke="#000" stroke-width="0.675" x="6" y="22" width="72" height="22"/><rect id="Rectangle-path" stroke="#000" stroke-width="0.675" x="80" y="22" width="34.8" height="22"/><rect id="Rectangle-path" stroke="#000" stroke-width="0.675" x="117" y="22" width="34.8" height="22"/><rect id="Rectangle-path" stroke="#000" stroke-width="0.675" x="154" y="22" width="47.4" height="22"/><path d="M5.7,39.2 L77.7,39.2" id="Shape" stroke="#000" stroke-width="0.675"/><path d="M80.1,39.2 L114.6,39.2" id="Shape" stroke="#000" stroke-width="0.675"/><path d="M117.1,39.2 L151.9,39.2" id="Shape" stroke="#000" stroke-width="0.675"/><path d="M154.3,39.2 L201.7,39.2" id="Shape" stroke="#000" stroke-width="0.675"/><g transform="translate(24 25)" stroke="#000" stroke-width="0.75"><rect id="Rectangle-path" x="0" y="0" width="35.5" height="4.9"/><path d="M32.2,-0.4 L32.2,4.6" id="Shape"/></g><g transform="translate(24 31)" stroke="#000" stroke-width="0.75"><rect x="0" y="0" width="35.5" height="4.9"/><path d="M32.2,0.4 L32.2,5.4" id="Shape"/></g><path d="M17.8,17.4 L24.6,17.4" id="Shape" stroke="#000"/><path d="M31.5,17.4 L49,17.4" id="Shape" stroke="#000"/><path d="M55.6,17.4 L62.6,17.4" id="Shape" stroke="#000"/><path d="M8.3,27.1 L20.2,27.1" id="Shape" stroke="#000"/><path d="M8.3,33.9 L22.3,33.9" id="Shape" stroke="#000"/><path d="M87,27.1 L107.6,27.1" id="Shape" stroke="#000"/><circle id="Oval" fill="#000" cx="123.6" cy="27.6" r="1.6"/><path d="M126.6,27.8 L147.2,27.8" id="Shape" stroke="#000"/><circle fill="#000" cx="167.6" cy="27.6" r="1.6"/><path d="M170.6,27.8 L191.2,27.8" id="Shape" stroke="#000"/><path d="M87,33.9 L110.8,33.9" id="Shape" stroke="#000"/><path d="M28.7,41.6 L51.6,41.6" id="Shape" stroke="#000"/><path d="M87.9,41.6 L102.9,41.6" id="Shape" stroke="#000"/><path d="M127.1,41.6 L142,41.6" id="Shape" stroke="#000"/><path d="M170.5,41.6 L185.5,41.6" id="Shape" stroke="#000"/><path d="M139.9,64.4 L154.9,64.4" id="Shape" stroke="#000"/><path d="M138.1,106.2 L155.3,106.2" id="Shape" stroke="#000"/><path d="M164.1,106.2 L181.2,106.2" id="Shape" stroke="#000"/><path d="M193.1,106.2 L210.2,106.2" id="Shape" stroke="#000"/><path d="M138.1,160.4 L155.3,160.4" id="Shape" stroke="#000"/><path d="M164.1,160.4 L181.2,160.4" id="Shape" stroke="#000"/><path d="M193.1,160.4 L210.2,160.4" id="Shape" stroke="#000"/><path d="M133.8,121.7 L145.8,121.7" id="Shape" stroke="#000"/><path d="M135.4,134.2 L142,134.2" id="Shape" stroke="#000"/><path d="M147,134.2 L153.6,134.2" id="Shape" stroke="#000"/><path d="M166.9,134.2 L179.9,134.2" id="Shape" stroke="#000"/><path d="M185.2,134.2 L194.5,134.2" id="Shape" stroke="#000"/><path d="M138.1,142.5 L155.3,142.5" id="Shape" stroke="#000"/><path d="M133.4,76.1 L147.4,76.1" id="Shape" stroke="#000"/><path d="M133.4,99.4 L147.4,99.4" id="Shape" stroke="#000"/><path d="M193.5,92.5 L203.4,92.5" id="Shape" stroke="#000"/><path d="M133.4,83.2 L157.9,83.2" id="Shape" stroke="#000"/><path d="M157.2,92.5 L181.7,92.5" stroke="#000"/></g></svg>