<svg width="240px" height="185px" viewBox="0 0 240 185" version="1.1" xmlns="http://www.w3.org/2000/svg" xmlns:xlink="http://www.w3.org/1999/xlink"><title>app-icon-dateset</title><desc>Created with Sketch.</desc><defs/><g transform="translate(2 2)" stroke="none" stroke-width="1" fill="none" fill-rule="evenodd"><path d="M6.6,46.4 L6.6,175" id="Shape" stroke="#000" stroke-width="0.75"/><path d="M1.9,174.8 L231.4,174.8" id="Shape" stroke="#000" stroke-width="0.75"/><circle id="Oval" fill="#000" cx="2.5" cy="2.5" r="2.5"/><circle id="Oval" fill="#000" cx="231.5" cy="2.5" r="2.5"/><circle id="Oval" fill="#000" cx="2.5" cy="179.5" r="2.5"/><circle id="Oval" fill="#000" cx="231.5" cy="179.5" r="2.5"/><rect id="Rectangle-path" stroke="#000" stroke-width="0.75" x="2" y="3" width="229.1" height="176.5"/><path d="M2.3,12.5 C3.6,14.1 5.5,15.1 7.7,15.1 C11.2,15.1 14.1,12.4 14.6,9 L231.5,9" id="Shape" stroke="#000" stroke-width="0.675"/><circle id="Oval" fill="#000" cx="7.6" cy="8.6" r="3.6"/><circle id="Oval" fill="#000" cx="17.6" cy="5.6" r="1.6"/><circle id="Oval" fill="#000" cx="23.6" cy="5.6" r="1.6"/><circle id="Oval" fill="#000" cx="32.6" cy="5.6" r="1.6"/><circle id="Oval" fill="#000" cx="38.6" cy="5.6" r="1.6"/><circle id="Oval" fill="#000" cx="45.6" cy="5.6" r="1.6"/><circle id="Oval" fill="#BCBEC0" cx="216.6" cy="5.6" r="1.6"/><circle id="Oval" fill="#000" cx="83.6" cy="26.6" r="1.6"/><circle id="Oval" fill="#000" cx="83.6" cy="33.6" r="1.6"/><circle id="Oval" fill="#BCBEC0" cx="222.6" cy="5.6" r="1.6"/><circle id="Oval" fill="#BCBEC0" cx="227.6" cy="5.6" r="1.6"/><path d="M2.3,19.3 L15.1,19.3 L15.1,15.1 L26.1,15.1 L26.1,19.3 L29.2,19.3 L29.2,15.1 L50.2,15.1 L50.2,19.3 L53.2,19.3 L53.2,15.1 L63.8,15.1 L63.8,19.3 L231.4,19.3" id="Shape" stroke="#000" stroke-width="0.675"/><path d="M2.3,46.7 L231.4,46.7" id="Shape" stroke="#000" stroke-width="0.675"/><rect id="Rectangle-path" stroke="#000" stroke-width="0.675" x="5" y="22" width="72" height="22"/><rect id="Rectangle-path" stroke="#000" stroke-width="0.675" x="79" y="22" width="34.8" height="22"/><rect id="Rectangle-path" stroke="#000" stroke-width="0.675" x="116" y="22" width="34.8" height="22"/><rect id="Rectangle-path" stroke="#000" stroke-width="0.675" x="154" y="22" width="47.4" height="22"/><path d="M5.1,39 L77,39" id="Shape" stroke="#000" stroke-width="0.675"/><path d="M79.5,39 L114,39" id="Shape" stroke="#000" stroke-width="0.675"/><path d="M116.4,39 L151.2,39" id="Shape" stroke="#000" stroke-width="0.675"/><path d="M153.7,39 L201,39" id="Shape" stroke="#000" stroke-width="0.675"/><g transform="translate(23 25)" stroke="#000" stroke-width="0.75"><rect id="Rectangle-path" x="0" y="0" width="35.5" height="4.9"/><path d="M32.6,-0.5 L32.6,4.4" id="Shape"/></g><g transform="translate(23 31)" stroke="#000" stroke-width="0.75"><rect id="Rectangle-path" x="0" y="0" width="35.5" height="4.9"/><path d="M32.6,0.2 L32.6,5.2" id="Shape"/></g><rect id="Rectangle-path" stroke="#000" stroke-width="0.75" x="40" y="80" width="17.8" height="4.9"/><rect id="Rectangle-path" stroke="#000" stroke-width="0.75" x="59" y="80" width="27.8" height="4.9"/><rect id="Rectangle-path" stroke="#000" stroke-width="0.75" x="103" y="90" width="36.4" height="4.9"/><rect id="Rectangle-path" stroke="#000" stroke-width="0.75" x="89" y="80" width="17.8" height="4.9"/><rect id="Rectangle-path" stroke="#000" stroke-width="0.75" x="108" y="80" width="27.8" height="4.9"/><path d="M17.1,17.2 L23.9,17.2" id="Shape" stroke="#000"/><path d="M30.9,17.2 L48.4,17.2" id="Shape" stroke="#000"/><path d="M55,17.2 L62,17.2" id="Shape" stroke="#000"/><path d="M7.7,26.9 L19.6,26.9" id="Shape" stroke="#000"/><path d="M7.7,33.7 L21.7,33.7" id="Shape" stroke="#000"/><path d="M86.4,26.9 L107,26.9" id="Shape" stroke="#000"/><circle id="Oval" fill="#000" cx="122.6" cy="27.6" r="1.6"/><path d="M125.9,27.6 L146.6,27.6" id="Shape" stroke="#000"/><circle id="Oval" fill="#000" cx="122.6" cy="33.6" r="1.6"/><path d="M125.9,33.7 L146.6,33.7" id="Shape" stroke="#000"/><circle id="Oval" fill="#000" cx="157.6" cy="25.6" r="1.6"/><path d="M161.3,25.4 L170.4,25.4" id="Shape" stroke="#000"/><circle id="Oval" fill="#000" cx="157.6" cy="30.6" r="1.6"/><path d="M161.3,30.4 L170.4,30.4" id="Shape" stroke="#000"/><circle id="Oval" fill="#000" cx="157.6" cy="35.6" r="1.6"/><path d="M161.3,35.4 L170.4,35.4" id="Shape" stroke="#000"/><circle id="Oval" fill="#000" cx="183.6" cy="25.6" r="1.6"/><path d="M186.4,25.4 L195.6,25.4" id="Shape" stroke="#000"/><circle id="Oval" fill="#000" cx="183.6" cy="30.6" r="1.6"/><path d="M186.4,30.4 L195.6,30.4" id="Shape" stroke="#000"/><circle fill="#000" cx="183.6" cy="35.6" r="1.6"/><path d="M186.4,35.4 L195.6,35.4" id="Shape" stroke="#000"/><path d="M86.4,33.7 L110.1,33.7" id="Shape" stroke="#000"/><path d="M28.1,41.5 L51,41.5" id="Shape" stroke="#000"/><path d="M87.2,41.5 L102.3,41.5" id="Shape" stroke="#000"/><path d="M126.4,41.5 L141.4,41.5" id="Shape" stroke="#000"/><path d="M169.9,41.5 L184.8,41.5" id="Shape" stroke="#000"/><rect id="Rectangle-path" stroke="#000" stroke-width="0.75" x="9" y="53" width="220.1" height="23.9"/><path d="M8.8,60.9 L229.1,60.9" id="Shape" stroke="#000" stroke-width="0.75"/><path d="M11.1,56.9 L34.1,56.9" id="Shape" stroke="#000"/><rect id="Rectangle-path" stroke="#000" stroke-width="0.75" x="9" y="78" width="220.1" height="93.9"/><path d="M8.8,86.3 L229.1,86.3" id="Shape" stroke="#000" stroke-width="0.75"/><path d="M11.1,82.2 L34.1,82.2" id="Shape" stroke="#000"/><path d="M97.4,92.6 C98.1,93.2 98.8,93.9 99.4,94.5 L98.1,94.5 L95.6,92.1 L98.1,89.7 L99.4,89.7 L97.3,91.6 L100.7,91.6 L100.7,92.5 L97.4,92.5 L97.4,92.6 Z" id="Shape" fill="#000"/><path d="M140.6,92.6 L140.6,91.7 L144,91.7 L141.9,89.8 L143.2,89.8 L145.7,92.2 L143.2,94.6 L142,94.6 C142.7,94 143.4,93.3 144,92.7 L140.6,92.7 L140.6,92.6 Z" id="Shape" fill="#000"/><g transform="translate(11 99)" stroke="#000"><rect id="Rectangle-path" stroke-width="0.75" x="0" y="0" width="106.4" height="70.5"/><path d="M0.1,6.1 L106.1,6.1" id="Shape" stroke-width="0.75"/><path d="M25.5,-0.2 L25.5,70.2" id="Shape" stroke-width="0.25"/><path d="M0.1,11.9 L106.5,11.9" id="Shape" stroke-width="0.25"/><path d="M0.1,16.9 L106.5,16.9" id="Shape" stroke-width="0.25"/><path d="M0.1,21.9 L106.5,21.9" id="Shape" stroke-width="0.25"/><path d="M0.1,26.9 L106.5,26.9" id="Shape" stroke-width="0.25"/><path d="M0.1,31.9 L106.5,31.9" id="Shape" stroke-width="0.25"/><path d="M0.1,36.9 L106.5,36.9" id="Shape" stroke-width="0.25"/><path d="M0.1,41.9 L106.5,41.9" id="Shape" stroke-width="0.25"/><path d="M0.1,47 L106.5,47" id="Shape" stroke-width="0.25"/><path d="M0.1,52 L106.5,52" id="Shape" stroke-width="0.25"/><path d="M0.1,57 L106.5,57" id="Shape" stroke-width="0.25"/><path d="M0.1,62 L106.5,62" id="Shape" stroke-width="0.25"/><path d="M0.1,67 L106.5,67" id="Shape" stroke-width="0.25"/><path d="M5.3,3 L21.5,3" id="Shape"/><path d="M5.3,9 L21.5,9" id="Shape"/><path d="M5.3,14.3 L21.5,14.3" id="Shape"/><path d="M5.3,19.5 L21.5,19.5" id="Shape"/><path d="M5.3,24.3 L21.5,24.3" id="Shape"/><path d="M5.3,29.6 L21.5,29.6" id="Shape"/><path d="M5.3,34.5 L21.5,34.5" id="Shape"/><path d="M5.3,39.5 L21.5,39.5" id="Shape"/><path d="M5.3,44.6 L21.5,44.6" id="Shape"/><path d="M5.3,49.8 L21.5,49.8" id="Shape"/><path d="M5.3,54.8 L21.5,54.8" id="Shape"/><path d="M5.3,59.4 L21.5,59.4" id="Shape"/><path d="M5.3,64.5 L21.5,64.5" id="Shape"/><path d="M28.9,9 L103.2,9" id="Shape" stroke-dasharray="1,2"/><path d="M28.9,14.3 L103.2,14.3" id="Shape" stroke-dasharray="1,2"/><path d="M28.9,19.5 L103.2,19.5" id="Shape" stroke-dasharray="1,2"/><path d="M28.9,24.3 L103.2,24.3" id="Shape" stroke-dasharray="1,2"/><path d="M28.9,29.6 L103.2,29.6" id="Shape" stroke-dasharray="1,2"/><path d="M28.9,34.5 L103.2,34.5" id="Shape" stroke-dasharray="1,2"/><path d="M28.9,39.5 L103.2,39.5" id="Shape" stroke-dasharray="1,2"/><path d="M28.9,44.6 L103.2,44.6" id="Shape" stroke-dasharray="1,2"/><path d="M28.9,49.8 L103.2,49.8" id="Shape" stroke-dasharray="1,2"/><path d="M28.9,54.8 L103.2,54.8" id="Shape" stroke-dasharray="1,2"/><path d="M28.9,59.4 L103.2,59.4" id="Shape" stroke-dasharray="1,2"/><path d="M28.9,64.5 L103.2,64.5" id="Shape" stroke-dasharray="1,2"/><path d="M28.9,3 L45.1,3" id="Shape"/></g><g transform="translate(120 99)" stroke="#000"><rect stroke-width="0.75" x="0" y="0" width="106.4" height="70.5"/><path d="M-0.1,6.1 L106,6.1" id="Shape" stroke-width="0.75"/><path d="M25.3,-0.2 L25.3,70.2" id="Shape" stroke-width="0.25"/><path d="M-0.1,11.9 L106.4,11.9" id="Shape" stroke-width="0.25"/><path d="M-0.1,16.9 L106.4,16.9" id="Shape" stroke-width="0.25"/><path d="M-0.1,21.9 L106.4,21.9" id="Shape" stroke-width="0.25"/><path d="M-0.1,26.9 L106.4,26.9" id="Shape" stroke-width="0.25"/><path d="M-0.1,31.9 L106.4,31.9" id="Shape" stroke-width="0.25"/><path d="M-0.1,36.9 L106.4,36.9" id="Shape" stroke-width="0.25"/><path d="M-0.1,41.9 L106.4,41.9" id="Shape" stroke-width="0.25"/><path d="M-0.1,47 L106.4,47" id="Shape" stroke-width="0.25"/><path d="M-0.1,52 L106.4,52" id="Shape" stroke-width="0.25"/><path d="M-0.1,57 L106.4,57" id="Shape" stroke-width="0.25"/><path d="M-0.1,62 L106.4,62" id="Shape" stroke-width="0.25"/><path d="M-0.1,67 L106.4,67" id="Shape" stroke-width="0.25"/><path d="M5.2,3 L21.3,3" id="Shape"/><path d="M5.2,9 L21.3,9" id="Shape"/><path d="M5.2,14.3 L21.3,14.3" id="Shape"/><path d="M5.2,19.5 L21.3,19.5" id="Shape"/><path d="M5.2,24.3 L21.3,24.3" id="Shape"/><path d="M5.2,29.6 L21.3,29.6" id="Shape"/><path d="M5.2,34.5 L21.3,34.5" id="Shape"/><path d="M5.2,39.5 L21.3,39.5" id="Shape"/><path d="M5.2,44.6 L21.3,44.6" id="Shape"/><path d="M5.2,49.8 L21.3,49.8" id="Shape"/><path d="M5.2,54.8 L21.3,54.8" id="Shape"/><path d="M5.2,59.4 L21.3,59.4" id="Shape"/><path d="M5.2,64.5 L21.3,64.5" id="Shape"/><path d="M28.8,9 L103.1,9" id="Shape" stroke-dasharray="1,2"/><path d="M28.8,14.3 L103.1,14.3" id="Shape" stroke-dasharray="1,2"/><path d="M28.8,19.5 L103.1,19.5" id="Shape" stroke-dasharray="1,2"/><path d="M28.8,24.3 L103.1,24.3" id="Shape" stroke-dasharray="1,2"/><path d="M28.8,29.6 L103.1,29.6" id="Shape" stroke-dasharray="1,2"/><path d="M28.8,34.5 L103.1,34.5" id="Shape" stroke-dasharray="1,2"/><path d="M28.8,39.5 L103.1,39.5" id="Shape" stroke-dasharray="1,2"/><path d="M28.8,44.6 L103.1,44.6" id="Shape" stroke-dasharray="1,2"/><path d="M28.8,49.8 L103.1,49.8" id="Shape" stroke-dasharray="1,2"/><path d="M28.8,54.8 L103.1,54.8" id="Shape" stroke-dasharray="1,2"/><path d="M28.8,59.4 L103.1,59.4" id="Shape" stroke-dasharray="1,2"/><path d="M28.8,64.5 L103.1,64.5" id="Shape" stroke-dasharray="1,2"/><path d="M28.8,3 L44.9,3"/></g></g></svg>