<svg width="65px" height="45px" viewBox="0 0 65 45" version="1.1" xmlns="http://www.w3.org/2000/svg" xmlns:xlink="http://www.w3.org/1999/xlink"><title>icon-extensible</title><desc>Created with Sketch.</desc><defs/><g transform="translate(11 2)" stroke="none" stroke-width="1" fill="none" fill-rule="evenodd"><path d="M15.3,14.8 L2.2,14.8 L2.2,1.7 L15.3,1.7 L15.3,14.8 L15.3,14.8 Z M2.9,14 L14.5,14 L14.5,2.4 L2.9,2.4 L2.9,14 L2.9,14 Z" id="Shape" fill="#23516E"/><path d="M38.9,20.4 L20.1,20.4 L20.1,1.6 L38.9,1.6 L38.9,20.4 L38.9,20.4 Z M20.9,19.6 L38.2,19.6 L38.2,2.3 L20.9,2.3 L20.9,19.6 L20.9,19.6 Z" id="Shape" fill="#000"/><path d="M20.9,38.2 L2.1,38.2 L2.1,19.4 L20.9,19.4 L20.9,38.2 L20.9,38.2 Z M2.9,37.5 L20.2,37.5 L20.2,20.2 L2.9,20.2 L2.9,37.5 L2.9,37.5 Z" id="Shape" fill="#000"/><path d="M38.9,38.2 L20.1,38.2 L20.1,19.4 L38.9,19.4 L38.9,38.2 L38.9,38.2 Z M20.9,37.5 L38.2,37.5 L38.2,20.2 L20.9,20.2 L20.9,37.5 L20.9,37.5 Z" fill="#000"/><circle id="Oval" fill="#000" cx="20.5" cy="2.5" r="2.5"/><circle id="Oval" fill="#000" cx="38.5" cy="2.5" r="2.5"/><circle id="Oval" fill="#000" cx="20.5" cy="19.5" r="2.5"/><circle id="Oval" fill="#000" cx="38.5" cy="19.5" r="2.5"/><circle id="Oval" fill="#000" cx="20.5" cy="37.5" r="2.5"/><circle id="Oval" fill="#000" cx="2.5" cy="19.5" r="2.5"/><circle id="Oval" fill="#000" cx="2.5" cy="37.5" r="2.5"/><circle fill="#000" cx="38.5" cy="37.5" r="2.5"/></g></svg>