<svg width="66px" height="46px" viewBox="0 0 66 46" version="1.1" xmlns="http://www.w3.org/2000/svg" xmlns:xlink="http://www.w3.org/1999/xlink"><title>icon-data-modeling</title><desc>Created with Sketch.</desc><defs/><g transform="translate(18 4)" stroke="none" stroke-width="1" fill="none" fill-rule="evenodd"><path d="M2.1,11.3 L31.6,11.3 L17,37.1 L2.1,11.3 Z" id="Shape" stroke="#23516E" stroke-width="0.75"/><g stroke="#000" stroke-width="0.75"><path d="M0.1,8.3 L15,-0.3 L29.9,8.3 L29.9,25.5 L15,34.1 L0.1,25.5 L0.1,8.3 Z" transform="translate(2 3)"/><path d="M0.1,8.3 L15,16.9 L29.9,8.3" transform="translate(2 3)"/><path d="M15,16.9 L15,33.6" transform="translate(2 3)"/></g><circle id="Oval" fill="#000" cx="2.5" cy="11.5" r="2.5"/><circle id="Oval" fill="#000" cx="17.5" cy="2.5" r="2.5"/><circle id="Oval" fill="#000" cx="31.5" cy="11.5" r="2.5"/><circle id="Oval" fill="#000" cx="31.5" cy="28.5" r="2.5"/><circle id="Oval" fill="#000" cx="17.5" cy="36.5" r="2.5"/><circle id="Oval" fill="#000" cx="2.5" cy="29.5" r="2.5"/><circle fill="#000" cx="17.5" cy="19.5" r="2.5"/></g></svg>