<svg width="77px" height="77px" viewBox="0 0 77 77" version="1.1" xmlns="http://www.w3.org/2000/svg" xmlns:xlink="http://www.w3.org/1999/xlink"><title>metropolis-overview-2</title><desc>Created with Sketch.</desc><defs/><g transform="translate(18 3)" stroke="none" stroke-width="1" fill="none" fill-rule="evenodd"><g stroke-width="0.75"><path d="M-0.1,37.2 L18,26.8 L36,37.2 L36,58 L18,68.4 L-0.1,58 L-0.1,37.2 Z" stroke="#23526E" transform="translate(2 2)"/><path d="M18.2,68.5 L18.2,47.7 L36.3,37.3" stroke="#23526E" transform="translate(2 2)"/><path d="M18.2,47.7 L-0.1,37.2" stroke="#23526E" transform="translate(2 2)"/><path d="M-0.1,10.2 L18,-0.2 L36,10.2 L36,31 L18,41.4 L-0.1,31 L-0.1,10.2 Z" stroke="#010101" transform="translate(2 2)"/><path d="M18.2,41.5 L18.2,20.7 L36.3,10.3" stroke="#010101" transform="translate(2 2)"/><path d="M18.2,20.7 L-0.1,10.2" stroke="#010101" transform="translate(2 2)"/></g><circle id="Oval" fill="#010101" cx="20" cy="3" r="3"/><circle id="Oval" fill="#010101" cx="3" cy="13" r="3"/><circle id="Oval" fill="#010101" cx="20" cy="43" r="3"/><circle fill="#23526E" cx="3" cy="59" r="3"/></g></svg>