<svg width="77px" height="77px" viewBox="0 0 77 77" version="1.1" xmlns="http://www.w3.org/2000/svg" xmlns:xlink="http://www.w3.org/1999/xlink"><title>metropolis-overview-3</title><desc>Created with Sketch.</desc><defs/><g transform="translate(6 3)" stroke="none" stroke-width="1" fill="none" fill-rule="evenodd"><path d="M60.1,40.1 L41.6,50.9 L23,40.1 L23,18.7 L41.6,8" id="Shape" stroke="#23526E" stroke-width="0.75"/><path d="M60.1,32.8 L47.7,40 L35.3,32.8 L35.3,18.5 L47.7,11.4" id="Shape" stroke="#010101" stroke-width="0.75"/><path d="M3,51.6 L35.3,32.8" id="Shape" stroke="#010101" stroke-width="0.75"/><path d="M35.3,18.5 L3,18.6" id="Shape" stroke="#010101" stroke-width="0.75"/><circle id="Oval" fill="#010101" cx="31" cy="3" r="3"/><circle id="Oval" fill="#010101" cx="32" cy="68" r="3"/><circle id="Oval" fill="#010101" cx="48" cy="40" r="3"/><circle id="Oval" fill="#010101" cx="35" cy="33" r="3"/><circle id="Oval" fill="#010101" cx="36" cy="19" r="3"/><circle id="Oval" fill="#010101" cx="3" cy="51" r="3"/><circle id="Oval" fill="#23526E" cx="23" cy="40" r="3"/><circle id="Oval" fill="#23526E" cx="24" cy="19" r="3"/><circle id="Oval" fill="#23526E" cx="42" cy="51" r="3"/><circle fill="#010101" cx="3" cy="19" r="3"/><path d="M3,18.6 L31.6,2.1 L60.1,18.6 L60.1,51.6 L31.6,68 L3,51.6 L3,18.6 Z" stroke="#010101" stroke-width="0.75"/></g></svg>