<svg width="9px" height="10px" viewBox="0 0 9 10" version="1.1" xmlns="http://www.w3.org/2000/svg" xmlns:xlink="http://www.w3.org/1999/xlink"><title>bullet@1x</title><desc>Created with Sketch.</desc><defs/><g fill="#23516E" stroke="none" stroke-width="1" fill-rule="evenodd"><path d="M7.50060704,4.5 C8.3286119,4.5 9,5.1723301 9,6.00121359 C9,6.8288835 8.3286119,7.5 7.50060704,7.5 C6.6713881,7.5 6,6.8288835 6,6.00121359 C6,5.1723301 6.6713881,4.5 7.50060704,4.5" transform=""/><path d="M1.50060655,0 C2.32915487,0 3,0.67178658 3,1.5 C3,2.32942603 2.32915487,3 1.50060655,3 C0.670845127,3 0,2.32942603 0,1.5 C0,0.67178658 0.670845127,0 1.50060655,0" transform=""/><path d="M1.5,7 C2.3276699,7 3,7.6713881 3,8.49939296 C3,9.3286119 2.3276699,10 1.5,10 C0.671116505,10 0,9.3286119 0,8.49939296 C0,7.6713881 0.671116505,7 1.5,7" transform=""/></g></svg>