<svg width="17px" height="14px" viewBox="0 0 17 14" version="1.1" xmlns="http://www.w3.org/2000/svg" xmlns:xlink="http://www.w3.org/1999/xlink"><title>Shape 3</title><desc>Created with Sketch.</desc><defs/><path d="M28.0621277,23.5 L28.0722074,23.49 L21.0163564,11.49 L21.0062766,11.5 C20.8349202,11.2 20.5224468,11 20.1494947,11 C19.7765426,11 19.4741489,11.2 19.2927128,11.5 L19.282633,11.49 L12.2267819,23.49 L12.2368617,23.5 C12.1461436,23.65 12.0856649,23.81 12.0856649,24 C12.0856649,24.55 12.5392553,25 13.0936436,25 L27.2053457,25 C27.759734,25 28.2133245,24.55 28.2133245,24 C28.2133245,23.81 28.1528457,23.65 28.0621277,23.5 L28.0621277,23.5 Z M21.1574734,22.99 L19.141516,22.99 L19.141516,20.99 L21.1574734,20.99 L21.1574734,22.99 L21.1574734,22.99 Z M21.1574734,19.99 L19.141516,19.99 L19.141516,14.99 L21.1574734,14.99 L21.1574734,19.99 L21.1574734,19.99 Z" transform="translate(-12 -11)" fill="#738694" stroke="none" stroke-width="1" fill-rule="evenodd"/></svg>