<svg width="85px" height="58px" viewBox="0 0 85 58" version="1.1" xmlns="http://www.w3.org/2000/svg" xmlns:xlink="http://www.w3.org/1999/xlink"><title>college-preview-1</title><desc>Created with Sketch.</desc><defs/><path d="M41.0512821,42.2250194 L37.1325621,46.1365419 L37.1325621,46.1365419 C37.252002,46.3579697 37.3196581,46.6105447 37.3196581,46.8786585 C37.3196581,47.7545687 36.5975738,48.4646341 35.7068376,48.4646341 C34.8161014,48.4646341 34.0940171,47.7545687 34.0940171,46.8786585 C34.0940171,46.0027484 34.8161014,45.2926829 35.7068376,45.2926829 C35.8148912,45.2926829 35.9204629,45.303132 36.0225649,45.3230587 L40.3212017,41.0323171 L31.5599244,41.0323171 C31.2863484,41.7689881 30.5674227,42.294878 29.7235897,42.294878 C28.6442271,42.294878 27.7692308,41.4344458 27.7692308,40.3730488 C27.7692308,39.3116518 28.6442271,38.4512195 29.7235897,38.4512195 C30.5602811,38.4512195 31.2741705,38.9682456 31.5528828,39.695122 L40.3691078,39.695122 L36.4967035,35.8227176 C36.2632555,35.9519134 35.9937986,36.0256098 35.7068376,36.0256098 C34.8161014,36.0256098 34.0940171,35.3155443 34.0940171,34.4396341 C34.0940171,33.563724 34.8161014,32.8536585 35.7068376,32.8536585 C36.5975738,32.8536585 37.3196581,33.563724 37.3196581,34.4396341 C37.3196581,34.5381149 37.3105302,34.6344993 37.2930609,34.7280137 L41.0512821,38.4862348 L41.0512821,30.9767718 C40.3121023,30.7026987 39.7863248,30.0006917 39.7863248,29.1779268 C39.7863248,28.1165298 40.6613211,27.2560976 41.7406838,27.2560976 C42.8200464,27.2560976 43.6950427,28.1165298 43.6950427,29.1779268 C43.6950427,30.0077145 43.1602513,30.7146739 42.4111111,30.9836962 L42.4111111,38.9462462 L46.7530372,34.6122948 C46.7467934,34.5555843 46.7435897,34.4979771 46.7435897,34.4396341 C46.7435897,33.563724 47.4656741,32.8536585 48.3564103,32.8536585 C49.2471464,32.8536585 49.9692308,33.563724 49.9692308,34.4396341 C49.9692308,35.3155443 49.2471464,36.0256098 48.3564103,36.0256098 C48.0429037,36.0256098 47.7502895,35.9376481 47.5026975,35.7854531 L43.5858346,39.695122 L52.5609634,39.695122 C52.8396756,38.9682456 53.5535651,38.4512195 54.3902564,38.4512195 C55.4696191,38.4512195 56.3446154,39.3116518 56.3446154,40.3730488 C56.3446154,41.4344458 55.4696191,42.294878 54.3902564,42.294878 C53.5464234,42.294878 52.8274977,41.7689881 52.5539218,41.0323171 L43.5973643,41.0323171 L47.9172386,45.3521913 C48.0568606,45.3134247 48.2041722,45.2926829 48.3564103,45.2926829 C49.2471464,45.2926829 49.9692308,46.0027484 49.9692308,46.8786585 C49.9692308,47.7545687 49.2471464,48.4646341 48.3564103,48.4646341 C47.4656741,48.4646341 46.7435897,47.7545687 46.7435897,46.8786585 C46.7435897,46.6422899 46.7961731,46.4179983 46.8904643,46.2164784 L42.4111111,41.7371252 L42.4111111,50.3843526 C43.1602513,50.6533749 43.6950427,51.3603343 43.6950427,52.190122 C43.6950427,53.2515189 42.8200464,54.1119512 41.7406838,54.1119512 C40.6613211,54.1119512 39.7863248,53.2515189 39.7863248,52.190122 C39.7863248,51.3673571 40.3121023,50.6653501 41.0512821,50.3912769 L41.0512821,42.2250194 L41.0512821,42.2250194 Z M66.0468376,40.1864634 C65.414359,27.6852439 54.965812,17.8957317 42.2466667,17.8957317 C29.5275214,17.8957317 19.0789744,27.6852439 18.4464957,40.1864634 L16.6376068,40.0993902 C17.314359,26.6528049 28.5598291,16.1169512 42.2466667,16.1169512 C55.9271795,16.1169512 67.1789744,26.6528049 67.8557265,40.0993902 L66.0468376,40.1864634 Z M40.4188034,3 L40.4188034,12.18 L42.2340171,12.18 L42.2340171,3 L40.4188034,3 Z M78.7633142,28.8172243 L69.8238302,30.9047563 L70.2366098,32.6724114 L79.1760938,30.5848794 L78.7633142,28.8172243 Z M65.8726649,9.8087709 L60.0075629,16.8709449 L61.3991412,18.026644 L67.2642432,10.96447 L65.8726649,9.8087709 Z M5.32494157,28.6670834 L4.91831857,30.4051379 L14.0081826,32.5317385 L14.4148056,30.793684 L5.32494157,28.6670834 Z M19.4194985,11.1914949 L18.0516163,12.3284913 L24.0187942,19.5074021 L25.3866764,18.3704056 L19.4194985,11.1914949 Z" transform="translate(-155 -649) translate(155 649)" fill="#3E79A0" stroke="none" stroke-width="1" fill-rule="evenodd"/></svg>