<svg width="85px" height="58px" viewBox="0 0 85 58" version="1.1" xmlns="http://www.w3.org/2000/svg" xmlns:xlink="http://www.w3.org/1999/xlink"><title>college-preview-2</title><desc>Created with Sketch.</desc><defs/><path d="M73.076701,45.1031579 L11,45.1031579 L11,4 L73.076701,4 L73.076701,45.1031579 L73.076701,45.1031579 Z M50.8351538,18.9698611 C50.5588226,18.540429 50.3987629,18.0307896 50.3987629,17.4842105 C50.3987629,15.9529284 51.6550426,14.7115789 53.2047423,14.7115789 C54.7544419,14.7115789 56.0107216,15.9529284 56.0107216,17.4842105 C56.0107216,19.0154927 54.7544419,20.2568421 53.2047423,20.2568421 C52.7085242,20.2568421 52.2423905,20.1295668 51.837952,19.9062516 L41.6971561,28.9663976 C41.8588019,29.3165674 41.948866,29.7057856 41.948866,30.1157895 C41.948866,31.6470716 40.6925862,32.8884211 39.1428866,32.8884211 C37.593187,32.8884211 36.3369072,31.6470716 36.3369072,30.1157895 C36.3369072,29.7865575 36.394981,29.4707282 36.5015587,29.1777576 L29.8487129,23.5708179 C29.4002962,23.8709817 28.8593237,24.0463158 28.2769072,24.0463158 C26.7272076,24.0463158 25.4709278,22.8049663 25.4709278,21.2736842 C25.4709278,19.7424021 26.7272076,18.5010526 28.2769072,18.5010526 C29.8266068,18.5010526 31.0828866,19.7424021 31.0828866,21.2736842 C31.0828866,21.7384852 30.9671395,22.1765734 30.762573,22.5613409 L37.2754609,28.0463065 C37.7715038,27.6089645 38.4257806,27.3431579 39.1428866,27.3431579 C39.7792836,27.3431579 40.3661983,27.5524994 40.8369491,27.9052934 L50.8351538,18.9698611 Z M12.8280412,43.2905263 L71.242268,43.2905263 L71.242268,5.81263158 L12.8280412,5.81263158 L12.8280412,43.2905263 L12.8280412,43.2905263 Z M35.697732,50.08 L35.697732,51.8926316 L48.871134,51.8926316 L48.871134,50.08 L35.697732,50.08 Z" transform="translate(0 0)" fill="#3E79A0" stroke="none" stroke-width="1" fill-rule="evenodd"/></svg>