<svg width="85px" height="58px" viewBox="0 0 85 58" version="1.1" xmlns="http://www.w3.org/2000/svg" xmlns:xlink="http://www.w3.org/1999/xlink"><title>college-preview-3</title><desc>Created with Sketch.</desc><defs/><path d="M22.3808696,28.3217695 L22.3808696,55.2290476 L20.5507246,55.2290476 L20.5507246,9.0834847 C19.0968713,8.80669652 18,7.56293735 18,6.07047619 C18,4.37469902 19.4160779,3 21.1628986,3 C22.9097192,3 24.3257971,4.37469902 24.3257971,6.07047619 C24.3257971,7.34722244 23.5230869,8.44196408 22.3808696,8.90503334 L22.3808696,8.90503334 L22.3808696,10.9058881 C23.8506646,10.522989 27.833429,9.85627986 31.1234783,12.6509524 C34.4968116,15.5171429 37.6597101,16.8480952 40.2423188,16.5138095 C42.8504348,16.1733333 45.8985507,16.0495238 49.0805797,18.9714286 C52.0649275,21.8004762 56.1524638,21.9861905 56.1971014,21.9861905 L61.795942,22.1966667 L56.4202899,23.7257143 C56.2098551,23.787619 51.2231884,25.1804762 46.8742029,24.567619 C43.6284058,24.0971429 41.3710145,26.3257143 40.5292754,27.1614286 C40.3889855,27.3038095 40.2742029,27.4090476 40.204058,27.4709524 C39.56,27.9785714 37.0985507,29.8171429 33.5147826,29.8171429 C31.844058,29.8171429 29.9373913,29.4209524 27.8585507,28.3128571 C25.82393,27.517523 23.1522498,28.1204101 22.3808696,28.3217695 Z M22.3808696,26.4932689 L22.3808696,12.5772857 L22.4446377,12.7438095 C22.4892754,12.7314286 26.7043478,11.2580952 29.9182609,13.9880952 C33.7571014,17.2442857 37.3153623,18.6804762 40.4846377,18.2719048 C43.3478261,17.9004762 45.4649275,18.1047619 47.8115942,20.2528571 C49.0933333,21.472381 50.5344928,22.2709524 51.8481159,22.7909524 C50.3750725,22.9642857 48.6852174,23.0385714 47.1292754,22.8157143 C42.9652174,22.2338095 40.1402899,25.0071429 39.2156522,25.9233333 C39.12,26.0161905 39.0498551,26.0904762 38.9988406,26.127619 C38.2527536,26.7466667 34.2417391,29.6933333 28.6428986,26.7157143 C26.3432771,25.8108014 23.6714848,26.2079167 22.3808696,26.4932689 Z" transform="translate(0 0)" fill="#3E79A0" stroke="none" stroke-width="1" fill-rule="evenodd"/></svg>