<svg width="85px" height="58px" viewBox="0 0 85 58" version="1.1" xmlns="http://www.w3.org/2000/svg" xmlns:xlink="http://www.w3.org/1999/xlink"><title>college-preview-4</title><desc>Created with Sketch.</desc><defs/><path d="M31.8145753,14.9624851 C26.1921262,18.2728088 23.0209683,24.6103978 23.9589157,31.13125 C25.2360241,39.9875 33.6393976,46.18125 42.6877108,44.925 C51.7360241,43.675 58.0577108,35.45 56.7806024,26.59375 C56.3242172,23.4399561 54.957551,20.5885553 52.9507201,18.2969465 L48.5304464,22.3060459 C50.0308724,24.1118805 50.9314458,26.4140588 50.9314458,28.91875 C50.9314458,34.70625 46.1231325,39.40625 40.216506,39.40625 C36.2446988,39.40625 32.6177108,37.275 30.7531325,33.84375 L32.3686747,33 C33.9203614,35.85 36.9279518,37.61875 40.216506,37.61875 C45.1142169,37.61875 49.1051807,33.71875 49.1051807,28.91875 C49.1051807,24.11875 45.1206024,20.21875 40.216506,20.21875 C36.7938554,20.21875 33.633012,22.18125 32.1707229,25.2125 L30.5168675,24.45 C32.2792771,20.79375 36.0850602,18.425 40.216506,18.425 C42.9034139,18.425 45.3630462,19.3988712 47.2461712,21.0053832 L51.6719977,16.9912476 L51.6719977,16.9912476 C49.1437954,14.6815982 45.8769116,13.142297 42.253494,12.7375 L42.4578313,10.95625 C50.7845783,11.88125 57.4191566,18.20625 58.5940964,26.3375 C60.0116867,36.175 52.9939759,45.30625 42.9431325,46.69375 C42.0810843,46.81875 41.2126506,46.875 40.3633735,46.875 C35.4640357,46.875 30.894646,44.9520962 27.5352511,41.755071 L27.5352511,41.755071 L23.8160781,45.6026759 C30.0794058,51.5357475 39.4647941,53.8758036 48.236747,50.875 C57.4950416,47.6997 63.7106463,39.3473165 64.1280667,29.9585188 L64.1280667,29.9585188 C63.0360428,29.5835842 62.253012,28.5656694 62.253012,27.36875 C62.253012,25.8534187 63.5080712,24.625 65.0562651,24.625 C66.6044589,24.625 67.8595181,25.8534187 67.8595181,27.36875 C67.8595181,28.5743444 67.0650957,29.5983301 65.9606707,29.9665697 C65.5351087,40.1066586 58.8360075,49.1364888 48.8433735,52.56875 C46.046506,53.51875 43.1985542,53.96875 40.3953012,53.96875 C29.8208434,53.96875 19.9040964,47.50625 16.213253,37.2 C11.5454217,24.1625 18.5886747,9.8375 31.9089157,5.26875 C42.9239759,1.49375 55.1459036,5.46875 61.6336145,14.95 L60.1138554,15.95 C54.0922892,7.15 42.7387952,3.45625 32.5155422,6.9625 C29.2349831,8.08806417 26.3645426,9.85070155 23.9983417,12.0591693 L27.7841191,15.7092708 C28.7507749,14.8219508 29.8226991,14.0309551 30.9881413,13.3565232 C30.9721221,13.2378241 30.9638554,13.116732 30.9638554,12.99375 C30.9638554,11.4784187 32.2189145,10.25 33.7671084,10.25 C35.3153023,10.25 36.5703614,11.4784187 36.5703614,12.99375 C36.5703614,14.5090813 35.3153023,15.7375 33.7671084,15.7375 C33.007991,15.7375 32.3193485,15.4421659 31.8145753,14.9624851 Z M26.2715646,40.4255251 C24.1284062,37.9304573 22.650835,34.8387938 22.1518072,31.38125 C21.3822242,26.0552987 23.0837056,20.836603 26.5241394,16.9861889 L26.5241394,16.9861889 L22.7346457,13.3325044 C17.1100094,19.4515667 14.9711683,28.3125842 17.9437349,36.6125 C18.9871255,39.5258254 20.5663435,42.1079741 22.535447,44.2906597 L26.2715646,40.4255251 L26.2715646,40.4255251 Z M40.1526506,31.3625 C41.7008445,31.3625 42.9559036,30.1340813 42.9559036,28.61875 C42.9559036,27.1034187 41.7008445,25.875 40.1526506,25.875 C38.6044567,25.875 37.3493976,27.1034187 37.3493976,28.61875 C37.3493976,30.1340813 38.6044567,31.3625 40.1526506,31.3625 Z" transform="translate(0 0)" fill="#3E79A0" stroke="none" stroke-width="1" fill-rule="evenodd"/></svg>