<svg version="1.1" xmlns="http://www.w3.org/2000/svg" xmlns:xlink="http://www.w3.org/1999/xlink" x="0px" y="0px" viewBox="0 0 54 43" enable-background="new 0 0 54 43" xml:space="preserve"><path fill="#4079A0" d="M22.5,29.6v1.1h8.9v-1.1c0-2.4,1.5-4.7,3.1-6.5c1.6-1.8,2.5-4.1,2.5-6.7c0-5.9-5.1-10.7-11.2-10 c-4.7,0.5-8.4,4.3-8.9,9c-0.3,2.9,0.7,5.6,2.4,7.6C21,24.9,22.5,27.2,22.5,29.6z"/><line fill="none" stroke="#4079A0" stroke-width="2" stroke-linecap="round" stroke-linejoin="round" stroke-miterlimit="10" x1="22.5" y1="32.7" x2="31.5" y2="32.7"/><line fill="none" stroke="#4079A0" stroke-width="2" stroke-linecap="round" stroke-linejoin="round" stroke-miterlimit="10" x1="22.5" y1="35.7" x2="31.5" y2="35.7"/><path fill="none" stroke="#4079A0" stroke-width="2" stroke-linecap="round" stroke-linejoin="round" stroke-miterlimit="10" d="M29.6,35.7c0,1.4-1.2,2.6-2.6,2.6s-2.6-1.2-2.6-2.6"/><path fill="#fff" d="M28.6,13.4L28,22c0,0.6-0.5,1-1.1,0.9c-0.5,0-0.9-0.4-0.9-0.9l-0.6-8.6c-0.1-0.9,0.6-1.6,1.5-1.7 c0.9-0.1,1.6,0.6,1.7,1.5C28.6,13.3,28.6,13.3,28.6,13.4z"/><line fill="none" stroke="#fff" stroke-width="3" stroke-linecap="round" stroke-linejoin="round" stroke-miterlimit="10" x1="27" y1="25.5" x2="27" y2="25.5"/></svg>