<svg width="54px" height="43px" viewBox="0 0 54 43" version="1.1" xmlns="http://www.w3.org/2000/svg" xmlns:xlink="http://www.w3.org/1999/xlink"><title>icon-product-support</title><desc>Created with Sketch.</desc><defs/><path d="M38.29,10.81 C38.24,10.67 38.06,10.23 37.96,10.19 L33.85,14.18 C33.84,14.19 33.83,14.19 33.83,14.2 L33.81,14.18 L33.79,14.19 L33.73,14.1 L30.3,10.77 L30.3,10.76 L29.96,10.43 L33.92,6.44 C33.88,6.42 33.85,6.39 33.8,6.37 C33.08,6.12 32.31,6 31.49,6 C29.55,6 27.89,6.69 26.51,8.06 C25.14,9.43 24.45,11.09 24.45,13.04 C24.45,13.67 24.53,14.27 24.67,14.84 C24.68,14.89 24.68,14.94 24.69,14.99 L15.82,23.71 C15.26,23.57 14.66,23.49 14.04,23.49 C12.1,23.49 10.44,24.18 9.06,25.55 C7.69,26.92 7,28.58 7,30.53 C7,31.35 7.12,32.12 7.37,32.84 C7.39,32.89 7.42,32.92 7.44,32.96 L11.43,29 L11.76,29.34 L11.77,29.34 L15.1,32.77 L15.19,32.83 L15.18,32.85 L15.2,32.87 C15.19,32.88 15.19,32.89 15.18,32.89 L11.19,37 C11.23,37.1 11.67,37.29 11.81,37.33 C12.53,37.58 13.21,37.57 14.03,37.57 C15.97,37.57 17.63,36.88 19.01,35.51 C20.38,34.14 21.07,32.48 21.07,30.53 C21.07,29.98 21,29.46 20.89,28.95 L29.8,19.88 C30.33,20.01 30.89,20.08 31.48,20.08 C33.42,20.08 35.08,19.39 36.46,18.02 C37.83,16.65 38.52,14.99 38.52,13.04 C38.52,12.22 38.53,11.53 38.29,10.81 L38.29,10.81 Z" transform="translate(-608 -1525) translate(608 1525)" fill="#4079A0" stroke="none" stroke-width="1" fill-rule="evenodd"/></svg>