<svg width="54px" height="43px" viewBox="0 0 54 43" version="1.1" xmlns="http://www.w3.org/2000/svg" xmlns:xlink="http://www.w3.org/1999/xlink"><title>icon-product-quality</title><desc>Created with Sketch.</desc><defs/><path d="M29,5 L29,15.23 L38.92,15.23 L29,5 Z M27.03,5 L14.42,5 L14.42,37.25 L38.92,37.25 L38.92,16.92 L27.03,16.92 L27.03,5 Z M31,20.71 C32.25,21.83 32.12,21.67 32.93,22.51 L24.88,31.25 C22.26,29 19.88,26.92 19.88,26.92 C20.8,25.92 20.78,26.03 21.92,24.84 C21.92,24.84 23.5,26.26 24.88,27.34 L31,20.71 L31,20.71 Z" transform="translate(-119 -1525) translate(119 1525)" fill="#4079A0" stroke="none" stroke-width="1" fill-rule="evenodd"/></svg>