<svg width="54px" height="43px" viewBox="0 0 54 43" version="1.1" xmlns="http://www.w3.org/2000/svg" xmlns:xlink="http://www.w3.org/1999/xlink"><title>icon-full-stack</title><desc>Created with Sketch.</desc><defs/><path d="M24.68,9 L7.61,7 C5.74,10.08 1,19.04 1,19.04 C3.4,19.42 16.39,21.89 18.81,22.42 L24.68,9 Z M52.07,17.58 C52.07,17.58 46.52,9.66 44.65,6.58 L27.32,8.66 L35.69,21.41 C38.11,20.89 48.82,18.33 52.07,17.58 Z M34.98,23.25 C33.44,21.07 29.16,14.34 27.31,11.64 L27.31,28.69 C27.33,31.87 27.34,34.57 27.31,35.75 L42.48,31.74 L42.48,21.37 L34.98,23.25 Z M25.31,12.6 C24.11,15.18 21.13,22.08 20.07,24.25 L10.99,22.37 L10.99,32.52 L25.32,35.86 L25.32,12.6 L25.31,12.6 Z" transform="translate(-119 -1124) translate(119 1124)" fill="#4079A0" stroke="none" stroke-width="1" fill-rule="evenodd"/></svg>