<svg width="54px" height="43px" viewBox="0 0 54 43" version="1.1" xmlns="http://www.w3.org/2000/svg" xmlns:xlink="http://www.w3.org/1999/xlink"><title>icon-deployment</title><desc>Created with Sketch.</desc><defs/><path d="M15.6,29 C13.61,29 12,30.62 12,32.6 C12,34.59 13.62,36.2 15.6,36.2 C17.58,36.2 19.2,34.58 19.2,32.6 C19.2,30.61 17.58,29 15.6,29 Z M6.78,42.19 C7.77411255,42.19 8.58,41.3841125 8.58,40.39 C8.58,39.3958875 7.77411255,38.59 6.78,38.59 C5.78588745,38.59 4.98,39.3958875 4.98,40.39 C4.98,41.3841125 5.78588745,42.19 6.78,42.19 Z M43.67,3.29 C42.68,2.97 36.97,3.57 34.74,4.5 C32.52,5.43 30.18,7.12 27.72,9.56 C26.67,10.62 23.86,14.58 23.86,14.58 L17.32,16.03 C16.94,16.08 12.74,20.22 12.57,20.39 L15.43,22.83 C15.89,22.66 17.58,22.06 20.04,21.36 L27.45,27.46 C27.09,29.17 26.48,31.29 26.25,32.06 L29.13,34.51 C29.92,33.62 32.68,30.3 32.95,29.93 L34.14,22.23 C34.14,22.23 36.36,20.3 37.42,19.25 C39.75,16.91 41.45,14.57 42.39,12.18 C43.72,8.8 43.8,3.33 43.67,3.29 Z M35.6,13.97 C34.11,13.97 32.9,12.76 32.9,11.27 C32.9,9.78 34.11,8.57 35.6,8.57 C37.09,8.57 38.3,9.78 38.3,11.27 C38.3,12.76 37.09,13.97 35.6,13.97 L35.6,13.97 Z" transform="translate(-608 -1124) translate(608 1124)" fill="#4079A0" stroke="none" stroke-width="1" fill-rule="evenodd"/></svg>