<svg width="49px" height="49px" viewBox="0 0 49 49" version="1.1" xmlns="http://www.w3.org/2000/svg" xmlns:xlink="http://www.w3.org/1999/xlink"><title>phil-eng-icon-human-trafficking</title><desc>Created with Sketch.</desc><defs/><g fill="#4079A0" stroke="none" stroke-width="1" fill-rule="evenodd"><path d="M15.9,6.5 L13.9,3.9 C13.9,3.9 11.4,4.9 11.3,5 L15.9,6.5 L15.9,6.5 Z" id="Shape" transform="translate(3 3)"/><path d="M42.7,4.3 C41.4,0.9 37.2,-0.7 33.2,0.7 L28.8,2.3 C28.4,2.4 28.1,2.6 27.7,2.8 C27.6,2.8 27.6,2.9 27.5,2.9 C29.1,3.1 30.6,3.6 31.7,4.5 L32.1,4.4 L34.5,3.5 C36.6,2.7 38.9,3.6 39.6,5.4 C40.3,7.2 39.1,9.3 37,10.1 L34.2,11.1 L33.6,11.3 L33,11.5 L32.1,11.8 C31.1,12.2 30.2,12.2 29.3,11.9 L29.3,11.9 C29.1,11.8 29,11.8 28.8,11.7 C28.5,11.6 28.4,11.5 28.4,11.5 L28.4,11.5 L28.4,11.5 C27.8,11.1 27.3,10.6 27,9.9 C26.9,9.6 26.7,9.1 26.7,8.7 L23.5,10 C23.6,10.4 23.6,10.8 23.8,11.1 C24.1,12 24.6,12.7 25.3,13.4 C25.4,13.5 25.5,13.6 25.7,13.7 L26,14 L26,14 L26.1,14 C27.3,14.8 28.8,15.2 30.5,15.2 L31.1,15.2 L31.1,15.2 L31.2,15.2 L31.5,15.2 L31.5,15.2 C32.1,15.1 32.8,15 33.4,14.7 L37.8,13.1 C41.7,11.8 43.9,7.8 42.7,4.3 L42.7,4.3 Z" id="Shape" transform="translate(3 3)"/><path d="M32,8.2 C30.7,4.8 26.5,3.2 22.5,4.6 L22.2,4.7 L22.2,4.7 L22.1,4.7 L21.9,4.8 L19.2,6 L20.5,8.7 L22,8.1 L23.8,7.4 C24.2,7.2 24.6,7.2 25,7.1 C25.6,7 26.1,7.1 26.6,7.2 L27.4,7.6 C28.1,8 28.6,8.5 28.8,9.3 C29,9.8 29,10.1 28.9,10.7 C29.8,10.8 31.3,10.3 32.2,9.7 C32.3,9 32.2,8.9 32,8.2 L32,8.2 Z" id="Shape" transform="translate(3 3)"/><path d="M0.5,19.8 C1.8,23.2 6,24.8 10,23.4 L14,22 C14.4,21.9 14.7,21.7 15.1,21.5 L15.1,21.5 C13.5,21.3 12.2,20.7 11.1,19.8 L10.7,19.9 L8.7,20.6 C6.6,21.4 4.3,20.5 3.6,18.7 C2.9,16.9 4.1,14.8 6.2,14 L9,13 L9.6,12.8 L10.2,12.6 L11.1,12.3 C12.1,11.9 13,11.9 13.9,12.2 L13.9,12.2 C14.1,12.3 14.2,12.3 14.4,12.4 C14.7,12.5 14.8,12.6 14.8,12.6 L14.8,12.6 L14.8,12.6 C15.4,13 15.9,13.5 16.2,14.2 C16.3,14.5 16.5,15 16.5,15.4 L19.7,14.1 C19.6,13.7 19.6,13.3 19.4,13 C19.1,12.1 18.6,11.4 17.9,10.7 C17.8,10.6 17.7,10.5 17.5,10.4 L17.2,10.1 L17.2,10.1 C17.2,10.1 17.2,10.1 17.1,10.1 C15.9,9.3 14.4,8.9 12.7,8.9 L12.1,8.9 L12.1,8.9 L12,8.9 L11.7,8.9 L11.7,8.9 C11.1,9 10.4,9.1 9.8,9.4 L5.4,11 C1.4,12.3 -0.8,16.3 0.5,19.8 L0.5,19.8 Z" id="Shape" transform="translate(3 3)"/><path d="M10.7,16.1 C12,19.5 16.2,21.1 20.2,19.7 L20.5,19.6 L20.5,19.6 L20.6,19.6 L20.8,19.5 L23.5,18.3 L22.2,15.6 L20.7,16.2 L18.9,16.9 C18.5,17.1 18.1,17.1 17.7,17.2 C17.1,17.3 16.6,17.2 16.1,17.1 L15.3,16.7 C14.6,16.3 14.1,15.8 13.9,15 C13.7,14.5 13.7,14.1 13.8,13.6 C12.9,13.5 11.4,14 10.5,14.6 C10.3,15.2 10.4,15.4 10.7,16.1 L10.7,16.1 Z" id="Shape" transform="translate(3 3)"/><path d="M27.2,17.3 L29.1,20 L31.7,19.1 L27.2,17.3 L27.2,17.3 Z" transform="translate(3 3)"/></g></svg>