<svg width="49px" height="49px" viewBox="0 0 49 49" version="1.1" xmlns="http://www.w3.org/2000/svg" xmlns:xlink="http://www.w3.org/1999/xlink"><title>phil-eng-icon-illicit-networks</title><desc>Created with Sketch.</desc><defs/><path d="M33.9,11.4 C34,9.8 32.8,9.4 32.4,9.4 C31.7,9.4 30.7,9.8 30.6,11.4 L30.5,22.4 L29.2,22.4 L29.2,7.2 C29.2,6.1 28.3,5.3 27.3,5.3 C26.3,5.3 25.4,6.2 25.4,7.2 L25.5,22.4 L24.2,22.4 L24.1,5.7 C24.1,4.5 23.2,3.7 22.1,3.7 C21.7,3.7 20.2,4.1 20.2,5.7 L20.2,22.4 L18.8,22.4 C18.8,18 18.7,7.5 18.7,7.3 C18.7,6.3 17.9,5.5 16.9,5.5 C15.9,5.5 15.1,6.3 15.1,7.3 L15.1,7.4 C15.1,7.4 15.1,18.3 15,23.2 L17.6,30.1 L16.3,30.1 L13.4,22.4 L12.5,20.5 C12.2,19.9 11.4,18.2 9.9,18.6 C9.4,18.7 9.1,19 8.9,19.3 C8.7,19.7 8.6,20.3 8.8,21 L10.8,27.8 C10.8,27.8 12.3,34.3 12.4,34.8 C13.1,36.8 14.2,37.8 15.6,38.7 C19,41.1 26,40.4 26,40.4 C26.2,40.4 29.7,40.2 31.8,37.8 C33.2,36.2 34,34 34,31.6 L33.9,11.4 L33.9,11.4 Z" transform="translate(1 1)" fill="#4079A0" stroke="none" stroke-width="1" fill-rule="evenodd"/></svg>