<svg width="49px" height="49px" viewBox="0 0 49 49" version="1.1" xmlns="http://www.w3.org/2000/svg" xmlns:xlink="http://www.w3.org/1999/xlink"><title>phil-eng-icon-humanitarian-response</title><desc>Created with Sketch.</desc><defs/><path d="M23.9,23.1 L23.9,23.1 L42.4,23.1 L38.3,19 L42.4,14.7 L23.8,14.7 L23.8,12.3 L28.4,7.4 L28.4,1.2 L15.2,1.2 L15.2,7.4 L19.8,12.3 L19.8,26.3 L16.9,26.3 C16.1,26.3 15.3,26.6 14.7,27.2 C14.6,27.3 14.5,27.4 14.4,27.6 C14.4,27.6 14.4,27.6 14.3,27.7 L14.2,27.8 C14.2,27.8 14.2,27.9 14.1,27.9 L14,28 C14,28 14,28.1 13.9,28.1 C13.9,28.1 13.9,28.2 13.8,28.2 L13.8,28.3 L13.8,28.4 L13.8,28.5 L13.8,28.6 L13.8,28.8 L13.8,28.9 L13.8,29.2 L13.8,29.2 L13.8,39.5 L13.8,39.9 L13.8,40 C13.8,40.3 13.9,40.5 14,40.8 C14,40.8 14,40.8 14,40.9 C14.1,41.2 14.3,41.5 14.6,41.7 C15.2,42.3 22.1,45 22.1,45 C22.1,45 28.6,42.3 29.2,41.7 C29.8,41.1 30.1,40.4 30.1,39.5 L30.1,29.2 C30.1,28.4 29.8,27.6 29.2,27 C28.6,26.4 27.9,26.1 27,26.1 L25.1,26.1 L25.1,33.7 L23.6,35.3 L23.9,23.1 L23.9,23.1 Z M28.4,18.1 L30.1,18.1 L30.1,16.4 L31.8,16.4 L31.8,18.1 L33.5,18.1 L33.5,19.8 L31.8,19.8 L31.8,21.5 L30.1,21.5 L30.1,19.8 L28.4,19.8 L28.4,18.1 L28.4,18.1 Z M18.3,6.1 L18.3,4.1 L25.5,4.1 L25.5,6.1 L21.9,9.9 L18.3,6.1 L18.3,6.1 Z" transform="translate(1 1)" fill="#4079A0" stroke="none" stroke-width="1" fill-rule="evenodd"/></svg>