<svg width="49px" height="49px" viewBox="0 0 49 49" version="1.1" xmlns="http://www.w3.org/2000/svg" xmlns:xlink="http://www.w3.org/1999/xlink"><title>phil-eng-icon-reintegrating-veterans</title><desc>Created with Sketch.</desc><defs/><g stroke="none" stroke-width="1" fill="none" fill-rule="evenodd"><g id="Shape" fill="#4079A0"><path d="M12.2,19.3 L26.7,12.5 L18.3,0 L8.6,14.4 L12.2,19.3 Z" transform="translate(6 3)"/><path d="M10.1,20.5 L6.3,15.3 L0,25.6 L10.1,20.5 Z" transform="translate(6 3)"/></g><path d="M28.8,14 L-0.4,27.9 C-0.3,28 11.8,27.3 21.8,27.3 L36.7,27.3 L28.8,14 L28.8,14 Z" fill="#4079A0" transform="translate(6 3)"/><path d="M25.1,24.2 L22.5,26.1 L23.5,23.1 L20.9,21.2 L24.1,21.2 L25.1,18.2 L26.1,21.2 L29.3,21.2 L26.7,23.1 L27.7,26.1 L25.1,24.2 L25.1,24.2 Z" fill="#fff" transform="translate(6 3)"/></g></svg>