<svg width="42px" height="58px" viewBox="0 0 42 58" version="1.1" xmlns="http://www.w3.org/2000/svg" xmlns:xlink="http://www.w3.org/1999/xlink"><title>Document</title><desc>Created with Sketch.</desc><defs/><g stroke="#3E79A0" stroke-width="2" fill="none" fill-rule="evenodd"><path d="M0,0 L30,0 L30,10 L40,10 L40,56 L0,56 L0,0 Z" transform="translate(1 1)"/><path d="M30,0 L40,9 L30,0 Z" transform="translate(1 1)"/><path d="M8.7265625,11 L23.6855409,11" transform="translate(1 1)"/><path d="M8.7265625,18 L31.6855409,18" transform="translate(1 1)"/><path d="M8.7265625,25 L31.6855409,25" transform="translate(1 1)"/><path d="M8.7265625,32 L31.6855409,32" transform="translate(1 1)"/><path d="M8.7265625,39 L31.6855409,39" transform="translate(1 1)"/><path d="M8.7265625,46 L31.6855409,46" transform="translate(1 1)"/></g></svg>