<svg width="241px" height="188px" viewBox="0 0 241 188" version="1.1" xmlns="http://www.w3.org/2000/svg" xmlns:xlink="http://www.w3.org/1999/xlink"><title>app-icon-object</title><desc>Created with Sketch.</desc><defs/><g transform="translate(3 3)" stroke="none" stroke-width="1" fill="none" fill-rule="evenodd"><g id="Group"><path d="M20.9,37.9 C20.6,36.9 20.5,35.8 20.5,34.7 L16.3,34.7 C16.3,36.2 16.5,37.6 16.9,39 L20.9,37.9 L20.9,37.9 Z" id="Shape" fill="#D1D3D4" transform="translate(25 78)"/><path d="M20.5,34.3 C20.5,33.2 20.7,32.1 20.9,31.1 L16.9,30 C16.5,31.4 16.4,32.8 16.3,34.3 L20.5,34.3 L20.5,34.3 Z" id="Shape" fill="#D1D3D4" transform="translate(25 78)"/><path d="M22.5,27.3 C23.1,26.4 23.7,25.5 24.5,24.7 L21.5,21.7 C20.5,22.7 19.6,23.9 18.9,25.1 L22.5,27.3 L22.5,27.3 Z" id="Shape" fill="#23516E" transform="translate(25 78)"/><path d="M21,30.6 C21.3,29.5 21.7,28.5 22.2,27.6 L18.6,25.5 C17.9,26.8 17.3,28.1 16.9,29.5 L21,30.6 L21,30.6 Z" id="Shape" fill="#23516E" transform="translate(25 78)"/><path d="M30.7,48 C29.6,47.7 28.6,47.3 27.7,46.8 L25.6,50.4 C26.9,51.1 28.2,51.7 29.6,52.1 L30.7,48 L30.7,48 Z" id="Shape" fill="#D1D3D4" transform="translate(25 78)"/><path d="M27.3,46.5 C26.4,45.9 25.5,45.3 24.7,44.5 L21.7,47.5 C22.7,48.5 23.9,49.4 25.1,50.1 L27.3,46.5 L27.3,46.5 Z" id="Shape" fill="#D1D3D4" transform="translate(25 78)"/><path d="M22.3,41.3 C21.8,40.4 21.4,39.4 21.1,38.3 L17.1,39.4 C17.5,40.8 18.1,42.2 18.8,43.4 L22.3,41.3 L22.3,41.3 Z" id="Shape" fill="#D1D3D4" transform="translate(25 78)"/><path d="M41.5,27.9 C42,28.4 42.4,28.9 42.8,29.5 L46.3,27.5 C45.8,26.6 45.1,25.8 44.4,25 L41.5,27.9 L41.5,27.9 Z" id="Shape" fill="#D1D3D4" transform="translate(25 78)"/><path d="M43.8,32.2 C44,32.9 44.1,33.5 44.1,34.3 L48.1,34.3 C48.1,33.2 47.9,32.2 47.7,31.2 L43.8,32.2 L43.8,32.2 Z" id="Shape" fill="#D1D3D4" transform="translate(25 78)"/><path d="M42.9,29.9 C43.2,30.5 43.5,31.1 43.7,31.8 L47.6,30.8 C47.3,29.8 46.9,28.8 46.4,27.9 L42.9,29.9 L42.9,29.9 Z" id="Shape" fill="#D1D3D4" transform="translate(25 78)"/><path d="M44.1,34.7 C44.1,35.4 44,36.1 43.8,36.8 L47.7,37.8 C47.9,36.8 48.1,35.8 48.1,34.7 L44.1,34.7 L44.1,34.7 Z" id="Shape" fill="#D1D3D4" transform="translate(25 78)"/><path d="M43.7,37.2 C43.5,37.9 43.2,38.5 42.9,39.1 L46.4,41.1 C46.9,40.2 47.3,39.2 47.6,38.2 L43.7,37.2 L43.7,37.2 Z" id="Shape" fill="#D1D3D4" transform="translate(25 78)"/><path d="M34.3,48.5 C33.2,48.5 32.1,48.3 31.1,48.1 L30,52.1 C31.4,52.5 32.8,52.6 34.3,52.7 L34.3,48.5 L34.3,48.5 Z" id="Shape" fill="#D1D3D4" transform="translate(25 78)"/><path d="M42.7,39.5 C42.3,40.1 41.9,40.6 41.4,41.1 L44.3,44 C45,43.3 45.7,42.4 46.2,41.5 L42.7,39.5 L42.7,39.5 Z" id="Shape" fill="#D1D3D4" transform="translate(25 78)"/><path d="M34.7,20.4 C35.8,20.4 36.9,20.6 37.9,20.8 L39,16.8 C37.6,16.4 36.2,16.3 34.7,16.2 L34.7,20.4 L34.7,20.4 Z" id="Shape" fill="#D1D3D4" transform="translate(25 78)"/><path d="M31.1,20.9 C32.1,20.6 33.2,20.5 34.3,20.5 L34.3,16.3 C32.8,16.3 31.4,16.5 30,16.9 L31.1,20.9 L31.1,20.9 Z" id="Shape" fill="#D1D3D4" transform="translate(25 78)"/><path d="M38.4,21 C39.5,21.3 40.5,21.7 41.4,22.2 L43.5,18.6 C42.2,17.9 40.9,17.3 39.5,16.9 L38.4,21 L38.4,21 Z" id="Shape" fill="#D1D3D4" transform="translate(25 78)"/><path d="M43.8,18.8 L41.7,22.4 C42.6,23 43.5,23.6 44.3,24.4 L47.3,21.4 C46.2,20.4 45.1,19.5 43.8,18.8 L43.8,18.8 Z" id="Shape" fill="#D1D3D4" transform="translate(25 78)"/><path d="M27.7,22.2 C28.6,21.7 29.6,21.3 30.7,21 L29.6,17 C28.2,17.4 26.8,18 25.6,18.7 L27.7,22.2 L27.7,22.2 Z" id="Shape" fill="#D1D3D4" transform="translate(25 78)"/><path d="M18.5,25 C19.3,23.7 20.2,22.5 21.2,21.5 L18.3,18.6 C17,19.9 15.9,21.4 14.9,23 L18.5,25 L18.5,25 Z" id="Shape" fill="#D1D3D4" transform="translate(25 78)"/><path d="M21.5,21.1 C22.6,20.1 23.7,19.2 25,18.4 L23,14.9 C21.4,15.8 19.9,17 18.6,18.3 L21.5,21.1 L21.5,21.1 Z" id="Shape" fill="#D1D3D4" transform="translate(25 78)"/><path d="M25.4,18.2 C26.7,17.5 28.1,16.9 29.5,16.5 L28.5,12.6 C26.7,13.1 25,13.8 23.4,14.7 L25.4,18.2 L25.4,18.2 Z" id="Shape" fill="#D1D3D4" transform="translate(25 78)"/><path d="M29.9,16.4 C31.3,16 32.8,15.8 34.3,15.8 L34.3,11.7 C32.4,11.7 30.6,12 28.8,12.4 L29.9,16.4 L29.9,16.4 Z" id="Shape" fill="#D1D3D4" transform="translate(25 78)"/><path d="M38,48.1 C37,48.4 35.9,48.5 34.8,48.5 L34.8,52.7 C36.3,52.7 37.7,52.5 39.1,52.1 L38,48.1 L38,48.1 Z" id="Shape" fill="#D1D3D4" transform="translate(25 78)"/><path d="M16.6,29.4 C17,28 17.6,26.6 18.3,25.3 L14.8,23.3 C13.9,24.9 13.2,26.6 12.7,28.4 L16.6,29.4 L16.6,29.4 Z" id="Shape" fill="#D1D3D4" transform="translate(25 78)"/><path d="M18.3,43.6 C17.6,42.3 17,40.9 16.6,39.5 L12.7,40.5 C13.2,42.3 13.9,44 14.8,45.6 L18.3,43.6 L18.3,43.6 Z" id="Shape" fill="#D1D3D4" transform="translate(25 78)"/><path d="M16.4,39.1 C16,37.7 15.8,36.2 15.8,34.7 L11.7,34.7 C11.7,36.6 12,38.4 12.4,40.2 L16.4,39.1 L16.4,39.1 Z" id="Shape" fill="#D1D3D4" transform="translate(25 78)"/><path d="M15.9,34.3 C15.9,32.8 16.1,31.3 16.5,29.9 L12.6,28.8 C12.1,30.5 11.9,32.4 11.9,34.3 L15.9,34.3 L15.9,34.3 Z" id="Shape" fill="#D1D3D4" transform="translate(25 78)"/><path d="M39.6,16.5 C41,16.9 42.4,17.5 43.7,18.2 L45.7,14.7 C44.1,13.8 42.4,13.1 40.6,12.6 L39.6,16.5 L39.6,16.5 Z" id="Shape" fill="#D1D3D4" transform="translate(25 78)"/><path d="M34.7,15.8 C36.2,15.8 37.7,16 39.1,16.4 L40.1,12.5 C38.4,12 36.5,11.8 34.6,11.8 L34.6,15.8 L34.7,15.8 Z" id="Shape" fill="#D1D3D4" transform="translate(25 78)"/><path d="M44.3,44.6 C43.5,45.4 42.7,46 41.7,46.6 L43.8,50.2 C45,49.5 46.2,48.6 47.2,47.6 L44.3,44.6 L44.3,44.6 Z" id="Shape" fill="#D1D3D4" transform="translate(25 78)"/><path d="M46.6,41.7 C46,42.6 45.4,43.5 44.6,44.3 L47.6,47.3 C48.6,46.3 49.5,45.1 50.2,43.9 L46.6,41.7 L46.6,41.7 Z" id="Shape" fill="#D1D3D4" transform="translate(25 78)"/><path d="M41.4,46.8 C40.5,47.3 39.5,47.7 38.4,48 L39.5,52 C40.9,51.6 42.3,51 43.5,50.3 L41.4,46.8 L41.4,46.8 Z" id="Shape" fill="#D1D3D4" transform="translate(25 78)"/><path d="M48.1,38.3 C47.8,39.4 47.4,40.4 46.9,41.3 L50.5,43.4 C51.2,42.1 51.8,40.8 52.2,39.4 L48.1,38.3 L48.1,38.3 Z" id="Shape" fill="#D1D3D4" transform="translate(25 78)"/><path d="M46.1,14.9 L44.1,18.4 C45.4,19.2 46.6,20.1 47.6,21.1 L50.5,18.2 C49.1,17 47.7,15.9 46.1,14.9 L46.1,14.9 Z" id="Shape" fill="#D1D3D4" transform="translate(25 78)"/><path d="M46.8,27.7 C47.3,28.6 47.7,29.6 48,30.7 L52,29.6 C51.6,28.2 51,26.8 50.3,25.6 L46.8,27.7 L46.8,27.7 Z" id="Shape" fill="#D1D3D4" transform="translate(25 78)"/><path d="M48.6,34.7 C48.6,35.8 48.4,36.9 48.2,37.9 L52.2,39 C52.6,37.6 52.7,36.2 52.8,34.7 L48.6,34.7 L48.6,34.7 Z" id="Shape" fill="#D1D3D4" transform="translate(25 78)"/><path d="M44.6,24.7 C45.4,25.5 46,26.3 46.6,27.3 L50.2,25.2 C49.5,24 48.6,22.8 47.6,21.8 L44.6,24.7 L44.6,24.7 Z" id="Shape" fill="#D1D3D4" transform="translate(25 78)"/><path d="M48.2,31.1 C48.5,32.1 48.6,33.2 48.6,34.3 L52.8,34.3 C52.8,32.8 52.6,31.4 52.2,30 L48.2,31.1 L48.2,31.1 Z" id="Shape" fill="#D1D3D4" transform="translate(25 78)"/><path d="M37.9,38.2 C37.7,38.4 37.4,38.6 37.2,38.7 L39.3,42.3 C39.9,42 40.4,41.6 40.9,41.1 L37.9,38.2 L37.9,38.2 Z" id="Shape" fill="#D1D3D4" transform="translate(25 78)"/><path d="M31.8,38.8 C31.5,38.6 31.3,38.5 31.1,38.3 L28.2,41.2 C28.7,41.7 29.2,42.1 29.8,42.4 L31.8,38.8 L31.8,38.8 Z" id="Shape" fill="#D1D3D4" transform="translate(25 78)"/><path d="M41.1,41.4 C40.6,41.9 40.1,42.3 39.5,42.7 L41.5,46.2 C42.4,45.7 43.2,45 44,44.3 L41.1,41.4 L41.1,41.4 Z" id="Shape" fill="#D1D3D4" transform="translate(25 78)"/><path d="M29.6,35.6 C29.5,35.3 29.5,35 29.5,34.7 L25.4,34.7 C25.4,35.4 25.5,36 25.7,36.6 L29.6,35.6 L29.6,35.6 Z" id="Shape" fill="#D1D3D4" transform="translate(25 78)"/><path d="M35.6,39.4 C35.3,39.5 35,39.5 34.7,39.5 L34.7,43.6 C35.4,43.6 36,43.5 36.6,43.3 L35.6,39.4 L35.6,39.4 Z" id="Shape" fill="#D1D3D4" transform="translate(25 78)"/><path d="M30.1,36.8 C30,36.5 29.8,36.3 29.8,36 L25.8,37.1 C26,37.7 26.2,38.3 26.6,38.9 L30.1,36.8 L30.1,36.8 Z" id="Shape" fill="#D1D3D4" transform="translate(25 78)"/><path d="M30.8,37.9 C30.6,37.7 30.4,37.4 30.3,37.2 L26.7,39.3 C27,39.9 27.4,40.4 27.9,40.9 L30.8,37.9 L30.8,37.9 Z" id="Shape" fill="#D1D3D4" transform="translate(25 78)"/><path d="M36.9,39 C36.6,39.1 36.4,39.3 36.1,39.3 L37.2,43.3 C37.8,43.1 38.4,42.9 39,42.5 L36.9,39 L36.9,39 Z" id="Shape" fill="#D1D3D4" transform="translate(25 78)"/><path d="M39.4,36 C39.3,36.3 39.2,36.6 39.1,36.8 L42.7,38.9 C43,38.3 43.3,37.7 43.5,37.1 L39.4,36 L39.4,36 Z" id="Shape" fill="#D1D3D4" transform="translate(25 78)"/><path d="M38.8,37.2 C38.6,37.5 38.5,37.7 38.3,37.9 L41.2,40.8 C41.7,40.3 42.1,39.8 42.4,39.2 L38.8,37.2 L38.8,37.2 Z" id="Shape" fill="#D1D3D4" transform="translate(25 78)"/><path d="M21.2,47.5 C20.2,46.4 19.3,45.3 18.5,44 L15,46 C15.9,47.6 17.1,49.1 18.4,50.4 L21.2,47.5 L21.2,47.5 Z" id="Shape" fill="#D1D3D4" transform="translate(25 78)"/><path d="M31.1,30.8 C31.3,30.6 31.6,30.4 31.8,30.3 L29.7,26.7 C29.1,27 28.6,27.4 28.1,27.9 L31.1,30.8 L31.1,30.8 Z" id="Shape" fill="#D1D3D4" transform="translate(25 78)"/><path d="M36,29.7 C36.3,29.8 36.6,29.9 36.8,30 L38.9,26.4 C38.3,26.1 37.7,25.8 37.1,25.6 L36,29.7 L36,29.7 Z" id="Shape" fill="#D1D3D4" transform="translate(25 78)"/><path d="M34.7,29.4 C35,29.4 35.3,29.5 35.6,29.5 L36.7,25.5 C36.1,25.3 35.4,25.3 34.8,25.2 L34.8,29.4 L34.7,29.4 Z" id="Shape" fill="#D1D3D4" transform="translate(25 78)"/><path d="M39.3,26.7 L37.2,30.3 C37.5,30.5 37.7,30.6 37.9,30.8 L40.8,27.9 C40.4,27.4 39.9,27 39.3,26.7 L39.3,26.7 Z" id="Shape" fill="#D1D3D4" transform="translate(25 78)"/><path d="M33.4,29.6 C33.7,29.5 34,29.5 34.3,29.5 L34.3,25.4 C33.6,25.4 33,25.5 32.4,25.7 L33.4,29.6 L33.4,29.6 Z" id="Shape" fill="#D1D3D4" transform="translate(25 78)"/><path d="M29.7,33 C29.8,32.7 29.9,32.4 30,32.2 L26.4,30.1 C26.1,30.7 25.8,31.3 25.6,31.9 L29.7,33 L29.7,33 Z" id="Shape" fill="#D1D3D4" transform="translate(25 78)"/><path d="M32.2,30 C32.5,29.9 32.7,29.7 33,29.7 L31.9,25.7 C31.3,25.9 30.7,26.1 30.1,26.5 L32.2,30 L32.2,30 Z" id="Shape" fill="#D1D3D4" transform="translate(25 78)"/><path d="M30.3,31.8 C30.5,31.5 30.6,31.3 30.8,31.1 L27.9,28.2 C27.4,28.7 27,29.2 26.7,29.8 L30.3,31.8 L30.3,31.8 Z" id="Shape" fill="#D1D3D4" transform="translate(25 78)"/><path d="M29.5,34.3 C29.5,34 29.6,33.7 29.6,33.4 L25.6,32.3 C25.4,32.9 25.4,33.6 25.3,34.2 L29.5,34.2 L29.5,34.3 Z" id="Shape" fill="#D1D3D4" transform="translate(25 78)"/><path d="M39.6,34.7 C39.6,35 39.5,35.3 39.5,35.6 L43.5,36.7 C43.7,36.1 43.7,35.4 43.8,34.8 L39.6,34.8 L39.6,34.7 Z" id="Shape" fill="#D1D3D4" transform="translate(25 78)"/><path d="M33,39.3 C32.7,39.2 32.4,39.1 32.2,39 L30.1,42.6 C30.7,42.9 31.3,43.2 31.9,43.4 L33,39.3 L33,39.3 Z" id="Shape" fill="#D1D3D4" transform="translate(25 78)"/><path d="M27.6,41.1 C27.1,40.6 26.7,40.1 26.3,39.5 L22.8,41.5 C23.3,42.4 24,43.2 24.7,44 L27.6,41.1 L27.6,41.1 Z" id="Shape" fill="#D1D3D4" transform="translate(25 78)"/><path d="M26.1,39.1 C25.8,38.5 25.5,37.9 25.3,37.2 L21.4,38.2 C21.7,39.2 22.1,40.2 22.6,41.1 L26.1,39.1 L26.1,39.1 Z" id="Shape" fill="#D1D3D4" transform="translate(25 78)"/><path d="M29.6,42.7 C29,42.3 28.5,41.9 28,41.4 L25.1,44.3 C25.9,45 26.7,45.7 27.6,46.2 L29.6,42.7 L29.6,42.7 Z" id="Shape" fill="#D1D3D4" transform="translate(25 78)"/><path d="M25,34.3 C25,33.6 25.1,32.9 25.3,32.2 L21.4,31.2 C21.2,32.2 21,33.2 21,34.3 L25,34.3 L25,34.3 Z" id="Shape" fill="#D1D3D4" transform="translate(25 78)"/><path d="M25.3,31.8 C25.5,31.1 25.8,30.5 26.1,29.9 L22.6,27.9 C22.1,28.8 21.7,29.8 21.4,30.8 L25.3,31.8 L25.3,31.8 Z" id="Shape" fill="#D1D3D4" transform="translate(25 78)"/><path d="M25.2,36.8 C25,36.1 24.9,35.4 24.9,34.7 L20.9,34.7 C20.9,35.8 21.1,36.8 21.3,37.8 L25.2,36.8 L25.2,36.8 Z" id="Shape" fill="#D1D3D4" transform="translate(25 78)"/><path d="M36.8,43.8 C36.1,44 35.5,44.1 34.7,44.1 L34.7,48.1 C35.8,48.1 36.8,47.9 37.8,47.7 L36.8,43.8 L36.8,43.8 Z" id="Shape" fill="#D1D3D4" transform="translate(25 78)"/><path d="M31.8,43.7 C31.1,43.5 30.5,43.2 29.9,42.9 L27.9,46.4 C28.8,46.9 29.8,47.3 30.8,47.6 L31.8,43.7 L31.8,43.7 Z" id="Shape" fill="#D1D3D4" transform="translate(25 78)"/><path d="M39.1,42.9 C38.5,43.2 37.9,43.5 37.2,43.7 L38.2,47.6 C39.2,47.3 40.2,46.9 41.1,46.4 L39.1,42.9 L39.1,42.9 Z" id="Shape" fill="#D1D3D4" transform="translate(25 78)"/><path d="M34.3,44.1 C33.6,44.1 32.9,44 32.2,43.8 L31.2,47.7 C32.2,48 33.2,48.1 34.3,48.1 L34.3,44.1 L34.3,44.1 Z" id="Shape" fill="#D1D3D4" transform="translate(25 78)"/><path d="M29.9,26.1 C30.5,25.8 31.1,25.5 31.8,25.3 L30.8,21.4 C29.8,21.7 28.8,22.1 27.9,22.6 L29.9,26.1 L29.9,26.1 Z" id="Shape" fill="#D1D3D4" transform="translate(25 78)"/><path d="M41.5,22.8 L39.5,26.3 C40.1,26.7 40.6,27.1 41.1,27.6 L44,24.7 C43.3,24 42.4,23.3 41.5,22.8 L41.5,22.8 Z" id="Shape" fill="#D1D3D4" transform="translate(25 78)"/><path d="M38.3,31.1 C38.5,31.3 38.7,31.6 38.8,31.8 L42.4,29.7 C42.1,29.1 41.7,28.6 41.2,28.1 L38.3,31.1 L38.3,31.1 Z" id="Shape" fill="#D1D3D4" transform="translate(25 78)"/><path d="M26.3,29.5 C26.7,28.9 27.1,28.4 27.6,27.9 L24.7,25 C24,25.7 23.3,26.6 22.8,27.5 L26.3,29.5 L26.3,29.5 Z" id="Shape" fill="#D1D3D4" transform="translate(25 78)"/><path d="M37.2,25.3 C37.9,25.5 38.5,25.8 39.1,26.1 L41.1,22.6 C40.2,22.1 39.2,21.7 38.2,21.4 L37.2,25.3 L37.2,25.3 Z" id="Shape" fill="#D1D3D4" transform="translate(25 78)"/><path d="M39,32.2 C39.1,32.5 39.3,32.7 39.3,33 L43.3,31.9 C43.1,31.3 42.9,30.7 42.5,30.1 L39,32.2 L39,32.2 Z" id="Shape" fill="#D1D3D4" transform="translate(25 78)"/><path d="M39.5,33.4 C39.6,33.7 39.6,34 39.6,34.3 L43.7,34.3 C43.7,33.6 43.6,33 43.4,32.4 L39.5,33.4 L39.5,33.4 Z" id="Shape" fill="#D1D3D4" transform="translate(25 78)"/><path d="M27.9,27.6 C28.4,27.1 28.9,26.7 29.5,26.3 L27.5,22.8 C26.6,23.3 25.8,24 25,24.7 L27.9,27.6 L27.9,27.6 Z" id="Shape" fill="#D1D3D4" transform="translate(25 78)"/><path d="M32.3,25.2 C33,25 33.6,24.9 34.4,24.9 L34.4,20.9 C33.3,20.9 32.3,21.1 31.3,21.3 L32.3,25.2 L32.3,25.2 Z" id="Shape" fill="#D1D3D4" transform="translate(25 78)"/><path d="M34.7,24.9 C35.4,24.9 36.1,25 36.8,25.2 L37.8,21.3 C36.8,21 35.8,20.9 34.7,20.9 L34.7,24.9 L34.7,24.9 Z" id="Shape" fill="#D1D3D4" transform="translate(25 78)"/><path d="M34.3,39.5 C34,39.5 33.7,39.4 33.4,39.4 L32.3,43.4 C32.9,43.6 33.6,43.6 34.2,43.7 L34.2,39.5 L34.3,39.5 Z" id="Shape" fill="#D1D3D4" transform="translate(25 78)"/><path d="M48,58.2 C46.1,59.3 44,60.2 41.8,60.8 L42.7,64.3 C45.2,63.6 47.5,62.6 49.8,61.4 L48,58.2 L48,58.2 Z" id="Shape" fill="#D1D3D4" transform="translate(25 78)"/><path d="M60.8,41.7 C60.2,43.9 59.3,45.9 58.2,47.9 L61.4,49.7 C62.7,47.5 63.6,45.1 64.3,42.6 L60.8,41.7 L60.8,41.7 Z" id="Shape" fill="#D1D3D4" transform="translate(25 78)"/><path d="M53.6,53.9 C52,55.5 50.2,56.8 48.3,58 L50.1,61.2 C52.3,59.9 54.3,58.4 56.1,56.5 L53.6,53.9 L53.6,53.9 Z" id="Shape" fill="#D1D3D4" transform="translate(25 78)"/><path d="M60.9,27.6 C61.5,29.7 61.8,31.9 61.8,34.2 L65.4,34.2 C65.4,31.6 65,29.1 64.4,26.6 L60.9,27.6 L60.9,27.6 Z" id="Shape" fill="#D1D3D4" transform="translate(25 78)"/><path d="M58,48.3 C56.9,50.2 55.5,52 53.9,53.6 L56.5,56.2 C58.3,54.4 59.9,52.3 61.2,50.1 L58,48.3 L58,48.3 Z" id="Shape" fill="#D1D3D4" transform="translate(25 78)"/><path d="M61.8,34.7 C61.8,37 61.5,39.2 60.9,41.3 L64.4,42.2 C65,39.8 65.4,37.2 65.4,34.6 L61.8,34.6 L61.8,34.7 Z" id="Shape" fill="#D1D3D4" transform="translate(25 78)"/><path d="M56.8,12.5 C58.6,14.4 60.2,16.4 61.5,18.6 L64.7,16.8 C63.2,14.3 61.4,12 59.4,9.9 L56.8,12.5 L56.8,12.5 Z" id="Shape" fill="#D1D3D4" transform="translate(25 78)"/><path d="M58.2,21.1 C59.3,23 60.2,25.1 60.8,27.3 L64.3,26.4 C63.6,23.9 62.6,21.6 61.4,19.3 L58.2,21.1 L58.2,21.1 Z" id="Shape" fill="#D1D3D4" transform="translate(25 78)"/><path d="M50.4,7.5 C52.6,8.8 54.7,10.4 56.5,12.2 L59.1,9.6 C57,7.6 54.7,5.8 52.2,4.3 L50.4,7.5 L50.4,7.5 Z" id="Shape" fill="#D1D3D4" transform="translate(25 78)"/><path d="M64.9,17.2 L61.8,19 C63.1,21.3 64.1,23.7 64.8,26.2 L68.3,25.3 C67.5,22.4 66.3,19.7 64.9,17.2 L64.9,17.2 Z" id="Shape" fill="#D1D3D4" transform="translate(25 78)"/><path d="M41.4,60.8 C39.3,61.4 37.1,61.6 34.8,61.7 L34.8,65.3 C37.4,65.3 39.9,64.9 42.4,64.3 L41.4,60.8 L41.4,60.8 Z" id="Shape" fill="#D1D3D4" transform="translate(25 78)"/><path d="M7.3,34.3 C7.3,32 7.6,29.8 8.2,27.7 L4.7,26.8 C4.1,29.2 3.7,31.8 3.7,34.4 L7.3,34.4 L7.3,34.3 Z" id="Shape" fill="#D1D3D4" transform="translate(25 78)"/><path d="M8.3,27.2 C8.9,25 9.8,23 10.9,21 L7.7,19.2 C6.4,21.4 5.5,23.8 4.8,26.3 L8.3,27.2 L8.3,27.2 Z" id="Shape" fill="#D1D3D4" transform="translate(25 78)"/><path d="M10.9,47.9 C9.8,46 8.9,43.9 8.3,41.7 L4.8,42.6 C5.5,45.1 6.5,47.4 7.7,49.7 L10.9,47.9 L10.9,47.9 Z" id="Shape" fill="#D1D3D4" transform="translate(25 78)"/><path d="M11.1,20.7 C12.2,18.8 13.6,17 15.2,15.4 L12.6,12.8 C10.8,14.6 9.2,16.7 7.9,18.8 L11.1,20.7 L11.1,20.7 Z" id="Shape" fill="#D1D3D4" transform="translate(25 78)"/><path d="M8.2,41.3 C7.6,39.2 7.4,37 7.3,34.7 L3.7,34.7 C3.7,37.3 4.1,39.8 4.7,42.3 L8.2,41.3 L8.2,41.3 Z" id="Shape" fill="#D1D3D4" transform="translate(25 78)"/><path d="M34.3,61.7 C32,61.7 29.8,61.4 27.7,60.8 L26.8,64.3 C29.2,64.9 31.8,65.3 34.4,65.3 L34.3,61.7 L34.3,61.7 Z" id="Shape" fill="#23516E" transform="translate(25 78)"/><path d="M20.7,58 C18.8,56.9 17,55.5 15.4,53.9 L12.8,56.5 C14.6,58.3 16.7,59.9 18.8,61.2 L20.7,58 L20.7,58 Z" id="Shape" fill="#D1D3D4" transform="translate(25 78)"/><path d="M42.8,4.3 C45.3,5 47.7,6 50,7.3 L51.8,4.2 C49.3,2.8 46.6,1.6 43.8,0.9 L42.8,4.3 L42.8,4.3 Z" id="Shape" fill="#D1D3D4" transform="translate(25 78)"/><path d="M4.3,26.2 C5,23.7 6,21.3 7.3,19 L4.2,17.2 C2.8,19.7 1.6,22.4 0.9,25.2 L4.3,26.2 L4.3,26.2 Z" id="Shape" fill="#D1D3D4" transform="translate(25 78)"/><path d="M50,61.7 C47.7,63 45.3,64 42.8,64.7 L43.7,68.2 C46.5,67.4 49.2,66.3 51.7,64.9 L50,61.7 L50,61.7 Z" id="Shape" fill="#D1D3D4" transform="translate(25 78)"/><path d="M42.4,64.8 C39.9,65.4 37.3,65.8 34.7,65.8 L34.7,69.4 C37.7,69.4 40.6,69 43.3,68.3 L42.4,64.8 L42.4,64.8 Z" id="Shape" fill="#D1D3D4" transform="translate(25 78)"/><path d="M18.7,61.5 C16.5,60.2 14.4,58.6 12.6,56.8 L10,59.4 C12.1,61.4 14.4,63.2 16.9,64.7 L18.7,61.5 L18.7,61.5 Z" id="Shape" fill="#D1D3D4" transform="translate(25 78)"/><path d="M56.5,56.8 C54.6,58.6 52.6,60.2 50.4,61.5 L52.2,64.7 C54.7,63.2 57,61.4 59.1,59.4 L56.5,56.8 L56.5,56.8 Z" id="Shape" fill="#D1D3D4" transform="translate(25 78)"/><path d="M26.2,64.7 C23.7,64 21.3,63 19,61.7 L17.2,64.8 C19.7,66.2 22.4,67.4 25.2,68.1 L26.2,64.7 L26.2,64.7 Z" id="Shape" fill="#D1D3D4" transform="translate(25 78)"/><path d="M65.8,34.7 C65.8,37.3 65.4,39.9 64.8,42.4 L68.3,43.3 C69,40.5 69.4,37.7 69.4,34.7 L65.8,34.7 L65.8,34.7 Z" id="Shape" fill="#D1D3D4" transform="translate(25 78)"/><path d="M61.5,50.3 C60.2,52.5 58.6,54.6 56.8,56.4 L59.4,59 C61.4,56.9 63.2,54.6 64.7,52.1 L61.5,50.3 L61.5,50.3 Z" id="Shape" fill="#D1D3D4" transform="translate(25 78)"/><path d="M64.8,26.6 C65.4,29.1 65.8,31.7 65.8,34.3 L69.4,34.3 C69.4,31.3 69,28.4 68.3,25.7 L64.8,26.6 L64.8,26.6 Z" id="Shape" fill="#D1D3D4" transform="translate(25 78)"/><path d="M64.7,42.8 C64,45.3 63,47.7 61.7,50 L64.8,51.8 C66.2,49.3 67.4,46.6 68.1,43.8 L64.7,42.8 L64.7,42.8 Z" id="Shape" fill="#D1D3D4" transform="translate(25 78)"/><path d="M34.3,65.8 C31.7,65.8 29.1,65.4 26.6,64.8 L25.7,68.3 C28.5,69 31.3,69.4 34.3,69.4 L34.3,65.8 L34.3,65.8 Z" id="Shape" fill="#D1D3D4" transform="translate(25 78)"/><path d="M12.6,12.2 C14.5,10.4 16.5,8.8 18.7,7.5 L16.9,4.3 C14.4,5.8 12.1,7.6 10,9.6 L12.6,12.2 L12.6,12.2 Z" id="Shape" fill="#D1D3D4" transform="translate(25 78)"/><path d="M19.1,7.3 C21.4,6 23.8,5 26.3,4.3 L25.4,0.8 C22.6,1.6 19.9,2.7 17.4,4.1 L19.1,7.3 L19.1,7.3 Z" id="Shape" fill="#D1D3D4" transform="translate(25 78)"/><path d="M7.5,18.6 C8.8,16.4 10.4,14.3 12.2,12.5 L9.6,9.9 C7.6,12 5.8,14.3 4.3,16.8 L7.5,18.6 L7.5,18.6 Z" id="Shape" fill="#D1D3D4" transform="translate(25 78)"/><path d="M26.6,4.2 C29.1,3.6 31.7,3.2 34.3,3.2 L34.3,-0.4 C31.3,-0.4 28.4,-1.70530257e-13 25.7,0.7 L26.6,4.2 L26.6,4.2 Z" id="Shape" fill="#D1D3D4" transform="translate(25 78)"/><path d="M3.2,34.3 C3.2,31.7 3.6,29.1 4.2,26.6 L0.7,25.7 C-1.70530257e-13,28.5 -0.4,31.3 -0.4,34.3 L3.2,34.3 L3.2,34.3 Z" id="Shape" fill="#D1D3D4" transform="translate(25 78)"/><path d="M4.2,42.4 C3.6,39.9 3.2,37.3 3.2,34.7 L-0.4,34.7 C-0.4,37.7 -1.70530257e-13,40.6 0.7,43.3 L4.2,42.4 L4.2,42.4 Z" id="Shape" fill="#D1D3D4" transform="translate(25 78)"/><path d="M15.4,15.1 C17,13.5 18.8,12.2 20.7,11 L18.9,7.8 C16.7,9.1 14.7,10.6 12.9,12.5 L15.4,15.1 L15.4,15.1 Z" id="Shape" fill="#D1D3D4" transform="translate(25 78)"/><path d="M7.3,50 C6,47.7 5,45.3 4.3,42.8 L0.8,43.7 C1.6,46.5 2.7,49.2 4.1,51.7 L7.3,50 L7.3,50 Z" id="Shape" fill="#D1D3D4" transform="translate(25 78)"/><path d="M12.2,56.5 C10.4,54.6 8.8,52.6 7.5,50.4 L4.3,52.2 C5.8,54.7 7.6,57 9.6,59.1 L12.2,56.5 L12.2,56.5 Z" id="Shape" fill="#D1D3D4" transform="translate(25 78)"/><path d="M48.3,11 C50.2,12.1 52,13.5 53.6,15.1 L56.2,12.5 C54.4,10.7 52.3,9.1 50.2,7.8 L48.3,11 L48.3,11 Z" id="Shape" fill="#D1D3D4" transform="translate(25 78)"/><path d="M34.7,11.3 C36.6,11.3 38.5,11.6 40.3,12 L41.2,8.5 C39.1,8 36.9,7.7 34.7,7.6 L34.7,11.3 L34.7,11.3 Z" id="Shape" fill="#D1D3D4" transform="translate(25 78)"/><path d="M40.7,12.2 C42.5,12.7 44.3,13.4 45.9,14.4 L47.7,11.2 C45.8,10.1 43.8,9.3 41.6,8.7 L40.7,12.2 L40.7,12.2 Z" id="Shape" fill="#D1D3D4" transform="translate(25 78)"/><path d="M47.9,21.4 C48.9,22.5 49.8,23.6 50.6,24.9 L54.1,22.9 C53.2,21.3 52,19.8 50.7,18.5 L47.9,21.4 L47.9,21.4 Z" id="Shape" fill="#D1D3D4" transform="translate(25 78)"/><path d="M50.8,25.3 C51.5,26.6 52.1,28 52.5,29.4 L56.4,28.4 C55.9,26.6 55.2,24.9 54.3,23.3 L50.8,25.3 L50.8,25.3 Z" id="Shape" fill="#D1D3D4" transform="translate(25 78)"/><path d="M48.1,11.4 L46.3,14.6 C47.9,15.6 49.4,16.7 50.8,18 L53.4,15.4 C51.8,13.9 50,12.5 48.1,11.4 L48.1,11.4 Z" id="Shape" fill="#D1D3D4" transform="translate(25 78)"/><path d="M23.1,14.3 C24.7,13.4 26.5,12.7 28.3,12.1 L27.4,8.6 C25.3,9.2 23.2,10 21.3,11.1 L23.1,14.3 L23.1,14.3 Z" id="Shape" fill="#23516E" transform="translate(25 78)"/><path d="M28.7,12.1 C30.5,11.6 32.3,11.4 34.3,11.4 L34.3,7.8 C32.1,7.8 29.9,8.1 27.8,8.7 L28.7,12.1 L28.7,12.1 Z" id="Shape" fill="#23516E" transform="translate(25 78)"/><path d="M43.7,50.8 C42.4,51.5 41,52.1 39.6,52.5 L40.6,56.4 C42.4,55.9 44.1,55.2 45.7,54.3 L43.7,50.8 L43.7,50.8 Z" id="Shape" fill="#D1D3D4" transform="translate(25 78)"/><path d="M52.6,29.9 C53,31.3 53.2,32.8 53.2,34.3 L57.3,34.3 C57.3,32.4 57,30.6 56.6,28.8 L52.6,29.9 L52.6,29.9 Z" id="Shape" fill="#D1D3D4" transform="translate(25 78)"/><path d="M39.2,52.6 C37.8,53 36.3,53.2 34.8,53.2 L34.8,57.3 C36.7,57.3 38.5,57 40.3,56.6 L39.2,52.6 L39.2,52.6 Z" id="Shape" fill="#D1D3D4" transform="translate(25 78)"/><path d="M29.5,52.5 C28.1,52.1 26.7,51.5 25.4,50.8 L23.4,54.3 C25,55.2 26.7,55.9 28.5,56.4 L29.5,52.5 L29.5,52.5 Z" id="Shape" fill="#D1D3D4" transform="translate(25 78)"/><path d="M34.3,53.2 C32.8,53.2 31.3,53 29.9,52.6 L28.9,56.5 C30.6,57 32.5,57.2 34.4,57.2 L34.4,53.2 L34.3,53.2 Z" id="Shape" fill="#D1D3D4" transform="translate(25 78)"/><path d="M53.2,34.7 C53.2,36.2 53,37.7 52.6,39.1 L56.5,40.1 C57,38.4 57.2,36.5 57.2,34.6 L53.2,34.6 L53.2,34.7 Z" id="Shape" fill="#D1D3D4" transform="translate(25 78)"/><path d="M52.5,39.5 C52.1,40.9 51.5,42.3 50.8,43.6 L54.3,45.6 C55.2,44 55.9,42.3 56.4,40.5 L52.5,39.5 L52.5,39.5 Z" id="Shape" fill="#D1D3D4" transform="translate(25 78)"/><path d="M47.6,47.8 C46.5,48.8 45.4,49.7 44.1,50.5 L46.1,54 C47.7,53.1 49.2,51.9 50.5,50.6 L47.6,47.8 L47.6,47.8 Z" id="Shape" fill="#D1D3D4" transform="translate(25 78)"/><path d="M50.6,44 C49.8,45.3 48.9,46.5 47.9,47.5 L50.8,50.4 C52.1,49.1 53.2,47.6 54.2,46 L50.6,44 L50.6,44 Z" id="Shape" fill="#D1D3D4" transform="translate(25 78)"/><path d="M56.5,12.8 L53.9,15.4 C55.5,17 56.8,18.8 58,20.7 L61.2,18.9 C59.9,16.7 58.3,14.7 56.5,12.8 L56.5,12.8 Z" id="Shape" fill="#D1D3D4" transform="translate(25 78)"/><path d="M54.7,23.1 C55.6,24.7 56.3,26.5 56.9,28.3 L60.4,27.4 C59.8,25.3 59,23.2 57.9,21.3 L54.7,23.1 L54.7,23.1 Z" id="Shape" fill="#D1D3D4" transform="translate(25 78)"/><path d="M51,18.3 C52.3,19.6 53.5,21.1 54.4,22.8 L57.6,21 C56.5,19.1 55.1,17.4 53.6,15.8 L51,18.3 L51,18.3 Z" id="Shape" fill="#D1D3D4" transform="translate(25 78)"/><path d="M57.7,34.7 C57.7,36.6 57.4,38.5 57,40.3 L60.5,41.2 C61,39.1 61.3,36.9 61.4,34.7 L57.7,34.7 L57.7,34.7 Z" id="Shape" fill="#D1D3D4" transform="translate(25 78)"/><path d="M21.1,10.8 C23,9.7 25.1,8.8 27.3,8.2 L26.4,4.7 C23.9,5.4 21.6,6.4 19.3,7.6 L21.1,10.8 L21.1,10.8 Z" id="Shape" fill="#D1D3D4" transform="translate(25 78)"/><path d="M56.8,40.7 C56.3,42.5 55.6,44.3 54.6,45.9 L57.8,47.7 C58.9,45.8 59.7,43.8 60.3,41.6 L56.8,40.7 L56.8,40.7 Z" id="Shape" fill="#D1D3D4" transform="translate(25 78)"/><path d="M12.1,40.3 C11.6,38.5 11.4,36.6 11.4,34.7 L7.8,34.7 C7.8,36.9 8.1,39.1 8.7,41.2 L12.1,40.3 L12.1,40.3 Z" id="Shape" fill="#D1D3D4" transform="translate(25 78)"/><path d="M27.7,8.1 C29.8,7.6 32,7.3 34.3,7.2 L34.3,3.6 C31.7,3.6 29.2,4 26.7,4.6 L27.7,8.1 L27.7,8.1 Z" id="Shape" fill="#D1D3D4" transform="translate(25 78)"/><path d="M34.7,7.3 C37,7.3 39.2,7.6 41.3,8.2 L42.2,4.7 C39.8,4.1 37.2,3.7 34.6,3.7 L34.6,7.3 L34.7,7.3 Z" id="Shape" fill="#D1D3D4" transform="translate(25 78)"/><path d="M41.8,8.2 C44,8.8 46,9.7 48,10.8 L49.8,7.6 C47.6,6.3 45.2,5.4 42.7,4.7 L41.8,8.2 L41.8,8.2 Z" id="Shape" fill="#D1D3D4" transform="translate(25 78)"/><path d="M25,50.5 C23.7,49.7 22.5,48.8 21.5,47.8 L18.6,50.7 C19.9,52 21.4,53.1 23,54.1 L25,50.5 L25,50.5 Z" id="Shape" fill="#D1D3D4" transform="translate(25 78)"/><path d="M57,28.7 C57.5,30.5 57.7,32.4 57.7,34.3 L61.3,34.3 C61.3,32.1 61,29.9 60.4,27.8 L57,28.7 L57,28.7 Z" id="Shape" fill="#D1D3D4" transform="translate(25 78)"/><path d="M22.8,54.4 C21.2,53.4 19.7,52.3 18.3,51 L15.7,53.6 C17.3,55.1 19,56.5 20.9,57.6 L22.8,54.4 L22.8,54.4 Z" id="Shape" fill="#D1D3D4" transform="translate(25 78)"/><path d="M18,50.7 C16.7,49.4 15.5,47.9 14.6,46.2 L11.4,48 C12.5,49.9 13.9,51.6 15.4,53.2 L18,50.7 L18,50.7 Z" id="Shape" fill="#D1D3D4" transform="translate(25 78)"/><path d="M14.4,45.9 C13.5,44.3 12.8,42.5 12.2,40.7 L8.7,41.6 C9.3,43.7 10.1,45.8 11.2,47.7 L14.4,45.9 L14.4,45.9 Z" id="Shape" fill="#D1D3D4" transform="translate(25 78)"/><path d="M54.5,46.2 C53.5,47.8 52.4,49.3 51.1,50.7 L53.7,53.3 C55.2,51.7 56.6,50 57.7,48.1 L54.5,46.2 L54.5,46.2 Z" id="Shape" fill="#D1D3D4" transform="translate(25 78)"/><path d="M28.3,56.8 C26.5,56.3 24.7,55.6 23.1,54.6 L21.3,57.8 C23.2,58.9 25.2,59.7 27.4,60.3 L28.3,56.8 L28.3,56.8 Z" id="Shape" fill="#D1D3D4" transform="translate(25 78)"/><path d="M34.3,57.6 C32.4,57.6 30.5,57.3 28.7,56.9 L27.8,60.4 C29.9,60.9 32.1,61.2 34.3,61.3 L34.3,57.6 L34.3,57.6 Z" id="Shape" fill="#D1D3D4" transform="translate(25 78)"/><path d="M50.7,51 C49.4,52.3 47.9,53.5 46.2,54.4 L48,57.6 C49.9,56.5 51.6,55.1 53.2,53.6 L50.7,51 L50.7,51 Z" id="Shape" fill="#D1D3D4" transform="translate(25 78)"/><path d="M45.9,54.6 C44.3,55.5 42.5,56.2 40.7,56.8 L41.6,60.3 C43.7,59.7 45.8,58.9 47.7,57.8 L45.9,54.6 L45.9,54.6 Z" id="Shape" fill="#D1D3D4" transform="translate(25 78)"/><path d="M40.3,56.9 C38.5,57.4 36.6,57.6 34.7,57.6 L34.7,61.2 C36.9,61.2 39.1,60.9 41.2,60.3 L40.3,56.9 L40.3,56.9 Z" id="Shape" fill="#D1D3D4" transform="translate(25 78)"/><path d="M24.8,24.4 C25.6,23.6 26.4,23 27.4,22.4 L25.3,18.8 C24.1,19.5 22.9,20.4 21.9,21.4 L24.8,24.4 L24.8,24.4 Z" id="Shape" fill="#23516E" transform="translate(25 78)"/><path d="M24.4,44.3 C23.6,43.5 23,42.7 22.4,41.7 L18.8,43.8 C19.5,45 20.4,46.2 21.4,47.2 L24.4,44.3 L24.4,44.3 Z" id="Shape" fill="#23516E" transform="translate(25 78)"/><path d="M15.1,53.6 C13.5,52 12.2,50.2 11,48.3 L7.8,50.1 C9.1,52.3 10.6,54.3 12.5,56.2 L15.1,53.6 L15.1,53.6 Z" id="Shape" fill="#23516E" transform="translate(25 78)"/><path d="M27.3,60.7 C25.1,60.1 23.1,59.2 21.1,58.1 L19.3,61.3 C21.5,62.6 23.9,63.5 26.4,64.2 L27.3,60.7 L27.3,60.7 Z" id="Shape" fill="#23516E" transform="translate(25 78)"/><path d="M34.7,3.2 C37.3,3.2 39.9,3.6 42.4,4.2 L43.3,0.7 C40.5,-1.13742349e-13 37.7,-0.4 34.7,-0.4 L34.7,3.2 L34.7,3.2 Z" id="Shape" fill="#23516E" transform="translate(25 78)"/><path d="M11.4,34.3 C11.4,32.4 11.7,30.5 12.1,28.7 L8.6,27.8 C8.1,29.9 7.8,32.1 7.7,34.3 L11.4,34.3 L11.4,34.3 Z" id="Shape" fill="#23516E" transform="translate(25 78)"/><path d="M12.2,28.3 C12.7,26.5 13.4,24.7 14.4,23.1 L11.2,21.3 C10.1,23.2 9.3,25.2 8.7,27.4 L12.2,28.3 L12.2,28.3 Z" id="Shape" fill="#23516E" transform="translate(25 78)"/><path d="M14.6,22.7 C15.6,21.1 16.7,19.6 18,18.2 L15.4,15.6 C13.9,17.2 12.5,18.9 11.4,20.8 L14.6,22.7 L14.6,22.7 Z" id="Shape" fill="#23516E" transform="translate(25 78)"/><path d="M18.3,18 C19.6,16.7 21.1,15.5 22.8,14.6 L21,11.4 C19.1,12.5 17.4,13.9 15.8,15.4 L18.3,18 L18.3,18 Z" id="Shape" fill="#23516E" transform="translate(25 78)"/></g><g id="Group" stroke="#000" font-weight="normal" font-family="Helvetica" fill="#000" font-size="3.0017"><text id="____" transform="translate(17 71)"><tspan x="46.1071" y="2.543">____</tspan></text><text id="____" transform="translate(17 71)"><tspan x="56.9475" y="77.5776">____</tspan></text><text id="____" transform="translate(17 71)"><tspan x="46.1071" y="80.5786">____</tspan></text><text id="____" transform="translate(17 71)"><tspan x="56.8342" y="5.2744">____</tspan></text><text id="____" transform="translate(17 71)"><tspan x="65.6135" y="10.2983">____</tspan></text><text id="____" transform="translate(17 71)"><tspan x="73.0544" y="18.4507">____</tspan></text><text id="____" transform="translate(17 71)"><tspan x="77.9851" y="27.0767">____</tspan></text><text id="____" transform="translate(17 71)"><tspan x="80.343" y="36.8726">____</tspan></text><text id="____" transform="translate(17 71)"><tspan x="80.343" y="46.5474">____</tspan></text><text id="____" transform="translate(17 71)"><tspan x="77.9851" y="56.1465">____</tspan></text><text id="____" transform="translate(17 71)"><tspan x="73.5544" y="64.5542">____</tspan></text><text id="____" transform="translate(17 71)"><tspan x="65.6135" y="72.7012">____</tspan></text><text id="____" transform="translate(17 71)"><tspan x="34.6657" y="80.5786">____</tspan></text><text id="____" transform="translate(17 71)"><tspan x="22.3401" y="77.5513">____</tspan></text><text id="____" transform="translate(17 71)"><tspan x="14.3659" y="72.4575">____</tspan></text><text id="____" transform="translate(17 71)"><tspan x="7.2385" y="65.4819">____</tspan></text><text id="____" transform="translate(17 71)"><tspan x="2.278" y="56.5747">____</tspan></text><text id="____" transform="translate(17 71)"><tspan x="0.134" y="47.0718">____</tspan></text><text id="____" transform="translate(17 71)"><tspan x="0.134" y="36.8716">____</tspan></text><text id="____" transform="translate(17 71)"><tspan x="2.5637" y="27.0767">____</tspan></text><text id="____" transform="translate(17 71)"><tspan x="8.0964" y="17.7632">____</tspan></text><text id="____" transform="translate(17 71)"><tspan x="15.1736" y="9.7749">____</tspan></text><text id="____" transform="translate(17 71)"><tspan x="24.1599" y="5.1313">____</tspan></text><text transform="translate(17 71)"><tspan x="34.1194" y="2.6357">____</tspan></text></g><g id="Group"><circle id="Oval" fill="#000" cx="2.5" cy="2.5" r="2.5"/><circle id="Oval" fill="#000" cx="231.5" cy="2.5" r="2.5"/><circle id="Oval" fill="#000" cx="2.5" cy="178.5" r="2.5"/><circle fill="#000" cx="231.5" cy="178.5" r="2.5"/><rect id="Rectangle-path" stroke="#000" stroke-width="0.75" x="3" y="2" width="229.1" height="176.5"/></g><path d="M2.5,16.8 L231.6,16.8" id="Shape" stroke="#000" stroke-width="0.75"/><path d="M2.5,34.3 L231.6,34.3" id="Shape" stroke="#000" stroke-width="0.75"/><path d="M173.9,34.3 L173.9,178.7" id="Shape" stroke="#000" stroke-width="0.75"/><path d="M39.6,16.8 L46.1,25.6 L39.6,34.3" id="Shape" stroke="#000" stroke-width="0.75"/><path d="M82.6,16.8 L89.1,25.6 L82.6,34.3" id="Shape" stroke="#000" stroke-width="0.75"/><path d="M128,16.8 L128,34.3" id="Shape" stroke="#000" stroke-width="0.75"/><path d="M2.5,51.1 L173.9,51.1" id="Shape" stroke="#000" stroke-width="0.75"/><path d="M2.5,173.9 L173.9,173.9" id="Shape" stroke="#000" stroke-width="0.75"/><path d="M176.9,34.3 L176.9,178.7" id="Shape" stroke="#000" stroke-width="0.75"/><rect id="Rectangle-path" stroke="#000" stroke-width="0.75" x="7" y="55" width="162.3" height="115.4"/><rect id="Rectangle-path" stroke="#000" stroke-width="0.75" x="11" y="65" width="97.1" height="101"/><rect id="Rectangle-path" stroke="#000" stroke-width="0.75" x="112" y="65" width="54" height="51"/><rect id="Rectangle-path" stroke="#000" stroke-width="0.75" x="15" y="7" width="5" height="5"/><rect id="Rectangle-path" stroke="#000" stroke-width="0.75" x="32" y="7" width="5" height="5"/><rect id="Rectangle-path" stroke="#000" stroke-width="0.75" x="49" y="7" width="5" height="5"/><rect id="Rectangle-path" stroke="#000" stroke-width="0.75" x="65" y="7" width="5" height="5"/><rect id="Rectangle-path" stroke="#000" stroke-width="0.75" x="82" y="7" width="5" height="5"/><rect id="Rectangle-path" stroke="#000" stroke-width="0.75" x="99" y="7" width="5" height="5"/><rect id="Rectangle-path" stroke="#000" stroke-width="0.75" x="177" y="7" width="45.5" height="4.9"/><rect id="Rectangle-path" stroke="#000" stroke-width="0.75" x="125" y="68" width="37.2" height="3.9"/><rect id="Rectangle-path" stroke="#000" stroke-width="0.75" x="125" y="75" width="37.2" height="3.9"/><rect id="Rectangle-path" stroke="#000" stroke-width="0.75" x="125" y="81" width="37.2" height="3.9"/><rect id="Rectangle-path" stroke="#000" stroke-width="0.75" x="115" y="87" width="13.7" height="2.9"/><rect id="Rectangle-path" stroke="#000" stroke-width="0.75" x="132" y="87" width="13.7" height="2.9"/><rect id="Rectangle-path" stroke="#000" stroke-width="0.75" x="148" y="87" width="13.7" height="2.9"/><path d="M176.9,43 L231.6,43" id="Shape" stroke="#000" stroke-width="0.75"/><path d="M176.9,48.1 L231.6,48.1" id="Shape" stroke="#000" stroke-width="0.75"/><path d="M176.9,62.8 L231.6,62.8" id="Shape" stroke="#000" stroke-width="0.75"/><path d="M176.9,68 L231.6,68" id="Shape" stroke="#000" stroke-width="0.75"/><rect id="Rectangle-path" stroke="#000" stroke-width="0.75" x="8" y="39" width="15.5" height="8.8"/><rect id="Rectangle-path" stroke="#000" stroke-width="0.75" x="26" y="39" width="15.5" height="8.8"/><rect id="Rectangle-path" stroke="#000" stroke-width="0.75" x="44" y="39" width="15.5" height="8.8"/><rect id="Rectangle-path" stroke="#000" stroke-width="0.75" x="63" y="39" width="15.5" height="8.8"/><rect id="Rectangle-path" stroke="#000" stroke-width="0.75" x="81" y="39" width="15.5" height="8.8"/><rect id="Rectangle-path" stroke="#000" stroke-width="0.75" x="99" y="39" width="15.5" height="8.8"/><rect id="Rectangle-path" stroke="#000" stroke-width="0.75" x="118" y="39" width="15.5" height="8.8"/><rect id="Rectangle-path" stroke="#000" stroke-width="0.75" x="136" y="39" width="15.5" height="8.8"/><rect id="Rectangle-path" stroke="#000" stroke-width="0.75" x="155" y="39" width="15.5" height="8.8"/><g transform="translate(14 156)" stroke="#000" stroke-width="0.75"><rect id="Rectangle-path" x="0" y="0" width="30.3" height="5.7"/><rect id="Rectangle-path" x="30" y="0" width="30.3" height="5.7"/><rect id="Rectangle-path" x="60" y="0" width="30.3" height="5.7"/></g><path d="M10.6,23.2 L23.4,23.2" id="Shape" stroke="#23516E"/><path d="M10.6,28.9 L23.4,28.9" id="Shape" stroke="#23516E"/><path d="M10.6,26.1 L35.9,26.1" id="Shape" stroke="#23516E"/><path d="M54.1,23.2 L69.5,23.2" id="Shape" stroke="#23516E"/><path d="M54.1,28.9 L66.9,28.9" id="Shape" stroke="#23516E"/><path d="M54.1,26.1 L65.1,26.1" id="Shape" stroke="#23516E"/><path d="M96.9,23.2 L120.1,23.2" id="Shape" stroke="#23516E"/><path d="M96.9,28.9 L109.7,28.9" id="Shape" stroke="#23516E"/><path d="M96.9,26.1 L121.9,26.1" id="Shape" stroke="#23516E"/><path d="M182.6,37.5 L220.5,37.5" id="Shape" stroke="#23516E"/><path d="M182.6,40.4 L193.7,40.4" id="Shape" stroke="#23516E"/><path d="M182.6,52.1 L196.9,52.1" id="Shape" stroke="#23516E"/><path d="M182.6,54.9 L193.7,54.9" id="Shape" stroke="#23516E"/><path d="M182.6,57.8 L193.7,57.8" id="Shape" stroke="#23516E"/><path d="M182.6,74 L193.7,74" id="Shape" stroke="#000"/><path d="M182.6,76.8 L193.7,76.8" id="Shape" stroke="#000"/><path d="M182.6,79.7 L193.7,79.7" id="Shape" stroke="#000"/><path d="M182.6,82.5 L193.7,82.5" id="Shape" stroke="#000"/><path d="M182.6,85.4 L193.7,85.4" id="Shape" stroke="#000"/><path d="M182.6,88.2 L193.7,88.2" id="Shape" stroke="#000"/><path d="M182.6,91.1 L193.7,91.1" id="Shape" stroke="#000"/><path d="M182.6,94 L193.7,94" id="Shape" stroke="#000"/><path d="M182.6,96.8 L193.7,96.8" id="Shape" stroke="#000"/><path d="M182.6,99.7 L193.7,99.7" id="Shape" stroke="#000"/><path d="M182.6,102.5 L193.7,102.5" id="Shape" stroke="#000"/><path d="M182.6,105.4 L193.7,105.4" id="Shape" stroke="#000"/><path d="M182.6,108.3 L193.7,108.3" id="Shape" stroke="#000"/><path d="M182.6,111.1 L193.7,111.1" id="Shape" stroke="#000"/><path d="M182.6,114 L193.7,114" id="Shape" stroke="#000"/><path d="M182.6,116.8 L193.7,116.8" id="Shape" stroke="#000"/><path d="M182.6,119.7 L193.7,119.7" id="Shape" stroke="#000"/><path d="M182.6,122.6 L193.7,122.6" id="Shape" stroke="#000"/><path d="M182.6,125.4 L193.7,125.4" id="Shape" stroke="#000"/><path d="M182.6,128.3 L193.7,128.3" id="Shape" stroke="#000"/><path d="M182.6,131.1 L193.7,131.1" id="Shape" stroke="#000"/><path d="M182.6,134 L193.7,134" id="Shape" stroke="#000"/><path d="M182.6,136.9 L193.7,136.9" id="Shape" stroke="#000"/><path d="M182.6,139.7 L193.7,139.7" id="Shape" stroke="#000"/><path d="M182.6,142.6 L193.7,142.6" id="Shape" stroke="#000"/><path d="M182.6,145.4 L193.7,145.4" id="Shape" stroke="#000"/><path d="M182.6,148.3 L193.7,148.3" id="Shape" stroke="#000"/><path d="M205.3,74 L227.1,74" id="Shape" stroke="#23516E"/><path d="M205.3,76.8 L227.1,76.8" id="Shape" stroke="#23516E"/><path d="M205.3,79.7 L227.1,79.7" id="Shape" stroke="#23516E"/><path d="M205.3,82.5 L227.1,82.5" id="Shape" stroke="#23516E"/><path d="M205.3,85.4 L227.1,85.4" id="Shape" stroke="#23516E"/><path d="M205.3,88.2 L227.1,88.2" id="Shape" stroke="#23516E"/><path d="M205.3,91.1 L227.1,91.1" id="Shape" stroke="#23516E"/><path d="M205.3,94 L227.1,94" id="Shape" stroke="#23516E"/><path d="M205.3,96.8 L227.1,96.8" id="Shape" stroke="#23516E"/><path d="M205.3,99.7 L227.1,99.7" id="Shape" stroke="#23516E"/><path d="M205.3,102.5 L227.1,102.5" id="Shape" stroke="#23516E"/><path d="M205.3,105.4 L227.1,105.4" id="Shape" stroke="#23516E"/><path d="M205.3,108.3 L227.1,108.3" id="Shape" stroke="#23516E"/><path d="M205.3,111.1 L227.1,111.1" id="Shape" stroke="#23516E"/><path d="M205.3,114 L227.1,114" id="Shape" stroke="#23516E"/><path d="M205.3,116.8 L227.1,116.8" id="Shape" stroke="#23516E"/><path d="M205.3,119.7 L227.1,119.7" id="Shape" stroke="#23516E"/><path d="M205.3,122.6 L227.1,122.6" id="Shape" stroke="#23516E"/><path d="M205.3,125.4 L227.1,125.4" id="Shape" stroke="#23516E"/><path d="M205.3,128.3 L227.1,128.3" id="Shape" stroke="#23516E"/><path d="M205.3,131.1 L227.1,131.1" id="Shape" stroke="#23516E"/><path d="M205.3,134 L225.3,134" id="Shape" stroke="#23516E"/><path d="M205.3,136.9 L221,136.9" id="Shape" stroke="#23516E"/><path d="M205.3,139.7 L219.2,139.7" id="Shape" stroke="#23516E"/><path d="M205.3,142.6 L213.9,142.6" id="Shape" stroke="#23516E"/><path d="M205.3,145.4 L212.1,145.4" id="Shape" stroke="#23516E"/><path d="M205.3,148.3 L212.1,148.3" id="Shape" stroke="#23516E"/><path d="M203.5,74 L198.5,74" id="Shape" stroke="#23516E"/><path d="M203.5,76.8 L198.5,76.8" id="Shape" stroke="#23516E"/><path d="M203.5,79.7 L198.5,79.7" id="Shape" stroke="#23516E"/><path d="M203.5,82.5 L198.5,82.5" id="Shape" stroke="#23516E"/><path d="M203.5,85.4 L198.5,85.4" id="Shape" stroke="#23516E"/><path d="M203.5,88.2 L198.5,88.2" id="Shape" stroke="#23516E"/><path d="M203.5,91.1 L198.5,91.1" id="Shape" stroke="#23516E"/><path d="M203.5,94 L198.5,94" id="Shape" stroke="#23516E"/><path d="M203.5,96.8 L198.5,96.8" id="Shape" stroke="#23516E"/><path d="M203.5,99.7 L198.5,99.7" id="Shape" stroke="#23516E"/><path d="M203.5,102.5 L198.5,102.5" id="Shape" stroke="#23516E"/><path d="M203.5,105.4 L198.5,105.4" id="Shape" stroke="#23516E"/><path d="M203.5,108.3 L198.5,108.3" id="Shape" stroke="#23516E"/><path d="M203.5,111.1 L198.5,111.1" id="Shape" stroke="#23516E"/><path d="M203.5,114 L198.5,114" id="Shape" stroke="#23516E"/><path d="M203.5,116.8 L198.5,116.8" id="Shape" stroke="#23516E"/><path d="M203.5,119.7 L198.5,119.7" id="Shape" stroke="#23516E"/><path d="M203.5,122.6 L198.5,122.6" id="Shape" stroke="#23516E"/><path d="M203.5,125.4 L198.5,125.4" id="Shape" stroke="#23516E"/><path d="M203.5,128.3 L198.5,128.3" id="Shape" stroke="#23516E"/><path d="M203.5,131.1 L198.5,131.1" id="Shape" stroke="#23516E"/><path d="M203.5,134 L198.5,134" id="Shape" stroke="#23516E"/><path d="M203.5,136.9 L198.5,136.9" id="Shape" stroke="#23516E"/><path d="M203.5,139.7 L198.5,139.7" id="Shape" stroke="#23516E"/><path d="M203.5,142.6 L198.5,142.6" id="Shape" stroke="#23516E"/><path d="M203.5,145.4 L198.5,145.4" id="Shape" stroke="#23516E"/><path d="M203.5,148.3 L198.5,148.3" id="Shape" stroke="#23516E"/><path d="M122.6,70.4 L115,70.4" id="Shape" stroke="#000" stroke-width="0.75"/><path d="M122.6,76.8 L115,76.8" id="Shape" stroke="#000" stroke-width="0.75"/><path d="M122.6,83.2 L115,83.2" id="Shape" stroke="#000" stroke-width="0.75"/><rect id="Rectangle-path" stroke="#000" stroke-width="0.75" x="125" y="92" width="37.2" height="3.9"/><rect id="Rectangle-path" stroke="#000" stroke-width="0.75" x="125" y="99" width="37.2" height="3.9"/><path d="M122.6,94.5 L115,94.5" id="Shape" stroke="#000" stroke-width="0.75"/><path d="M122.6,100.9 L115,100.9" id="Shape" stroke="#000" stroke-width="0.75"/><rect id="Rectangle-path" stroke="#000" stroke-width="0.75" x="150" y="6" width="5" height="5"/><path d="M149.9,13.2 L155.6,13.2" id="Shape" stroke="#000" stroke-width="0.75"/><rect id="Rectangle-path" stroke="#000" stroke-width="0.75" x="157" y="6" width="5" height="5"/><path d="M157,13.2 L162.7,13.2" id="Shape" stroke="#000" stroke-width="0.75"/><rect stroke="#000" stroke-width="0.75" x="164" y="6" width="5" height="5"/><path d="M164.1,13.2 L169.8,13.2" stroke="#000" stroke-width="0.75"/></g></svg>