<svg width="241px" height="188px" viewBox="0 0 241 188" version="1.1" xmlns="http://www.w3.org/2000/svg" xmlns:xlink="http://www.w3.org/1999/xlink"><title>app-icon-browser</title><desc>Created with Sketch.</desc><defs/><g transform="translate(3 3)" stroke="none" stroke-width="1" fill="none" fill-rule="evenodd"><rect id="Rectangle-path" stroke="#000" stroke-width="0.75" x="48" y="85" width="3.6" height="3.6"/><rect id="Rectangle-path" stroke="#000" stroke-width="0.75" x="147" y="85" width="3.6" height="3.6"/><path d="M53.7,86.4 L67.2,86.4" id="Shape" stroke="#000"/><path d="M147.3,118.2 L170.8,118.2" id="Shape" stroke="#23516E"/><path d="M147.3,152.1 L166.4,152.1" id="Shape" stroke="#23516E"/><path d="M147.3,155.6 L177.2,155.6" id="Shape" stroke="#23516E"/><path d="M147.3,159.2 L179.3,159.2" id="Shape" stroke="#23516E"/><path d="M147.3,162.7 L183.5,162.7" id="Shape" stroke="#23516E"/><path d="M153.1,86.4 L172.2,86.4" id="Shape" stroke="#000"/><path d="M75.1,100.1 L81.4,100.1" id="Shape" stroke="#000" stroke-width="0.75"/><path d="M75.1,96.2 L81.4,96.2" id="Shape" stroke="#000" stroke-width="0.75"/><path d="M75.1,103.5 L81.4,103.5" id="Shape" stroke="#000" stroke-width="0.75"/><path d="M75.1,106.9 L80,106.9" id="Shape" stroke="#000" stroke-width="0.75"/><path d="M75.1,110.3 L102.6,110.3" id="Shape" stroke="#000" stroke-width="0.75"/><path d="M75.1,113.7 L102.6,113.7" id="Shape" stroke="#000" stroke-width="0.75"/><path d="M75.1,117.1 L90.4,117.1" id="Shape" stroke="#000" stroke-width="0.75"/><path d="M75.1,120.5 L86.3,120.5" id="Shape" stroke="#000" stroke-width="0.75"/><path d="M75.1,123.9 L91.9,123.9" id="Shape" stroke="#000" stroke-width="0.75"/><path d="M75.1,127.3 L114.2,127.3" id="Shape" stroke="#000" stroke-width="0.75"/><path d="M75.1,130.7 L78.3,130.7" id="Shape" stroke="#000" stroke-width="0.75"/><path d="M147.3,96.5 L162.6,96.5" id="Shape" stroke="#23516E"/><path d="M147.3,100 L161.2,100" id="Shape" stroke="#23516E"/><path d="M147.3,103.4 L164.1,103.4" id="Shape" stroke="#23516E"/><path d="M147.3,106.9 L171.8,106.9" id="Shape" stroke="#23516E"/><path d="M147.3,110.3 L160.5,110.3" id="Shape" stroke="#23516E"/><path d="M75.1,134.1 L119.5,134.1" id="Shape" stroke="#000" stroke-width="0.75"/><path d="M75.1,137.5 L78.3,137.5" id="Shape" stroke="#000" stroke-width="0.75"/><path d="M75.1,140.9 L82.8,140.9" id="Shape" stroke="#000" stroke-width="0.75"/><path d="M75.1,144.3 L77.7,144.3" id="Shape" stroke="#000" stroke-width="0.75"/><path d="M75.1,147.7 L80.7,147.7" id="Shape" stroke="#000" stroke-width="0.75"/><path d="M151.5,127.3 L166.5,127.3" id="Shape" stroke="#23516E"/><path d="M174.8,130.8 L180.1,130.8" id="Shape" stroke="#23516E"/><path d="M174.8,134.1 L180.1,134.1" id="Shape" stroke="#23516E"/><path d="M174.8,137.4 L180.1,137.4" id="Shape" stroke="#23516E"/><path d="M75.1,151.1 L83.5,151.1" id="Shape" stroke="#000" stroke-width="0.75"/><path d="M75.1,154.5 L91.4,154.5" id="Shape" stroke="#000" stroke-width="0.75"/><path d="M75.1,157.9 L99.9,157.9" id="Shape" stroke="#000" stroke-width="0.75"/><path d="M75.1,161.3 L81.4,161.3" id="Shape" stroke="#000" stroke-width="0.75"/><path d="M75.1,164.7 L80.5,164.7" id="Shape" stroke="#000" stroke-width="0.75"/><path d="M75.1,168.1 L82.8,168.1" id="Shape" stroke="#000" stroke-width="0.75"/><path d="M75.1,171.5 L80.6,171.5" id="Shape" stroke="#000" stroke-width="0.75"/><path d="M75.1,174.9 L90.4,174.9" id="Shape" stroke="#000" stroke-width="0.75"/><path d="M59.1,96.4 L70.3,96.4" id="Shape" stroke="#000" stroke-width="0.75"/><path d="M53.2,92 L64.4,92" id="Shape" stroke="#000"/><path d="M75.1,92 L86.3,92" id="Shape" stroke="#000"/><path d="M61.8,106.9 L70.3,106.9" id="Shape" stroke="#000" stroke-width="0.75"/><path d="M52.5,110.3 L70.3,110.3" id="Shape" stroke="#000" stroke-width="0.75"/><path d="M61,113.7 L70.3,113.7" id="Shape" stroke="#000" stroke-width="0.75"/><path d="M59.1,117.1 L70.3,117.1" id="Shape" stroke="#000" stroke-width="0.75"/><path d="M59.1,120.5 L70.3,120.5" id="Shape" stroke="#000" stroke-width="0.75"/><path d="M55.6,123.9 L70.3,123.9" id="Shape" stroke="#000" stroke-width="0.75"/><path d="M64.7,127.3 L70.3,127.3" id="Shape" stroke="#000" stroke-width="0.75"/><path d="M54.5,130.7 L70.3,130.7" id="Shape" stroke="#000" stroke-width="0.75"/><path d="M65.3,134.1 L70.3,134.1" id="Shape" stroke="#000" stroke-width="0.75"/><path d="M59.1,137.5 L70.3,137.5" id="Shape" stroke="#000" stroke-width="0.75"/><path d="M59.1,140.9 L70.3,140.9" id="Shape" stroke="#000" stroke-width="0.75"/><path d="M63.9,144.3 L70.3,144.3" id="Shape" stroke="#000" stroke-width="0.75"/><path d="M59.1,151.1 L70.3,151.1" id="Shape" stroke="#000" stroke-width="0.75"/><path d="M64.6,168.1 L70.3,168.1" id="Shape" stroke="#000" stroke-width="0.75"/><path d="M63.4,171.5 L70.3,171.5" id="Shape" stroke="#000" stroke-width="0.75"/><path d="M62.9,174.9 L70.3,174.9" id="Shape" stroke="#000" stroke-width="0.75"/><g id="Group" transform="translate(45 83)" stroke="#000" stroke-width="0.25"><rect id="Rectangle-path" x="0" y="15" width="186.7" height="3.5"/><rect id="Rectangle-path" x="0" y="22" width="186.7" height="3.5"/><rect id="Rectangle-path" x="0" y="29" width="186.7" height="3.5"/><rect id="Rectangle-path" x="0" y="36" width="99.2" height="3.5"/><rect id="Rectangle-path" x="0" y="43" width="186.7" height="3.5"/><rect id="Rectangle-path" x="0" y="49" width="186.7" height="3.5"/><rect id="Rectangle-path" x="0" y="56" width="186.7" height="3.5"/><rect id="Rectangle-path" x="0" y="63" width="99.2" height="3.5"/><rect id="Rectangle-path" x="0" y="70" width="99.2" height="3.5"/><rect id="Rectangle-path" x="0" y="76" width="99.2" height="3.5"/><rect id="Rectangle-path" x="0" y="83" width="99.2" height="3.5"/><rect id="Rectangle-path" x="0" y="90" width="99.2" height="3.5"/><path d="M5.4,11.3 L5.4,93.6" id="Shape"/><path d="M27.6,11.3 L27.6,93.6" id="Shape"/><path d="M-0.1,7.1 L186.7,7.1" id="Shape"/><path d="M99.2,-0.3 L99.2,96.3" id="Shape"/><path d="M99.2,38.4 L186.7,38.4" id="Shape"/><path d="M99.2,32.4 L186.7,32.4" id="Shape"/><path d="M132.5,11.3 L132.5,32.4" id="Shape"/><path d="M149.5,11.3 L149.5,32.4" id="Shape"/><path d="M166.5,11.3 L166.5,32.4" id="Shape"/><path d="M-0.1,11.3 L186.7,11.3" id="Shape"/><path d="M99.2,83.2 L186.5,83.2" id="Shape"/></g><rect id="Rectangle-path" stroke="#000" stroke-width="0.75" x="4" y="43" width="35.5" height="4.9"/><g id="Group" transform="translate(4 50)" stroke="#000" stroke-width="0.75"><rect id="Rectangle-path" x="0" y="0" width="35.5" height="4.9"/><path d="M32.4,0.2 L32.4,5.1" id="Shape"/></g><path d="M42.2,34.7 L42.2,179.1" id="Shape" stroke="#000" stroke-width="0.75"/><path d="M45.2,34.7 L45.2,179.1" id="Shape" stroke="#000" stroke-width="0.75"/><g><path d="M2.4,34.7 L231.5,34.7" id="Shape" stroke="#000" stroke-width="0.75"/><circle id="Oval" fill="#000" cx="2.5" cy="2.5" r="2.5"/><circle id="Oval" fill="#000" cx="231.5" cy="2.5" r="2.5"/><circle id="Oval" fill="#000" cx="2.5" cy="179.5" r="2.5"/><circle fill="#000" cx="231.5" cy="179.5" r="2.5"/><rect id="Rectangle-path" stroke="#000" stroke-width="0.75" x="3" y="3" width="229.1" height="176.5"/><path d="M2.5,17.4 L231.5,17.4" id="Shape" stroke="#000" stroke-width="0.75"/><rect id="Rectangle-path" stroke="#000" stroke-width="0.75" x="15" y="8" width="5" height="5"/><rect id="Rectangle-path" stroke="#000" stroke-width="0.75" x="6" y="29" width="3.4" height="3.4"/><rect id="Rectangle-path" stroke="#000" stroke-width="0.75" x="11" y="29" width="3.4" height="3.4"/><rect id="Rectangle-path" stroke="#000" stroke-width="0.75" x="33" y="29" width="3.4" height="3.4"/><rect id="Rectangle-path" stroke="#000" stroke-width="0.75" x="38" y="29" width="3.4" height="3.4"/><rect id="Rectangle-path" stroke="#000" stroke-width="0.75" x="57" y="29" width="3.4" height="3.4"/><rect id="Rectangle-path" stroke="#000" stroke-width="0.75" x="62" y="29" width="3.4" height="3.4"/><rect id="Rectangle-path" stroke="#000" stroke-width="0.75" x="67" y="29" width="3.4" height="3.4"/><rect id="Rectangle-path" stroke="#000" stroke-width="0.75" x="72" y="29" width="3.4" height="3.4"/><rect id="Rectangle-path" stroke="#000" stroke-width="0.75" x="90" y="29" width="3.4" height="3.4"/><rect id="Rectangle-path" stroke="#000" stroke-width="0.75" x="95" y="29" width="3.4" height="3.4"/><rect id="Rectangle-path" stroke="#000" stroke-width="0.75" x="100" y="29" width="3.4" height="3.4"/><rect id="Rectangle-path" stroke="#000" stroke-width="0.75" x="105" y="29" width="3.4" height="3.4"/><rect id="Rectangle-path" stroke="#000" stroke-width="0.75" x="110" y="29" width="3.4" height="3.4"/><rect id="Rectangle-path" stroke="#000" stroke-width="0.75" x="128" y="29" width="3.4" height="3.4"/><rect id="Rectangle-path" stroke="#000" stroke-width="0.75" x="32" y="8" width="5" height="5"/><rect id="Rectangle-path" stroke="#000" stroke-width="0.75" x="49" y="8" width="5" height="5"/><rect id="Rectangle-path" stroke="#000" stroke-width="0.75" x="65" y="8" width="5" height="5"/><rect id="Rectangle-path" stroke="#000" stroke-width="0.75" x="82" y="8" width="5" height="5"/><rect id="Rectangle-path" stroke="#000" stroke-width="0.75" x="98" y="8" width="5" height="5"/><rect id="Rectangle-path" stroke="#000" stroke-width="0.75" x="151" y="7" width="5" height="5"/><rect id="Rectangle-path" stroke="#000" stroke-width="0.75" x="177" y="8" width="45.5" height="4.9"/><path d="M150.3,13.7 L156.1,13.7" id="Shape" stroke="#000" stroke-width="0.75"/><rect id="Rectangle-path" stroke="#000" stroke-width="0.75" x="158" y="7" width="5" height="5"/><path d="M157.4,13.7 L163.2,13.7" id="Shape" stroke="#000" stroke-width="0.75"/><rect id="Rectangle-path" stroke="#000" stroke-width="0.75" x="165" y="7" width="5" height="5"/><path d="M164.5,13.7 L170.3,13.7" id="Shape" stroke="#000" stroke-width="0.75"/><path d="M231.5,25.7 L117.3,25.7 L117.3,19.8 L81.2,19.8 L81.2,25.7 L79.4,25.7 L79.4,19.8 L43.3,19.8 L43.3,25.7 L41.4,25.7 L41.4,19.8 L5.3,19.8 L5.3,25.7 L2.5,25.7" id="Shape" stroke="#000" stroke-width="0.75"/><path d="M2.5,27.2 L231.6,27.2" id="Shape" stroke="#000" stroke-width="0.75"/><path d="M8.6,23.1 L37.9,23.1" id="Shape" stroke="#000" stroke-width="0.75"/><path d="M46.7,23.1 L76,23.1" id="Shape" stroke="#000" stroke-width="0.75"/><path d="M84.7,23.1 L114.1,23.1" id="Shape" stroke="#000" stroke-width="0.75"/></g><rect id="Rectangle-path" stroke="#000" stroke-width="0.75" x="49" y="39" width="28.4" height="34.2"/><rect id="Rectangle-path" stroke="#000" stroke-width="0.75" x="151" y="49" width="28.4" height="23.3"/><rect id="Rectangle-path" stroke="#000" stroke-width="0.75" x="99" y="49" width="48.8" height="23.3"/><path d="M48.8,66.8 L76.7,66.8" id="Shape" stroke="#000" stroke-width="0.75"/><path d="M45.2,41.9 L48.8,41.9" id="Shape" stroke="#000" stroke-width="0.75"/><path d="M77.1,41.9 L231.5,41.9" id="Shape" stroke="#000" stroke-width="0.75"/><rect id="Rectangle-path" stroke="#000" stroke-width="0.75" x="81" y="50" width="13.7" height="5.8"/><rect id="Rectangle-path" stroke="#000" stroke-width="0.75" x="81" y="58" width="13.7" height="5.8"/><rect stroke="#000" stroke-width="0.75" x="81" y="67" width="13.7" height="5.8"/><path d="M45.2,75.9 L231.5,75.9" id="Shape" stroke="#000" stroke-width="0.75"/><path d="M45.2,82.7 L231.5,82.7" id="Shape" stroke="#000" stroke-width="0.75"/><path d="M92.4,75.9 L92.4,80.3 L231.5,80.3" id="Shape" stroke="#000" stroke-width="0.75"/><path d="M2.5,40.8 L42.1,40.8" id="Shape" stroke="#000" stroke-width="0.75"/><path d="M2.5,57.9 L42.1,57.9" id="Shape" stroke="#000" stroke-width="0.75"/><path d="M2.5,64.2 L42.1,64.2" stroke="#000" stroke-width="0.75"/></g></svg>