<svg width="240px" height="187px" viewBox="0 0 240 187" version="1.1" xmlns="http://www.w3.org/2000/svg" xmlns:xlink="http://www.w3.org/1999/xlink"><title>app-icon-graph</title><desc>Created with Sketch.</desc><defs/><g transform="translate(2 1)" stroke="none" stroke-width="1" fill="none" fill-rule="evenodd"><path d="M2.5,34.9 L231.6,34.9" id="Shape" stroke="#000" stroke-width="0.75"/><g id="Group"><circle id="Oval" fill="#000" cx="2.5" cy="2.5" r="2.5"/><circle id="Oval" fill="#000" cx="231.5" cy="2.5" r="2.5"/><circle id="Oval" fill="#000" cx="2.5" cy="179.5" r="2.5"/><circle id="Oval" fill="#000" cx="231.5" cy="179.5" r="2.5"/><rect id="Rectangle-path" stroke="#000" stroke-width="0.75" x="3" y="3" width="229.1" height="176.5"/></g><path d="M2.5,17.4 L231.6,17.4" id="Shape" stroke="#000" stroke-width="0.75"/><rect id="Rectangle-path" stroke="#000" stroke-width="0.75" x="15" y="8" width="5" height="5"/><rect id="Rectangle-path" stroke="#000" stroke-width="0.75" x="8" y="22" width="2.5" height="2.5"/><rect id="Rectangle-path" stroke="#000" stroke-width="0.75" x="16" y="22" width="2.5" height="2.5"/><rect id="Rectangle-path" stroke="#000" stroke-width="0.75" x="23" y="22" width="2.5" height="2.5"/><rect id="Rectangle-path" stroke="#000" stroke-width="0.75" x="30" y="22" width="2.5" height="2.5"/><rect id="Rectangle-path" stroke="#000" stroke-width="0.75" x="38" y="22" width="2.5" height="2.5"/><rect id="Rectangle-path" stroke="#000" stroke-width="0.75" x="45" y="22" width="2.5" height="2.5"/><rect id="Rectangle-path" stroke="#000" stroke-width="0.75" x="52" y="22" width="2.5" height="2.5"/><rect id="Rectangle-path" stroke="#000" stroke-width="0.75" x="60" y="22" width="2.5" height="2.5"/><rect id="Rectangle-path" stroke="#000" stroke-width="0.75" x="67" y="22" width="2.5" height="2.5"/><rect id="Rectangle-path" stroke="#000" stroke-width="0.75" x="74" y="22" width="2.5" height="2.5"/><rect id="Rectangle-path" stroke="#000" stroke-width="0.75" x="82" y="22" width="2.5" height="2.5"/><rect id="Rectangle-path" stroke="#000" stroke-width="0.75" x="89" y="22" width="2.5" height="2.5"/><rect id="Rectangle-path" stroke="#000" stroke-width="0.75" x="96" y="22" width="2.5" height="2.5"/><rect id="Rectangle-path" stroke="#000" stroke-width="0.75" x="104" y="22" width="2.5" height="2.5"/><rect id="Rectangle-path" stroke="#000" stroke-width="0.75" x="111" y="22" width="2.5" height="2.5"/><rect id="Rectangle-path" stroke="#000" stroke-width="0.75" x="32" y="8" width="5" height="5"/><rect id="Rectangle-path" stroke="#000" stroke-width="0.75" x="49" y="8" width="5" height="5"/><rect id="Rectangle-path" stroke="#000" stroke-width="0.75" x="65" y="8" width="5" height="5"/><rect id="Rectangle-path" stroke="#000" stroke-width="0.75" x="82" y="8" width="5" height="5"/><rect id="Rectangle-path" stroke="#000" stroke-width="0.75" x="99" y="8" width="5" height="5"/><rect id="Rectangle-path" stroke="#000" stroke-width="0.75" x="151" y="7" width="5" height="5"/><rect id="Rectangle-path" stroke="#000" stroke-width="0.75" x="177" y="8" width="45.5" height="4.9"/><rect id="Rectangle-path" stroke="#000" stroke-width="0.75" x="9" y="27" width="35.5" height="4.9"/><rect id="Rectangle-path" stroke="#000" stroke-width="0.75" x="49" y="27" width="12.5" height="4.9"/><g transform="translate(67 51)"><path d="M33.8,102.1 L43.4,77.7" id="Shape" stroke="#23516E" stroke-width="0.75"/><path d="M42.9,95.6 L43.4,77.7 L44.6,106" id="Shape" stroke="#23516E" stroke-width="0.75"/><path d="M53.9,104 L43.4,77.7" id="Shape" stroke="#23516E" stroke-width="0.75"/><path d="M63,100.1 L43.4,77.7" id="Shape" stroke="#23516E" stroke-width="0.75"/><path d="M66.6,88.6 L43.4,77.7" id="Shape" stroke="#23516E" stroke-width="0.75"/><path d="M61.9,77.7 L43.4,77.7" id="Shape" stroke="#23516E" stroke-width="0.75"/><circle id="Oval" fill="#E6E7E8" cx="79.3" cy="60.3" r="1.3"/><circle id="Oval" fill="#E6E7E8" cx="92.3" cy="60.3" r="1.3"/><circle id="Oval" fill="#E6E7E8" cx="86.3" cy="60.3" r="1.3"/><circle id="Oval" fill="#E6E7E8" cx="98.3" cy="60.3" r="1.3"/><circle id="Oval" fill="#E6E7E8" cx="79.3" cy="67.3" r="1.3"/><circle id="Oval" fill="#E6E7E8" cx="92.3" cy="67.3" r="1.3"/><circle id="Oval" fill="#E6E7E8" cx="86.3" cy="67.3" r="1.3"/><circle id="Oval" fill="#E6E7E8" cx="98.3" cy="67.3" r="1.3"/><circle id="Oval" fill="#E6E7E8" cx="79.3" cy="73.3" r="1.3"/><circle id="Oval" fill="#E6E7E8" cx="86.3" cy="73.3" r="1.3"/><circle id="Oval" fill="#E6E7E8" cx="79.3" cy="54.3" r="1.3"/><circle id="Oval" fill="#E6E7E8" cx="92.3" cy="54.3" r="1.3"/><circle id="Oval" fill="#E6E7E8" cx="98.3" cy="54.3" r="1.3"/><path d="M54.6,1.5 L52.6,28.4" id="Shape" stroke="#23516E" stroke-width="0.75"/><path d="M52.6,28.4 L68.2,3" id="Shape" stroke="#23516E" stroke-width="0.75"/><path d="M58.7,10.2 L52.6,28.4" id="Shape" stroke="#23516E" stroke-width="0.75"/><path d="M44.1,2.3 L52.6,28.4" id="Shape" stroke="#23516E" stroke-width="0.75"/><path d="M42.8,13.6 L52.6,28.4" id="Shape" stroke="#23516E" stroke-width="0.75"/><path d="M33.1,9.7 L52.6,28.4" id="Shape" stroke="#23516E" stroke-width="0.75"/><path d="M68.7,16.2 L52.6,28.4" id="Shape" stroke="#23516E" stroke-width="0.75"/><path d="M78.3,16.2 L52.6,28.4" id="Shape" stroke="#23516E" stroke-width="0.75"/><path d="M72.8,28.3 L52.6,28.4" id="Shape" stroke="#23516E" stroke-width="0.75"/><path d="M45.4,43 L52.6,28.4" id="Shape" stroke="#23516E" stroke-width="0.75"/><path d="M35.9,39.6 L52.6,28.4" id="Shape" stroke="#23516E" stroke-width="0.75"/><path d="M34.6,29.6 L52.6,28.4" id="Shape" stroke="#23516E" stroke-width="0.75"/><path d="M30,20.1 L52.6,28.4" id="Shape" stroke="#23516E" stroke-width="0.75"/><path d="M58.7,57.9 L52.6,28.3" id="Shape" stroke="#23516E" stroke-width="0.75"/><path d="M52.6,28.3 L85.7,53.5" id="Shape" stroke="#23516E" stroke-width="0.75"/><path d="M20.2,31 L27.9,53.5" id="Shape" stroke="#23516E" stroke-width="0.75"/><path d="M10.4,34.9 L27.9,53.5" id="Shape" stroke="#23516E" stroke-width="0.75"/><path d="M2.1,43.5 L27.9,53.5" id="Shape" stroke="#23516E" stroke-width="0.75"/><path d="M10.4,50.9 L27.9,53.5" id="Shape" stroke="#23516E" stroke-width="0.75"/><path d="M2.8,59.9 L27.9,53.5" id="Shape" stroke="#23516E" stroke-width="0.75"/><path d="M10.4,66.8 L27.9,53.5" id="Shape" stroke="#23516E" stroke-width="0.75"/><path d="M41.3,66.8 L27.9,53.5" id="Shape" stroke="#23516E" stroke-width="0.75"/><path d="M44.7,43.7 L27.9,53.5" id="Shape" stroke="#23516E" stroke-width="0.75"/><path d="M43.4,77.7 L58.7,59.9 L27.9,53.5" id="Shape" stroke="#23516E" stroke-width="0.75"/><path d="M27.9,63.8 L43.4,77.7" id="Shape" stroke="#23516E" stroke-width="0.75"/><path d="M24.3,74.3 L43.4,77.7" id="Shape" stroke="#23516E" stroke-width="0.75"/><path d="M18.6,83.3 L43.4,77.7" id="Shape" stroke="#23516E" stroke-width="0.75"/><path d="M22.2,96.2 L43.4,77.7" id="Shape" stroke="#23516E" stroke-width="0.75"/><circle id="Oval" fill="#E6E7E8" cx="43.6" cy="77.6" r="1.6"/><rect id="Rectangle-path" fill="#23516E" x="53" y="0" width="4.1" height="3.9"/><rect id="Rectangle-path" fill="#23516E" x="57" y="8" width="4.1" height="3.9"/><rect id="Rectangle-path" fill="#23516E" x="66" y="1" width="4.1" height="3.9"/><rect id="Rectangle-path" fill="#23516E" x="67" y="14" width="4.1" height="3.9"/><rect id="Rectangle-path" fill="#23516E" x="76" y="14" width="4.1" height="3.9"/><rect id="Rectangle-path" fill="#23516E" x="71" y="26" width="4.1" height="3.9"/><rect id="Rectangle-path" fill="#23516E" x="43" y="41" width="4.1" height="3.9"/><rect id="Rectangle-path" fill="#23516E" x="18" y="29" width="4.1" height="3.9"/><rect id="Rectangle-path" fill="#23516E" x="8" y="33" width="4.1" height="3.9"/><rect id="Rectangle-path" fill="#23516E" x="0" y="42" width="4.1" height="3.9"/><rect id="Rectangle-path" fill="#23516E" x="8" y="49" width="4.1" height="3.9"/><rect id="Rectangle-path" fill="#23516E" x="1" y="58" width="4.1" height="3.9"/><rect id="Rectangle-path" fill="#23516E" x="8" y="65" width="4.1" height="3.9"/><rect id="Rectangle-path" fill="#23516E" x="39" y="65" width="4.1" height="3.9"/><rect id="Rectangle-path" fill="#23516E" x="26" y="62" width="4.1" height="3.9"/><rect id="Rectangle-path" fill="#23516E" x="22" y="72" width="4.1" height="3.9"/><rect id="Rectangle-path" fill="#23516E" x="17" y="81" width="4.1" height="3.9"/><rect id="Rectangle-path" fill="#23516E" x="20" y="94" width="4.1" height="3.9"/><rect id="Rectangle-path" fill="#23516E" x="28" y="88" width="4.1" height="3.9"/><rect id="Rectangle-path" fill="#23516E" x="32" y="100" width="4.1" height="3.9"/><rect id="Rectangle-path" fill="#23516E" x="41" y="94" width="4.1" height="3.9"/><rect id="Rectangle-path" fill="#23516E" x="43" y="104" width="4.1" height="3.9"/><rect id="Rectangle-path" fill="#23516E" x="52" y="102" width="4.1" height="3.9"/><rect id="Rectangle-path" fill="#23516E" x="54" y="92" width="4.1" height="3.9"/><rect id="Rectangle-path" fill="#23516E" x="61" y="98" width="4.1" height="3.9"/><rect id="Rectangle-path" fill="#23516E" x="65" y="87" width="4.1" height="3.9"/><rect id="Rectangle-path" fill="#23516E" x="60" y="76" width="4.1" height="3.9"/><rect id="Rectangle-path" fill="#23516E" x="34" y="38" width="4.1" height="3.9"/><rect id="Rectangle-path" fill="#23516E" x="33" y="28" width="4.1" height="3.9"/><rect id="Rectangle-path" fill="#23516E" x="28" y="18" width="4.1" height="3.9"/><rect id="Rectangle-path" fill="#23516E" x="31" y="8" width="4.1" height="3.9"/><rect id="Rectangle-path" fill="#23516E" x="42" y="0" width="4.1" height="3.9"/><rect id="Rectangle-path" fill="#23516E" x="41" y="12" width="4.1" height="3.9"/><rect id="Rectangle-path" fill="#23516E" x="54" y="55" width="9.5" height="9"/><rect id="Rectangle-path" fill="#23516E" x="84" y="52" width="4.1" height="3.9"/><circle id="Oval" fill="#E6E7E8" cx="27.6" cy="53.6" r="1.6"/><circle id="Oval" fill="#E6E7E8" cx="52.6" cy="28.6" r="1.6"/></g><path d="M41.2,27.3 L41.2,32.2" id="Shape" stroke="#000" stroke-width="0.75"/><path d="M58.6,27.3 L58.6,32.2" id="Shape" stroke="#000" stroke-width="0.75"/><rect id="Rectangle-path" stroke="#000" stroke-width="0.75" x="124" y="27" width="12.5" height="4.9"/><path d="M133.5,27.3 L133.5,32.2" id="Shape" stroke="#000" stroke-width="0.75"/><rect id="Rectangle-path" stroke="#000" stroke-width="0.75" x="140" y="27" width="12.5" height="4.9"/><path d="M149.7,27.3 L149.7,32.2" id="Shape" stroke="#000" stroke-width="0.75"/><path d="M150.4,13.8 L156.2,13.8" id="Shape" stroke="#000" stroke-width="0.75"/><rect id="Rectangle-path" stroke="#000" stroke-width="0.75" x="158" y="7" width="5" height="5"/><path d="M157.5,13.8 L163.2,13.8" id="Shape" stroke="#000" stroke-width="0.75"/><rect stroke="#000" stroke-width="0.75" x="165" y="7" width="5" height="5"/><path d="M164.6,13.8 L170.3,13.8" stroke="#000" stroke-width="0.75"/><circle id="Oval" fill="#000" cx="68.3" cy="29.3" r="1.3"/><circle id="Oval" fill="#000" cx="75.3" cy="29.3" r="1.3"/><circle id="Oval" fill="#000" cx="83.3" cy="29.3" r="1.3"/><circle id="Oval" fill="#000" cx="90.3" cy="29.3" r="1.3"/><circle id="Oval" fill="#000" cx="97.3" cy="29.3" r="1.3"/><circle id="Oval" fill="#000" cx="105.3" cy="29.3" r="1.3"/><circle id="Oval" fill="#000" cx="112.3" cy="29.3" r="1.3"/><circle id="Oval" fill="#000" cx="119.3" cy="29.3" r="1.3"/><circle id="Oval" fill="#000" cx="168.3" cy="29.3" r="1.3"/><circle id="Oval" fill="#000" cx="175.3" cy="29.3" r="1.3"/><circle fill="#000" cx="182.3" cy="29.3" r="1.3"/></g></svg>