<svg width="241px" height="197px" viewBox="0 0 241 197" version="1.1" xmlns="http://www.w3.org/2000/svg" xmlns:xlink="http://www.w3.org/1999/xlink"><title>app-icon-mobile</title><desc>Created with Sketch.</desc><defs><rect id="a" x="0" y="0" width="182.9" height="122.7"/><rect id="c" x="0" y="0" width="81.2" height="96.4"/></defs><g stroke="none" stroke-width="1" fill="none" fill-rule="evenodd"><g id="Group" transform="translate(5 5)"><g transform="translate(23 19)"><rect id="Rectangle-path" fill="#E1E1DE" x="1" y="0" width="103.4" height="122.7"/><g id="Clipped"><mask id="b" fill="#fff"><use xlink:href="#a"/></mask><g/><g transform="translate(-115 -136)" id="Group" mask="url(#b)"><g id="Group" stroke="none" stroke-width="1" fill="none" fill-rule="evenodd" transform="translate(0 48)"><rect id="Rectangle-path" fill="#fff" transform="rotate(225 152.708 152.651)" x="41.7086145" y="47.1524617" width="221.797873" height="210.497981"/><g transform="translate(39 35)" fill="#28211F"><rect id="Rectangle-path" transform="rotate(44.87 153.757 226.707)" x="153.7571" y="225.707407" width="0.3" height="2.29998383"/><rect id="Rectangle-path" transform="rotate(44.716 152.005 224.648)" x="152.0052" y="223.647997" width="0.3" height="2.30000612"/><rect id="Rectangle-path" transform="rotate(45 150.866 223.251)" x="150.8659" y="222.25131" width="0.3" height="2.29997794"/><rect id="Rectangle-path" transform="rotate(44.87 149.083 221.179)" x="149.083" y="220.178507" width="0.3" height="2.29998383"/><rect id="Rectangle-path" transform="rotate(44.854 147.254 219.089)" x="147.2541" y="218.089306" width="0.3" height="2.29998539"/><rect id="Rectangle-path" transform="rotate(44.87 145.45 217.008)" x="145.4501" y="216.008107" width="0.3" height="2.29998383"/><rect id="Rectangle-path" transform="rotate(45.284 142.932 215.635)" x="142.9317" y="214.635297" width="0.3" height="2.30000612"/><rect id="Rectangle-path" transform="rotate(45.146 141.895 214.277)" x="141.8948" y="213.277106" width="0.3" height="2.29998539"/><rect id="Rectangle-path" transform="rotate(44.984 140.079 212.19)" x="140.0788" y="211.18991" width="0.3" height="2.29997803"/><rect id="Rectangle-path" transform="rotate(45.446 138.235 210.117)" x="138.2349" y="209.116979" width="0.3" height="2.30004752"/><rect id="Rectangle-path" transform="rotate(45.016 136.443 208.019)" x="136.4432" y="207.01921" width="0.3" height="2.29997803"/><rect id="Rectangle-path" transform="rotate(45.284 133.924 206.648)" x="133.9245" y="205.648297" width="0.3" height="2.30000612"/><rect id="Rectangle-path" transform="rotate(45.13 132.153 204.571)" x="132.1526" y="203.571007" width="0.3" height="2.29998383"/><rect id="Rectangle-path" transform="rotate(44.87 131.042 203.195)" x="131.0422" y="202.194907" width="0.3" height="2.29998383"/><rect id="Rectangle-path" transform="rotate(45.275 129.271 201.131)" x="129.2711" y="200.130498" width="0.3" height="2.30000453"/><rect id="Rectangle-path" transform="rotate(45.3 127.433 199.039)" x="127.4334" y="198.039196" width="0.3" height="2.30000943"/><rect id="Rectangle-path" transform="rotate(44.854 124.9 197.654)" x="124.9001" y="196.653806" width="0.3" height="2.29998539"/><rect id="Rectangle-path" transform="rotate(45 123.123 195.577)" x="123.1225" y="194.57691" width="0.3" height="2.29997794"/><rect id="Rectangle-path" transform="rotate(45.284 122.004 194.205)" x="122.0036" y="193.205197" width="0.3" height="2.30000612"/><rect id="Rectangle-path" transform="rotate(45.284 120.187 192.12)" x="120.1867" y="191.119597" width="0.3" height="2.30000612"/><rect id="Rectangle-path" transform="rotate(44.854 118.427 190.045)" x="118.4265" y="189.044606" width="0.3" height="2.29998539"/><rect id="Rectangle-path" transform="rotate(44.984 115.919 188.671)" x="115.919" y="187.67071" width="0.3" height="2.29997803"/><rect id="Rectangle-path" transform="rotate(45.571 114.122 186.574)" x="114.1219" y="185.574031" width="0.3" height="2.29992963"/><rect id="Rectangle-path" transform="rotate(45.425 113.021 185.194)" x="113.0208" y="184.194053" width="0.3" height="2.29987871"/><rect id="Rectangle-path" transform="rotate(44.854 111.168 183.122)" x="111.1681" y="182.121606" width="0.3" height="2.29998539"/><path d="M108.4,182.4 L108.2,182.2 L109.8,180.6 L110,180.8 L108.4,182.4 Z" id="Shape"/><rect id="Rectangle-path" transform="rotate(44.571 106.888 179.695)" x="106.888" y="178.695182" width="0.3" height="2.30004255"/><rect id="Rectangle-path" transform="rotate(45.292 105.096 177.603)" x="105.0964" y="176.603297" width="0.3" height="2.30000775"/><rect id="Rectangle-path" transform="rotate(44.984 103.998 176.224)" x="103.9976" y="175.22431" width="0.3" height="2.29997803"/><rect id="Rectangle-path" transform="rotate(45.146 102.191 174.144)" x="102.1909" y="173.143806" width="0.3" height="2.29998539"/><rect id="Rectangle-path" transform="rotate(44.725 100.352 172.055)" x="100.3522" y="171.055098" width="0.3" height="2.30000453"/><rect id="Rectangle-path" transform="rotate(45.292 97.892 170.697)" x="97.8919" y="169.696997" width="0.3" height="2.30000775"/><rect id="Rectangle-path" transform="rotate(45 96.062 168.602)" x="96.062" y="167.60241" width="0.3" height="2.29997794"/><rect id="Rectangle-path" transform="rotate(45.146 93.178 165.155)" x="93.1777" y="164.155006" width="0.3" height="2.29998539"/><rect id="Rectangle-path" transform="rotate(45.284 95.184 167.121)" x="95.184" y="166.121497" width="0.3" height="2.30000612"/><rect id="Rectangle-path" transform="rotate(45.13 91.376 163.075)" x="91.3758" y="162.074507" width="0.3" height="2.29998383"/><rect id="Rectangle-path" transform="rotate(45.591 88.846 161.717)" x="88.8455" y="160.716856" width="0.3" height="2.30010051"/><rect id="Rectangle-path" transform="rotate(44.579 87.012 159.619)" x="87.0119" y="158.619083" width="0.3" height="2.30004013"/><rect id="Rectangle-path" transform="rotate(44.854 85.929 158.232)" x="85.9292" y="157.232106" width="0.3" height="2.29998539"/><rect id="Rectangle-path" transform="rotate(44.716 84.124 156.156)" x="84.1242" y="155.156397" width="0.3" height="2.30000612"/><rect id="Rectangle-path" transform="rotate(45.146 82.347 154.08)" x="82.3469" y="153.079906" width="0.3" height="2.29998539"/><rect id="Rectangle-path" transform="rotate(45 79.825 152.701)" x="79.8245" y="151.70121" width="0.3" height="2.29997794"/><rect id="Rectangle-path" transform="rotate(45 78.021 150.62)" x="78.0208" y="149.61991" width="0.3" height="2.29997794"/><rect id="Rectangle-path" transform="rotate(44.87 76.896 149.237)" x="76.8964" y="148.236807" width="0.3" height="2.29998383"/><rect id="Rectangle-path" transform="rotate(45.146 75.142 147.173)" x="75.1416" y="146.173406" width="0.3" height="2.29998539"/><rect id="Rectangle-path" transform="rotate(45 73.316 145.083)" x="73.3161" y="144.08291" width="0.3" height="2.29997794"/><rect id="Rectangle-path" transform="rotate(44.838 70.801 143.711)" x="70.8006" y="142.710706" width="0.3" height="2.29998714"/><rect id="Rectangle-path" transform="rotate(45.146 69.017 141.635)" x="69.0169" y="140.634906" width="0.3" height="2.29998539"/><rect id="Rectangle-path" transform="rotate(45 67.904 140.254)" x="67.9045" y="139.25351" width="0.3" height="2.29997794"/><rect id="Rectangle-path" transform="rotate(45.275 66.118 138.187)" x="66.118" y="137.186898" width="0.3" height="2.30000453"/><rect id="Rectangle-path" transform="rotate(45 64.314 136.098)" x="64.3135" y="135.09771" width="0.3" height="2.29997794"/><rect id="Rectangle-path" transform="rotate(45 61.785 134.717)" x="61.7853" y="133.71711" width="0.3" height="2.29997794"/><rect id="Rectangle-path" transform="rotate(44.854 59.965 132.633)" x="59.9649" y="131.633206" width="0.3" height="2.29998539"/><rect id="Rectangle-path" transform="rotate(44.854 58.869 131.257)" x="58.8687" y="130.257306" width="0.3" height="2.29998539"/><rect id="Rectangle-path" transform="rotate(45.138 57.053 129.174)" x="57.0532" y="128.174007" width="0.3" height="2.29998459"/><rect id="Rectangle-path" transform="rotate(44.575 55.274 127.076)" x="55.2736" y="126.076053" width="0.3" height="2.29987871"/><rect id="Rectangle-path" transform="rotate(45.146 53.467 125.019)" x="53.4668" y="124.018506" width="0.3" height="2.29998539"/><rect id="Rectangle-path" transform="rotate(45 50.976 123.65)" x="50.9764" y="122.64991" width="0.3" height="2.29997794"/><rect id="Rectangle-path" transform="rotate(45.146 49.12 121.582)" x="49.1204" y="120.582306" width="0.3" height="2.29998539"/><rect id="Rectangle-path" transform="rotate(45.13 48.039 120.215)" x="48.039" y="119.215307" width="0.3" height="2.29998383"/><path d="M212.3,139.3 L179.5,106.6 L190.5,95.6 L190.9,96 L180.3,106.6 L212.3,138.5 L222.9,127.9 L223.3,128.3 L212.3,139.3 Z" id="Shape"/><path d="M187.7,163.9 L155,131.1 L172.6,113.5 L205.4,146.3 L187.7,163.9 L187.7,163.9 Z M155.8,131.1 L187.7,163 L204.4,146.3 L172.5,114.4 L155.8,131.1 L155.8,131.1 Z" id="Shape"/><path d="M149.3,125.5 L116.5,92.7 L134.1,75.1 L166.8,107.9 L149.3,125.5 L149.3,125.5 Z M117.4,92.8 L149.3,124.7 L166,108 L134.1,76 L117.4,92.8 L117.4,92.8 Z" id="Shape"/><path d="M173.9,100.9 L141.1,68.2 L152.1,57.2 L152.5,57.6 L142,68.2 L173.9,100.1 L184.5,89.5 L184.9,89.9 L173.9,100.9 Z" id="Shape"/><path d="M159.4,192.3 L126.6,159.5 L148,138.1 L180.8,170.9 L159.4,192.3 L159.4,192.3 Z M127.4,159.5 L159.3,191.4 L179.8,170.9 L148,139 L127.4,159.5 L127.4,159.5 Z" id="Shape"/><path d="M121,153.9 L94.8,127.7 L94.8,127.6 L91.5,118 L109.7,99.8 L142.5,132.6 L121,153.9 L121,153.9 Z M95.2,127.3 L121,153 L141.5,132.5 L109.6,100.6 L92,118.1 L95.2,127.3 L95.2,127.3 Z" id="Shape"/><path d="M76.1,109 L49.9,82.8 L71.3,61.4 L104.1,94.2 L85.9,112.4 L76.1,109 L76.1,109 Z M50.6,82.7 L76.3,108.4 L85.5,111.6 L103,94.1 L71.1,62.2 L50.6,82.7 L50.6,82.7 Z" id="Shape"/><path d="M135.5,62.6 L102.7,29.8 L113.7,18.8 L114.2,19.2 L103.6,29.8 L135.5,61.7 L146.1,51.1 L146.5,51.5 L135.5,62.6 Z" id="Shape"/><path d="M110.9,87.1 L78.1,54.3 L95.7,36.7 L128.5,69.4 L110.9,87.1 L110.9,87.1 Z M79,54.4 L110.9,86.3 L127.6,69.6 L95.7,37.7 L79,54.4 L79,54.4 Z" id="Shape"/><path d="M230.3,157.4 C226.3,153.3 222.2,149.2 218.1,145.2 L217.9,145 L218.1,144.8 C221.6,141.3 225.3,137.6 228.7,134.2 L229.1,134.6 L218.7,145 L230.7,157 L230.3,157.4 L230.3,157.4 Z" id="Shape"/><path d="M205.8,182 L193.4,169.5 L210.9,152 L223.3,164.4 L222.9,164.8 L210.9,152.8 L194.2,169.5 L206.3,181.6 L205.8,182 Z" id="Shape"/><path d="M177.4,210.3 L165,197.9 L186.4,176.5 L198.8,189 L198.4,189.4 L186.4,177.4 L165.8,197.9 L177.8,209.9 L177.4,210.3 Z" id="Shape"/><path d="M162.4,225.4 L73.1,136.2 L83.9,125.5 L86.7,133.6 L170.4,217.3 L170,217.7 L86.2,133.9 L83.6,126.5 L74,136.2 L162.8,225 L162.4,225.4 Z" id="Shape"/><path d="M67.3,130.7 L5.2,68.5 L5.6,68.1 L67.3,129.9 L77.2,120.1 L69.8,117.5 L12.8,60.5 L13.2,60.1 L70.1,117 L78.2,119.8 L67.3,130.7 Z" id="Shape"/><path d="M44.2,77.1 L19.9,52.8 L20.3,52.4 L44.2,76.3 L64.7,55.7 L41,32 L41.5,31.6 L65.5,55.7 L44.2,77.1 Z" id="Shape"/><path d="M72.5,48.7 L48.5,24.6 L48.9,24.2 L72.5,47.9 L89.3,31.2 L65.7,7.6 L66.1,7.1 L90.1,31.2 L72.5,48.7 Z" id="Shape"/></g><rect id="Rectangle-path" fill="#E6E7E8" transform="rotate(45 188.244 184.551)" x="181.744562" y="180.050943" width="12.7998772" height="9.29991081"/><rect id="Rectangle-path" fill="#E6E7E8" transform="rotate(44.988 167.669 128.565)" x="161.168253" y="124.064375" width="12.8007826" height="9.30056863"/><rect id="Rectangle-path" fill="#E6E7E8" transform="rotate(45 185.091 193.661)" x="174.591201" y="191.160824" width="20.7998005" height="4.59995589"/><rect id="Rectangle-path" fill="#E6E7E8" transform="rotate(45 179.248 198.795)" x="168.748551" y="194.794988" width="20.7998005" height="8.19992136"/><path d="M201.7,209.7 L199.1,212.3 L190.9,204.1 L185.2,209.9 L193.3,218 L199,223.8 L204.8,218 L207.4,215.4 L201.7,209.7 Z" id="Shape" fill="#E6E7E8"/><path d="M222.5,235.2 L219.9,232.6 L228.1,224.4 L222.3,218.6 L214.1,226.8 L208.4,232.5 L214.2,238.3 L216.8,240.9 L222.5,235.2 Z" id="Shape" fill="#E6E7E8"/><path d="M143.2,156.3 L137,150.2 L134.1,153.1 L140.3,159.2 L137.4,162.1 L143.6,168.3 L146.5,165.4 L149.4,162.5 L143.2,156.3 Z" id="Shape" fill="#E6E7E8"/><rect id="Rectangle-path" fill="#E6E7E8" transform="rotate(45 161.81 159.759)" x="159.310024" y="153.259262" width="5.09995109" height="13.1998734"/><rect id="Rectangle-path" fill="#E6E7E8" transform="rotate(45.008 157.859 156.635)" x="153.859138" y="150.135262" width="8.39991953" height="13.1998735"/><rect id="Rectangle-path" fill="#E6E7E8" transform="rotate(45.008 148.82 148.729)" x="141.820267" y="141.229172" width="13.8998668" height="14.7998582"/><rect id="Rectangle-path" fill="#E6E7E8" transform="rotate(45 165.72 164.215)" x="163.220024" y="157.715462" width="5.09995109" height="13.1998734"/><rect id="Rectangle-path" fill="#E6E7E8" transform="rotate(45 155.959 173.716)" x="144.959405" y="168.715848" width="22.3997852" height="10.2999012"/><rect id="Rectangle-path" fill="#E6E7E8" transform="rotate(45.024 171.707 169.797)" x="168.207333" y="163.296862" width="6.7999354" height="13.1998746"/><path d="M121.2,134.4 L127.1,140.3 L124.2,143.2 L118.3,137.3 L115.4,140.2 L109.4,134.2 L112.3,131.3 L115.2,128.4 L121.2,134.4 Z" id="Shape" fill="#E6E7E8"/><rect id="Rectangle-path" fill="#E6E7E8" transform="rotate(224.984 117.461 116.297)" x="114.961224" y="109.796862" width="4.8999532" height="13.1998739"/><rect id="Rectangle-path" fill="#E6E7E8" transform="rotate(224.996 121.974 119.969)" x="117.973706" y="113.468803" width="8.00048899" height="13.2008068"/><rect id="Rectangle-path" fill="#E6E7E8" transform="rotate(224.992 129.9 128.813)" x="123.400562" y="121.313172" width="13.3998716" height="14.7998582"/><rect id="Rectangle-path" fill="#E6E7E8" transform="rotate(225.016 113.729 111.946)" x="111.228724" y="105.446162" width="4.8999532" height="13.1998739"/><rect id="Rectangle-path" fill="#E6E7E8" transform="rotate(225.008 103.957 121.155)" x="92.9568054" y="116.154748" width="21.499794" height="10.2999013"/><rect id="Rectangle-path" fill="#E6E7E8" transform="rotate(225.012 108.642 106.678)" x="105.142136" y="100.177953" width="6.50039743" height="13.2008071"/><rect id="Rectangle-path" fill="#E6E7E8" transform="rotate(44.992 206.453 200.519)" x="203.953324" y="197.019534" width="5.09995114" height="6.59993677"/><rect id="Rectangle-path" fill="#E6E7E8" transform="rotate(45 211.04 206.103)" x="207.540334" y="202.603234" width="6.79993479" height="6.59993671"/><rect id="Rectangle-path" fill="#E6E7E8" transform="rotate(44.996 153.524 108.853)" x="149.023925" y="98.8526388" width="8.900544" height="19.601198"/><rect id="Rectangle-path" fill="#E6E7E8" transform="rotate(45.016 152.942 108.559)" x="148.941638" y="98.5595955" width="8.29992073" height="19.5998128"/><rect id="Rectangle-path" fill="#E6E7E8" transform="rotate(44.984 173.999 89.318)" x="170.499133" y="85.8178334" width="6.79993506" height="6.59993697"/><rect id="Rectangle-path" fill="#E6E7E8" transform="rotate(45 155.586 69.657)" x="146.086091" y="66.1568336" width="18.9998178" height="6.59993671"/><rect id="Rectangle-path" fill="#E6E7E8" transform="rotate(45 172.969 83.816)" x="165.968767" y="77.8158575" width="13.9998657" height="11.7998868"/><rect id="Rectangle-path" fill="#E6E7E8" transform="rotate(45.008 193.974 104.4)" x="186.974367" y="98.3999575" width="13.9998659" height="11.799887"/><rect id="Rectangle-path" fill="#E6E7E8" transform="rotate(45 211.467 123.011)" x="204.467067" y="117.010958" width="13.9998657" height="11.7998868"/><rect id="Rectangle-path" fill="#E6E7E8" transform="rotate(45.008 202.839 113.701)" x="195.839267" y="110.200634" width="13.9998659" height="6.59993677"/><rect id="Rectangle-path" fill="#E6E7E8" transform="rotate(45.008 231.978 142.627)" x="224.977867" y="139.127034" width="13.9998659" height="6.59993677"/><rect id="Rectangle-path" fill="#E6E7E8" transform="rotate(44.984 249.785 161.143)" x="242.785417" y="157.643383" width="13.9998663" height="6.59993697"/><path d="M235.1,154.1 L225.2,144.2 L231.6,137.7 L241.6,147.6 L235.1,154.1 Z" id="Shape" fill="#E6E7E8"/><rect id="Rectangle-path" fill="#E6E7E8" transform="rotate(45 245.432 157.355)" x="238.432017" y="152.854593" width="13.9998657" height="9.19991177"/><rect id="Rectangle-path" fill="#E6E7E8" transform="rotate(45 269.441 181.32)" x="262.441417" y="176.820093" width="13.9998657" height="9.19991177"/><rect id="Rectangle-path" fill="#E6E7E8" transform="rotate(45 248.26 202.474)" x="241.259817" y="192.974541" width="13.9998657" height="19.1998159"/><rect id="Rectangle-path" fill="#E6E7E8" transform="rotate(44.992 126.973 90.646)" x="121.972948" y="86.6457383" width="10.3999004" height="8.0999224"/><rect id="Rectangle-path" fill="#E6E7E8" transform="rotate(45 145.354 92.824)" x="125.853937" y="88.8241884" width="38.7996279" height="8.09992232"/><rect id="Rectangle-path" fill="#E6E7E8" transform="rotate(45 177.188 124.887)" x="166.688151" y="120.887488" width="20.8997996" height="8.09992232"/><rect id="Rectangle-path" fill="#E6E7E8" transform="rotate(45 191.244 138.865)" x="181.744541" y="134.865488" width="18.9998178" height="8.09992232"/><rect id="Rectangle-path" fill="#E6E7E8" transform="rotate(45 140.14 95.058)" x="133.140267" y="85.0576959" width="13.6998686" height="19.599812"/><rect id="Rectangle-path" fill="#E6E7E8" transform="rotate(45 205.947 169.33)" x="197.947177" y="165.329838" width="15.7998485" height="7.89992424"/><rect id="Rectangle-path" fill="#E6E7E8" transform="rotate(45.008 213.256 161.83)" x="205.256077" y="156.330053" width="15.7998486" height="11.1998927"/><rect id="Rectangle-path" fill="#E6E7E8" transform="rotate(45.008 224.083 170.761)" x="216.582672" y="167.260834" width="14.6998592" height="6.79993486"/><rect id="Rectangle-path" fill="#E6E7E8" transform="rotate(45.012 229.707 185.701)" x="224.706994" y="175.700589" width="9.60058697" height="19.6011984"/><rect id="Rectangle-path" fill="#E6E7E8" transform="rotate(44.992 221.105 186.331)" x="210.605201" y="182.831334" width="20.9997988" height="6.59993677"/><rect id="Rectangle-path" fill="#E6E7E8" transform="rotate(45.004 183.718 146.156)" x="173.717489" y="142.155556" width="20.0012225" height="8.1004951"/><rect id="Rectangle-path" fill="#E6E7E8" transform="rotate(44.992 168.676 131.157)" x="160.675777" y="127.157138" width="16.1998448" height="8.0999224"/></g><g id="Group" stroke="none" stroke-width="1" fill="none" fill-rule="evenodd" transform="translate(137)"><g id="Shape" fill="#28211F"><path d="M18.9,91.7 L51.6,124.4 L40.6,135.4 L40.2,135 L50.8,124.4 L18.9,92.5 L8.3,103.1 L7.9,102.7 L18.9,91.7 Z" transform="translate(7)"/><path d="M43.4,67.1 L76.2,99.9 L58.6,117.5 L25.8,84.7 L43.4,67.1 L43.4,67.1 Z M75.4,99.9 L43.5,68 L26.8,84.7 L58.7,116.6 L75.4,99.9 L75.4,99.9 Z" transform="translate(7)"/><path d="M81.8,105.5 L114.6,138.3 L97,155.8 L64.2,123 L81.8,105.5 L81.8,105.5 Z M113.8,138.3 L81.9,106.4 L65.2,123.1 L97,155 L113.8,138.3 L113.8,138.3 Z" transform="translate(7)"/><path d="M57.3,130.1 L90,162.8 L79,173.8 L78.6,173.4 L89.2,162.8 L57.3,130.9 L46.7,141.5 L46.3,141.1 L57.3,130.1 Z" transform="translate(7)"/><path d="M110.2,77.2 L136.4,103.4 L136.4,103.5 L139.7,113.1 L121.5,131.3 L88.7,98.5 L110.2,77.2 L110.2,77.2 Z M135.9,103.7 L110.2,78 L89.7,98.5 L121.6,130.4 L139.1,112.9 L135.9,103.7 L135.9,103.7 Z" transform="translate(7)"/><path d="M155.1,122.1 L181.3,148.3 L160,169.7 L127.2,137 L145.4,118.8 L155.1,122.1 L155.1,122.1 Z M180.5,148.3 L154.8,122.6 L145.6,119.4 L128,136.9 L159.9,168.8 L180.5,148.3 L180.5,148.3 Z" transform="translate(7)"/><path d="M95.6,168.5 L128.4,201.2 L117.4,212.2 L117,211.8 L127.6,201.2 L95.6,169.3 L85.1,179.9 L84.6,179.5 L95.6,168.5 Z" transform="translate(7)"/><path d="M120.2,143.9 L152.9,176.6 L135.3,194.2 L102.6,161.5 L120.2,143.9 L120.2,143.9 Z M152.1,176.7 L120.2,144.8 L103.5,161.5 L135.4,193.4 L152.1,176.7 L152.1,176.7 Z" transform="translate(7)"/><path d="M163.8,100.3 L226,162.5 L225.6,162.9 L163.8,101.1 L154,111 L161.3,113.5 L218.4,170.5 L218,171 L161,114 L152.9,111.2 L163.8,100.3 Z" transform="translate(7)"/><path d="M187,154 L211.2,178.2 L210.8,178.6 L187,154.8 L166.4,175.3 L190.1,199 L189.7,199.4 L165.6,175.3 L187,154 Z" transform="translate(7)"/><path d="M158.6,182.3 L182.7,206.4 L182.3,206.8 L158.6,183.1 L141.9,199.9 L165.5,223.5 L165,223.9 L141,199.9 L158.6,182.3 Z" transform="translate(7)"/><path d="M158.3,231.1 L157.9,231.5 C149.9,223.6 141.8,215.5 134,207.7 L123.7,218 L123.3,217.6 C126.7,214.1 130.3,210.5 133.8,207.1 L134,206.9 L134.2,207.1 C142.1,215 150.3,223.2 158.3,231.1 L158.3,231.1 Z" transform="translate(7)"/></g><rect id="Rectangle-path" fill="#E6E7E8" transform="rotate(225 109.803 137.219)" x="103.302862" y="132.719243" width="12.7998772" height="9.29991081"/><path d="M134,109.7 L140.1,115.8 L143,112.9 L136.9,106.8 L139.8,103.9 L133.6,97.7 L130.7,100.6 L127.8,103.5 L134,109.7 Z" id="Shape" fill="#E6E7E8"/><rect id="Rectangle-path" fill="#E6E7E8" transform="rotate(225.008 115.647 106.607)" x="113.147324" y="100.107062" width="5.09995114" height="13.1998735"/><rect id="Rectangle-path" fill="#E6E7E8" transform="rotate(224.992 119.583 109.924)" x="115.582838" y="103.424362" width="8.39991953" height="13.1998735"/><rect id="Rectangle-path" fill="#E6E7E8" transform="rotate(225 128.083 117.324)" x="121.082917" y="109.824122" width="13.8998667" height="14.7998581"/><path d="M155.9,131.6 L150,125.7 L152.9,122.8 L158.8,128.8 L161.7,125.9 L167.7,131.8 L164.8,134.7 L161.9,137.6 L155.9,131.6 Z" id="Shape" fill="#E6E7E8"/><rect id="Rectangle-path" fill="#E6E7E8" transform="rotate(45.032 159.351 149.685)" x="156.850924" y="143.184561" width="4.89995379" height="13.1998755"/><rect id="Rectangle-path" fill="#E6E7E8" transform="rotate(45 156.262 145.806)" x="152.261888" y="139.306212" width="7.99992328" height="13.1998734"/><rect id="Rectangle-path" fill="#E6E7E8" transform="rotate(45 147.457 136.993)" x="140.957362" y="129.492672" width="13.3998715" height="14.7998581"/><rect id="Rectangle-path" fill="#E6E7E8" transform="rotate(45.016 163.792 153.504)" x="161.292524" y="147.003962" width="4.8999532" height="13.1998739"/><rect id="Rectangle-path" fill="#E6E7E8" transform="rotate(45 173.118 144.178)" x="162.118405" y="139.178248" width="21.4997938" height="10.2999012"/><rect id="Rectangle-path" fill="#E6E7E8" transform="rotate(45 169.595 159.17)" x="166.095134" y="152.670062" width="6.49993766" height="13.1998734"/><rect id="Rectangle-path" fill="#E6E7E8" transform="rotate(224.992 123.263 157.062)" x="118.762843" y="147.061996" width="8.89991474" height="19.5998122"/><rect id="Rectangle-path" fill="#E6E7E8" transform="rotate(224.992 123.845 156.546)" x="119.845038" y="146.545996" width="8.29992049" height="19.5998122"/><rect id="Rectangle-path" fill="#E6E7E8" transform="rotate(225.008 103.016 177.131)" x="99.5161335" y="173.631334" width="6.79993486" height="6.59993677"/><rect id="Rectangle-path" fill="#E6E7E8" transform="rotate(225.008 122.091 196.402)" x="112.590591" y="192.901834" width="18.999818" height="6.59993677"/><rect id="Rectangle-path" fill="#E6E7E8" transform="rotate(224.992 103.751 182.278)" x="96.7505671" y="176.278357" width="13.9998659" height="11.799887"/><rect id="Rectangle-path" fill="#E6E7E8" transform="rotate(225.008 83.501 161.562)" x="76.5013671" y="155.562357" width="13.9998659" height="11.799887"/><rect id="Rectangle-path" fill="#E6E7E8" transform="rotate(225.008 65.984 143.729)" x="58.9839671" y="137.728657" width="13.9998659" height="11.799887"/><rect id="Rectangle-path" fill="#E6E7E8" transform="rotate(224.992 71.492 155.343)" x="64.4923671" y="148.342867" width="13.9998659" height="14.0998649"/><rect id="Rectangle-path" fill="#E6E7E8" transform="rotate(224.992 45.523 123.642)" x="38.5234671" y="120.142034" width="13.9998659" height="6.59993677"/><rect id="Rectangle-path" fill="#E6E7E8" transform="rotate(225 43.864 119.702)" x="36.8642171" y="115.201693" width="13.9998657" height="9.19991177"/><rect id="Rectangle-path" fill="#E6E7E8" transform="rotate(225 31.892 107.673)" x="24.8918171" y="103.173193" width="13.9998657" height="9.19991177"/><rect id="Rectangle-path" fill="#E6E7E8" transform="rotate(225 149.367 175.226)" x="144.366748" y="171.225538" width="10.3999003" height="8.09992232"/><rect id="Rectangle-path" fill="#E6E7E8" transform="rotate(225 131.298 173.557)" x="111.797737" y="169.557388" width="38.7996279" height="8.09992232"/><rect id="Rectangle-path" fill="#E6E7E8" transform="rotate(225.004 99.451 141.905)" x="88.9505082" y="137.904356" width="20.9012775" height="8.1004951"/><rect id="Rectangle-path" fill="#E6E7E8" transform="rotate(225.004 85.395 127.776)" x="75.8941693" y="123.776056" width="19.0011613" height="8.1004951"/><rect id="Rectangle-path" fill="#E6E7E8" transform="rotate(225 137.403 170.759)" x="130.402767" y="160.758796" width="13.6998686" height="19.599812"/><rect id="Rectangle-path" fill="#E6E7E8" transform="rotate(224.992 64.283 103.364)" x="56.2826766" y="97.8643527" width="15.7998486" height="11.1998927"/><rect id="Rectangle-path" fill="#E6E7E8" transform="rotate(225 93.532 120.815)" x="83.5325959" y="116.814638" width="19.9998082" height="8.09992232"/><rect id="Rectangle-path" fill="#E6E7E8" transform="rotate(224.992 108.567 135.998)" x="100.566877" y="131.998338" width="16.1998448" height="8.0999224"/></g><rect id="Rectangle-path" stroke="none" fill="#E6E7E8" fill-rule="evenodd" transform="rotate(225 161.481 277.893)" x="143.481373" y="275.892619" width="35.6996576" height="4.3999578"/><rect id="Rectangle-path" stroke="none" fill="#E6E7E8" fill-rule="evenodd" transform="rotate(225 183.697 299.857)" x="172.19736" y="297.856769" width="22.4997842" height="4.3999578"/><path d="M150.5,266.9 L155.7,272.2" id="Shape" stroke="#E1E1DE" stroke-width="1.1085" fill="none"/><path d="M157.6,274.1 L167.6,284.1" id="Shape" stroke="#E1E1DE" stroke-width="1.1085" fill="none"/><path d="M176.7,293.1 L186.6,303.1" id="Shape" stroke="#E1E1DE" stroke-width="1.1085" fill="none"/></g></g><circle id="Oval" fill="#23516E" cx="58.6" cy="29.6" r="2.6"/><circle id="Oval" fill="#23516E" cx="35.6" cy="25.6" r="2.6"/><circle id="Oval" fill="#23516E" cx="95.6" cy="65.6" r="2.6"/><circle id="Oval" fill="#23516E" cx="88.6" cy="73.6" r="2.6"/><circle id="Oval" fill="#23516E" cx="57.6" cy="82.6" r="2.6"/><circle id="Oval" fill="#000" cx="73.6" cy="89.6" r="2.6"/><circle id="Oval" fill="#000" cx="44.6" cy="58.6" r="2.6"/><circle id="Oval" fill="#000" cx="44.6" cy="66.6" r="2.6"/><path d="M34.1,58.7 C34.1,57.2 35.3,56.1 36.7,56.1 C38.2,56.1 39.3,57.3 39.3,58.7 C39.3,60.2 38.1,61.3 36.7,61.3 C35.3,61.4 34.1,60.2 34.1,58.7 L34.1,58.7 Z" id="Shape" fill="#000"/><circle id="Oval" fill="#000" cx="59.6" cy="43.6" r="2.6"/><circle id="Oval" fill="#000" cx="75.6" cy="51.6" r="2.6"/><circle id="Oval" fill="#000" cx="75.6" cy="66.6" r="2.6"/><circle id="Oval" fill="#000" cx="98.6" cy="35.6" r="2.6"/><circle id="Oval" fill="#000" cx="45.6" cy="13.6" r="2.6"/><circle id="Oval" fill="#000" cx="6.6" cy="28.6" r="2.6"/><path d="M43.2,89.7 C43.2,88.2 44.4,87.1 45.8,87.1 C47.3,87.1 48.4,88.3 48.4,89.7 C48.4,91.2 45.8,94.6 45.8,94.6 C45.8,94.6 43.2,91.2 43.2,89.7 L43.2,89.7 Z" id="Shape" fill="#000"/><circle id="Oval" fill="#23516E" cx="60.6" cy="77.6" r="2.6"/><circle id="Oval" fill="#23516E" cx="28.6" cy="75.6" r="2.6"/><path d="M64.4,102.2 C64.4,100.7 65.6,99.6 67,99.6 C68.5,99.6 69.7,100.8 69.7,102.2 C69.7,103.7 68.5,104.8 67,104.8 C65.6,104.9 64.4,103.7 64.4,102.2 L64.4,102.2 Z" id="Shape" fill="#23516E"/><circle id="Oval" fill="#23516E" cx="14.6" cy="40.6" r="2.6"/><circle id="Oval" fill="#23516E" cx="86.6" cy="14.6" r="2.6"/></g><path d="M229.4,154.4 C229.4,159.4 225.4,163.4 220.4,163.4 L9.4,163.4 C4.4,163.4 0.4,159.4 0.4,154.4 L0.4,8.6 C0.4,3.6 4.4,-0.4 9.4,-0.4 L220.5,-0.4 C225.5,-0.4 229.5,3.6 229.5,8.6 L229.5,154.4 L229.4,154.4 Z" id="Shape" stroke="#000" stroke-width="0.75"/><rect id="Rectangle-path" stroke="#000" stroke-width="0.7261" x="23" y="19" width="182.5" height="123.3"/><circle id="Oval" stroke="#000" stroke-width="0.6133" cx="11.4" cy="85.4" r="6.4"/><path d="M214.3,83.1 C214.3,81.7 215.4,80.7 216.7,80.7 C218.1,80.7 219.1,81.8 219.1,83.1 C219.1,84.4 218,85.5 216.7,85.5 C215.4,85.6 214.3,84.5 214.3,83.1 L214.3,83.1 Z" id="Shape" stroke="#000" stroke-width="0.75"/></g><g id="Group" transform="translate(111 30)"><rect id="Rectangle-path" fill="#E1E1DE" x="6" y="35" width="81.2" height="96.4"/><rect id="Rectangle-path" stroke="#000" stroke-width="0.75" fill="#fff" x="0" y="15" width="1.6" height="9.1"/><rect id="Rectangle-path" stroke="#000" stroke-width="0.75" fill="#fff" x="71" y="0" width="9.1" height="1.6"/><rect id="Rectangle-path" stroke="#000" stroke-width="0.75" fill="#fff" x="0" y="29" width="1.6" height="7.3"/><rect id="Rectangle-path" stroke="#000" stroke-width="0.75" fill="#fff" x="0" y="39" width="1.6" height="7.3"/><path d="M90.5,156.4 C90.5,159.5 88,162 84.9,162 L7.4,162 C4.3,162 1.8,159.5 1.8,156.4 L1.8,6.9 C1.8,3.8 4.3,1.3 7.4,1.3 L84.9,1.3 C88,1.3 90.5,3.8 90.5,6.9 L90.5,156.4 L90.5,156.4 Z" id="Shape" stroke="#000" stroke-width="0.75" fill="#fff"/><g transform="translate(6 35)"><mask id="d" fill="#fff"><use xlink:href="#c"/></mask><g/><g transform="translate(-92 -107)" id="Group" mask="url(#d)"><g id="Group" stroke="none" stroke-width="1" fill="none" fill-rule="evenodd" transform="translate(0 38)"><rect id="Rectangle-path" fill="#fff" transform="rotate(225 119.891 120.127)" x="32.8920843" y="37.6273412" width="174.198329" height="165.298415"/><g transform="translate(31 27)" fill="#28211F"><rect id="Rectangle-path" transform="rotate(44.814 116.939 173.925)" x="116.9386" y="172.925404" width="0.2" height="1.79999226"/><rect id="Rectangle-path" transform="rotate(45 115.549 173.099)" x="115.5488" y="172.09871" width="0.2" height="1.79998274"/><rect id="Rectangle-path" transform="rotate(44.814 114.119 170.858)" x="114.1189" y="169.858004" width="0.2" height="1.79999226"/><rect id="Rectangle-path" transform="rotate(45 112.716 170.029)" x="112.7159" y="169.02921" width="0.2" height="1.79998274"/><rect id="Rectangle-path" transform="rotate(45.377 111.302 167.756)" x="111.3016" y="166.755859" width="0.2" height="1.79989438"/><rect id="Rectangle-path" transform="rotate(45.186 109.894 166.965)" x="109.8935" y="165.965504" width="0.2" height="1.79999226"/><rect id="Rectangle-path" transform="rotate(45.357 108.492 166.151)" x="108.492" y="165.15129" width="0.2" height="1.80001759"/><rect id="Rectangle-path" transform="rotate(44.814 107.036 163.893)" x="107.0363" y="162.892804" width="0.2" height="1.79999226"/><rect id="Rectangle-path" transform="rotate(45 105.632 163.064)" x="105.6321" y="162.06371" width="0.2" height="1.79998274"/><rect id="Rectangle-path" transform="rotate(44.984 104.188 160.817)" x="104.1882" y="159.81661" width="0.2" height="1.79998281"/><rect id="Rectangle-path" transform="rotate(45.373 102.806 160.01)" x="102.8062" y="159.009988" width="0.2" height="1.80002083"/><rect id="Rectangle-path" transform="rotate(45.186 101.396 157.759)" x="101.396" y="156.758604" width="0.2" height="1.79999226"/><rect id="Rectangle-path" transform="rotate(44.984 99.937 156.92)" x="99.9371" y="155.92031" width="0.2" height="1.79998281"/><rect id="Rectangle-path" transform="rotate(44.814 98.525 156.098)" x="98.5253" y="155.097704" width="0.2" height="1.79999226"/><rect id="Rectangle-path" transform="rotate(45 97.132 153.857)" x="97.1324" y="152.85691" width="0.2" height="1.79998274"/><rect id="Rectangle-path" transform="rotate(45.17 95.722 153.034)" x="95.722" y="152.034005" width="0.2" height="1.79999068"/><rect id="Rectangle-path" transform="rotate(45 94.299 150.788)" x="94.299" y="149.78801" width="0.2" height="1.79998274"/><rect id="Rectangle-path" transform="rotate(45 92.883 149.961)" x="92.8828" y="148.96061" width="0.2" height="1.79998274"/><rect id="Rectangle-path" transform="rotate(45 91.466 149.133)" x="91.4663" y="148.13321" width="0.2" height="1.79998274"/><rect id="Rectangle-path" transform="rotate(45.357 90.056 146.904)" x="90.0561" y="145.90359" width="0.2" height="1.80001759"/><rect id="Rectangle-path" transform="rotate(45.373 88.638 146.078)" x="88.6383" y="145.078488" width="0.2" height="1.80002083"/><rect id="Rectangle-path" transform="rotate(44.984 87.19 143.817)" x="87.1896" y="142.81701" width="0.2" height="1.79998281"/><rect id="Rectangle-path" transform="rotate(44.623 85.813 142.968)" x="85.813" y="141.967659" width="0.2" height="1.79989438"/><rect id="Rectangle-path" transform="rotate(44.814 84.356 140.752)" x="84.3559" y="139.752204" width="0.2" height="1.79999226"/><rect id="Rectangle-path" transform="rotate(45.17 82.951 139.925)" x="82.9512" y="138.925205" width="0.2" height="1.79999068"/><rect id="Rectangle-path" transform="rotate(45 81.55 139.099)" x="81.5501" y="138.09891" width="0.2" height="1.79998274"/><rect id="Rectangle-path" transform="rotate(45.186 80.169 136.867)" x="80.1686" y="135.866704" width="0.2" height="1.79999226"/><rect id="Rectangle-path" transform="rotate(45 78.717 136.03)" x="78.7168" y="135.02961" width="0.2" height="1.79998274"/><rect id="Rectangle-path" transform="rotate(45.17 77.297 133.789)" x="77.2975" y="132.789405" width="0.2" height="1.79999068"/><rect id="Rectangle-path" transform="rotate(44.984 75.859 132.955)" x="75.8591" y="131.95541" width="0.2" height="1.79998281"/><rect id="Rectangle-path" transform="rotate(44.984 73.025 129.886)" x="73.0246" y="128.88591" width="0.2" height="1.79998281"/><rect id="Rectangle-path" transform="rotate(45 74.664 132.052)" x="74.6641" y="131.05151" width="0.2" height="1.79998274"/><rect id="Rectangle-path" transform="rotate(45 71.634 129.064)" x="71.6336" y="128.06441" width="0.2" height="1.79998274"/><rect id="Rectangle-path" transform="rotate(45.186 70.24 126.83)" x="70.2397" y="125.829704" width="0.2" height="1.79999226"/><rect id="Rectangle-path" transform="rotate(44.627 68.814 126.01)" x="68.8139" y="125.009888" width="0.2" height="1.80002083"/><rect id="Rectangle-path" transform="rotate(45 67.384 123.753)" x="67.3844" y="122.75291" width="0.2" height="1.79998274"/><rect id="Rectangle-path" transform="rotate(44.814 65.944 122.925)" x="65.9444" y="121.925004" width="0.2" height="1.79999226"/><rect id="Rectangle-path" transform="rotate(45.17 64.534 122.098)" x="64.5341" y="121.097605" width="0.2" height="1.79999068"/><rect id="Rectangle-path" transform="rotate(44.984 63.11 119.852)" x="63.1097" y="118.85211" width="0.2" height="1.79998281"/><rect id="Rectangle-path" transform="rotate(45 61.717 119.03)" x="61.7171" y="118.03001" width="0.2" height="1.79998274"/><rect id="Rectangle-path" transform="rotate(44.984 60.276 116.783)" x="60.2757" y="115.78271" width="0.2" height="1.79998281"/><rect id="Rectangle-path" transform="rotate(45.17 58.88 115.962)" x="58.8795" y="114.961705" width="0.2" height="1.79999068"/><rect id="Rectangle-path" transform="rotate(45.186 57.486 115.141)" x="57.4859" y="114.140604" width="0.2" height="1.79999226"/><rect id="Rectangle-path" transform="rotate(45 56.051 112.891)" x="56.0508" y="111.89151" width="0.2" height="1.79998274"/><rect id="Rectangle-path" transform="rotate(45.186 54.653 112.072)" x="54.6525" y="111.071804" width="0.2" height="1.79999226"/><rect id="Rectangle-path" transform="rotate(44.643 53.206 109.832)" x="53.2061" y="108.83159" width="0.2" height="1.80001759"/><rect id="Rectangle-path" transform="rotate(45.17 51.786 108.994)" x="51.786" y="107.994305" width="0.2" height="1.79999068"/><rect id="Rectangle-path" transform="rotate(45 50.385 106.753)" x="50.3848" y="105.75331" width="0.2" height="1.79998274"/><rect id="Rectangle-path" transform="rotate(45 48.968 105.926)" x="48.9679" y="104.92571" width="0.2" height="1.79998274"/><rect id="Rectangle-path" transform="rotate(44.814 47.543 105.1)" x="47.5433" y="104.099704" width="0.2" height="1.79999226"/><rect id="Rectangle-path" transform="rotate(45 46.134 102.857)" x="46.1344" y="101.85681" width="0.2" height="1.79998274"/><rect id="Rectangle-path" transform="rotate(45.186 44.748 102.04)" x="44.7479" y="101.039704" width="0.2" height="1.79999226"/><rect id="Rectangle-path" transform="rotate(44.814 43.29 99.789)" x="43.2901" y="98.7887043" width="0.2" height="1.79999226"/><rect id="Rectangle-path" transform="rotate(45 41.885 98.96)" x="41.8849" y="97.9602096" width="0.2" height="1.79998274"/><rect id="Rectangle-path" transform="rotate(44.83 40.473 98.136)" x="40.4734" y="97.1361052" width="0.2" height="1.79999068"/><rect id="Rectangle-path" transform="rotate(45.186 39.03 95.91)" x="39.0296" y="94.9097043" width="0.2" height="1.79999226"/><rect id="Rectangle-path" transform="rotate(44.814 37.594 95.077)" x="37.5942" y="94.0774043" width="0.2" height="1.79999226"/><rect id="Rectangle-path" transform="rotate(44.984 36.163 92.83)" x="36.1635" y="91.8301096" width="0.2" height="1.79998281"/><rect id="Rectangle-path" transform="rotate(45 34.77 92.008)" x="34.7705" y="91.0079096" width="0.2" height="1.79998274"/><rect id="Rectangle-path" transform="rotate(45 33.353 89.766)" x="33.3535" y="88.7665096" width="0.2" height="1.79998274"/><rect id="Rectangle-path" transform="rotate(44.619 31.956 88.955)" x="31.9556" y="87.9550875" width="0.2" height="1.8000225"/><rect id="Rectangle-path" transform="rotate(44.814 30.501 88.109)" x="30.5008" y="87.1093043" width="0.2" height="1.79999226"/><rect id="Rectangle-path" transform="rotate(45.186 29.114 85.875)" x="29.1137" y="84.8749043" width="0.2" height="1.79999226"/><rect id="Rectangle-path" transform="rotate(45.17 27.682 85.044)" x="27.6824" y="84.0439052" width="0.2" height="1.79999068"/><rect id="Rectangle-path" transform="rotate(45.186 26.291 82.808)" x="26.2914" y="81.8084043" width="0.2" height="1.79999226"/><rect id="Rectangle-path" transform="rotate(44.814 24.833 81.972)" x="24.8328" y="80.9719043" width="0.2" height="1.79999226"/><rect id="Rectangle-path" transform="rotate(44.984 22.707 80.434)" x="22.7073" y="79.4341096" width="0.2" height="1.79998281"/><rect id="Rectangle-path" transform="rotate(44.984 21.998 78.899)" x="21.9984" y="77.8991096" width="0.2" height="1.79998281"/><rect id="Rectangle-path" transform="rotate(45 20.604 78.077)" x="20.6035" y="77.0773096" width="0.2" height="1.79998274"/><rect id="Rectangle-path" transform="rotate(45 19.187 75.835)" x="19.1872" y="74.8353096" width="0.2" height="1.79998274"/><rect id="Rectangle-path" transform="rotate(45.17 17.766 75.009)" x="17.7661" y="74.0089052" width="0.2" height="1.79999068"/><rect id="Rectangle-path" transform="rotate(45.17 16.343 72.765)" x="16.3431" y="71.7648052" width="0.2" height="1.79999068"/><rect id="Rectangle-path" transform="rotate(45 14.938 71.939)" x="14.9378" y="70.9392096" width="0.2" height="1.79998274"/><rect id="Rectangle-path" transform="rotate(45 13.521 71.111)" x="13.5215" y="70.1114096" width="0.2" height="1.79998274"/><rect id="Rectangle-path" transform="rotate(44.814 12.094 68.87)" x="12.0936" y="67.8701043" width="0.2" height="1.79999226"/><rect id="Rectangle-path" transform="rotate(45 10.688 68.042)" x="10.688" y="67.0424096" width="0.2" height="1.79998274"/><rect id="Rectangle-path" transform="rotate(44.984 9.249 65.796)" x="9.2488" y="64.7956096" width="0.2" height="1.79998281"/><rect id="Rectangle-path" transform="rotate(45.547 7.857 64.961)" x="7.8569" y="63.9612347" width="0.2" height="1.79993748"/><rect id="Rectangle-path" transform="rotate(45 5.731 63.439)" x="5.7305" y="62.4388096" width="0.2" height="1.79998274"/><rect id="Rectangle-path" transform="rotate(45.17 5.009 61.903)" x="5.009" y="60.9031052" width="0.2" height="1.79999068"/><rect id="Rectangle-path" transform="rotate(45.186 3.611 61.081)" x="3.6113" y="60.0810043" width="0.2" height="1.79999226"/><rect id="Rectangle-path" transform="rotate(45 2.188 58.836)" x="2.1878" y="57.8358096" width="0.2" height="1.79998274"/><rect id="Rectangle-path" transform="rotate(45.357 .754 58.013)" x="0.7542" y="57.0128902" width="0.2" height="1.80001759"/><path d="M166.9,109.6 L141.2,83.9 L149.8,75.3 L150.1,75.6 L141.8,83.9 L166.9,109 L175.2,100.7 L175.5,101 L166.9,109.6 Z" id="Shape"/><path d="M147.6,128.9 L121.9,103.2 L135.7,89.4 L161.4,115.1 L147.6,128.9 L147.6,128.9 Z M122.5,103.2 L147.6,128.3 L160.8,115.1 L135.7,90 L122.5,103.2 L122.5,103.2 Z" id="Shape"/><path d="M117.5,98.8 L91.8,73.1 L105.6,59.3 L131.3,85 L117.5,98.8 L117.5,98.8 Z M92.4,73.1 L117.5,98.2 L130.7,85 L105.6,59.9 L92.4,73.1 L92.4,73.1 Z" id="Shape"/><path d="M136.7,79.5 L111,53.8 L119.7,45.1 L120,45.5 L111.7,53.8 L136.7,78.9 L145.1,70.5 L145.4,70.9 L136.7,79.5 Z" id="Shape"/><path d="M125.3,151.2 L99.6,125.5 L116.4,108.7 L142.1,134.4 L125.3,151.2 L125.3,151.2 Z M100.3,125.5 L125.4,150.6 L141.5,134.5 L116.4,109.4 L100.3,125.5 L100.3,125.5 Z" id="Shape"/><path d="M95.2,121.1 L74.6,100.5 L72,93 L86.3,78.7 L112,104.4 L95.2,121.1 L95.2,121.1 Z M75,100.2 L95.2,120.4 L111.3,104.3 L86.2,79.2 L72.5,93 L75,100.2 L75,100.2 Z" id="Shape"/><path d="M59.9,85.8 L39.3,65.2 L56.1,48.4 L81.8,74.1 L67.5,88.4 L59.9,85.8 L59.9,85.8 Z M40,65.2 L60.2,85.4 L67.4,87.9 L81.2,74.1 L56.1,49 L40,65.2 L40,65.2 Z" id="Shape"/><path d="M106.6,49.3 L80.9,23.6 L89.5,15 L89.8,15.3 L81.5,23.6 L106.6,48.7 L114.9,40.4 L115.2,40.7 L106.6,49.3 Z" id="Shape"/><path d="M87.3,68.6 L61.6,42.9 L75.4,29.1 L101.1,54.8 L87.3,68.6 L87.3,68.6 Z M62.2,42.9 L87.3,68 L100.5,54.8 L75.4,29.7 L62.2,42.9 L62.2,42.9 Z" id="Shape"/><path d="M181.1,123.8 C178,120.6 174.7,117.3 171.5,114.2 L171.3,114 L171.5,113.8 L179.9,105.4 L180.2,105.7 C177.6,108.3 174.7,111.2 172,113.9 C175.1,117 178.3,120.2 181.4,123.4 L181.1,123.8 L181.1,123.8 Z" id="Shape"/><path d="M161.8,143.2 L152,133.4 L165.8,119.6 L175.6,129.3 L175.3,129.6 L165.8,120.2 L152.7,133.4 L162.2,142.9 L161.8,143.2 Z" id="Shape"/><path d="M139.5,165.4 L129.8,155.6 L146.5,138.9 L156.3,148.7 L156,149 L146.5,139.5 L130.4,155.6 L139.8,165.1 L139.5,165.4 Z" id="Shape"/><path d="M127.7,177.2 L57.6,107.2 L66.1,98.7 L68.3,105.1 L134,170.9 L133.7,171.2 L67.9,105.4 L65.9,99.6 L58.3,107.2 L128,176.9 L127.7,177.2 Z" id="Shape"/><path d="M53.1,102.9 L4.3,54.1 L4.6,53.7 L53.1,102.2 L60.8,94.5 L55,92.5 L10.2,47.7 L10.5,47.4 L55.3,92.1 L61.6,94.3 L53.1,102.9 Z" id="Shape"/><path d="M34.9,60.8 L15.8,41.7 L16.2,41.4 L34.9,60.1 L51,44 L32.4,25.4 L32.8,25.1 L51.7,44 L34.9,60.8 Z" id="Shape"/><path d="M57.2,38.5 L38.2,19.6 L38.6,19.3 L57.2,37.8 L70.3,24.7 L51.8,6.2 L52.1,5.8 L71,24.7 L57.2,38.5 Z" id="Shape"/><path d="M57.4,0.2 L57.7,-0.1 C64,6.1 70.3,12.5 76.5,18.6 C79.2,15.9 82,13.1 84.6,10.5 L84.9,10.8 L76.6,19.1 L76.4,19.3 L76.2,19.1 C70.1,12.8 63.7,6.4 57.4,0.2 L57.4,0.2 Z" id="Shape"/></g><rect id="Rectangle-path" fill="#E6E7E8" transform="rotate(45.004 148.053 144.194)" x="143.052894" y="140.693836" width="10.0006112" height="7.3004462"/><rect id="Rectangle-path" fill="#E6E7E8" transform="rotate(44.992 132.283 100.493)" x="127.282948" y="96.9932335" width="9.9999042" height="7.29993007"/><rect id="Rectangle-path" fill="#E6E7E8" transform="rotate(45 145.532 151.865)" x="137.532377" y="149.864619" width="16.2998437" height="3.59996548"/><rect id="Rectangle-path" fill="#E6E7E8" transform="rotate(45 141.659 156.169)" x="133.659177" y="153.169329" width="16.2998437" height="6.39993862"/><path d="M158.9,164.4 L156.9,166.4 L150.5,160 L146,164.6 L152.4,171 L156.9,175.5 L161.4,170.9 L163.4,168.9 L158.9,164.4 Z" id="Shape" fill="#E6E7E8"/><path d="M175.3,184.4 L173.3,182.4 L179.7,176 L175.1,171.4 L168.7,177.8 L164.2,182.3 L168.8,186.9 L170.8,188.9 L175.3,184.4 Z" id="Shape" fill="#E6E7E8"/><path d="M113,122.5 L108.2,117.7 L105.9,120 L110.7,124.8 L108.5,127.1 L113.3,131.9 L115.6,129.7 L117.9,127.4 L113,122.5 Z" id="Shape" fill="#E6E7E8"/><rect id="Rectangle-path" fill="#E6E7E8" transform="rotate(45 127.365 124.922)" x="125.365219" y="119.922448" width="3.99996164" height="10.3999003"/><rect id="Rectangle-path" fill="#E6E7E8" transform="rotate(45 124.906 122.193)" x="121.405584" y="117.193098" width="6.59993671" height="10.3999003"/><rect id="Rectangle-path" fill="#E6E7E8" transform="rotate(45.004 116.935 116.976)" x="111.434614" y="110.975633" width="10.9006662" height="11.600709"/><rect id="Rectangle-path" fill="#E6E7E8" transform="rotate(44.992 130.956 129.076)" x="128.955519" y="124.075548" width="3.99996168" height="10.3999004"/><rect id="Rectangle-path" fill="#E6E7E8" transform="rotate(45 123.944 136.536)" x="114.943686" y="132.535838" width="17.5998312" height="8.09992232"/><rect id="Rectangle-path" fill="#E6E7E8" transform="rotate(45 134.78 132.659)" x="132.279674" y="127.659098" width="5.29994917" height="10.3999003"/><path d="M95.8,105.3 L100.4,109.9 L98.1,112.2 L93.5,107.5 L91.2,109.8 L86.5,105.1 L88.8,102.9 L91.1,100.6 L95.8,105.3 Z" id="Shape" fill="#E6E7E8"/><rect id="Rectangle-path" fill="#E6E7E8" transform="rotate(224.992 93.131 91.683)" x="91.1307192" y="86.6826479" width="3.89996264" height="10.3999004"/><rect id="Rectangle-path" fill="#E6E7E8" transform="rotate(224.992 95.784 93.949)" x="92.7843287" y="88.9492479" width="6.29993965" height="10.3999004"/><rect id="Rectangle-path" fill="#E6E7E8" transform="rotate(224.996 101.572 100.455)" x="96.0713638" y="94.4543833" width="10.5006418" height="11.600709"/><rect id="Rectangle-path" fill="#E6E7E8" transform="rotate(225 89.617 87.509)" x="87.6169192" y="82.508648" width="3.8999626" height="10.3999003"/><rect id="Rectangle-path" fill="#E6E7E8" transform="rotate(225.008 82.221 95.652)" x="73.7207814" y="91.6519383" width="16.8998381" height="8.0999224"/><rect id="Rectangle-path" fill="#E6E7E8" transform="rotate(225 85.966 83.854)" x="83.466274" y="78.853598" width="5.09995109" height="10.3999003"/><rect id="Rectangle-path" fill="#E6E7E8" transform="rotate(45 162.664 157.613)" x="160.664069" y="155.112774" width="3.99996164" height="5.19995013"/><rect id="Rectangle-path" fill="#E6E7E8" transform="rotate(44.992 166.482 161.195)" x="163.981924" y="158.694524" width="5.29994923" height="5.19995018"/><rect id="Rectangle-path" fill="#E6E7E8" transform="rotate(44.992 121.322 85.587)" x="117.821834" y="78.0874719" width="6.99993294" height="15.3998525"/><rect id="Rectangle-path" fill="#E6E7E8" transform="rotate(45.008 121.814 84.95)" x="118.314434" y="77.4500719" width="6.49993773" height="15.3998525"/><rect id="Rectangle-path" fill="#E6E7E8" transform="rotate(44.992 137.52 69.438)" x="135.020224" y="66.938124" width="5.29994923" height="5.19995018"/><rect id="Rectangle-path" fill="#E6E7E8" transform="rotate(45 122.532 54.443)" x="115.032472" y="51.943324" width="14.8998571" height="5.19995013"/><rect id="Rectangle-path" fill="#E6E7E8" transform="rotate(45 136.583 65.465)" x="131.083053" y="60.9653432" width="10.9998945" height="9.29991081"/><rect id="Rectangle-path" fill="#E6E7E8" transform="rotate(45.008 152.51 81.49)" x="147.010153" y="76.9899431" width="10.9998946" height="9.29991091"/><rect id="Rectangle-path" fill="#E6E7E8" transform="rotate(45 166.832 95.362)" x="161.332053" y="90.8618432" width="10.9998945" height="9.29991081"/><rect id="Rectangle-path" fill="#E6E7E8" transform="rotate(45.008 159.769 88.423)" x="154.268853" y="85.923024" width="10.9998946" height="5.19995018"/><rect id="Rectangle-path" fill="#E6E7E8" transform="rotate(45 182.713 111.464)" x="177.213253" y="108.964124" width="10.9998945" height="5.19995013"/><rect id="Rectangle-path" fill="#E6E7E8" transform="rotate(44.992 197.195 126.668)" x="191.694953" y="124.168224" width="10.9998946" height="5.19995018"/><rect id="Rectangle-path" fill="#E6E7E8" transform="rotate(44.996 183.467 114.254)" x="177.966814" y="110.753336" width="11.0006724" height="7.20044009"/><rect id="Rectangle-path" fill="#E6E7E8" transform="rotate(44.996 193.609 123.782)" x="188.108314" y="120.281936" width="11.0006724" height="7.20044009"/><rect id="Rectangle-path" fill="#E6E7E8" transform="rotate(45.008 212.493 142.781)" x="206.992653" y="139.280934" width="10.9998946" height="7.19993102"/><rect id="Rectangle-path" fill="#E6E7E8" transform="rotate(45.004 195.804 158.724)" x="190.303814" y="151.223292" width="11.0006724" height="15.100923"/><rect id="Rectangle-path" fill="#E6E7E8" transform="rotate(45.008 100.889 71.268)" x="96.8889383" y="68.2682287" width="8.0999224" height="6.39993869"/><rect id="Rectangle-path" fill="#E6E7E8" transform="rotate(45 115.731 72.558)" x="100.231099" y="69.5580788" width="30.4997075" height="6.39993862"/><rect id="Rectangle-path" fill="#E6E7E8" transform="rotate(45 140.393 97.203)" x="132.392977" y="94.2034288" width="16.3998427" height="6.39993862"/><rect id="Rectangle-path" fill="#E6E7E8" transform="rotate(45 151.759 108.54)" x="144.258922" y="105.539679" width="14.9998561" height="6.39993862"/><rect id="Rectangle-path" fill="#E6E7E8" transform="rotate(44.996 110.521 74.53)" x="105.020314" y="67.0295916" width="10.8006601" height="15.4009413"/><rect id="Rectangle-path" fill="#E6E7E8" transform="rotate(45 162.379 132.151)" x="156.379058" y="129.151129" width="12.3998811" height="6.19994054"/><rect id="Rectangle-path" fill="#E6E7E8" transform="rotate(45.008 166.789 126.892)" x="160.788657" y="122.392343" width="12.3998812" height="8.7999157"/><rect id="Rectangle-path" fill="#E6E7E8" transform="rotate(45 176.761 133.84)" x="170.760708" y="131.339674" width="11.5998888" height="5.39994821"/><rect id="Rectangle-path" fill="#E6E7E8" transform="rotate(45.008 181.715 145.895)" x="177.715438" y="138.394872" width="7.59992719" height="15.3998525"/><rect id="Rectangle-path" fill="#E6E7E8" transform="rotate(44.992 174.732 145.568)" x="166.231781" y="143.068424" width="16.4998419" height="5.19995018"/><rect id="Rectangle-path" fill="#E6E7E8" transform="rotate(45 145.106 114.166)" x="137.106177" y="111.166329" width="15.6998494" height="6.39993862"/><rect id="Rectangle-path" fill="#E6E7E8" transform="rotate(45 133.565 102.447)" x="127.064812" y="99.4470788" width="12.6998782" height="6.39993862"/></g><g stroke="none" stroke-width="1" fill="none" fill-rule="evenodd" transform="translate(108)"><g transform="translate(6)" fill="#28211F"><rect id="Rectangle-path" transform="rotate(225.016 98.665 41.826)" x="98.6651" y="40.8264096" width="0.2" height="1.79998281"/><rect id="Rectangle-path" transform="rotate(225.17 99.394 43.121)" x="99.3935" y="42.1207052" width="0.2" height="1.79999068"/><rect id="Rectangle-path" transform="rotate(224.267 101.517 44.409)" x="101.517" y="43.4091984" width="0.2" height="1.80000289"/><path d="M14.5,72.1 L40.2,97.8 L31.5,106.4 L31.2,106.1 L39.5,97.8 L14.5,72.7 L6.1,81 L5.8,80.7 L14.5,72.1 Z" id="Shape"/><path d="M33.8,52.8 L59.5,78.5 L45.7,92.3 L20,66.6 L33.8,52.8 L33.8,52.8 Z M58.8,78.5 L33.7,53.4 L20.5,66.6 L45.6,91.7 L58.8,78.5 L58.8,78.5 Z" id="Shape"/><path d="M63.9,82.9 L89.6,108.6 L75.8,122.4 L50.1,96.7 L63.9,82.9 L63.9,82.9 Z M89,108.6 L63.9,83.5 L50.7,96.7 L75.8,121.8 L89,108.6 L89,108.6 Z" id="Shape"/><path d="M44.6,102.2 L70.3,127.9 L61.7,136.6 L61.4,136.2 L69.7,127.9 L44.6,102.8 L36.3,111.2 L36,110.8 L44.6,102.2 Z" id="Shape"/><path d="M56,30.5 L81.7,56.2 L65,73 L39.3,47.3 L56,30.5 L56,30.5 Z M81.1,56.2 L56,31.1 L39.9,47.2 L65,72.3 L81.1,56.2 L81.1,56.2 Z" id="Shape"/><path d="M86.2,60.6 L106.8,81.2 L109.4,88.7 L95.1,103 L69.4,77.3 L86.2,60.6 L86.2,60.6 Z M106.4,81.5 L86.2,61.3 L70,77.4 L95.1,102.5 L108.9,88.7 L106.4,81.5 L106.4,81.5 Z" id="Shape"/><path d="M121.4,95.9 L142,116.5 L125.2,133.3 L99.5,107.6 L113.8,93.3 L121.4,95.9 L121.4,95.9 Z M141.4,116.5 L121.2,96.3 L114,93.8 L100.2,107.6 L125.3,132.7 L141.4,116.5 L141.4,116.5 Z" id="Shape"/><path d="M74.8,132.4 L100.5,158.1 L91.8,166.7 L91.5,166.4 L99.8,158.1 L74.8,133 L66.4,141.3 L66.1,141 L74.8,132.4 Z" id="Shape"/><path d="M94.1,113.1 L119.8,138.8 L106,152.6 L80.3,126.9 L94.1,113.1 L94.1,113.1 Z M119.1,138.8 L94,113.7 L80.8,126.9 L105.9,152 L119.1,138.8 L119.1,138.8 Z" id="Shape"/><path d="M0.3,57.9 C3.4,61.1 6.7,64.4 9.9,67.5 L10.1,67.7 L9.9,67.9 C7.2,70.6 4.2,73.6 1.5,76.3 L1.2,76 C3.9,73.4 6.7,70.5 9.4,67.8 C6.3,64.7 3.1,61.5 -5.68434189e-14,58.3 L0.3,57.9 L0.3,57.9 Z" id="Shape"/><path d="M19.5,38.5 L29.3,48.3 L15.5,62.1 L5.8,52.4 L6.1,52.1 L15.5,61.5 L28.7,48.3 L19.2,38.8 L19.5,38.5 Z" id="Shape"/><path d="M41.8,16.3 L51.6,26.1 L34.8,42.8 L25,33 L25.3,32.7 L34.8,42.2 L50.9,26.1 L41.5,16.6 L41.8,16.3 Z" id="Shape"/><path d="M53.7,4.5 L123.7,74.5 L115.3,83 L113.1,76.6 L47.3,10.8 L47.6,10.5 L113.5,76.3 L115.5,82.1 L123.1,74.5 L53.3,4.8 L53.7,4.5 Z" id="Shape"/><path d="M124,181.5 L123.7,181.8 C117.4,175.6 111.1,169.2 104.9,163.1 L96.8,171.2 L96.5,170.9 L104.8,162.6 L105,162.4 L105.2,162.6 C111.2,168.9 117.7,175.3 124,181.5 L124,181.5 Z" id="Shape"/></g><rect id="Rectangle-path" fill="#E6E7E8" transform="rotate(225 69.996 64.095)" x="64.996298" y="60.5952836" width="9.9999041" height="7.29992999"/><rect id="Rectangle-path" fill="#E6E7E8" transform="rotate(225.004 86.106 108.241)" x="81.1057944" y="104.740436" width="10.0006112" height="7.3004462"/><rect id="Rectangle-path" fill="#E6E7E8" transform="rotate(225 73.234 57.168)" x="65.2336767" y="55.1684192" width="16.2998437" height="3.59996548"/><rect id="Rectangle-path" fill="#E6E7E8" transform="rotate(225.008 76.565 52.863)" x="68.5653766" y="49.8634287" width="16.2998438" height="6.39993869"/><path d="M59.4,44.3 L61.4,42.3 L67.8,48.7 L72.4,44.1 L66,37.7 L61.5,33.2 L56.9,37.8 L54.9,39.8 L59.4,44.3 Z" id="Shape" fill="#E6E7E8"/><path d="M105.4,86.2 L110.2,91 L112.5,88.7 L107.6,83.9 L109.9,81.6 L105,76.8 L102.8,79 L100.5,81.3 L105.4,86.2 Z" id="Shape" fill="#E6E7E8"/><rect id="Rectangle-path" fill="#E6E7E8" transform="rotate(225 90.924 83.597)" x="88.9244192" y="78.596648" width="3.99996164" height="10.3999003"/><rect id="Rectangle-path" fill="#E6E7E8" transform="rotate(224.992 93.36 85.77)" x="89.8599335" y="80.7697479" width="6.59993677" height="10.3999004"/><rect id="Rectangle-path" fill="#E6E7E8" transform="rotate(224.996 101.175 91.634)" x="95.6744638" y="85.6340833" width="10.9006662" height="11.600709"/><rect id="Rectangle-path" fill="#E6E7E8" transform="rotate(225 87.315 79.099)" x="85.3150192" y="74.099448" width="3.99996164" height="10.3999003"/><rect id="Rectangle-path" fill="#E6E7E8" transform="rotate(225 94.721 72.828)" x="85.7206863" y="68.8277384" width="17.5998312" height="8.09992232"/><rect id="Rectangle-path" fill="#E6E7E8" transform="rotate(225 82.803 75.779)" x="80.302874" y="70.778898" width="5.29994917" height="10.3999003"/><rect id="Rectangle-path" fill="#E6E7E8" transform="rotate(224.992 55.414 51.349)" x="53.4144192" y="48.848724" width="3.99996168" height="5.19995018"/><rect id="Rectangle-path" fill="#E6E7E8" transform="rotate(224.992 51.58 47.323)" x="49.080324" y="44.822924" width="5.29994923" height="5.19995018"/><rect id="Rectangle-path" fill="#E6E7E8" transform="rotate(224.992 96.86 123.02)" x="93.3600335" y="115.519972" width="6.99993294" height="15.3998525"/><rect id="Rectangle-path" fill="#E6E7E8" transform="rotate(224.988 97.003 123.405)" x="93.503236" y="115.904691" width="6.50039743" height="15.4009416"/><rect id="Rectangle-path" fill="#E6E7E8" transform="rotate(225.008 81.194 139.207)" x="78.694224" y="136.706524" width="5.29994923" height="5.19995018"/><rect id="Rectangle-path" fill="#E6E7E8" transform="rotate(225.008 96.221 154.227)" x="88.7211719" y="151.727224" width="14.8998573" height="5.19995018"/><rect id="Rectangle-path" fill="#E6E7E8" transform="rotate(225 82.247 143.046)" x="76.7466527" y="138.546443" width="10.9998945" height="9.29991081"/><rect id="Rectangle-path" fill="#E6E7E8" transform="rotate(225.004 66.315 127.155)" x="60.8150138" y="122.654275" width="11.0006724" height="9.30056845"/><rect id="Rectangle-path" fill="#E6E7E8" transform="rotate(225 51.261 113.151)" x="45.7614527" y="108.650743" width="10.9998945" height="9.29991081"/><rect id="Rectangle-path" fill="#E6E7E8" transform="rotate(224.992 56.938 121.66)" x="51.4384527" y="116.159853" width="10.9998946" height="11.0998937"/><rect id="Rectangle-path" fill="#E6E7E8" transform="rotate(225 35.566 97.521)" x="30.0660527" y="95.021024" width="10.9998945" height="5.19995013"/><rect id="Rectangle-path" fill="#E6E7E8" transform="rotate(225.004 21.036 82.266)" x="15.5355138" y="79.7660972" width="11.0006724" height="5.20031784"/><rect id="Rectangle-path" fill="#E6E7E8" transform="rotate(224.996 34.635 94.29)" x="29.1344138" y="90.7899361" width="11.0006724" height="7.20044009"/><rect id="Rectangle-path" fill="#E6E7E8" transform="rotate(225 24.496 84.987)" x="18.9956527" y="81.4865336" width="10.9998945" height="7.19993095"/><rect id="Rectangle-path" fill="#E6E7E8" transform="rotate(225 6.305 65.525)" x="0.804852745" y="62.0255336" width="10.9998945" height="7.19993095"/><rect id="Rectangle-path" fill="#E6E7E8" transform="rotate(225 23.056 50.2)" x="17.5565527" y="42.7002719" width="10.9998945" height="15.0998552"/><rect id="Rectangle-path" fill="#E6E7E8" transform="rotate(225 103.274 136.216)" x="87.7739986" y="133.215679" width="30.4997075" height="6.39993862"/><rect id="Rectangle-path" fill="#E6E7E8" transform="rotate(225 78.587 111.561)" x="70.5871767" y="108.561529" width="16.3998427" height="6.39993862"/><rect id="Rectangle-path" fill="#E6E7E8" transform="rotate(225 67.222 100.121)" x="59.7218219" y="97.1205788" width="14.9998561" height="6.39993862"/><rect id="Rectangle-path" fill="#E6E7E8" transform="rotate(225.004 107.613 133.443)" x="102.112514" y="125.942492" width="10.8006601" height="15.4009413"/><rect id="Rectangle-path" fill="#E6E7E8" transform="rotate(224.992 56.476 76.537)" x="50.4764575" y="73.5367287" width="12.3998812" height="6.1999406"/><rect id="Rectangle-path" fill="#E6E7E8" transform="rotate(225 50.385 81.799)" x="44.3849075" y="77.2987932" width="12.3998811" height="8.79991561"/><rect id="Rectangle-path" fill="#E6E7E8" transform="rotate(224.992 41.925 75.196)" x="35.9253575" y="72.696224" width="11.5998889" height="5.39994827"/><rect id="Rectangle-path" fill="#E6E7E8" transform="rotate(225.008 37.111 63.139)" x="33.1111383" y="55.6392719" width="7.59992719" height="15.3998525"/><rect id="Rectangle-path" fill="#E6E7E8" transform="rotate(225.008 43.085 62.773)" x="34.5848814" y="60.273224" width="16.4998419" height="5.19995018"/><rect id="Rectangle-path" fill="#E6E7E8" transform="rotate(225 72.84 94.552)" x="64.8397767" y="91.5520288" width="15.6998494" height="6.39993862"/><rect id="Rectangle-path" fill="#E6E7E8" transform="rotate(225 85.004 106.516)" x="78.5038123" y="103.515979" width="12.6998782" height="6.39993862"/></g><rect id="Rectangle-path" stroke="none" fill="#E6E7E8" fill-rule="evenodd" transform="rotate(225 127.679 217.665)" x="113.679034" y="215.664919" width="27.9997315" height="3.49996643"/><rect id="Rectangle-path" stroke="none" fill="#E6E7E8" fill-rule="evenodd" transform="rotate(225 144.815 235.015)" x="135.815086" y="233.014619" width="17.6998303" height="3.49996643"/><path d="M118.7,209.7 L122.9,213.8" id="Shape" stroke="#E1E1DE" stroke-width="0.8705" fill="none"/><path d="M124.3,215.3 L132.2,223.1" id="Shape" stroke="#E1E1DE" stroke-width="0.8705" fill="none"/><path d="M139.3,230.2 L147.1,238.1" id="Shape" stroke="#E1E1DE" stroke-width="0.8705" fill="none"/></g></g><rect id="Rectangle-path" stroke="#000" stroke-width="0.75" x="6" y="132" width="81.2" height="8.5"/><rect id="Rectangle-path" stroke="#000" stroke-width="0.75" x="6" y="21" width="81.3" height="119"/><rect id="Rectangle-path" stroke="#000" stroke-width="0.75" x="8" y="23" width="7.8" height="2.1"/><rect id="Rectangle-path" stroke="#000" stroke-width="0.75" x="8" y="30" width="7.8" height="2.1"/><rect id="Rectangle-path" stroke="#000" stroke-width="0.75" x="8" y="135" width="25.6" height="2.1"/><rect id="Rectangle-path" stroke="#000" stroke-width="0.75" x="58" y="135" width="25.6" height="2.1"/><rect id="Rectangle-path" stroke="#000" stroke-width="0.75" x="20" y="23" width="4.3" height="2.1"/><rect id="Rectangle-path" stroke="#000" stroke-width="0.75" x="53" y="23" width="4.3" height="2.1"/><rect id="Rectangle-path" stroke="#000" stroke-width="0.75" x="36" y="23" width="4.3" height="2.1"/><rect stroke="#000" stroke-width="0.75" x="80" y="23" width="4.3" height="2.1"/><circle id="Oval" stroke="#000" stroke-width="0.6133" cx="46.4" cy="151.4" r="6.4"/><path d="M43.8,7.3 C43.8,5.9 44.9,4.9 46.2,4.9 C47.6,4.9 48.6,6 48.6,7.3 C48.6,8.6 47.5,9.7 46.2,9.7 C44.9,9.7 43.8,8.6 43.8,7.3 L43.8,7.3 Z" id="Shape" stroke="#000" stroke-width="0.75"/><path d="M55.2,14.1 C55.2,14.6 54.9,15 54.6,15 L37.8,15 C37.5,15 37.2,14.6 37.2,14.1 L37.2,14.1 C37.2,13.6 37.5,13.2 37.8,13.2 L54.6,13.2 C54.9,13.2 55.2,13.6 55.2,14.1 L55.2,14.1 L55.2,14.1 Z" id="Shape" stroke="#000" stroke-width="0.75"/><circle id="Oval" fill="#000" cx="66.8" cy="31.8" r="1.8"/><circle id="Oval" fill="#23516E" cx="51.1" cy="58.1" r="2.1"/><circle id="Oval" fill="#23516E" cx="33.1" cy="55.1" r="2.1"/><circle id="Oval" fill="#23516E" cx="80.1" cy="86.1" r="2.1"/><circle id="Oval" fill="#23516E" cx="75.1" cy="92.1" r="2.1"/><circle id="Oval" fill="#23516E" cx="50.1" cy="99.1" r="2.1"/><circle id="Oval" fill="#000" cx="62.1" cy="105.1" r="2.1"/><circle id="Oval" fill="#000" cx="40.1" cy="80.1" r="2.1"/><circle id="Oval" fill="#000" cx="40.1" cy="87.1" r="2.1"/><circle id="Oval" fill="#000" cx="34.1" cy="81.1" r="2.1"/><circle id="Oval" fill="#000" cx="52.1" cy="69.1" r="2.1"/><circle id="Oval" fill="#000" cx="64.1" cy="75.1" r="2.1"/><circle id="Oval" fill="#000" cx="64.1" cy="87.1" r="2.1"/><circle id="Oval" fill="#000" cx="82.1" cy="63.1" r="2.1"/><circle id="Oval" fill="#000" cx="40.1" cy="45.1" r="2.1"/><circle id="Oval" fill="#000" cx="10.1" cy="57.1" r="2.1"/><path d="M38.8,105.3 C38.8,104.2 39.7,103.2 40.9,103.2 C42,103.2 43,104.1 43,105.3 C43,106.4 40.9,109.2 40.9,109.2 C40.9,109.2 38.8,106.5 38.8,105.3 L38.8,105.3 Z" id="Shape" fill="#000"/><circle id="Oval" fill="#23516E" cx="52.1" cy="95.1" r="2.1"/><circle id="Oval" fill="#23516E" cx="27.1" cy="94.1" r="2.1"/><circle id="Oval" fill="#23516E" cx="57.1" cy="115.1" r="2.1"/><circle id="Oval" fill="#23516E" cx="16.1" cy="67.1" r="2.1"/><circle id="Oval" fill="#23516E" cx="73.1" cy="46.1" r="2.1"/><circle id="Oval" fill="#000" cx="74.8" cy="31.8" r="1.8"/><circle fill="#000" cx="82.8" cy="31.8" r="1.8"/><path d="M5.6,28.1 L86.9,28.1" id="Shape" stroke="#000" stroke-width="0.75"/><path d="M5.6,35.2 L86.9,35.2" stroke="#000" stroke-width="0.75"/></g></g></svg>