<svg width="241px" height="188px" viewBox="0 0 241 188" version="1.1" xmlns="http://www.w3.org/2000/svg" xmlns:xlink="http://www.w3.org/1999/xlink"><title>app-icon-map</title><desc>Created with Sketch.</desc><defs><path id="a" d="M64.5,0.3 L171.8,0.3 L171.8,144.9 L0.1,144.9 L0.1,50 L64.5,50 L64.5,0.3 Z"/><path id="c" d="M64.5,0.3 L171.8,0.3 L171.8,144.9 L0.1,144.9 L0.1,50 L64.5,50 L64.5,0.3 Z"/><path id="e" d="M64.5,0.3 L171.8,0.3 L171.8,144.9 L0.1,144.9 L0.1,50 L64.5,50 L64.5,0.3 Z"/><path id="g" d="M64.5,0.3 L171.8,0.3 L171.8,144.9 L0.1,144.9 L0.1,50 L64.5,50 L64.5,0.3 Z"/><path id="i" d="M64.5,0.3 L171.8,0.3 L171.8,144.9 L0.1,144.9 L0.1,50 L64.5,50 L64.5,0.3 Z"/><path id="k" d="M64.5,0.3 L171.8,0.3 L171.8,144.9 L0.1,144.9 L0.1,50 L64.5,50 L64.5,0.3 Z"/><path id="m" d="M64.5,0.3 L171.8,0.3 L171.8,144.9 L0.1,144.9 L0.1,50 L64.5,50 L64.5,0.3 Z"/><path id="o" d="M64.5,0.3 L171.8,0.3 L171.8,144.9 L0.1,144.9 L0.1,50 L64.5,50 L64.5,0.3 Z"/><path id="q" d="M64.5,0.3 L171.8,0.3 L171.8,144.9 L0.1,144.9 L0.1,50 L64.5,50 L64.5,0.3 Z"/><path id="s" d="M64.5,0.3 L171.8,0.3 L171.8,144.9 L0.1,144.9 L0.1,50 L64.5,50 L64.5,0.3 Z"/><path id="u" d="M64.5,0.3 L171.8,0.3 L171.8,144.9 L0.1,144.9 L0.1,50 L64.5,50 L64.5,0.3 Z"/><path id="w" d="M64.5,0.3 L171.8,0.3 L171.8,144.9 L0.1,144.9 L0.1,50 L64.5,50 L64.5,0.3 Z"/><path id="y" d="M64.5,0.3 L171.8,0.3 L171.8,144.9 L0.1,144.9 L0.1,50 L64.5,50 L64.5,0.3 Z"/><path id="A" d="M64.5,0.3 L171.8,0.3 L171.8,144.9 L0.1,144.9 L0.1,50 L64.5,50 L64.5,0.3 Z"/><path id="C" d="M64.5,0.3 L171.8,0.3 L171.8,144.9 L0.1,144.9 L0.1,50 L64.5,50 L64.5,0.3 Z"/><path id="E" d="M64.5,0.3 L171.8,0.3 L171.8,144.9 L0.1,144.9 L0.1,50 L64.5,50 L64.5,0.3 Z"/><path id="G" d="M64.5,0.3 L171.8,0.3 L171.8,144.9 L0.1,144.9 L0.1,50 L64.5,50 L64.5,0.3 Z"/><path id="I" d="M64.5,0.3 L171.8,0.3 L171.8,144.9 L0.1,144.9 L0.1,50 L64.5,50 L64.5,0.3 Z"/><path id="K" d="M64.5,0.3 L171.8,0.3 L171.8,144.9 L0.1,144.9 L0.1,50 L64.5,50 L64.5,0.3 Z"/><path id="M" d="M64.5,0.3 L171.8,0.3 L171.8,144.9 L0.1,144.9 L0.1,50 L64.5,50 L64.5,0.3 Z"/><path id="O" d="M64.5,0.3 L171.8,0.3 L171.8,144.9 L0.1,144.9 L0.1,50 L64.5,50 L64.5,0.3 Z"/><path id="Q" d="M64.5,0.3 L171.8,0.3 L171.8,144.9 L0.1,144.9 L0.1,50 L64.5,50 L64.5,0.3 Z"/><path id="S" d="M64.5,0.3 L171.8,0.3 L171.8,144.9 L0.1,144.9 L0.1,50 L64.5,50 L64.5,0.3 Z"/><path id="U" d="M64.5,0.3 L171.8,0.3 L171.8,144.9 L0.1,144.9 L0.1,50 L64.5,50 L64.5,0.3 Z"/><path id="W" d="M64.5,0.3 L171.8,0.3 L171.8,144.9 L0.1,144.9 L0.1,50 L64.5,50 L64.5,0.3 Z"/><path id="Y" d="M64.5,0.3 L171.8,0.3 L171.8,144.9 L0.1,144.9 L0.1,50 L64.5,50 L64.5,0.3 Z"/><path id="aa" d="M64.5,0.3 L171.8,0.3 L171.8,144.9 L0.1,144.9 L0.1,50 L64.5,50 L64.5,0.3 Z"/><path id="ac" d="M64.5,0.3 L171.8,0.3 L171.8,144.9 L0.1,144.9 L0.1,50 L64.5,50 L64.5,0.3 Z"/><path id="ae" d="M64.5,0.3 L171.8,0.3 L171.8,144.9 L0.1,144.9 L0.1,50 L64.5,50 L64.5,0.3 Z"/><path id="ag" d="M64.5,0.3 L171.8,0.3 L171.8,144.9 L0.1,144.9 L0.1,50 L64.5,50 L64.5,0.3 Z"/><path id="ai" d="M64.5,0.3 L171.8,0.3 L171.8,144.9 L0.1,144.9 L0.1,50 L64.5,50 L64.5,0.3 Z"/><path id="ak" d="M64.5,0.3 L171.8,0.3 L171.8,144.9 L0.1,144.9 L0.1,50 L64.5,50 L64.5,0.3 Z"/><path id="am" d="M64.5,0.3 L171.8,0.3 L171.8,144.9 L0.1,144.9 L0.1,50 L64.5,50 L64.5,0.3 Z"/><path id="ao" d="M64.5,0.3 L171.8,0.3 L171.8,144.9 L0.1,144.9 L0.1,50 L64.5,50 L64.5,0.3 Z"/><path id="aq" d="M64.5,0.3 L171.8,0.3 L171.8,144.9 L0.1,144.9 L0.1,50 L64.5,50 L64.5,0.3 Z"/><path id="as" d="M64.5,0.3 L171.8,0.3 L171.8,144.9 L0.1,144.9 L0.1,50 L64.5,50 L64.5,0.3 Z"/><path id="au" d="M64.5,0.3 L171.8,0.3 L171.8,144.9 L0.1,144.9 L0.1,50 L64.5,50 L64.5,0.3 Z"/><path id="aw" d="M64.5,0.3 L171.8,0.3 L171.8,144.9 L0.1,144.9 L0.1,50 L64.5,50 L64.5,0.3 Z"/><path id="ay" d="M64.5,0.3 L171.8,0.3 L171.8,144.9 L0.1,144.9 L0.1,50 L64.5,50 L64.5,0.3 Z"/><path id="aA" d="M64.5,0.3 L171.8,0.3 L171.8,144.9 L0.1,144.9 L0.1,50 L64.5,50 L64.5,0.3 Z"/><path id="aC" d="M64.5,0.3 L171.8,0.3 L171.8,144.9 L0.1,144.9 L0.1,50 L64.5,50 L64.5,0.3 Z"/><path id="aE" d="M64.5,0.3 L171.8,0.3 L171.8,144.9 L0.1,144.9 L0.1,50 L64.5,50 L64.5,0.3 Z"/><path id="aG" d="M64.5,0.3 L171.8,0.3 L171.8,144.9 L0.1,144.9 L0.1,50 L64.5,50 L64.5,0.3 Z"/><path id="aI" d="M64.5,0.3 L171.8,0.3 L171.8,144.9 L0.1,144.9 L0.1,50 L64.5,50 L64.5,0.3 Z"/><path id="aK" d="M64.5,0.3 L171.8,0.3 L171.8,144.9 L0.1,144.9 L0.1,50 L64.5,50 L64.5,0.3 Z"/><path id="aM" d="M64.5,0.3 L171.8,0.3 L171.8,144.9 L0.1,144.9 L0.1,50 L64.5,50 L64.5,0.3 Z"/><path id="aO" d="M64.5,0.3 L171.8,0.3 L171.8,144.9 L0.1,144.9 L0.1,50 L64.5,50 L64.5,0.3 Z"/><path id="aQ" d="M64.5,0.3 L171.8,0.3 L171.8,144.9 L0.1,144.9 L0.1,50 L64.5,50 L64.5,0.3 Z"/><path id="aS" d="M64.5,0.3 L171.8,0.3 L171.8,144.9 L0.1,144.9 L0.1,50 L64.5,50 L64.5,0.3 Z"/><path id="aU" d="M64.5,0.3 L171.8,0.3 L171.8,144.9 L0.1,144.9 L0.1,50 L64.5,50 L64.5,0.3 Z"/><path id="aW" d="M64.5,0.3 L171.8,0.3 L171.8,144.9 L0.1,144.9 L0.1,50 L64.5,50 L64.5,0.3 Z"/><path id="aY" d="M64.5,0.3 L171.8,0.3 L171.8,144.9 L0.1,144.9 L0.1,50 L64.5,50 L64.5,0.3 Z"/><path id="ba" d="M64.5,0.3 L171.8,0.3 L171.8,144.9 L0.1,144.9 L0.1,50 L64.5,50 L64.5,0.3 Z"/><path id="bc" d="M64.5,0.3 L171.8,0.3 L171.8,144.9 L0.1,144.9 L0.1,50 L64.5,50 L64.5,0.3 Z"/><path id="be" d="M64.5,0.3 L171.8,0.3 L171.8,144.9 L0.1,144.9 L0.1,50 L64.5,50 L64.5,0.3 Z"/><path id="bg" d="M64.5,0.3 L171.8,0.3 L171.8,144.9 L0.1,144.9 L0.1,50 L64.5,50 L64.5,0.3 Z"/><path id="bi" d="M64.5,0.3 L171.8,0.3 L171.8,144.9 L0.1,144.9 L0.1,50 L64.5,50 L64.5,0.3 Z"/><path id="bk" d="M64.5,0.3 L171.8,0.3 L171.8,144.9 L0.1,144.9 L0.1,50 L64.5,50 L64.5,0.3 Z"/><path id="bm" d="M64.5,0.3 L171.8,0.3 L171.8,144.9 L0.1,144.9 L0.1,50 L64.5,50 L64.5,0.3 Z"/><path id="bo" d="M64.5,0.3 L171.8,0.3 L171.8,144.9 L0.1,144.9 L0.1,50 L64.5,50 L64.5,0.3 Z"/><path id="bq" d="M64.5,0.3 L171.8,0.3 L171.8,144.9 L0.1,144.9 L0.1,50 L64.5,50 L64.5,0.3 Z"/><path id="bs" d="M64.5,0.3 L171.8,0.3 L171.8,144.9 L0.1,144.9 L0.1,50 L64.5,50 L64.5,0.3 Z"/><path id="bu" d="M64.5,0.3 L171.8,0.3 L171.8,144.9 L0.1,144.9 L0.1,50 L64.5,50 L64.5,0.3 Z"/><path id="bw" d="M64.5,0.3 L171.8,0.3 L171.8,144.9 L0.1,144.9 L0.1,50 L64.5,50 L64.5,0.3 Z"/><path id="by" d="M64.5,0.3 L171.8,0.3 L171.8,144.9 L0.1,144.9 L0.1,50 L64.5,50 L64.5,0.3 Z"/><path id="bA" d="M64.5,0.3 L171.8,0.3 L171.8,144.9 L0.1,144.9 L0.1,50 L64.5,50 L64.5,0.3 Z"/><path id="bC" d="M64.5,0.3 L171.8,0.3 L171.8,144.9 L0.1,144.9 L0.1,50 L64.5,50 L64.5,0.3 Z"/><path id="bE" d="M64.5,0.3 L171.8,0.3 L171.8,144.9 L0.1,144.9 L0.1,50 L64.5,50 L64.5,0.3 Z"/><path id="bG" d="M64.5,0.3 L171.8,0.3 L171.8,144.9 L0.1,144.9 L0.1,50 L64.5,50 L64.5,0.3 Z"/><path id="bI" d="M64.5,0.3 L171.8,0.3 L171.8,144.9 L0.1,144.9 L0.1,50 L64.5,50 L64.5,0.3 Z"/><path id="bK" d="M64.5,0.3 L171.8,0.3 L171.8,144.9 L0.1,144.9 L0.1,50 L64.5,50 L64.5,0.3 Z"/><path id="bM" d="M64.5,0.3 L171.8,0.3 L171.8,144.9 L0.1,144.9 L0.1,50 L64.5,50 L64.5,0.3 Z"/><path id="bO" d="M64.5,0.3 L171.8,0.3 L171.8,144.9 L0.1,144.9 L0.1,50 L64.5,50 L64.5,0.3 Z"/><path id="bQ" d="M64.5,0.3 L171.8,0.3 L171.8,144.9 L0.1,144.9 L0.1,50 L64.5,50 L64.5,0.3 Z"/><path id="bS" d="M64.5,0.3 L171.8,0.3 L171.8,144.9 L0.1,144.9 L0.1,50 L64.5,50 L64.5,0.3 Z"/><path id="bU" d="M64.5,0.3 L171.8,0.3 L171.8,144.9 L0.1,144.9 L0.1,50 L64.5,50 L64.5,0.3 Z"/></defs><g transform="translate(3 3)" stroke="none" stroke-width="1" fill="none" fill-rule="evenodd"><g><g transform="translate(2 34)"><mask id="b" fill="#fff"><use xlink:href="#a"/></mask><g id="SVGID_1_"/><path d="M176.3,22.2 L169.4,31 L161.4,33.4 L161.4,48.1 L151.6,59.4 L151.6,85.4 L146.8,96.4 L145.5,104.1 L145.5,115 L152.7,130.7 L151.8,144.5" id="Shape" stroke="#BCBEC0" mask="url(#b)"/></g><g transform="translate(2 34)"><mask id="d" fill="#fff"><use xlink:href="#c"/></mask><g id="SVGID_1_"/><path d="M108.3,69.3 L203,69.3" id="Shape" stroke="#BCBEC0" mask="url(#d)"/></g><g transform="translate(2 34)"><mask id="f" fill="#fff"><use xlink:href="#e"/></mask><g id="SVGID_1_"/><path d="M133.6,-0.7 L133.6,5 L138.5,12.6 L133.6,20 L127,20 L113.8,29 L110,44.8 L110,50.1 L106.7,63.7" id="Shape" stroke="#BCBEC0" mask="url(#f)"/></g><g transform="translate(2 34)"><mask id="h" fill="#fff"><use xlink:href="#g"/></mask><g id="SVGID_1_"/><path d="M178.3,82.5 L111.3,82.5" id="Shape" stroke="#BCBEC0" mask="url(#h)"/></g><g transform="translate(2 34)"><mask id="j" fill="#fff"><use xlink:href="#i"/></mask><g id="SVGID_1_"/><path d="M108.3,145 L108.3,79.7" id="Shape" stroke="#BCBEC0" mask="url(#j)"/></g><g transform="translate(2 34)"><mask id="l" fill="#fff"><use xlink:href="#k"/></mask><g id="SVGID_1_"/><path d="M49.4,144.9 L49.4,68.3 L87,68.3" id="Shape" stroke="#BCBEC0" mask="url(#l)"/></g><g transform="translate(2 34)"><mask id="n" fill="#fff"><use xlink:href="#m"/></mask><g id="SVGID_1_"/><path d="M-35.7,93.7 L74.1,93.7 L87,110.5 L33.7,144.9" id="Shape" stroke="#BCBEC0" mask="url(#n)"/></g><g transform="translate(2 34)"><mask id="p" fill="#fff"><use xlink:href="#o"/></mask><g id="SVGID_1_"/><path d="M59.9,144.5 L60.5,127.8" id="Shape" stroke="#BCBEC0" mask="url(#p)"/></g><g transform="translate(2 34)"><mask id="r" fill="#fff"><use xlink:href="#q"/></mask><g id="SVGID_1_"/><path d="M-35.7,134.7 L-28.6,138 L-20.7,130.2 L-18.1,129 L20.5,129 L27.5,131 L35,132.1 L49.4,129" id="Shape" stroke="#BCBEC0" mask="url(#r)"/></g><g transform="translate(2 34)"><mask id="t" fill="#fff"><use xlink:href="#s"/></mask><g id="SVGID_1_"/><path d="M25.6,145 L25.6,69.3" id="Shape" stroke="#BCBEC0" mask="url(#t)"/></g><g transform="translate(2 34)"><mask id="v" fill="#fff"><use xlink:href="#u"/></mask><g id="SVGID_1_"/><path d="M0.9,51.6 L2.2,73.7 L10.6,86.4 L2.9,99.9 L3.3,103.6 L-23.6,129 L-22.2,131.7" id="Shape" stroke="#BCBEC0" mask="url(#v)"/></g><g transform="translate(2 34)"><mask id="x" fill="#fff"><use xlink:href="#w"/></mask><g id="SVGID_1_"/><path d="M90.6,-0.7 L87,7.6 L68.2,32.9 L75.4,40.1 L67.4,53.6 L60.5,55.8 L56.4,64.8 L56.4,68.3" id="Shape" stroke="#BCBEC0" mask="url(#x)"/></g><g transform="translate(2 34)"><mask id="z" fill="#fff"><use xlink:href="#y"/></mask><g id="SVGID_1_"/><path d="M56.4,-1.3 L56.4,29 L65.2,37.1 L74.4,39.1 L80.5,39.9 L82.9,42.8 L82.9,46.3 L87,50.3 L85.9,62.4" id="Shape" stroke="#BCBEC0" mask="url(#z)"/></g><g transform="translate(2 34)"><mask id="B" fill="#fff"><use xlink:href="#A"/></mask><g id="SVGID_1_"/><path d="M111.3,-5 L82,24 L68.2,36 L60.5,49.4 L52,67.2 L-8.2,139.8" id="Shape" stroke="#23516E" mask="url(#B)"/></g><g transform="translate(2 34)"><mask id="D" fill="#fff"><use xlink:href="#C"/></mask><g id="SVGID_1_"/><path d="M53.6,11.2 L76.3,29" id="Shape" stroke="#23516E" mask="url(#D)"/></g><g transform="translate(2 34)"><mask id="F" fill="#fff"><use xlink:href="#E"/></mask><g id="SVGID_1_"/><circle id="Oval" opacity="0.25" fill="#D1D3D4" mask="url(#F)" cx="102.6" cy="91.6" r="39.6"/></g><g transform="translate(2 34)"><mask id="H" fill="#fff"><use xlink:href="#G"/></mask><g id="SVGID_1_"/><rect id="Rectangle-path" fill="#000" mask="url(#H)" x="95" y="52" width="4" height="4"/></g><g transform="translate(2 34)"><mask id="J" fill="#fff"><use xlink:href="#I"/></mask><g id="SVGID_1_"/><rect id="Rectangle-path" fill="#000" mask="url(#J)" x="81" y="56" width="4" height="4"/></g><g transform="translate(2 34)"><mask id="L" fill="#fff"><use xlink:href="#K"/></mask><g id="SVGID_1_"/><rect id="Rectangle-path" fill="#000" mask="url(#L)" x="90" y="56" width="4" height="4"/></g><g transform="translate(2 34)"><mask id="N" fill="#fff"><use xlink:href="#M"/></mask><g id="SVGID_1_"/><rect id="Rectangle-path" fill="#000" mask="url(#N)" x="85" y="60" width="4" height="4"/></g><g transform="translate(2 34)"><mask id="P" fill="#fff"><use xlink:href="#O"/></mask><g id="SVGID_1_"/><rect id="Rectangle-path" fill="#000" mask="url(#P)" x="70" y="62" width="4" height="4"/></g><g transform="translate(2 34)"><mask id="R" fill="#fff"><use xlink:href="#Q"/></mask><g id="SVGID_1_"/><rect id="Rectangle-path" fill="#000" mask="url(#R)" x="78" y="62" width="4" height="4"/></g><g transform="translate(2 34)"><mask id="T" fill="#fff"><use xlink:href="#S"/></mask><g id="SVGID_1_"/><rect id="Rectangle-path" fill="#000" mask="url(#T)" x="83" y="67" width="4" height="4"/></g><g transform="translate(2 34)"><mask id="V" fill="#fff"><use xlink:href="#U"/></mask><g id="SVGID_1_"/><rect id="Rectangle-path" fill="#000" mask="url(#V)" x="74" y="69" width="4" height="4"/></g><g transform="translate(2 34)"><mask id="X" fill="#fff"><use xlink:href="#W"/></mask><g id="SVGID_1_"/><rect id="Rectangle-path" fill="#000" mask="url(#X)" x="74" y="63" width="4" height="4"/></g><g transform="translate(2 34)"><mask id="Z" fill="#fff"><use xlink:href="#Y"/></mask><g id="SVGID_1_"/><rect id="Rectangle-path" fill="#000" mask="url(#Z)" x="83" y="71" width="4" height="4"/></g><g transform="translate(2 34)"><mask id="ab" fill="#fff"><use xlink:href="#aa"/></mask><g id="SVGID_1_"/><rect id="Rectangle-path" fill="#000" mask="url(#ab)" x="90" y="72" width="4" height="4"/></g><g transform="translate(2 34)"><mask id="ad" fill="#fff"><use xlink:href="#ac"/></mask><g id="SVGID_1_"/><rect id="Rectangle-path" fill="#000" mask="url(#ad)" x="91" y="64" width="4" height="4"/></g><g transform="translate(2 34)"><mask id="af" fill="#fff"><use xlink:href="#ae"/></mask><g id="SVGID_1_"/><rect id="Rectangle-path" fill="#000" mask="url(#af)" x="109" y="62" width="4" height="4"/></g><g transform="translate(2 34)"><mask id="ah" fill="#fff"><use xlink:href="#ag"/></mask><g id="SVGID_1_"/><rect id="Rectangle-path" fill="#000" mask="url(#ah)" x="97" y="66" width="4" height="4"/></g><g transform="translate(2 34)"><mask id="aj" fill="#fff"><use xlink:href="#ai"/></mask><g id="SVGID_1_"/><rect id="Rectangle-path" fill="#000" mask="url(#aj)" x="74" y="72" width="4" height="4"/></g><g transform="translate(2 34)"><mask id="al" fill="#fff"><use xlink:href="#ak"/></mask><g id="SVGID_1_"/><rect id="Rectangle-path" fill="#000" mask="url(#al)" x="76" y="75" width="4" height="4"/></g><g transform="translate(2 34)"><mask id="an" fill="#fff"><use xlink:href="#am"/></mask><g id="SVGID_1_"/><rect id="Rectangle-path" fill="#000" mask="url(#an)" x="70" y="71" width="4" height="4"/></g><g transform="translate(2 34)"><mask id="ap" fill="#fff"><use xlink:href="#ao"/></mask><g id="SVGID_1_"/><rect id="Rectangle-path" fill="#000" mask="url(#ap)" x="93" y="61" width="4" height="4"/></g><g transform="translate(2 34)"><mask id="ar" fill="#fff"><use xlink:href="#aq"/></mask><g id="SVGID_1_"/><rect id="Rectangle-path" fill="#000" mask="url(#ar)" x="97" y="62" width="4" height="4"/></g><g transform="translate(2 34)"><mask id="at" fill="#fff"><use xlink:href="#as"/></mask><g id="SVGID_1_"/><rect id="Rectangle-path" fill="#000" mask="url(#at)" x="104" y="61" width="4" height="4"/></g><g transform="translate(2 34)"><mask id="av" fill="#fff"><use xlink:href="#au"/></mask><g id="SVGID_1_"/><rect id="Rectangle-path" fill="#000" mask="url(#av)" x="110" y="58" width="4" height="4"/></g><g transform="translate(2 34)"><mask id="ax" fill="#fff"><use xlink:href="#aw"/></mask><g id="SVGID_1_"/><rect id="Rectangle-path" fill="#000" mask="url(#ax)" x="88" y="59" width="4" height="4"/></g><g transform="translate(2 34)"><mask id="az" fill="#fff"><use xlink:href="#ay"/></mask><g id="SVGID_1_"/><rect id="Rectangle-path" fill="#000" mask="url(#az)" x="102" y="74" width="4" height="4"/></g><g transform="translate(2 34)"><mask id="aB" fill="#fff"><use xlink:href="#aA"/></mask><g id="SVGID_1_"/><rect id="Rectangle-path" fill="#000" mask="url(#aB)" x="106" y="77" width="4" height="4"/></g><g transform="translate(2 34)"><mask id="aD" fill="#fff"><use xlink:href="#aC"/></mask><g id="SVGID_1_"/><rect id="Rectangle-path" fill="#000" mask="url(#aD)" x="111" y="77" width="4" height="4"/></g><g transform="translate(2 34)"><mask id="aF" fill="#fff"><use xlink:href="#aE"/></mask><g id="SVGID_1_"/><rect id="Rectangle-path" fill="#000" mask="url(#aF)" x="107" y="72" width="4" height="4"/></g><g transform="translate(2 34)"><mask id="aH" fill="#fff"><use xlink:href="#aG"/></mask><g id="SVGID_1_"/><rect id="Rectangle-path" fill="#000" mask="url(#aH)" x="108" y="69" width="4" height="4"/></g><g transform="translate(2 34)"><mask id="aJ" fill="#fff"><use xlink:href="#aI"/></mask><g id="SVGID_1_"/><rect id="Rectangle-path" fill="#000" mask="url(#aJ)" x="112" y="71" width="4" height="4"/></g><g transform="translate(2 34)"><mask id="aL" fill="#fff"><use xlink:href="#aK"/></mask><g id="SVGID_1_"/><rect id="Rectangle-path" fill="#000" mask="url(#aL)" x="108" y="75" width="4" height="4"/></g><g transform="translate(2 34)"><mask id="aN" fill="#fff"><use xlink:href="#aM"/></mask><g id="SVGID_1_"/><rect id="Rectangle-path" fill="#000" mask="url(#aN)" x="124" y="98" width="4" height="4"/></g><g transform="translate(2 34)"><mask id="aP" fill="#fff"><use xlink:href="#aO"/></mask><g id="SVGID_1_"/><rect id="Rectangle-path" fill="#000" mask="url(#aP)" x="126" y="105" width="4" height="4"/></g><g transform="translate(2 34)"><mask id="aR" fill="#fff"><use xlink:href="#aQ"/></mask><g id="SVGID_1_"/><rect id="Rectangle-path" fill="#000" mask="url(#aR)" x="135" y="105" width="4" height="4"/></g><g transform="translate(2 34)"><mask id="aT" fill="#fff"><use xlink:href="#aS"/></mask><g id="SVGID_1_"/><rect id="Rectangle-path" fill="#000" mask="url(#aT)" x="131" y="103" width="4" height="4"/></g><g transform="translate(2 34)"><mask id="aV" fill="#fff"><use xlink:href="#aU"/></mask><g id="SVGID_1_"/><rect id="Rectangle-path" fill="#000" mask="url(#aV)" x="112" y="65" width="4" height="4"/></g><g transform="translate(2 34)"><mask id="aX" fill="#fff"><use xlink:href="#aW"/></mask><g id="SVGID_1_"/><rect id="Rectangle-path" fill="#000" mask="url(#aX)" x="105" y="71" width="4" height="4"/></g><g transform="translate(2 34)"><mask id="aZ" fill="#fff"><use xlink:href="#aY"/></mask><g id="SVGID_1_"/><rect id="Rectangle-path" fill="#000" mask="url(#aZ)" x="103" y="70" width="4" height="4"/></g><g transform="translate(2 34)"><mask id="bb" fill="#fff"><use xlink:href="#ba"/></mask><g id="SVGID_1_"/><rect id="Rectangle-path" fill="#000" mask="url(#bb)" x="109" y="69" width="4" height="4"/></g><g transform="translate(2 34)"><mask id="bd" fill="#fff"><use xlink:href="#bc"/></mask><g id="SVGID_1_"/><rect id="Rectangle-path" fill="#000" mask="url(#bd)" x="102" y="78" width="4" height="4"/></g><g transform="translate(2 34)"><mask id="bf" fill="#fff"><use xlink:href="#be"/></mask><g id="SVGID_1_"/><rect id="Rectangle-path" fill="#000" mask="url(#bf)" x="105" y="73" width="4" height="4"/></g><g transform="translate(2 34)"><mask id="bh" fill="#fff"><use xlink:href="#bg"/></mask><g id="SVGID_1_"/><rect id="Rectangle-path" fill="#000" mask="url(#bh)" x="105" y="80" width="4" height="4"/></g><g transform="translate(2 34)"><mask id="bj" fill="#fff"><use xlink:href="#bi"/></mask><g id="SVGID_1_"/><rect id="Rectangle-path" fill="#000" mask="url(#bj)" x="102" y="87" width="4" height="4"/></g><g transform="translate(2 34)"><mask id="bl" fill="#fff"><use xlink:href="#bk"/></mask><g id="SVGID_1_"/><rect id="Rectangle-path" fill="#000" mask="url(#bl)" x="97" y="89" width="4" height="4"/></g><g transform="translate(2 34)"><mask id="bn" fill="#fff"><use xlink:href="#bm"/></mask><g id="SVGID_1_"/><rect id="Rectangle-path" fill="#000" mask="url(#bn)" x="104" y="92" width="4" height="4"/></g><g transform="translate(2 34)"><mask id="bp" fill="#fff"><use xlink:href="#bo"/></mask><g id="SVGID_1_"/><rect id="Rectangle-path" fill="#000" mask="url(#bp)" x="110" y="89" width="4" height="4"/></g><g transform="translate(2 34)"><mask id="br" fill="#fff"><use xlink:href="#bq"/></mask><g id="SVGID_1_"/><rect id="Rectangle-path" fill="#000" mask="url(#br)" x="102" y="89" width="4" height="4"/></g><g transform="translate(2 34)"><mask id="bt" fill="#fff"><use xlink:href="#bs"/></mask><g id="SVGID_1_"/><rect id="Rectangle-path" fill="#000" mask="url(#bt)" x="76" y="67" width="4" height="4"/></g><g transform="translate(2 34)"><mask id="bv" fill="#fff"><use xlink:href="#bu"/></mask><g id="SVGID_1_"/><rect id="Rectangle-path" fill="#000" mask="url(#bv)" x="68" y="73" width="4" height="4"/></g><g transform="translate(2 34)"><mask id="bx" fill="#fff"><use xlink:href="#bw"/></mask><g id="SVGID_1_"/><rect id="Rectangle-path" fill="#000" mask="url(#bx)" x="68" y="76" width="4" height="4"/></g><g transform="translate(2 34)"><mask id="bz" fill="#fff"><use xlink:href="#by"/></mask><g id="SVGID_1_"/><rect id="Rectangle-path" fill="#000" mask="url(#bz)" x="63" y="75" width="4" height="4"/></g><g transform="translate(2 34)"><mask id="bB" fill="#fff"><use xlink:href="#bA"/></mask><g id="SVGID_1_"/><rect id="Rectangle-path" fill="#000" mask="url(#bB)" x="65" y="71" width="4" height="4"/></g><g transform="translate(2 34)"><mask id="bD" fill="#fff"><use xlink:href="#bC"/></mask><g id="SVGID_1_"/><rect id="Rectangle-path" fill="#000" mask="url(#bD)" x="72" y="80" width="4" height="4"/></g><g transform="translate(2 34)"><mask id="bF" fill="#fff"><use xlink:href="#bE"/></mask><g id="SVGID_1_"/><rect id="Rectangle-path" fill="#000" mask="url(#bF)" x="66" y="81" width="4" height="4"/></g><g transform="translate(2 34)"><mask id="bH" fill="#fff"><use xlink:href="#bG"/></mask><g id="SVGID_1_"/><rect id="Rectangle-path" fill="#000" mask="url(#bH)" x="64" y="87" width="4" height="4"/></g><g transform="translate(2 34)"><mask id="bJ" fill="#fff"><use xlink:href="#bI"/></mask><g id="SVGID_1_"/><rect id="Rectangle-path" fill="#000" mask="url(#bJ)" x="43" y="81" width="4" height="4"/></g><g transform="translate(2 34)"><mask id="bL" fill="#fff"><use xlink:href="#bK"/></mask><g id="SVGID_1_"/><rect id="Rectangle-path" fill="#000" mask="url(#bL)" x="44" y="87" width="4" height="4"/></g><g transform="translate(2 34)"><mask id="bN" fill="#fff"><use xlink:href="#bM"/></mask><g id="SVGID_1_"/><rect id="Rectangle-path" fill="#000" mask="url(#bN)" x="44" y="103" width="4" height="4"/></g><g transform="translate(2 34)"><mask id="bP" fill="#fff"><use xlink:href="#bO"/></mask><g id="SVGID_1_"/><rect id="Rectangle-path" fill="#000" mask="url(#bP)" x="52" y="60" width="4" height="4"/></g><g transform="translate(2 34)"><mask id="bR" fill="#fff"><use xlink:href="#bQ"/></mask><g id="SVGID_1_"/><rect id="Rectangle-path" fill="#000" mask="url(#bR)" x="50" y="81" width="4" height="4"/></g><g transform="translate(2 34)"><mask id="bT" fill="#fff"><use xlink:href="#bS"/></mask><g id="SVGID_1_"/><rect id="Rectangle-path" fill="#000" mask="url(#bT)" x="72" y="64" width="40.5" height="6.5"/></g><g transform="translate(2 34)"><mask id="bV" fill="#fff"><use xlink:href="#bU"/></mask><g/><path d="M180.6,74.6 C180.6,74.6 168.2,83.7 159.4,86.9 C150.6,90.2 149,102.5 149,110.5 C149,118.6 150.6,120.6 155.8,125.7 C160.9,130.8 171.9,122.8 180.7,135.8 L180.7,74.6 L180.6,74.6 Z" id="Shape" fill="#23516E" mask="url(#bV)"/></g></g><path d="M2.1,34.5 L231.2,34.5" id="Shape" stroke="#000" stroke-width="0.75"/><path d="M173.5,34.5 L173.5,178.9" id="Shape" stroke="#000" stroke-width="0.75"/><path d="M176.6,34.5 L176.6,178.9" id="Shape" stroke="#000" stroke-width="0.75"/><path d="M176.6,43.1 L231.2,43.1" id="Shape" stroke="#000" stroke-width="0.75"/><path d="M176.6,48.3 L231.2,48.3" id="Shape" stroke="#000" stroke-width="0.75"/><path d="M176.6,63 L231.2,63" id="Shape" stroke="#000" stroke-width="0.75"/><path d="M176.6,68.2 L231.2,68.2" id="Shape" stroke="#000" stroke-width="0.75"/><path d="M182.2,37.7 L220.1,37.7" id="Shape" stroke="#23516E"/><path d="M182.2,40.5 L193.3,40.5" id="Shape" stroke="#23516E"/><path d="M182.2,52.3 L196.5,52.3" id="Shape" stroke="#23516E"/><path d="M182.2,55.1 L193.3,55.1" id="Shape" stroke="#23516E"/><path d="M182.2,58 L193.3,58" id="Shape" stroke="#23516E"/><path d="M182.2,74.1 L193.3,74.1" id="Shape" stroke="#000"/><path d="M182.2,77 L193.3,77" id="Shape" stroke="#000"/><path d="M182.2,79.9 L193.3,79.9" id="Shape" stroke="#000"/><path d="M182.2,82.7 L193.3,82.7" id="Shape" stroke="#000"/><path d="M182.2,85.6 L193.3,85.6" id="Shape" stroke="#000"/><path d="M182.2,88.4 L193.3,88.4" id="Shape" stroke="#000"/><path d="M182.2,91.3 L193.3,91.3" id="Shape" stroke="#000"/><path d="M182.2,94.2 L193.3,94.2" id="Shape" stroke="#000"/><path d="M182.2,97 L193.3,97" id="Shape" stroke="#000"/><path d="M182.2,99.9 L193.3,99.9" id="Shape" stroke="#000"/><path d="M182.2,102.7 L193.3,102.7" id="Shape" stroke="#000"/><path d="M182.2,105.6 L193.3,105.6" id="Shape" stroke="#000"/><path d="M182.2,108.5 L193.3,108.5" id="Shape" stroke="#000"/><path d="M182.2,111.3 L193.3,111.3" id="Shape" stroke="#000"/><path d="M182.2,114.2 L193.3,114.2" id="Shape" stroke="#000"/><path d="M182.2,117 L193.3,117" id="Shape" stroke="#000"/><path d="M182.2,119.9 L193.3,119.9" id="Shape" stroke="#000"/><path d="M182.2,122.7 L193.3,122.7" id="Shape" stroke="#000"/><path d="M182.2,125.6 L193.3,125.6" id="Shape" stroke="#000"/><path d="M182.2,128.5 L193.3,128.5" id="Shape" stroke="#000"/><path d="M182.2,131.3 L193.3,131.3" id="Shape" stroke="#000"/><path d="M182.2,134.2 L193.3,134.2" id="Shape" stroke="#000"/><path d="M182.2,137 L193.3,137" id="Shape" stroke="#000"/><path d="M182.2,139.9 L193.3,139.9" id="Shape" stroke="#000"/><path d="M182.2,142.8 L193.3,142.8" id="Shape" stroke="#000"/><path d="M182.2,145.6 L193.3,145.6" id="Shape" stroke="#000"/><path d="M182.2,148.5 L193.3,148.5" id="Shape" stroke="#000"/><path d="M204.9,74.1 L226.7,74.1" id="Shape" stroke="#23516E"/><path d="M204.9,79.9 L226.7,79.9" id="Shape" stroke="#23516E"/><path d="M203.1,74.1 L198.1,74.1" id="Shape" stroke="#23516E"/><path d="M203.1,77 L198.1,77" id="Shape" stroke="#23516E"/><path d="M203.1,79.9 L198.1,79.9" id="Shape" stroke="#23516E"/><path d="M203.1,82.7 L198.1,82.7" id="Shape" stroke="#23516E"/><path d="M203.1,85.6 L198.1,85.6" id="Shape" stroke="#23516E"/><path d="M203.1,88.4 L198.1,88.4" id="Shape" stroke="#23516E"/><path d="M203.1,91.3 L198.1,91.3" id="Shape" stroke="#23516E"/><path d="M203.1,94.2 L198.1,94.2" id="Shape" stroke="#23516E"/><path d="M203.1,97 L198.1,97" id="Shape" stroke="#23516E"/><path d="M203.1,99.9 L198.1,99.9" id="Shape" stroke="#23516E"/><path d="M203.1,102.7 L198.1,102.7" id="Shape" stroke="#23516E"/><path d="M203.1,105.6 L198.1,105.6" id="Shape" stroke="#23516E"/><path d="M203.1,108.5 L198.1,108.5" id="Shape" stroke="#23516E"/><path d="M203.1,111.3 L198.1,111.3" id="Shape" stroke="#23516E"/><path d="M203.1,114.2 L198.1,114.2" id="Shape" stroke="#23516E"/><path d="M203.1,117 L198.1,117" id="Shape" stroke="#23516E"/><path d="M203.1,119.9 L198.1,119.9" id="Shape" stroke="#23516E"/><path d="M203.1,122.7 L198.1,122.7" id="Shape" stroke="#23516E"/><path d="M203.1,125.6 L198.1,125.6" id="Shape" stroke="#23516E"/><path d="M203.1,128.5 L198.1,128.5" id="Shape" stroke="#23516E"/><path d="M203.1,131.3 L198.1,131.3" id="Shape" stroke="#23516E"/><path d="M203.1,134.2 L198.1,134.2" id="Shape" stroke="#23516E"/><path d="M203.1,137 L198.1,137" id="Shape" stroke="#23516E"/><path d="M203.1,139.9 L198.1,139.9" id="Shape" stroke="#23516E"/><path d="M203.1,142.8 L198.1,142.8" id="Shape" stroke="#23516E"/><path d="M203.1,145.6 L198.1,145.6" id="Shape" stroke="#23516E"/><path d="M203.1,148.5 L198.1,148.5" id="Shape" stroke="#23516E"/><circle id="Oval" fill="#000" cx="2.5" cy="2.5" r="2.5"/><circle id="Oval" fill="#000" cx="231.5" cy="2.5" r="2.5"/><circle id="Oval" fill="#000" cx="2.5" cy="179.5" r="2.5"/><circle fill="#000" cx="231.5" cy="179.5" r="2.5"/><rect id="Rectangle-path" stroke="#000" stroke-width="0.75" x="2" y="3" width="229.1" height="176.5"/><path d="M2.1,17.1 L231.2,17.1" id="Shape" stroke="#000" stroke-width="0.75"/><rect id="Rectangle-path" stroke="#000" stroke-width="0.75" x="15" y="8" width="5" height="5"/><rect id="Rectangle-path" stroke="#000" stroke-width="0.75" x="6" y="29" width="3.4" height="3.4"/><rect id="Rectangle-path" stroke="#000" stroke-width="0.75" x="11" y="29" width="3.4" height="3.4"/><rect id="Rectangle-path" stroke="#000" stroke-width="0.75" x="32" y="29" width="3.4" height="3.4"/><rect id="Rectangle-path" stroke="#000" stroke-width="0.75" x="38" y="29" width="3.4" height="3.4"/><rect id="Rectangle-path" stroke="#000" stroke-width="0.75" x="57" y="29" width="3.4" height="3.4"/><rect id="Rectangle-path" stroke="#000" stroke-width="0.75" x="62" y="29" width="3.4" height="3.4"/><rect id="Rectangle-path" stroke="#000" stroke-width="0.75" x="67" y="29" width="3.4" height="3.4"/><rect id="Rectangle-path" stroke="#000" stroke-width="0.75" x="72" y="29" width="3.4" height="3.4"/><rect id="Rectangle-path" stroke="#000" stroke-width="0.75" x="89" y="29" width="3.4" height="3.4"/><rect id="Rectangle-path" stroke="#000" stroke-width="0.75" x="95" y="29" width="3.4" height="3.4"/><rect id="Rectangle-path" stroke="#000" stroke-width="0.75" x="100" y="29" width="3.4" height="3.4"/><rect id="Rectangle-path" stroke="#000" stroke-width="0.75" x="105" y="29" width="3.4" height="3.4"/><rect id="Rectangle-path" stroke="#000" stroke-width="0.75" x="110" y="29" width="3.4" height="3.4"/><rect id="Rectangle-path" stroke="#000" stroke-width="0.75" x="128" y="29" width="3.4" height="3.4"/><rect id="Rectangle-path" stroke="#000" stroke-width="0.75" x="32" y="8" width="5" height="5"/><rect id="Rectangle-path" stroke="#000" stroke-width="0.75" x="48" y="8" width="5" height="5"/><rect id="Rectangle-path" stroke="#000" stroke-width="0.75" x="65" y="8" width="5" height="5"/><rect id="Rectangle-path" stroke="#000" stroke-width="0.75" x="82" y="8" width="5" height="5"/><rect id="Rectangle-path" stroke="#000" stroke-width="0.75" x="98" y="8" width="5" height="5"/><rect id="Rectangle-path" stroke="#000" stroke-width="0.75" x="150" y="7" width="5" height="5"/><rect id="Rectangle-path" stroke="#000" stroke-width="0.75" x="177" y="8" width="45.5" height="4.9"/><path d="M150,13.5 L155.8,13.5" id="Shape" stroke="#000" stroke-width="0.75"/><rect id="Rectangle-path" stroke="#000" stroke-width="0.75" x="158" y="7" width="5" height="5"/><path d="M157.1,13.5 L162.9,13.5" id="Shape" stroke="#000" stroke-width="0.75"/><rect id="Rectangle-path" stroke="#000" stroke-width="0.75" x="165" y="7" width="5" height="5"/><path d="M164.2,13.5 L169.9,13.5" id="Shape" stroke="#000" stroke-width="0.75"/><path d="M231.2,25.4 L117,25.4 L117,19.5 L80.9,19.5 L80.9,25.4 L79.1,25.4 L79.1,19.5 L43,19.5 L43,25.4 L41.1,25.4 L41.1,19.5 L5,19.5 L5,25.4 L2.1,25.4" id="Shape" stroke="#000" stroke-width="0.75"/><path d="M2.1,26.9 L231.3,26.9" id="Shape" stroke="#000" stroke-width="0.75"/><path d="M8.3,22.8 L37.6,22.8" id="Shape" stroke="#000" stroke-width="0.75"/><path d="M46.4,22.8 L75.7,22.8" id="Shape" stroke="#000" stroke-width="0.75"/><path d="M84.4,22.8 L113.8,22.8" id="Shape" stroke="#000" stroke-width="0.75"/><g transform="translate(2 35)" stroke="#000" stroke-width="0.75"><rect id="Rectangle-path" x="31" y="42" width="13.4" height="3.4"/><rect id="Rectangle-path" x="48" y="42" width="13.4" height="3.4"/><path d="M0.1,49 L64.5,49 L64.5,-0.5" id="Shape"/><path d="M0.1,5.4 L64.5,5.4" id="Shape"/><rect id="Rectangle-path" x="4" y="11" width="57.8" height="11.9"/><rect x="4" y="28" width="57.8" height="11.9"/><path d="M3.7,8.1 L18,8.1" id="Shape"/><path d="M3.7,25.4 L18,25.4" id="Shape"/><path d="M35.6,49 L35.6,53.8 L0.1,53.8"/></g></g></svg>