<svg width="70px" height="48px" viewBox="0 0 70 48" version="1.1" xmlns="http://www.w3.org/2000/svg" xmlns:xlink="http://www.w3.org/1999/xlink"><title>icon-privacy</title><desc>Created with Sketch.</desc><defs/><g transform="translate(3 2)" stroke="none" stroke-width="1" fill="none" fill-rule="evenodd"><circle id="Oval" stroke="#000" stroke-width="0.75" cx="30.5" cy="21.5" r="18.5"/><rect stroke="#23516E" stroke-width="0.749992807" transform="rotate(45 31.119 21.175)" x="18.1192247" y="8.17482467" width="25.5997545" height="25.5997545"/><path d="M59.4,21.2 C59.4,21.2 46.6,30.7 30.8,30.7 C15,30.7 2.2,21.2 2.2,21.2 C2.2,21.2 15,11.7 30.8,11.7 C46.6,11.7 59.4,21.2 59.4,21.2 L59.4,21.2 Z" stroke="#000" stroke-width="0.75"/><circle id="Oval" fill="#000" cx="2.5" cy="21.5" r="2.5"/><circle id="Oval" fill="#000" cx="59.5" cy="21.5" r="2.5"/><circle id="Oval" fill="#23516E" cx="30.5" cy="2.5" r="2.5"/><circle id="Oval" fill="#23516E" cx="12.5" cy="21.5" r="2.5"/><circle id="Oval" fill="#23516E" cx="48.5" cy="21.5" r="2.5"/><circle fill="#23516E" cx="30.5" cy="39.5" r="2.5"/></g></svg>