<svg width="62px" height="56px" viewBox="0 0 62 56" version="1.1" xmlns="http://www.w3.org/2000/svg" xmlns:xlink="http://www.w3.org/1999/xlink"><title>icon-flexible-modeling</title><desc>Created with Sketch.</desc><defs/><g stroke="none" stroke-width="1" fill="none" fill-rule="evenodd"><g id="Shape" stroke="#23516E" stroke-width="0.75"><path d="M-0.2,8.1 L14.7,-0.5 L29.5,8.1 L29.5,25.2 L14.7,33.8 L-0.2,25.2 L-0.2,8.1 Z" transform="translate(6 5)"/><path d="M-0.2,8.1 L14.7,16.7 L29.5,8.1" transform="translate(6 5)"/><path d="M14.7,16.7 L14.7,33.4" transform="translate(6 5)"/></g><g stroke="#000" stroke-width="0.75"><path d="M0.3,8.8 L15.2,0.2 L30,8.8 L30,26 L15.2,34.6 L0.3,26 L0.3,8.8 Z" transform="translate(26 16)"/><path d="M0.3,8.8 L15.2,17.4 L30,8.8" transform="translate(26 16)"/><path d="M15.2,17.4 L15.2,34.1" transform="translate(26 16)"/></g><g transform="translate(24 14)" id="Oval" fill="#000"><circle cx="32.5" cy="10.5" r="2.5"/><circle cx="17.5" cy="2.5" r="2.5"/><circle cx="17.5" cy="36.5" r="2.5"/><circle cx="32.5" cy="27.5" r="2.5"/><circle cx="2.5" cy="27.5" r="2.5"/><circle cx="17.5" cy="19.5" r="2.5"/></g><g fill="#23516E" transform="translate(3 2)"><circle cx="2.5" cy="11.5" r="2.5"/><circle cx="17.5" cy="2.5" r="2.5"/><circle cx="2.5" cy="28.5" r="2.5"/><circle cx="17.5" cy="19.5" r="2.5"/></g></g></svg>