<svg width="58px" height="46px" viewBox="0 0 58 46" version="1.1" xmlns="http://www.w3.org/2000/svg" xmlns:xlink="http://www.w3.org/1999/xlink"><title>icon-knowledge</title><desc>Created with Sketch.</desc><defs/><g transform="translate(3 2)" stroke="none" stroke-width="1" fill="none" fill-rule="evenodd"><circle id="Oval" fill="#23516E" cx="2.5" cy="19.5" r="2.5"/><circle id="Oval" fill="#23516E" cx="47.5" cy="19.5" r="2.5"/><path d="M25.5,14 C26.8807119,14 28,12.8807119 28,11.5 C28,10.1192881 26.8807119,9 25.5,9 C24.1192881,9 23,10.1192881 23,11.5 C23,12.8807119 24.1192881,14 25.5,14 Z" id="Oval" fill="#23516E"/><circle id="Oval" fill="#23516E" cx="25.5" cy="28.5" r="2.5"/><path d="M47.7,28.6 L25.1,37.6 L2.6,28.6 L25.1,20 L47.7,28.6 Z" id="Shape" stroke="#000" stroke-width="0.75"/><path d="M47.7,19.8 L25.1,28.8 L2.6,19.8 L25.1,11.2 L47.7,19.8 Z" id="Shape" stroke="#23516E" stroke-width="0.75"/><path d="M47.7,11 L25.1,20 L2.6,11 L25.1,2.4 L47.7,11 Z" stroke="#000" stroke-width="0.75"/><circle id="Oval" fill="#000" cx="25.5" cy="2.5" r="2.5"/><circle id="Oval" fill="#000" cx="2.5" cy="11.5" r="2.5"/><circle id="Oval" fill="#000" cx="47.5" cy="11.5" r="2.5"/><circle id="Oval" fill="#000" cx="25.5" cy="19.5" r="2.5"/><circle id="Oval" fill="#000" cx="2.5" cy="28.5" r="2.5"/><circle id="Oval" fill="#000" cx="25.5" cy="37.5" r="2.5"/><circle fill="#000" cx="47.5" cy="28.5" r="2.5"/></g></svg>