<svg width="42px" height="46px" viewBox="0 0 42 46" version="1.1" xmlns="http://www.w3.org/2000/svg" xmlns:xlink="http://www.w3.org/1999/xlink"><title>icon-algorithmic</title><desc>Created with Sketch.</desc><defs/><g transform="translate(1 1)" stroke="none" stroke-width="1" fill="none" fill-rule="evenodd"><g id="Shape" stroke="#23516E" stroke-width="0.7971"><path d="M16.9,-0.2 L24.6,36" transform="translate(2 3)"/><path d="M34.7,14.2 L0.8,34.7" transform="translate(2 3)"/><path d="M34.7,14.2 L-0.2,7.9" transform="translate(2 3)"/></g><g stroke="#000" stroke-width="0.7971"><path d="M34.7,14.2 L9.1,19.5" transform="translate(2 3)"/><path d="M18.4,-0.2 L34.7,14.2" transform="translate(2 3)"/><path d="M1.8,6.2 L16.9,-0.2" transform="translate(2 3)"/><path d="M9.1,19.5 L-0.2,7.2" transform="translate(2 3)"/><path d="M22.9,34 L9.1,19.5" transform="translate(2 3)"/><path d="M0.8,34 L24.6,36" transform="translate(2 3)"/><path d="M9.1,19.5 L1.8,34" transform="translate(2 3)"/><path d="M-0.2,7.2 L0.8,34" transform="translate(2 3)"/><path d="M34.7,14.2 L24.6,36" transform="translate(2 3)"/><path d="M16.9,-0.2 L9.1,19.5" transform="translate(2 3)"/></g><circle id="Oval" fill="#000" cx="19.5" cy="2.5" r="2.5"/><circle id="Oval" fill="#000" cx="2.5" cy="10.5" r="2.5"/><circle id="Oval" fill="#000" cx="2.5" cy="36.5" r="2.5"/><circle id="Oval" fill="#000" cx="26.5" cy="38.5" r="2.5"/><circle id="Oval" fill="#000" cx="35.5" cy="17.5" r="2.5"/><circle fill="#000" cx="11.5" cy="22.5" r="2.5"/></g></svg>