<svg width="82px" height="66px" viewBox="0 0 82 66" version="1.1" xmlns="http://www.w3.org/2000/svg" xmlns:xlink="http://www.w3.org/1999/xlink"><title>tech-atlasdb</title><desc>Created with Sketch.</desc><defs/><g stroke="none" stroke-width="1" fill="none" fill-rule="evenodd"><path d="M28.693,-0.433 C23.942,2.497 19.678,8.263 16.955,13.598 C9.312,28.568 14.365,48.734 28.661,57.254" stroke="#0B0B0A" stroke-width="0.75" transform="translate(12 4)"/><path d="M57.301,29.11 L0.124,29.11 M28.868,57.484 L28.868,-0.485" stroke="#26485D" stroke-width="0.75" transform="translate(12 4)"/><path d="M29.026,-0.267 C33.918,2.67 38.728,8.141 41.514,13.598 C49.207,28.667 43.67,48.775 29.147,57.206 L29.026,-0.267 Z M54.571,15.373 C61.818,29.568 56.185,46.951 41.99,54.198 C27.795,61.444 10.412,55.812 3.166,41.616 C-4.081,27.421 1.552,10.039 15.747,2.792 C29.942,-4.455 47.324,1.178 54.571,15.373 L54.571,15.373 Z" stroke="#0B0B0A" stroke-width="0.75" transform="translate(12 4)"/><path d="M32.61,28.927 C32.61,30.921 30.994,32.537 29,32.537 C27.006,32.537 25.39,30.921 25.39,28.927 C25.39,26.933 27.006,25.316 29,25.316 C30.994,25.316 32.61,26.933 32.61,28.927" fill="#26485D" transform="translate(12 4)"/><path d="M9.61,46.26 C9.61,48.254 7.994,49.87 6,49.87 C4.006,49.87 2.39,48.254 2.39,46.26 C2.39,44.266 4.006,42.65 6,42.65 C7.994,42.65 9.61,44.266 9.61,46.26" fill="#26485D" transform="translate(12 4)"/><path d="M21.277,12.593 C21.277,14.587 19.661,16.204 17.667,16.204 C15.673,16.204 14.056,14.587 14.056,12.593 C14.056,10.599 15.673,8.983 17.667,8.983 C19.661,8.983 21.277,10.599 21.277,12.593" fill="#0B0B0A" transform="translate(12 4)"/></g></svg>