<svg width="82px" height="53px" viewBox="0 0 82 53" version="1.1" xmlns="http://www.w3.org/2000/svg" xmlns:xlink="http://www.w3.org/1999/xlink"><title>tech-revisioningdb</title><desc>Created with Sketch.</desc><defs/><g stroke="none" stroke-width="1" fill="none" fill-rule="evenodd"><path d="M4.022,39.668 L32.025,3.33 L62.364,41.336" stroke="#0B0B0A" stroke-width="0.75" transform="translate(8 4)"/><path d="M34.692,41.001 L47,24.333" stroke="#26485D" stroke-width="0.75" transform="translate(8 4)"/><path d="M35.972,3.667 C35.972,5.492 34.492,6.972 32.667,6.972 C30.841,6.972 29.362,5.492 29.362,3.667 C29.362,1.841 30.841,0.362 32.667,0.362 C34.492,0.362 35.972,1.841 35.972,3.667" fill="#0B0B0A" transform="translate(8 4)"/><path d="M6.972,41 C6.972,42.825 5.492,44.305 3.667,44.305 C1.841,44.305 0.361,42.825 0.361,41 C0.361,39.175 1.841,37.695 3.667,37.695 C5.492,37.695 6.972,39.175 6.972,41" fill="#0B0B0A" transform="translate(8 4)"/><path d="M37.972,41.333 C37.972,43.159 36.492,44.639 34.667,44.639 C32.841,44.639 31.362,43.159 31.362,41.333 C31.362,39.508 32.841,38.028 34.667,38.028 C36.492,38.028 37.972,39.508 37.972,41.333" fill="#26485D" transform="translate(8 4)"/><path d="M65.305,41.333 C65.305,43.159 63.825,44.639 62,44.639 C60.175,44.639 58.695,43.159 58.695,41.333 C58.695,39.508 60.175,38.028 62,38.028 C63.825,38.028 65.305,39.508 65.305,41.333" fill="#0B0B0A" transform="translate(8 4)"/><path d="M51.305,23.667 C51.305,25.492 49.825,26.972 48,26.972 C46.175,26.972 44.695,25.492 44.695,23.667 C44.695,21.841 46.175,20.362 48,20.362 C49.825,20.362 51.305,21.841 51.305,23.667" fill="#26485D" transform="translate(8 4)"/></g></svg>