<svg width="82px" height="53px" viewBox="0 0 82 53" version="1.1" xmlns="http://www.w3.org/2000/svg" xmlns:xlink="http://www.w3.org/1999/xlink"><title>tech-dynamicontology</title><desc>Created with Sketch.</desc><defs/><g stroke="none" stroke-width="1" fill="none" fill-rule="evenodd"><path d="M4.022,38.501 L32.025,2.163 L60.363,38.168" stroke="#26485D" stroke-width="0.75" transform="translate(9 5)"/><path d="M32.025,2.83 L32.025,39.834" stroke="#0B0B0A" stroke-width="0.75" transform="translate(9 5)"/><path d="M35.305,2.833 C35.305,4.659 33.825,6.139 32,6.139 C30.175,6.139 28.695,4.659 28.695,2.833 C28.695,1.008 30.175,-0.472 32,-0.472 C33.825,-0.472 35.305,1.008 35.305,2.833" fill="#0B0B0A" transform="translate(9 5)"/><path d="M6.972,38.167 C6.972,39.992 5.492,41.472 3.667,41.472 C1.841,41.472 0.361,39.992 0.361,38.167 C0.361,36.341 1.841,34.862 3.667,34.862 C5.492,34.862 6.972,36.341 6.972,38.167" fill="#26485D" transform="translate(9 5)"/><path d="M63.638,38.167 C63.638,39.992 62.159,41.472 60.333,41.472 C58.508,41.472 57.028,39.992 57.028,38.167 C57.028,36.341 58.508,34.862 60.333,34.862 C62.159,34.862 63.638,36.341 63.638,38.167" fill="#26485D" transform="translate(9 5)"/><path d="M35.305,38.167 C35.305,39.992 33.825,41.472 32,41.472 C30.175,41.472 28.695,39.992 28.695,38.167 C28.695,36.341 30.175,34.862 32,34.862 C33.825,34.862 35.305,36.341 35.305,38.167" fill="#0B0B0A" transform="translate(9 5)"/></g></svg>