<svg width="82px" height="53px" viewBox="0 0 82 53" version="1.1" xmlns="http://www.w3.org/2000/svg" xmlns:xlink="http://www.w3.org/1999/xlink"><title>tech-nexuspeering</title><desc>Created with Sketch.</desc><defs/><g stroke="none" stroke-width="1" fill="none" fill-rule="evenodd"><path d="M2.667,38.44 L2.667,2.436" stroke="#26485D" stroke-width="0.75" transform="translate(22 5)"/><path d="M3.104,3.269 L35.059,40.83" stroke="#0B0B0A" stroke-width="0.75" transform="translate(22 5)"/><path d="M34.667,38.44 L34.667,2.436" stroke="#26485D" stroke-width="0.75" transform="translate(22 5)"/><path d="M6.305,2.833 C6.305,4.659 4.825,6.139 3,6.139 C1.175,6.139 -0.305,4.659 -0.305,2.833 C-0.305,1.008 1.175,-0.472 3,-0.472 C4.825,-0.472 6.305,1.008 6.305,2.833" fill="#0B0B0A" transform="translate(22 5)"/><path d="M37.972,2.833 C37.972,4.659 36.492,6.139 34.667,6.139 C32.841,6.139 31.361,4.659 31.361,2.833 C31.361,1.008 32.841,-0.472 34.667,-0.472 C36.492,-0.472 37.972,1.008 37.972,2.833" fill="#26485D" transform="translate(22 5)"/><path d="M37.972,40.167 C37.972,41.992 36.492,43.472 34.667,43.472 C32.841,43.472 31.361,41.992 31.361,40.167 C31.361,38.341 32.841,36.862 34.667,36.862 C36.492,36.862 37.972,38.341 37.972,40.167" fill="#0B0B0A" transform="translate(22 5)"/><path d="M6.305,40.167 C6.305,41.992 4.825,43.472 3,43.472 C1.175,43.472 -0.305,41.992 -0.305,40.167 C-0.305,38.341 1.175,36.862 3,36.862 C4.825,36.862 6.305,38.341 6.305,40.167" fill="#26485D" transform="translate(22 5)"/></g></svg>