<svg width="82px" height="31px" viewBox="0 0 82 31" version="1.1" xmlns="http://www.w3.org/2000/svg" xmlns:xlink="http://www.w3.org/1999/xlink"><title>tech-horizon</title><desc>Created with Sketch.</desc><defs/><g stroke="none" stroke-width="1" fill="none" fill-rule="evenodd"><path d="M18.895,17.725 C18.895,7.784 26.954,-0.275 36.895,-0.275 C46.837,-0.275 54.895,7.784 54.895,17.725" stroke="#0B0B0A" stroke-width="0.75" transform="translate(4 5)"/><path d="M73.895,17.732 L-0.105,17.732" stroke="#26485D" stroke-width="0.75" transform="translate(4 5)"/><path d="M74.61,17.664 C74.61,19.658 72.994,21.275 71,21.275 C69.006,21.275 67.39,19.658 67.39,17.664 C67.39,15.67 69.006,14.054 71,14.054 C72.994,14.054 74.61,15.67 74.61,17.664" fill="#26485D" transform="translate(4 5)"/><path d="M6.944,17.664 C6.944,19.658 5.327,21.275 3.333,21.275 C1.339,21.275 -0.277,19.658 -0.277,17.664 C-0.277,15.67 1.339,14.054 3.333,14.054 C5.327,14.054 6.944,15.67 6.944,17.664" fill="#26485D" transform="translate(4 5)"/></g></svg>