<svg width="82px" height="54px" viewBox="0 0 82 54" version="1.1" xmlns="http://www.w3.org/2000/svg" xmlns:xlink="http://www.w3.org/1999/xlink"><title>tech-raptor</title><desc>Created with Sketch.</desc><defs/><g stroke="none" stroke-width="1" fill="none" fill-rule="evenodd"><path d="M37.19,41.856 L3.508,22.642 L29.507,22.624 L29.507,3.101 L5.844,3.101 L5.844,3.397 L3.707,3.397 L3.707,41.538" stroke="#26485D" stroke-width="0.75" transform="translate(22 4)"/><path d="M6.929,3.691 C6.929,5.516 5.449,6.996 3.624,6.996 C1.798,6.996 0.319,5.516 0.319,3.691 C0.319,1.865 1.798,0.385 3.624,0.385 C5.449,0.385 6.929,1.865 6.929,3.691" fill="#26485D" transform="translate(22 4)"/><path d="M6.929,22.643 C6.929,24.468 5.449,25.948 3.624,25.948 C1.798,25.948 0.319,24.468 0.319,22.643 C0.319,20.817 1.798,19.337 3.624,19.337 C5.449,19.337 6.929,20.817 6.929,22.643" fill="#26485D" transform="translate(22 4)"/><path d="M6.929,41.309 C6.929,43.135 5.449,44.615 3.624,44.615 C1.798,44.615 0.319,43.135 0.319,41.309 C0.319,39.484 1.798,38.004 3.624,38.004 C5.449,38.004 6.929,39.484 6.929,41.309" fill="#0B0B0A" transform="translate(22 4)"/><path d="M33.305,3.691 C33.305,5.516 31.825,6.996 30,6.996 C28.175,6.996 26.695,5.516 26.695,3.691 C26.695,1.865 28.175,0.385 30,0.385 C31.825,0.385 33.305,1.865 33.305,3.691" fill="#0B0B0A" transform="translate(22 4)"/><path d="M33.305,22.643 C33.305,24.468 31.825,25.948 30,25.948 C28.175,25.948 26.695,24.468 26.695,22.643 C26.695,20.817 28.175,19.337 30,19.337 C31.825,19.337 33.305,20.817 33.305,22.643" fill="#26485D" transform="translate(22 4)"/><path d="M39.305,41.309 C39.305,43.135 37.825,44.615 36,44.615 C34.175,44.615 32.695,43.135 32.695,41.309 C32.695,39.484 34.175,38.004 36,38.004 C37.825,38.004 39.305,39.484 39.305,41.309" fill="#26485D" transform="translate(22 4)"/></g></svg>