<svg width="82px" height="66px" viewBox="0 0 82 66" version="1.1" xmlns="http://www.w3.org/2000/svg" xmlns:xlink="http://www.w3.org/1999/xlink"><title>tech-search</title><desc>Created with Sketch.</desc><defs/><g stroke="none" stroke-width="1" fill="none" fill-rule="evenodd"><path d="M37.305,28.5 C37.305,30.325 35.825,31.805 34,31.805 C32.175,31.805 30.695,30.325 30.695,28.5 C30.695,26.675 32.175,25.195 34,25.195 C35.825,25.195 37.305,26.675 37.305,28.5" fill="#26485D" transform="translate(8 4)"/><path d="M66.898,13.666 C66.898,18.301 63.14,22.059 58.505,22.059 C53.869,22.059 50.111,18.301 50.111,13.666 C50.111,9.03 53.869,5.272 58.505,5.272 C63.14,5.272 66.898,9.03 66.898,13.666 L66.898,13.666 Z" stroke="#26485D" stroke-width="0.75" transform="translate(8 4)"/><path d="M61.81,13.666 C61.81,15.491 60.33,16.971 58.505,16.971 C56.679,16.971 55.199,15.491 55.199,13.666 C55.199,11.84 56.679,10.36 58.505,10.36 C60.33,10.36 61.81,11.84 61.81,13.666" fill="#26485D" transform="translate(8 4)"/><path d="M59.703,15.378 C66.95,29.574 61.317,46.956 47.122,54.203 C32.926,61.45 15.544,55.817 8.297,41.622 C1.05,27.426 6.683,10.044 20.878,2.797 C35.074,-4.45 52.456,1.183 59.703,15.378 L59.703,15.378 Z" stroke="#26485D" stroke-width="0.75" transform="translate(8 4)"/><path d="M14.837,45.25 C14.837,47.244 13.221,48.86 11.227,48.86 C9.233,48.86 7.617,47.244 7.617,45.25 C7.617,43.256 9.233,41.639 11.227,41.639 C13.221,41.639 14.837,43.256 14.837,45.25" fill="#0B0B0A" transform="translate(8 4)"/><path d="M22.496,45.25 C22.496,51.473 17.451,56.518 11.227,56.518 C5.004,56.518 -0.042,51.473 -0.042,45.25 C-0.042,39.026 5.004,33.981 11.227,33.981 C17.451,33.981 22.496,39.026 22.496,45.25 L22.496,45.25 Z" stroke="#0B0B0A" stroke-width="0.75" transform="translate(8 4)"/></g></svg>