<?xml version="1.0" encoding="utf-8"?>
<!-- Generator: Adobe Illustrator 15.0.0, SVG Export Plug-In . SVG Version: 6.00 Build 0)  -->
<!DOCTYPE svg PUBLIC "-//W3C//DTD SVG 1.1//EN" "http://www.w3.org/Graphics/SVG/1.1/DTD/svg11.dtd">
<svg version="1.1" id="Layer_1" xmlns="http://www.w3.org/2000/svg" xmlns:xlink="http://www.w3.org/1999/xlink" x="0px" y="0px"
	 width="486px" height="354px" viewBox="0 0 486 354" enable-background="new 0 0 486 354" xml:space="preserve">
<g>
	<path fill="#009EDA" d="M354.588,122.941H228.834v41.67h125.754l-21.432-20.836L354.588,122.941z M303.01,147.342v8.131h-8.129
		v-8.131h-8.133v-8.129h8.133v-8.129h8.129v8.129h8.127v8.129H303.01z"/>
	<path fill="#009EDA" d="M267.164,187.498h-13.918v-18.002h-6.066v47.234l-4.668,4.498v-51.732h-13.51v18.002h-13.924
		c-4.304,0-7.986,1.531-11.042,4.586c-0.592,0.592-1.11,1.213-1.588,1.854c-0.088,0.117-0.183,0.234-0.267,0.354
		c-0.172,0.246-0.329,0.498-0.485,0.75c-0.097,0.154-0.194,0.309-0.284,0.467c-0.138,0.24-0.264,0.484-0.386,0.73
		c-0.09,0.18-0.179,0.361-0.261,0.545c-0.105,0.234-0.205,0.473-0.298,0.715c-0.08,0.207-0.153,0.418-0.224,0.627
		c-0.076,0.229-0.15,0.459-0.214,0.689c-0.068,0.24-0.124,0.486-0.178,0.73c-0.051,0.217-0.103,0.43-0.141,0.65
		c-0.052,0.287-0.088,0.584-0.124,0.879c-0.021,0.186-0.054,0.369-0.07,0.559c-0.039,0.457-0.06,0.92-0.062,1.391
		c-0.002,0.033-0.006,0.068-0.006,0.102v52.09c0,0.732,0.062,1.441,0.149,2.137c0.021,0.156,0.04,0.312,0.066,0.465
		c0.218,1.395,0.622,2.715,1.204,3.961c0.052,0.109,0.104,0.221,0.158,0.33c0.742,1.488,1.733,2.875,3.008,4.15
		c3.056,3.053,38.042,16.771,38.042,16.771s33.074-13.719,36.129-16.771c3.057-3.059,4.586-6.738,4.586-11.043v-52.09
		c0-4.305-1.529-7.984-4.586-11.041C275.152,189.029,271.469,187.498,267.164,187.498"/>
	<path fill="#009EDA" d="M204.386,79.881h2.794c1.378,4.807,3.876,10.801,4.924,12.541c3.604,5.992,9.609,10.725,16.898,13.277
		v14.361h13.51v-12.459c0.816-0.074,3.873-0.174,4.67-0.301v12.76h6.064v-14.242c7.547-2.559,13.748-7.447,17.387-13.65
		c1.209-2.061,2.898-7.85,3.887-12.287h3.221c2.893,0,5.238-2.348,5.238-5.24c0-2.895-2.346-5.238-5.238-5.238h-73.354
		c-2.896,0-5.24,2.344-5.24,5.238C199.146,77.533,201.49,79.881,204.386,79.881 M264.131,79.91
		c-0.369,9.883-10.473,17.834-22.842,17.834s-22.473-7.951-22.84-17.834H264.131z"/>
	<g>
		<g>
			<g>
				<g>
					<defs>
						<polygon id="SVGID_1_" points="252.209,241.193 252.209,241.193 252.209,227.629 						"/>
					</defs>
					<clipPath id="SVGID_2_">
						<use xlink:href="#SVGID_1_"  overflow="visible"/>
					</clipPath>
				</g>
			</g>
		</g>
	</g>
	<g opacity="0.2">
		<g>
			<defs>
				<rect id="SVGID_3_" x="199.146" y="69.4" width="43.472" height="213.629"/>
			</defs>
			<clipPath id="SVGID_4_">
				<use xlink:href="#SVGID_3_"  overflow="visible"/>
			</clipPath>
			<path clip-path="url(#SVGID_4_)" fill="#FFFFFF" d="M242.619,123.057h-13.617v1.451c4.539-0.053,9.076-0.084,13.617-0.107
				V123.057z"/>
			<rect x="228.836" y="122.939" clip-path="url(#SVGID_4_)" fill="#FFFFFF" width="13.781" height="41.672"/>
			<path clip-path="url(#SVGID_4_)" fill="#FFFFFF" d="M242.619,221.129l-0.105,0.102v-51.736h-13.512v18.002h-13.924
				c-4.304,0-7.988,1.533-11.042,4.586c-3.058,3.061-4.586,6.738-4.586,11.043v52.09c0,4.305,1.528,7.984,4.586,11.041
				c3.054,3.057,38.042,16.773,38.042,16.773s0.203-0.082,0.541-0.225V221.129z"/>
			<path clip-path="url(#SVGID_4_)" fill="#FFFFFF" d="M242.619,97.691c-0.441,0.02-0.881,0.055-1.33,0.055
				c-12.369,0-22.473-7.953-22.84-17.836h24.17V69.4h-38.234c-2.895,0-5.24,2.348-5.24,5.24c0,2.895,2.346,5.24,5.24,5.24h2.796
				c1.378,4.807,3.876,10.801,4.924,12.543c3.603,5.99,9.608,10.723,16.897,13.275v14.361h13.512v-12.459
				c0.027-0.002,0.072-0.004,0.105-0.008V97.691z"/>
			<path clip-path="url(#SVGID_4_)" fill="#FFFFFF" d="M202.794,230.439c0.147-12.434,0.218-24.871,0.281-37.305
				c-2.412,2.84-3.624,6.168-3.624,9.99v52.09c0,3.268,0.887,6.176,2.648,8.727C202.396,252.775,202.659,241.609,202.794,230.439"/>
		</g>
	</g>
</g>
</svg>
