<?xml version="1.0" encoding="utf-8"?>
<!-- Generator: Adobe Illustrator 15.0.0, SVG Export Plug-In . SVG Version: 6.00 Build 0)  -->
<!DOCTYPE svg PUBLIC "-//W3C//DTD SVG 1.1//EN" "http://www.w3.org/Graphics/SVG/1.1/DTD/svg11.dtd">
<svg version="1.1" id="Layer_1" xmlns="http://www.w3.org/2000/svg" xmlns:xlink="http://www.w3.org/1999/xlink" x="0px" y="0px"
	 width="486px" height="354px" viewBox="0 0 486 354" enable-background="new 0 0 486 354" xml:space="preserve">
<g>
	<path fill="#A8A7A7" d="M294.646,123.977c0.418-8.066-5.508-9.963-7.639-9.963c-3.557,0-9.096,1.949-8.83,9.959l-0.266,46.977
		l-6.4-12.326c0,0-0.201-55.512-0.348-56.078c-0.205-5.393-4.389-9.455-9.555-9.455c-5.273,0-9.566,4.293-9.566,9.566l0.27,68.293
		l-6.541-10.791l-0.635-64.768c0-5.883-4.574-10.145-9.887-10.145c-2.043,0-9.736,1.801-9.736,9.979l0.018,75.725l-6.828-13.596
		c-0.146-21.393-0.395-52.965-0.516-54.219c-0.145-5.082-4.148-8.982-9.115-8.982c-5.035,0-9.131,4.096-9.131,9.133l-0.021,0.311
		c-0.109,1.309-0.051,39.938,0.006,64.225c0.004,1.799,0.555,3.846,1.312,7.846c0.76,4.002,1.994,4.141,1.994,4.141
		c15.842,2.512,23.443,12.303,27.031,20.121c2.223,4.846,3.189,9.459,3.629,12.676c-10.951-30.031-35.637-28.365-35.637-28.365
		l-11.402-25.018c-1.623-2.799-5.645-11.498-12.959-9.381c-2.262,0.656-3.922,1.766-4.885,3.475
		c-1.219,2.166-1.328,5.129-0.311,8.576l9.957,34.129c0,0,7.289,27.467,8.166,30.154c3.363,10.299,9.277,15.117,15.895,19.758
		c17.127,12.002,52.26,8.658,52.26,8.658c0.771-0.039,18.76-1.16,29.197-12.85c7.021-7.871,10.887-18.953,10.887-31.203
		L294.646,123.977z"/>
	<g opacity="0.2">
		<g>
			<defs>
				<rect id="SVGID_1_" x="168.007" y="85.379" width="66.039" height="169.297"/>
			</defs>
			<clipPath id="SVGID_2_">
				<use xlink:href="#SVGID_1_"  overflow="visible"/>
			</clipPath>
			<path clip-path="url(#SVGID_2_)" fill="#FFFFFF" d="M234.046,85.379c-2.904,0.523-8.535,2.846-8.535,9.846l0.018,75.725
				l-6.828-13.596c-0.145-21.393-0.391-52.965-0.514-54.219c-0.146-5.082-4.148-8.982-9.113-8.982c-5.039,0-9.135,4.096-9.135,9.133
				l-0.021,0.311c-0.105,1.307-0.051,39.938,0.006,64.225c0.004,1.799,0.559,3.846,1.316,7.846c0.758,4.002,1.994,4.141,1.994,4.141
				c15.842,2.512,23.441,12.303,27.029,20.121c2.223,4.846,3.189,9.459,3.631,12.676c-10.955-30.031-35.639-28.367-35.639-28.367
				l-11.402-25.016c-1.621-2.801-5.643-11.498-12.957-9.381c-2.262,0.656-3.922,1.768-4.887,3.475
				c-1.219,2.166-1.33,5.127-0.311,8.578l9.957,34.127c0,0,7.289,27.467,8.168,30.154c3.361,10.299,9.275,15.117,15.895,19.758
				c8.246,5.779,20.664,7.996,31.328,8.746V85.379z"/>
		</g>
	</g>
</g>
</svg>
