<?xml version="1.0" encoding="utf-8"?>
<!-- Generator: Adobe Illustrator 15.0.0, SVG Export Plug-In . SVG Version: 6.00 Build 0)  -->
<!DOCTYPE svg PUBLIC "-//W3C//DTD SVG 1.1//EN" "http://www.w3.org/Graphics/SVG/1.1/DTD/svg11.dtd">
<svg version="1.1" id="Layer_1" xmlns="http://www.w3.org/2000/svg" xmlns:xlink="http://www.w3.org/1999/xlink" x="0px" y="0px"
	 width="486px" height="354px" viewBox="0 0 486 354" enable-background="new 0 0 486 354" xml:space="preserve">
<g>
	<g opacity="0.1">
		<g>
			<defs>
				<rect id="SVGID_1_" x="212.121" y="209.084" width="4.546" height="2.002"/>
			</defs>
			<clipPath id="SVGID_2_">
				<use xlink:href="#SVGID_1_"  overflow="visible"/>
			</clipPath>
			<path clip-path="url(#SVGID_2_)" fill="#DDE56C" d="M212.12,209.125c0.002,0.004,0.008,0.002,0.01,0.008
				c0.006-0.02,0.013-0.039,0.026-0.051C212.143,209.094,212.128,209.109,212.12,209.125"/>
			<path clip-path="url(#SVGID_2_)" fill="#DDE56C" d="M214.276,210.262c0.65,0.271,1.42,0.559,2.37,0.818l0.002,0.004l0.004-0.002
				l-0.002-0.01c-0.81-0.234-1.594-0.516-2.357-0.84c-0.755-0.326-1.467-0.697-2.164-1.102l-0.005,0.004
				C212.124,209.135,212.849,209.66,214.276,210.262"/>
			<path clip-path="url(#SVGID_2_)" fill="#DDE56C" d="M216.667,211.051c-0.004,0.008-0.014,0.016-0.014,0.016l0.004,0.01
				C216.657,211.076,216.659,211.064,216.667,211.051"/>
		</g>
	</g>
	<path fill="#DDE56C" d="M212.949,205.998c0.006-0.02,0.012-0.039,0.027-0.049c-0.016,0.01-0.03,0.025-0.038,0.039
		C212.94,205.996,212.946,205.992,212.949,205.998"/>
	<path fill="#DDE56C" d="M228.828,224.688c-0.45,0.061-0.896,0.107-1.344,0.156c-0.006,0.002-0.004,0.008-0.004,0.008
		C227.904,224.807,228.356,224.756,228.828,224.688"/>
	<path fill="#DDE56C" d="M196.748,215.443l-0.006,0.002c0.566,0.568,1.278,1.172,1.974,1.709l0.017-0.008
		C198.046,216.602,197.387,216.035,196.748,215.443"/>
	<path fill="#DDE56C" d="M198.71,217.156c0.698,0.543,1.364,1.018,1.786,1.307c-0.603-0.426-1.188-0.861-1.762-1.314L198.71,217.156
		z"/>
	<path fill="#DDE56C" d="M200.939,218.771l0.012-0.004c-0.102-0.084-0.222-0.146-0.327-0.225
		C200.817,218.684,200.939,218.771,200.939,218.771"/>
	<path fill="#DDE56C" d="M226.788,224.918c-1.042,0.096-2.084,0.146-3.122,0.168l-0.01,0.01
		C223.758,225.092,224.994,225.08,226.788,224.918"/>
	<path fill="#DDE56C" d="M227.476,224.854c0,0,0.004-0.006,0.008-0.014c-0.172,0.023-0.35,0.051-0.522,0.059
		C227.134,224.891,227.302,224.873,227.476,224.854"/>
	<path fill="#FAA634" d="M187.894,241.611l22.85-8.422c1.98-0.73,3.87-1.576,5.672-2.521c0.391-0.207,0.771-0.434,1.145-0.645
		c-8.284-0.869-15.942-3.859-22.007-8.602l-1.869,0.689l-12.597,4.643c-11.062,4.078-22.861-0.322-26.363-9.82
		c-3.5-9.5,2.623-20.504,13.684-24.58l14.366-5.293l2.952-1.088l2.876-1.062l0.012-0.004l4.778-1.76
		c4.998-1.842,10.134-1.949,14.594-0.641l0.002-0.012l0.004,0.01c0.946,0.256,1.729,0.539,2.372,0.814
		c1.418,0.604,2.147,1.127,2.147,1.127l0.002,0.006c3.305,1.951,5.891,4.85,7.24,8.514c1.312,3.562,1.276,7.334,0.124,10.873
		c-0.025,0.104-0.074,0.199-0.107,0.301c3.327,0.949,7.144,0.857,10.84-0.506l7.614-2.805c0.537-4.695,0.044-9.473-1.648-14.062
		c-1.692-4.592-4.41-8.549-7.86-11.775c-0.644-0.586-1.312-1.156-1.994-1.693c-0.573-0.453-1.146-0.902-1.764-1.312
		c-0.044-0.035-0.086-0.059-0.12-0.084c-0.105-0.078-0.224-0.15-0.334-0.221c-6.348-4.238-14.306-6.484-22.714-6.32
		c-1.034,0.021-2.076,0.066-3.124,0.162c-0.052,0.004-0.114,0.01-0.168,0.02c-0.17,0.014-0.348,0.039-0.528,0.061
		c-0.441,0.041-0.89,0.09-1.34,0.15c0,0-0.012-0.002-0.018,0c-3.26,0.445-6.556,1.262-9.82,2.467l-22.846,8.42
		c-20.882,7.695-32.452,28.477-25.838,46.42C144.719,241.002,167.011,249.309,187.894,241.611"/>
	<path fill="#DDE56C" d="M228.842,224.689c-0.012,0.004-0.014,0-0.014,0S228.83,224.693,228.842,224.689"/>
	<path fill="#DDE56C" d="M226.788,224.918c0.056-0.004,0.114-0.008,0.174-0.02C226.902,224.91,226.844,224.914,226.788,224.918"/>
	<path fill="#DDE56C" d="M212.943,206c0,0,0.724,0.527,2.151,1.125c0.004-0.01,0.012-0.02,0.017-0.025
		c-0.755-0.328-1.464-0.699-2.162-1.102L212.943,206z"/>
	<path fill="#DDE56C" d="M200.623,218.543c-0.046-0.021-0.084-0.051-0.126-0.08C200.537,218.484,200.575,218.518,200.623,218.543"/>
	<path fill="#DDE56C" d="M215.111,207.098c-0.004,0.008-0.014,0.018-0.016,0.029c0.649,0.271,1.42,0.559,2.37,0.82l0.004-0.01
		C216.659,207.705,215.875,207.422,215.111,207.098"/>
	<path fill="#DDE56C" d="M217.477,207.941c0,0,0.002-0.012,0.01-0.025c-0.004,0.008-0.015,0.016-0.015,0.016L217.477,207.941z"/>
	<rect x="217.466" y="207.94" fill="#DDE56C" width="0.006" height="0.011"/>
	<path fill="#FAA634" d="M225.831,157.912l1.865-0.688l0.214-0.078l-10.6-13.457l-6.674,2.461c-1.979,0.73-3.864,1.57-5.666,2.516
		c-0.396,0.207-0.771,0.434-1.15,0.652C212.104,150.184,219.757,153.174,225.831,157.912"/>
	<path fill="#FAA634" d="M267.354,210.805l-1.865,0.688l-0.215,0.078l10.601,13.457l6.674-2.461c1.978-0.73,3.864-1.57,5.666-2.516
		c0.396-0.209,0.77-0.434,1.149-0.652C281.081,218.533,273.429,215.543,267.354,210.805"/>
	<path fill="#FAA634" d="M244.729,220.664l-0.668-17.119l-1.147,0.422l-2.95,1.088l-2.878,1.061l-0.006,0.002l-4.794,1.768
		c-4.992,1.84-10.122,1.943-14.588,0.641l0.002,0.006l-0.009-0.004c-0.941-0.262-1.724-0.545-2.374-0.816
		c-1.412-0.607-2.146-1.125-2.146-1.125l0.006-0.002l-0.01-0.006c-3.296-1.955-5.882-4.854-7.232-8.514
		c-1.313-3.566-1.275-7.334-0.128-10.881c0.036-0.098,0.076-0.199,0.104-0.293c-3.326-0.951-7.132-0.865-10.834,0.502l-7.614,2.805
		c-0.544,4.697-0.054,9.479,1.64,14.07c1.69,4.588,4.414,8.543,7.876,11.766c0.626,0.598,1.296,1.154,1.982,1.701
		c0.578,0.447,1.152,0.898,1.77,1.314c0.036,0.029,0.084,0.051,0.12,0.082c0.104,0.072,0.223,0.145,0.332,0.215
		c6.349,4.238,14.304,6.49,22.71,6.322c1.038-0.021,2.08-0.068,3.13-0.166c0.051-0.002,0.108-0.006,0.162-0.014
		c0.176-0.016,0.351-0.033,0.526-0.062c0.448-0.047,0.896-0.092,1.346-0.152h0.019c3.26-0.445,6.558-1.258,9.817-2.457
		L244.729,220.664z"/>
	<path fill="#FAA634" d="M265.027,157.674c2.874-0.361,5.776-0.16,8.49,0.613l3.968,1.988c3.422,1.953,6.118,4.896,7.502,8.654
		c1.32,3.578,1.269,7.375,0.103,10.932l0.233,0.066c3.752,1.098,7.982,0.9,11.908-0.547l5.975-2.201
		c0.6-4.797,0.136-9.684-1.595-14.377c-6.614-17.943-28.897-26.252-49.788-18.553l-3.216,1.186l0.666,17.113l9.362-3.449
		C260.76,158.316,262.911,157.854,265.027,157.674"/>
	<path fill="#FAA634" d="M304.225,124.936l-22.851,8.424c-1.978,0.727-3.866,1.566-5.668,2.516c-0.394,0.205-0.77,0.434-1.147,0.65
		c8.283,0.865,15.936,3.855,22.01,8.596l1.864-0.689l12.602-4.645c11.05-4.072,22.852,0.33,26.354,9.83
		c3.5,9.494-2.63,20.502-13.674,24.57l-14.372,5.297l-2.949,1.088l-2.878,1.061l-0.007,0.002l-4.794,1.768
		c-4.994,1.84-10.122,1.941-14.588,0.641l0.002,0.006l-0.008-0.002c-0.942-0.266-1.724-0.547-2.374-0.818
		c-1.412-0.607-2.146-1.125-2.146-1.125l0.006-0.002l-0.011-0.008c-3.296-1.953-5.882-4.852-7.231-8.512
		c-1.314-3.568-1.276-7.334-0.128-10.881c0.036-0.098,0.074-0.201,0.104-0.295c-3.328-0.947-7.132-0.861-10.834,0.502l-7.613,2.809
		c-0.544,4.693-0.055,9.475,1.64,14.068c1.689,4.588,4.412,8.541,7.876,11.768c0.626,0.596,1.296,1.152,1.981,1.699
		c0.578,0.447,1.152,0.898,1.771,1.314c0.036,0.029,0.084,0.051,0.12,0.082c0.104,0.072,0.222,0.145,0.332,0.215
		c6.348,4.238,14.304,6.49,22.71,6.322c1.038-0.021,2.08-0.068,3.13-0.166c0.05-0.002,0.106-0.006,0.162-0.016
		c0.176-0.014,0.35-0.033,0.525-0.061c0.448-0.047,0.896-0.092,1.347-0.152l0.018-0.002c3.261-0.445,6.559-1.256,9.818-2.457
		l22.85-8.422c20.876-7.693,32.45-28.482,25.838-46.42C347.398,125.547,325.112,117.238,304.225,124.936"/>
	<g opacity="0.3">
		<g>
			<defs>
				<rect id="SVGID_3_" x="136.293" y="122.066" width="212.599" height="103.029"/>
			</defs>
			<clipPath id="SVGID_4_">
				<use xlink:href="#SVGID_3_"  overflow="visible"/>
			</clipPath>
			<path clip-path="url(#SVGID_4_)" fill="#FFFFFF" d="M228.828,224.688c-0.45,0.061-0.896,0.107-1.344,0.156
				c-0.006,0.002-0.004,0.008-0.004,0.008C227.904,224.807,228.356,224.756,228.828,224.688"/>
			<path clip-path="url(#SVGID_4_)" fill="#FFFFFF" d="M226.788,224.918c-1.042,0.096-2.084,0.146-3.122,0.168l-0.01,0.01
				C223.758,225.092,224.994,225.08,226.788,224.918"/>
			<path clip-path="url(#SVGID_4_)" fill="#FFFFFF" d="M227.476,224.854c0,0,0.004-0.006,0.008-0.014
				c-0.172,0.023-0.35,0.051-0.522,0.059C227.134,224.891,227.302,224.873,227.476,224.854"/>
			<path clip-path="url(#SVGID_4_)" fill="#FFFFFF" d="M139.579,220.658c4.841-1.99,9.679-3.994,14.515-5.994
				c-1.854-8.922,4.124-18.555,14.313-22.309l14.366-5.297l2.952-1.088l2.876-1.061l0.012-0.004l4.778-1.76
				c4.998-1.842,10.132-1.947,14.594-0.641l0.002-0.012l0.004,0.01c0.946,0.256,1.73,0.539,2.372,0.812
				c1.418,0.604,2.148,1.131,2.148,1.131l0.002,0.004c1.78,1.051,3.326,2.396,4.608,3.971c5.598-2.338,11.197-4.674,16.8-7.01
				c-1.458-2.367-3.188-4.533-5.208-6.424c-0.643-0.584-1.311-1.154-1.992-1.689c-0.574-0.457-1.146-0.904-1.764-1.316
				c-0.045-0.031-0.086-0.057-0.12-0.082c-0.106-0.078-0.225-0.152-0.334-0.223c-6.349-4.234-14.307-6.48-22.717-6.318
				c-1.031,0.02-2.073,0.066-3.121,0.164c-0.053,0.002-0.114,0.008-0.171,0.018c-0.17,0.012-0.346,0.039-0.525,0.061
				c-0.442,0.041-0.891,0.09-1.34,0.15c0,0-0.015,0-0.019,0.002c-3.26,0.445-6.558,1.262-9.821,2.463l-22.845,8.42
				c-20.342,7.498-31.796,27.406-26.266,45.018C138.262,221.281,138.888,220.943,139.579,220.658"/>
			<path clip-path="url(#SVGID_4_)" fill="#FFFFFF" d="M228.842,224.689c-0.012,0.004-0.014,0-0.014,0
				S228.83,224.693,228.842,224.689"/>
			<path clip-path="url(#SVGID_4_)" fill="#FFFFFF" d="M226.788,224.918c0.056-0.004,0.114-0.008,0.174-0.02
				C226.902,224.91,226.844,224.914,226.788,224.918"/>
			<path clip-path="url(#SVGID_4_)" fill="#FFFFFF" d="M204.991,193.488c-0.126-2.121,0.151-4.248,0.815-6.305
				c0.036-0.096,0.076-0.199,0.106-0.295c-3.328-0.949-7.132-0.861-10.836,0.502l-7.614,2.807
				c-0.397,3.449-0.228,6.941,0.554,10.375C193.675,198.211,199.333,195.85,204.991,193.488"/>
			<path clip-path="url(#SVGID_4_)" fill="#FFFFFF" d="M258.635,159.1c2.124-0.781,4.276-1.246,6.393-1.426
				c2.874-0.359,5.777-0.16,8.489,0.613l3.969,1.988c0.991,0.564,1.912,1.223,2.766,1.951c5.722-2.352,11.446-4.695,17.174-7.027
				c-9.35-12.502-27.954-17.453-45.6-10.949l-3.218,1.184l0.668,17.115L258.635,159.1z"/>
			<path clip-path="url(#SVGID_4_)" fill="#FFFFFF" d="M298.433,144.432l12.603-4.645c7.182-2.646,14.668-1.695,20,1.891
				c5.945-2.361,11.899-4.703,17.855-7.033c-9.624-11.598-27.605-15.996-44.666-9.709l-22.85,8.422
				c-1.98,0.73-3.866,1.57-5.668,2.518c-0.396,0.205-0.771,0.434-1.15,0.65c8.284,0.865,15.937,3.857,22.01,8.594L298.433,144.432z"
				/>
			<path clip-path="url(#SVGID_4_)" fill="#FFFFFF" d="M271.54,165.801c0.14-1.045,0.367-2.082,0.695-3.1
				c0.036-0.098,0.076-0.201,0.106-0.293c-3.328-0.949-7.132-0.863-10.836,0.5l-7.614,2.809c-0.284,2.447-0.268,4.92,0.034,7.375
				C259.796,170.656,265.665,168.223,271.54,165.801"/>
		</g>
	</g>
</g>
</svg>
