<?xml version="1.0" encoding="utf-8"?>
<!-- Generator: Adobe Illustrator 15.0.0, SVG Export Plug-In . SVG Version: 6.00 Build 0)  -->
<!DOCTYPE svg PUBLIC "-//W3C//DTD SVG 1.1//EN" "http://www.w3.org/Graphics/SVG/1.1/DTD/svg11.dtd">
<svg version="1.1" id="Layer_1" xmlns="http://www.w3.org/2000/svg" xmlns:xlink="http://www.w3.org/1999/xlink" x="0px" y="0px"
	 width="486px" height="354px" viewBox="0 0 486 354" enable-background="new 0 0 486 354" xml:space="preserve">
<g>
	<polygon fill="#C7CD2D" points="227.224,97.054 261.768,80.826 241.71,50.907 218.563,85.431 	"/>
	<polygon fill="#C7CD2D" points="223.102,99.016 214.004,86.663 198.838,111.268 	"/>
	<path fill="#C7CD2D" d="M249.206,116.01c18.851,0.049,35.673,0.066,35.673,0.066l-17.073-33.714l-69.95,33.323
		C198.037,115.849,225.257,115.956,249.206,116.01 M260.289,106.727l-5.579,3.859l2.131-6.245l-5.581-3.856h6.898l2.131-6.243
		l2.132,6.243h6.896l-5.578,3.856l2.128,6.245L260.289,106.727z"/>
	<g opacity="0.3">
		<g>
			<defs>
				<rect id="SVGID_1_" x="197.858" y="51.215" width="43.642" height="64.777"/>
			</defs>
			<clipPath id="SVGID_2_">
				<use xlink:href="#SVGID_1_"  overflow="visible"/>
			</clipPath>
			<path clip-path="url(#SVGID_2_)" fill="#F1F1F1" d="M241.484,51.392c0-0.063,0.016-0.114,0.018-0.179l-22.941,34.22l8.663,11.621
				l14.261-6.698V51.392z"/>
			<polygon clip-path="url(#SVGID_2_)" fill="#F1F1F1" points="223.102,99.016 214.004,86.663 198.838,111.268 			"/>
			<path clip-path="url(#SVGID_2_)" fill="#F1F1F1" d="M241.484,94.902l-43.626,20.784c0.158,0.146,21.912,0.242,43.626,0.305
				V94.902z"/>
		</g>
	</g>
	<path fill="#C7CD2D" d="M263.976,177.958l-1.733-6.727c6.653-3.555,12.201-16.045,15.15-24.176l0.961-0.627
		c3.181,0,6.527-4.664,6.527-9.515v-11.521c0-2.76-2.578-4.998-5.762-4.998c-0.183,0-0.355,0.03-0.534,0.046
		c-0.002-0.016-0.007-0.031-0.009-0.046h-2.401h-35.73h-33.388c-0.004,0.015-0.006,0.03-0.011,0.046
		c-0.179-0.016-0.351-0.046-0.534-0.046c-3.184,0-5.762,2.238-5.762,4.998v11.521c0,4.851,3.349,9.515,6.53,9.515l0.96,0.627
		c2.949,8.131,8.499,20.621,15.15,24.176l-1.732,6.727c3.947,6.808,11.296,11.412,19.716,11.412h2.886
		C252.679,189.369,260.026,184.766,263.976,177.958"/>
	<path fill="#C7CD2D" d="M217.488,180.262c0,0-19.77-0.326-26.321,0.984l-27.19,2.947c-5.438,0-6.602,4.264-7.246,6.926
		l-10.718,2.678l-14.499,5.195c0,0,27.034-26.28,28.157-27.574l3.113-3.053c0.808-0.632,1.596-1.117,2.345-1.378
		c3.351-1.161,5.585-3.895,7.448-6.534c2.64-3.744,4.194-7.444,4.194-7.444s2.662-2.779,6.037-6.439
		c3.439-3.729,7.619-8.371,10.482-11.919c12.064-12.627-3.241-3.514-3.241-3.514l-13.278,6.406c0,0-2.651-0.133-7.448,1.212
		c-2.161,0.604-4.943,2.24-7.343,3.856c-2.934,1.972-8.678,9.188-8.678,9.188l-3.977,6.226c0,0-3.403,2.932-6.03,5.257
		c-1.7,1.505-6.78,5.049-6.78,5.049l-29.495,17.554c0,0-13.14,9.467-16.431,13.051c-2.974,3.238-2.95,8.52-6.882,12.451
		c-3.932,3.93-1.965,11.793,6.553,18.018c8.519,6.227,56.68,8.191,56.68,8.191s9.362,0.564,10.047,0.631
		c4.011,0.387,21.616,0.498,27.583,12.773c2.959,6.082,8.643,5.893,8.643,5.893h47.331v-61.764
		C224.863,193.938,217.488,180.262,217.488,180.262"/>
	<path fill="#C7CD2D" d="M331.946,203.438c-0.053-0.094-0.119-0.17-0.172-0.26c-0.313-3.531-0.519-6.688-0.519-6.688
		c-0.645-2.664-3.265-8.061-9.104-8.625l-53.218-7.348c-4.263,7.75-13.219,13.379-23.469,14.504v61.867h30.59
		c0,0,17.363,0.537,19.699,0.246c2.335-0.289,4.934-1.404,5.986-4.697c1.716-5.018,3.842-11.785,3.842-11.785l6.104,16.236h30.568
		C341.471,246.447,333.102,208.691,331.946,203.438 M270.161,234.916h-4.888v-18.793h4.888V234.916z M278.711,234.916h-4.888
		v-18.793h4.888V234.916z M287.263,234.916h-4.888v-18.793h4.888V234.916z"/>
	<g opacity="0.3">
		<g>
			<defs>
				<rect id="SVGID_3_" x="200.752" y="120.392" width="41.055" height="68.977"/>
			</defs>
			<clipPath id="SVGID_4_">
				<use xlink:href="#SVGID_3_"  overflow="visible"/>
			</clipPath>
			<path clip-path="url(#SVGID_4_)" fill="#F1F1F1" d="M241.807,120.392h-1.359h-33.391c-0.004,0.018-0.006,0.033-0.009,0.049
				c-0.179-0.016-0.353-0.049-0.534-0.049c-3.186,0-5.762,2.239-5.762,4.998v11.526c0,4.848,3.347,9.515,6.528,9.515l0.96,0.622
				c2.949,8.133,8.497,20.621,15.15,24.178l-1.732,6.725c3.949,6.812,11.296,11.41,19.716,11.41h0.433V120.392z"/>
		</g>
	</g>
	<path fill="#C7CD2D" d="M331.946,203.438c-0.053-0.094-0.119-0.17-0.172-0.26c-0.313-3.531-0.519-6.688-0.519-6.688
		c-0.645-2.664-3.265-8.061-9.104-8.625l-53.218-7.348c-4.263,7.75-13.219,13.379-23.469,14.504v61.867h30.59
		c0,0,17.363,0.537,19.699,0.246c2.335-0.289,4.934-1.404,5.986-4.697c1.716-5.018,3.842-11.785,3.842-11.785l6.104,16.236h30.568
		C341.471,246.447,333.102,208.691,331.946,203.438 M270.161,234.916h-4.888v-18.793h4.888V234.916z M278.711,234.916h-4.888
		v-18.793h4.888V234.916z M287.263,234.916h-4.888v-18.793h4.888V234.916z"/>
	<g opacity="0.3">
		<g>
			<defs>
				<rect id="SVGID_5_" x="81.766" y="127.958" width="158.778" height="128.931"/>
			</defs>
			<clipPath id="SVGID_6_">
				<use xlink:href="#SVGID_5_"  overflow="visible"/>
			</clipPath>
			<path clip-path="url(#SVGID_6_)" fill="#F1F1F1" d="M217.488,180.262c0,0-19.77-0.326-26.321,0.984l-27.19,2.947
				c-5.438,0-6.602,4.264-7.246,6.926l-10.718,2.678l-14.499,5.195c0,0,27.034-26.28,28.157-27.574l3.113-3.053
				c0.808-0.632,1.596-1.117,2.345-1.378c3.351-1.161,5.585-3.895,7.448-6.534c2.64-3.744,4.194-7.444,4.194-7.444
				s2.662-2.779,6.037-6.439c3.439-3.729,7.619-8.371,10.482-11.919c12.064-12.627-3.241-3.514-3.241-3.514l-13.278,6.406
				c0,0-2.651-0.133-7.448,1.212c-2.161,0.604-4.943,2.24-7.343,3.856c-2.934,1.972-8.678,9.188-8.678,9.188l-3.977,6.226
				c0,0-3.403,2.932-6.03,5.257c-1.7,1.505-6.78,5.049-6.78,5.049l-29.495,17.554c0,0-13.14,9.467-16.431,13.051
				c-2.974,3.238-2.95,8.52-6.882,12.451c-3.932,3.93-1.965,11.793,6.553,18.018c8.519,6.227,56.68,8.191,56.68,8.191
				s9.362,0.564,10.047,0.631c4.011,0.387,21.616,0.498,27.583,12.773c2.959,6.082,8.643,5.893,8.643,5.893h47.331v-61.764
				C224.863,193.938,217.488,180.262,217.488,180.262"/>
		</g>
	</g>
</g>
</svg>
