<svg width="400px" height="320px" viewBox="0 0 400 320" version="1.1" xmlns="http://www.w3.org/2000/svg" xmlns:xlink="http://www.w3.org/1999/xlink"><title>backpack</title><desc>Created with Sketch.</desc><defs/><g transform="translate(0 0)" stroke="none" stroke-width="1" fill="none" fill-rule="evenodd"><path d="M289.7,265.08 L289.53,264.09 C321.74,258.46 338,232.6 345.97,211.9 C354.63,189.4 355.65,167.96 355.66,167.74 L363.96,80.17 C363.97,80.02 365.07,64.5 356.11,54.24 C351.31,48.74 344.49,45.69 335.83,45.19 C314.55,43.95 80.12,45 62.05,45.19 C52.58,45.29 45.25,48.04 40.26,53.37 C32.6,61.54 33.15,73.09 33.15,73.21 L40.24,167.74 C40.25,167.97 41.26,189.22 49.81,211.61 C64.06,248.93 87.98,260.67 105.53,263.95 L105.35,264.93 C73.09,258.9 56.83,232.78 48.87,211.94 C40.27,189.41 39.25,168.01 39.25,167.8 L32.16,73.28 C32.15,73.15 31.59,61.18 39.54,52.69 C44.72,47.16 52.3,44.3 62.05,44.2 C80.12,44.01 314.61,42.96 335.9,44.2 C344.84,44.72 351.9,47.88 356.88,53.6 C366.11,64.19 364.98,80.11 364.97,80.27 L356.67,167.83 C356.66,168.02 355.64,189.61 346.93,212.25 C338.85,233.19 322.39,259.37 289.7,265.08 L289.7,265.08 Z" id="Shape" fill="#3E79A0"/><path d="M7.09,312.91 L6.09,312.91 L6.09,150.9 C6.09,150.41 5.9,101.18 32.24,68.96 L33.01,69.59 C6.9,101.54 7.08,150.4 7.09,150.89 L7.09,312.91 L7.09,312.91 Z" id="Shape" fill="#3E79A0"/><g id="Group" fill="#22506D"><g id="Shape"><path d="M2.8,19.42 L2.8,19.42 L2.7,19.42 C0.48,19.35 -0.18,17.51 -0.22,16.55 L-0.22,2.88 C-0.08,1.84 0.7,-0.01 2.68,-0.01 L2.78,-0.01 C5,0.06 5.66,1.9 5.7,2.86 L5.7,16.53 C5.56,17.58 4.77,19.42 2.8,19.42 L2.8,19.42 Z M2.75,0.99 C1.07,0.99 0.79,2.87 0.77,2.95 L0.77,16.54 C0.78,16.71 0.91,18.37 2.72,18.43 L2.79,18.93 L2.79,18.43 C4.39,18.43 4.69,16.55 4.7,16.47 L4.7,2.89 C4.69,2.71 4.56,1.05 2.75,0.99 L2.75,0.99 L2.75,0.99 Z" transform="translate(173 119) translate(17 18)"/><path d="M17.34,19.42 L17.34,19.42 L17.24,19.42 C15.02,19.35 14.36,17.51 14.32,16.55 L14.32,2.87 C14.46,1.83 15.24,-0.02 17.22,-0.02 L17.32,-0.02 C19.54,0.05 20.2,1.89 20.24,2.85 L20.24,16.52 C20.1,17.58 19.32,19.42 17.34,19.42 L17.34,19.42 Z M17.29,0.99 C15.62,0.99 15.33,2.87 15.31,2.95 L15.31,16.53 C15.32,16.7 15.45,18.36 17.26,18.42 L17.33,18.92 L17.33,18.42 C18.93,18.42 19.23,16.54 19.24,16.46 L19.24,2.88 C19.23,2.71 19.1,1.05 17.29,0.99 L17.29,0.99 L17.29,0.99 Z" transform="translate(173 119) translate(17 18)"/></g><path d="M27.72,54.79 L-0.41,28.08 L26.3,-0.05 L54.43,26.66 L27.72,54.79 L27.72,54.79 Z M1,28.04 L27.68,53.37 L53.01,26.69 L26.33,1.36 L1,28.04 L1,28.04 Z" id="Shape" transform="translate(173 119)"/></g><g id="Group" fill="#22506D"><path d="M66.47,38.23 L65.47,38.23 L65.47,18.19 C65.47,9 60.87,4.59 57,2.51 C54.97,1.41 51.48,0.86 46.63,0.86 L-0.25,0.86 L-0.25,-0.14 L46.63,-0.14 C51.65,-0.14 55.3,0.46 57.48,1.63 C61.58,3.84 66.47,8.51 66.47,18.19 L66.47,38.23 L66.47,38.23 Z" id="Shape" transform="translate(200 6)"/><path d="M44.48,38.23 L43.48,38.23 L43.48,18.19 C43.48,2.97 30.97,0.93 30.44,0.85 L30.59,-0.14 C30.73,-0.12 44.48,2.09 44.48,18.19 L44.48,38.23 L44.48,38.23 Z" id="Shape" transform="translate(200 6)"/></g><rect id="Rectangle-path" fill="#3E79A0" x="115" y="262" width="1" height="24.97"/><rect id="Rectangle-path" fill="#3E79A0" x="115" y="247" width="1" height="9.46"/><rect id="Rectangle-path" fill="#3E79A0" x="115" y="45" width="1" height="197.41"/><rect id="Rectangle-path" fill="#3E79A0" x="141" y="45" width="1" height="197.1"/><rect id="Rectangle-path" fill="#3E79A0" x="141" y="247" width="1" height="9.77"/><rect id="Rectangle-path" fill="#3E79A0" x="141" y="263" width="1" height="24.35"/><rect id="Rectangle-path" fill="#3E79A0" transform="rotate(89.981 253.935 274.774)" x="241.434582" y="274.273659" width="24.6600014" height="1.00000006"/><rect id="Rectangle-path" fill="#3E79A0" x="253" y="247" width="1" height="9.93"/><rect id="Rectangle-path" fill="#3E79A0" transform="rotate(89.981 253.242 143.167)" x="154.742473" y="142.667151" width="197.390011" height="1.00000005"/><rect id="Rectangle-path" fill="#3E79A0" transform="rotate(89.981 278.98 143.275)" x="180.48006" y="142.775354" width="197.24001" height="1.00000005"/><rect id="Rectangle-path" fill="#3E79A0" x="279" y="247" width="1" height="9.54"/><rect id="Rectangle-path" fill="#3E79A0" transform="rotate(89.982 279.593 274.803)" x="267.093311" y="274.303017" width="24.6600012" height="1.00000005"/><path d="M290.01,274.14 L279.71,274.14 L279.71,273.14 L289.01,273.14 L289.01,242.28 L244.67,242.28 L244.67,273.14 L253.63,273.14 L253.63,274.14 L243.67,274.14 L243.67,241.28 L290.01,241.28 L290.01,274.14 Z" id="Shape" fill="#3E79A0"/><path d="M284.8,268.48 L279.51,268.48 L279.51,267.48 L283.8,267.48 L283.8,263.07 L249.67,263.01 L249.67,267.48 L253.11,267.48 L253.11,268.48 L248.67,268.48 L248.67,262 L284.8,262.07 L284.8,268.48 Z" id="Shape" fill="#3E79A0"/><path d="M284.8,257.68 L248.75,257.68 L248.67,246.94 L263.12,246.94 L263.12,247.94 L249.68,247.94 L249.75,256.68 L283.8,256.68 L283.8,247.94 L269.01,247.94 L269.01,246.94 L284.8,246.94 L284.8,257.68 Z" id="Shape" fill="#3E79A0"/><path d="M269.63,256.94 L268.63,256.94 L268.63,245.28 L263.75,245.28 L263.75,256.94 L262.75,256.94 L262.75,244.28 L269.63,244.28 L269.63,256.94 Z" id="Shape" fill="#3E79A0"/><path d="M269.63,268.22 L262.75,268.22 L262.75,262.57 L263.75,262.57 L263.75,267.22 L268.63,267.22 L268.63,262.57 L269.63,262.57 L269.63,268.22 Z" id="Shape" fill="#3E79A0"/><rect id="Rectangle-path" fill="#3E79A0" x="253" y="262" width="1" height="15.01"/><rect id="Rectangle-path" fill="#3E79A0" x="279" y="262" width="1" height="15.01"/><path d="M151.57,274.14 L140.71,274.14 L140.71,273.14 L150.57,273.14 L150.57,242.28 L106.24,242.28 L106.24,273.14 L115.19,273.14 L115.19,274.14 L105.24,274.14 L105.24,241.28 L151.57,241.28 L151.57,274.14 Z" id="Shape" fill="#3E79A0"/><path d="M146.36,257.68 L110.31,257.68 L110.23,246.94 L124.49,246.94 L124.49,247.94 L111.24,247.94 L111.31,256.68 L145.36,256.68 L145.36,247.94 L130.84,247.94 L130.84,246.94 L146.36,246.94 L146.36,257.68 Z" id="Shape" fill="#3E79A0"/><path d="M131.08,257.1 L130.08,257.1 L130.08,245.28 L125.2,245.28 L125.2,257.1 L124.2,257.1 L124.2,244.28 L131.08,244.28 L131.08,257.1 Z" id="Shape" fill="#3E79A0"/><path d="M131.08,268.22 L124.2,268.22 L124.2,262.07 L131.08,262.07 L131.08,268.22 L131.08,268.22 Z M125.2,267.22 L130.08,267.22 L130.08,263.07 L125.2,263.07 L125.2,267.22 L125.2,267.22 Z" id="Shape" fill="#3E79A0"/><path d="M391.11,312.91 L390.11,312.91 L390.11,156.26 C390.13,155.75 391.36,106.25 363.83,74.31 L364.59,73.66 C392.37,105.9 391.13,155.78 391.11,156.28 L391.11,312.91 L391.11,312.91 Z" id="Shape" fill="#3E79A0"/><g fill="#22506D"><path d="M1.2,38.23 L0.2,38.23 L0.2,18.19 C0.2,8.38 5.2,3.71 9.4,1.51 C12.03,0.14 15.69,-0.15 18.3,-0.15 L67.76,-0.15 L67.76,0.85 L18.3,0.85 C16.26,0.85 12.44,1.05 9.87,2.4 C5.92,4.46 1.21,8.88 1.21,18.19 L1.21,38.23 L1.2,38.23 Z" id="Shape" transform="translate(132 6)"/><path d="M23.18,38.23 L22.18,38.23 L22.18,18.19 C22.18,2.09 35.94,-0.12 36.07,-0.14 L36.22,0.85 C35.69,0.93 23.18,2.97 23.18,18.19 L23.18,38.23 L23.18,38.23 Z" id="Shape" transform="translate(132 6)"/></g><path d="M101.99,256.41 C101.94,256.41 101.89,256.4 101.84,256.39 C101.54,256.29 101.25,256.19 100.95,256.09 C100.71,256 100.58,255.74 100.67,255.5 C100.76,255.26 101.02,255.13 101.26,255.22 C101.55,255.32 101.84,255.42 102.13,255.52 C102.37,255.6 102.5,255.87 102.42,256.11 C102.37,256.29 102.19,256.41 101.99,256.41 L101.99,256.41 Z M95.95,254.02 C95.89,254.02 95.82,254.01 95.76,253.98 C95.48,253.85 95.19,253.72 94.91,253.58 C94.68,253.47 94.58,253.19 94.69,252.96 C94.8,252.73 95.08,252.63 95.31,252.74 C95.59,252.87 95.86,253 96.15,253.13 C96.38,253.24 96.49,253.51 96.38,253.75 C96.29,253.92 96.13,254.02 95.95,254.02 L95.95,254.02 Z M90.2,251 C90.12,251 90.04,250.98 89.96,250.94 C89.69,250.78 89.42,250.62 89.16,250.45 C88.94,250.31 88.87,250.03 89.01,249.81 C89.15,249.59 89.43,249.53 89.65,249.66 C89.91,249.82 90.17,249.98 90.44,250.14 C90.66,250.27 90.73,250.56 90.6,250.78 C90.51,250.92 90.36,251 90.2,251 L90.2,251 Z M84.8,247.38 C84.7,247.38 84.6,247.35 84.52,247.29 C84.27,247.1 84.02,246.91 83.77,246.72 C83.57,246.56 83.53,246.27 83.68,246.07 C83.84,245.87 84.13,245.83 84.33,245.98 C84.57,246.17 84.82,246.36 85.07,246.54 C85.28,246.69 85.32,246.99 85.16,247.19 C85.08,247.32 84.94,247.38 84.8,247.38 L84.8,247.38 Z M79.8,243.22 C79.69,243.22 79.57,243.18 79.48,243.1 C79.25,242.89 79.02,242.68 78.8,242.46 C78.61,242.28 78.6,241.99 78.78,241.8 C78.96,241.61 79.25,241.6 79.44,241.78 C79.66,241.99 79.89,242.2 80.12,242.41 C80.31,242.58 80.32,242.88 80.15,243.07 C80.05,243.17 79.92,243.22 79.8,243.22 L79.8,243.22 Z M75.22,238.6 C75.09,238.6 74.97,238.55 74.87,238.45 C74.66,238.22 74.45,237.98 74.25,237.75 C74.08,237.56 74.1,237.26 74.29,237.09 C74.48,236.92 74.78,236.94 74.95,237.13 C75.15,237.36 75.36,237.59 75.56,237.82 C75.73,238.01 75.72,238.31 75.52,238.48 C75.44,238.56 75.33,238.6 75.22,238.6 L75.22,238.6 Z M71.08,233.58 C70.94,233.58 70.8,233.52 70.71,233.39 L70.15,232.64 C70,232.43 70.04,232.14 70.25,231.99 C70.46,231.84 70.75,231.88 70.9,232.09 L71.46,232.83 C71.61,233.03 71.57,233.33 71.37,233.48 C71.28,233.54 71.18,233.58 71.08,233.58 L71.08,233.58 Z M67.36,228.23 C67.21,228.23 67.06,228.15 66.97,228.02 L66.47,227.23 C66.33,227.01 66.4,226.72 66.62,226.59 C66.84,226.45 67.13,226.52 67.26,226.74 L67.76,227.52 C67.9,227.74 67.84,228.02 67.62,228.16 C67.53,228.21 67.44,228.23 67.36,228.23 L67.36,228.23 Z M64.04,222.63 C63.88,222.63 63.72,222.54 63.63,222.39 L63.19,221.57 C63.07,221.34 63.15,221.06 63.38,220.94 C63.6,220.82 63.89,220.9 64.01,221.13 L64.45,221.94 C64.57,222.17 64.49,222.45 64.27,222.57 C64.19,222.61 64.11,222.63 64.04,222.63 L64.04,222.63 Z M61.1,216.81 C60.93,216.81 60.76,216.71 60.68,216.54 C60.55,216.26 60.42,215.97 60.29,215.69 C60.18,215.46 60.29,215.18 60.52,215.07 C60.75,214.96 61.03,215.06 61.14,215.3 C61.27,215.58 61.4,215.86 61.53,216.14 C61.64,216.37 61.54,216.65 61.31,216.76 C61.23,216.8 61.16,216.81 61.1,216.81 L61.1,216.81 Z M58.51,210.83 C58.33,210.83 58.15,210.72 58.08,210.54 L57.74,209.67 C57.65,209.43 57.76,209.16 58,209.07 C58.24,208.98 58.51,209.09 58.6,209.33 L58.94,210.19 C59.03,210.43 58.92,210.7 58.68,210.79 C58.62,210.82 58.56,210.83 58.51,210.83 L58.51,210.83 Z M56.24,204.71 C56.05,204.71 55.87,204.59 55.8,204.4 L55.5,203.51 C55.42,203.27 55.55,203 55.79,202.92 C56.03,202.84 56.3,202.97 56.38,203.21 L56.68,204.09 C56.76,204.33 56.63,204.6 56.39,204.68 C56.34,204.71 56.29,204.71 56.24,204.71 L56.24,204.71 Z M54.28,198.49 C54.08,198.49 53.89,198.36 53.83,198.15 L53.57,197.25 C53.5,197 53.64,196.75 53.89,196.68 C54.14,196.6 54.39,196.75 54.46,197 L54.72,197.89 C54.79,198.14 54.65,198.4 54.4,198.47 C54.37,198.49 54.32,198.49 54.28,198.49 L54.28,198.49 Z M52.6,192.19 C52.39,192.19 52.2,192.05 52.15,191.83 L51.93,190.92 C51.87,190.67 52.03,190.42 52.28,190.36 C52.53,190.3 52.78,190.46 52.84,190.71 L53.06,191.61 C53.12,191.86 52.97,192.11 52.72,192.17 C52.68,192.18 52.64,192.19 52.6,192.19 L52.6,192.19 Z M51.2,185.81 C50.98,185.81 50.79,185.66 50.74,185.44 L50.56,184.52 C50.51,184.27 50.68,184.02 50.93,183.97 C51.18,183.92 51.43,184.09 51.48,184.34 L51.66,185.25 C51.71,185.5 51.55,185.75 51.3,185.8 C51.26,185.81 51.23,185.81 51.2,185.81 L51.2,185.81 Z M50.06,179.39 C49.83,179.39 49.64,179.22 49.6,178.99 L49.46,178.07 C49.42,177.82 49.6,177.58 49.85,177.54 C50.1,177.5 50.34,177.68 50.38,177.93 L50.52,178.85 C50.56,179.1 50.38,179.34 50.13,179.38 C50.11,179.39 50.09,179.39 50.06,179.39 L50.06,179.39 Z M49.2,172.91 C48.97,172.91 48.76,172.73 48.74,172.5 L48.64,171.57 C48.61,171.31 48.8,171.09 49.05,171.06 C49.3,171.03 49.53,171.22 49.56,171.47 L49.66,172.39 C49.69,172.65 49.5,172.88 49.25,172.9 C49.23,172.91 49.22,172.91 49.2,172.91 L49.2,172.91 Z M48.63,166.39 C48.39,166.39 48.19,166.21 48.17,165.97 L48.08,165.04 C48.06,164.78 48.24,164.56 48.5,164.53 C48.75,164.52 48.98,164.69 49.01,164.95 L49.1,165.88 C49.12,166.14 48.94,166.36 48.68,166.39 L48.63,166.39 L48.63,166.39 Z M48.01,159.9 C47.77,159.9 47.57,159.72 47.55,159.48 L47.46,158.55 C47.44,158.29 47.62,158.07 47.88,158.04 C48.13,158.03 48.36,158.2 48.39,158.46 L48.48,159.39 C48.5,159.65 48.32,159.87 48.06,159.9 L48.01,159.9 L48.01,159.9 Z M47.38,153.42 C47.14,153.42 46.94,153.24 46.92,153 L46.83,152.07 C46.81,151.81 46.99,151.59 47.25,151.56 C47.5,151.55 47.73,151.72 47.76,151.98 L47.85,152.91 C47.87,153.17 47.69,153.39 47.43,153.42 L47.38,153.42 L47.38,153.42 Z M46.76,146.94 C46.52,146.94 46.32,146.76 46.3,146.52 L46.21,145.59 C46.19,145.33 46.37,145.11 46.63,145.08 C46.88,145.07 47.11,145.24 47.14,145.5 L47.23,146.43 C47.25,146.69 47.07,146.91 46.81,146.94 L46.76,146.94 L46.76,146.94 Z M46.14,140.45 C45.9,140.45 45.7,140.27 45.68,140.03 L45.59,139.1 C45.57,138.84 45.75,138.62 46.01,138.59 C46.26,138.58 46.49,138.75 46.52,139.01 L46.61,139.94 C46.63,140.2 46.45,140.42 46.19,140.45 L46.14,140.45 L46.14,140.45 Z M45.51,133.97 C45.27,133.97 45.07,133.79 45.05,133.55 L44.96,132.62 C44.94,132.36 45.12,132.14 45.38,132.11 C45.64,132.1 45.86,132.27 45.89,132.53 L45.98,133.46 C46,133.72 45.82,133.94 45.56,133.97 L45.51,133.97 L45.51,133.97 Z M44.89,127.49 C44.65,127.49 44.45,127.31 44.43,127.07 L44.34,126.14 C44.32,125.88 44.5,125.66 44.76,125.63 C45.02,125.62 45.24,125.79 45.27,126.05 L45.36,126.98 C45.38,127.24 45.2,127.46 44.94,127.49 L44.89,127.49 L44.89,127.49 Z M44.26,121.01 C44.02,121.01 43.82,120.83 43.8,120.59 L43.71,119.66 C43.69,119.4 43.87,119.18 44.13,119.15 C44.39,119.14 44.61,119.31 44.64,119.57 L44.73,120.5 C44.75,120.76 44.57,120.98 44.31,121.01 C44.29,121 44.28,121.01 44.26,121.01 L44.26,121.01 Z M43.64,114.52 C43.4,114.52 43.2,114.34 43.18,114.1 L43.09,113.17 C43.07,112.91 43.25,112.69 43.51,112.66 C43.77,112.65 43.99,112.82 44.02,113.08 L44.11,114.01 C44.13,114.27 43.95,114.49 43.69,114.52 L43.64,114.52 L43.64,114.52 Z M43.02,108.04 C42.78,108.04 42.58,107.86 42.56,107.62 L42.47,106.69 C42.45,106.43 42.63,106.21 42.89,106.18 C43.14,106.17 43.37,106.34 43.4,106.6 L43.49,107.53 C43.51,107.79 43.33,108.01 43.07,108.04 L43.02,108.04 L43.02,108.04 Z M42.39,101.56 C42.15,101.56 41.95,101.38 41.93,101.14 L41.84,100.21 C41.82,99.95 42,99.73 42.26,99.7 C42.51,99.69 42.74,99.86 42.77,100.12 L42.86,101.05 C42.88,101.31 42.7,101.53 42.44,101.56 L42.39,101.56 L42.39,101.56 Z M41.77,95.07 C41.53,95.07 41.33,94.89 41.31,94.65 L41.22,93.72 C41.2,93.46 41.38,93.24 41.64,93.21 C41.89,93.2 42.12,93.37 42.15,93.63 L42.24,94.56 C42.26,94.82 42.08,95.04 41.82,95.07 L41.77,95.07 L41.77,95.07 Z M41.15,88.59 C40.91,88.59 40.71,88.41 40.69,88.17 L40.6,87.24 C40.58,86.98 40.76,86.76 41.02,86.73 C41.27,86.72 41.5,86.89 41.53,87.15 L41.62,88.08 C41.64,88.34 41.46,88.56 41.2,88.59 L41.15,88.59 L41.15,88.59 Z M40.52,82.11 C40.28,82.11 40.08,81.93 40.06,81.69 L39.97,80.76 C39.95,80.5 40.13,80.28 40.39,80.25 C40.65,80.24 40.87,80.41 40.9,80.67 L40.99,81.6 C41.01,81.86 40.83,82.08 40.57,82.11 L40.52,82.11 L40.52,82.11 Z M40.36,75.6 L40.31,75.6 C40.05,75.57 39.87,75.34 39.9,75.08 C39.93,74.79 39.98,74.47 40.02,74.14 C40.06,73.88 40.31,73.71 40.55,73.75 C40.8,73.79 40.98,74.02 40.94,74.28 C40.89,74.6 40.85,74.91 40.82,75.19 C40.8,75.43 40.6,75.6 40.36,75.6 L40.36,75.6 Z M41.7,69.22 C41.66,69.22 41.61,69.21 41.56,69.2 C41.31,69.12 41.18,68.86 41.25,68.62 C41.34,68.32 41.44,68.02 41.54,67.72 C41.62,67.48 41.89,67.35 42.13,67.43 C42.37,67.51 42.5,67.78 42.42,68.02 C42.32,68.31 42.23,68.61 42.14,68.89 C42.08,69.09 41.9,69.22 41.7,69.22 L41.7,69.22 Z M44.24,63.23 C44.16,63.23 44.08,63.21 44.01,63.17 C43.79,63.04 43.71,62.76 43.83,62.54 C43.98,62.27 44.14,61.99 44.31,61.72 C44.44,61.5 44.73,61.43 44.95,61.57 C45.17,61.7 45.24,61.99 45.1,62.21 C44.94,62.47 44.79,62.73 44.64,63 C44.56,63.14 44.4,63.23 44.24,63.23 L44.24,63.23 Z M48.14,58.04 C48.02,58.04 47.9,57.99 47.81,57.9 C47.63,57.72 47.63,57.42 47.81,57.24 C48.03,57.02 48.26,56.8 48.5,56.58 C48.69,56.41 48.98,56.42 49.16,56.61 C49.33,56.8 49.32,57.09 49.13,57.27 C48.91,57.48 48.69,57.69 48.47,57.9 C48.37,57.99 48.26,58.04 48.14,58.04 L48.14,58.04 Z M53.36,54.21 C53.19,54.21 53.03,54.12 52.95,53.96 C52.83,53.73 52.92,53.45 53.15,53.33 C53.43,53.19 53.71,53.04 54,52.91 C54.23,52.8 54.51,52.9 54.62,53.13 C54.73,53.36 54.63,53.64 54.4,53.75 C54.12,53.88 53.85,54.01 53.59,54.15 C53.51,54.19 53.43,54.21 53.36,54.21 L53.36,54.21 Z M59.47,52.05 C59.26,52.05 59.06,51.9 59.02,51.68 C58.97,51.43 59.13,51.18 59.38,51.13 C59.69,51.07 60,51.01 60.31,50.95 C60.57,50.9 60.8,51.07 60.85,51.33 C60.89,51.58 60.72,51.82 60.47,51.87 C60.17,51.92 59.87,51.98 59.58,52.04 C59.53,52.05 59.5,52.05 59.47,52.05 L59.47,52.05 Z M65.93,51.42 C65.68,51.42 65.47,51.22 65.46,50.96 C65.46,50.7 65.66,50.49 65.92,50.49 L66.85,50.48 L66.86,50.48 C67.11,50.48 67.32,50.68 67.33,50.94 C67.33,51.2 67.13,51.41 66.87,51.41 L65.93,51.42 L65.93,51.42 L65.93,51.42 Z M72.44,51.34 C72.18,51.34 71.98,51.13 71.97,50.88 C71.97,50.62 72.18,50.41 72.43,50.41 L73.29,50.4 L73.36,50.86 L73.3,51.33 L72.44,51.34 L72.44,51.34 L72.44,51.34 Z M78.96,51.3 C78.7,51.3 78.5,51.09 78.49,50.84 C78.49,50.58 78.7,50.37 78.95,50.37 L79.88,50.36 L79.88,50.36 C80.14,50.36 80.34,50.57 80.35,50.82 C80.35,51.08 80.14,51.29 79.89,51.29 L78.96,51.3 L78.96,51.3 L78.96,51.3 Z M85.47,51.27 C85.21,51.27 85.01,51.06 85,50.81 C85,50.55 85.21,50.34 85.46,50.34 L86.39,50.34 C86.65,50.34 86.85,50.55 86.86,50.8 C86.86,51.06 86.65,51.27 86.4,51.27 L85.47,51.27 L85.47,51.27 L85.47,51.27 Z M91.99,51.24 C91.73,51.24 91.53,51.03 91.52,50.78 C91.52,50.52 91.73,50.31 91.98,50.31 L92.91,50.31 C93.17,50.31 93.37,50.52 93.38,50.77 C93.38,51.03 93.17,51.24 92.92,51.24 L91.99,51.24 L91.99,51.24 L91.99,51.24 Z M98.5,51.22 C98.24,51.22 98.04,51.01 98.03,50.76 C98.03,50.5 98.24,50.29 98.49,50.29 L99.42,50.29 C99.68,50.29 99.88,50.5 99.89,50.75 C99.89,51.01 99.68,51.22 99.43,51.22 L98.5,51.22 L98.5,51.22 L98.5,51.22 Z M105.01,51.2 C104.75,51.2 104.54,50.99 104.54,50.73 C104.54,50.47 104.75,50.26 105.01,50.26 L105.93,50.26 L105.94,50.73 L105.94,51.2 L105.01,51.2 L105.01,51.2 Z M111.53,51.19 C111.27,51.19 111.06,50.98 111.06,50.72 C111.06,50.46 111.27,50.25 111.53,50.25 L112.45,50.25 L112.46,50.72 L112.46,51.19 L111.53,51.19 L111.53,51.19 Z" id="Shape" fill="#3E79A0"/><path d="M249.24,51.16 L248.31,51.16 C248.05,51.16 247.84,50.95 247.85,50.69 C247.85,50.43 248.06,50.23 248.32,50.23 L248.32,50.23 L249.25,50.23 C249.51,50.23 249.72,50.44 249.72,50.7 C249.72,50.96 249.5,51.16 249.24,51.16 L249.24,51.16 Z M242.73,51.15 L241.8,51.15 C241.54,51.15 241.34,50.94 241.34,50.68 C241.34,50.42 241.55,50.22 241.81,50.22 L241.81,50.22 L242.73,50.22 C242.99,50.22 243.2,50.43 243.2,50.69 C243.2,50.95 242.98,51.15 242.73,51.15 L242.73,51.15 Z M236.22,51.14 L235.29,51.14 C235.03,51.14 234.83,50.93 234.83,50.67 C234.83,50.41 235.04,50.21 235.3,50.21 L235.3,50.21 L236.23,50.21 C236.49,50.21 236.7,50.42 236.7,50.68 C236.7,50.94 236.48,51.14 236.22,51.14 L236.22,51.14 Z M144.1,51.14 C143.84,51.14 143.64,50.93 143.63,50.68 C143.63,50.42 143.84,50.21 144.09,50.21 L145.02,50.21 C145.28,50.21 145.49,50.42 145.49,50.68 C145.49,50.94 145.28,51.15 145.02,51.15 L144.1,51.14 L144.1,51.14 Z M229.71,51.14 L228.78,51.14 C228.52,51.14 228.31,50.93 228.32,50.67 C228.32,50.41 228.53,50.21 228.79,50.21 L228.79,50.21 L229.72,50.21 C229.98,50.21 230.19,50.42 230.19,50.68 C230.19,50.94 229.97,51.14 229.71,51.14 L229.71,51.14 Z M150.62,51.14 C150.36,51.14 150.16,50.93 150.15,50.68 C150.15,50.42 150.36,50.21 150.61,50.21 L151.54,50.21 C151.8,50.21 152.01,50.42 152.01,50.68 C152.01,50.94 151.8,51.15 151.54,51.15 L150.62,51.14 L150.62,51.14 Z M223.2,51.13 L222.27,51.13 C222.01,51.13 221.81,50.92 221.81,50.66 C221.81,50.4 222.02,50.2 222.28,50.2 L222.28,50.2 L223.21,50.2 C223.47,50.2 223.68,50.41 223.68,50.67 C223.68,50.93 223.46,51.13 223.2,51.13 L223.2,51.13 Z M157.14,51.13 C156.88,51.13 156.68,50.92 156.67,50.67 C156.67,50.41 156.88,50.2 157.13,50.2 L158.06,50.2 C158.32,50.2 158.53,50.41 158.53,50.67 C158.53,50.93 158.32,51.14 158.06,51.14 L157.14,51.13 L157.14,51.13 L157.14,51.13 Z M216.7,51.13 L215.77,51.13 C215.51,51.13 215.31,50.92 215.31,50.66 C215.31,50.4 215.52,50.2 215.78,50.2 L215.78,50.2 L216.71,50.2 C216.97,50.2 217.18,50.41 217.18,50.67 C217.18,50.93 216.95,51.13 216.7,51.13 L216.7,51.13 Z M163.65,51.13 C163.39,51.13 163.19,50.92 163.18,50.67 C163.18,50.41 163.39,50.2 163.64,50.2 L164.57,50.2 C164.83,50.2 165.04,50.41 165.04,50.67 C165.04,50.93 164.83,51.14 164.57,51.14 L163.65,51.13 L163.65,51.13 Z M210.18,51.13 L209.25,51.13 C208.99,51.13 208.78,50.92 208.78,50.66 C208.78,50.4 208.99,50.19 209.25,50.19 L210.18,50.19 C210.44,50.19 210.65,50.4 210.65,50.66 C210.65,50.92 210.44,51.13 210.18,51.13 L210.18,51.13 Z M203.67,51.12 L202.74,51.12 C202.48,51.12 202.27,50.91 202.27,50.65 C202.27,50.39 202.48,50.18 202.74,50.18 L203.67,50.18 C203.93,50.18 204.14,50.39 204.14,50.65 C204.14,50.91 203.93,51.12 203.67,51.12 L203.67,51.12 Z M171.1,51.12 L170.17,51.12 C169.91,51.12 169.7,50.91 169.7,50.65 C169.7,50.39 169.91,50.18 170.17,50.18 L171.1,50.18 C171.36,50.18 171.57,50.39 171.57,50.65 C171.57,50.91 171.36,51.12 171.1,51.12 L171.1,51.12 Z M197.16,51.12 L196.23,51.12 C195.97,51.12 195.76,50.91 195.76,50.65 C195.76,50.39 195.97,50.18 196.23,50.18 L197.16,50.18 C197.42,50.18 197.63,50.39 197.63,50.65 C197.63,50.91 197.42,51.12 197.16,51.12 L197.16,51.12 Z M177.62,51.12 L176.69,51.12 C176.43,51.12 176.22,50.91 176.22,50.65 C176.22,50.39 176.43,50.18 176.69,50.18 L177.62,50.18 C177.88,50.18 178.09,50.39 178.09,50.65 C178.09,50.91 177.87,51.12 177.62,51.12 L177.62,51.12 Z M190.65,51.12 L189.72,51.12 C189.46,51.12 189.25,50.91 189.25,50.65 C189.25,50.39 189.46,50.18 189.72,50.18 L190.65,50.18 C190.91,50.18 191.12,50.39 191.12,50.65 C191.12,50.91 190.9,51.12 190.65,51.12 L190.65,51.12 Z M184.13,51.12 L183.2,51.12 C182.94,51.12 182.73,50.91 182.73,50.65 C182.73,50.39 182.94,50.18 183.2,50.18 L184.13,50.18 C184.39,50.18 184.6,50.39 184.6,50.65 C184.6,50.91 184.39,51.12 184.13,51.12 L184.13,51.12 Z" id="Shape" fill="#3E79A0"/><path d="M293.09,256.67 C292.89,256.67 292.71,256.54 292.65,256.35 C292.57,256.11 292.71,255.84 292.95,255.76 C293.24,255.66 293.54,255.57 293.83,255.47 C294.07,255.39 294.34,255.52 294.42,255.76 C294.5,256 294.37,256.27 294.13,256.35 C293.84,256.45 293.54,256.55 293.24,256.64 C293.18,256.66 293.13,256.67 293.09,256.67 L293.09,256.67 Z M299.16,254.36 C298.98,254.36 298.81,254.26 298.73,254.08 C298.63,253.84 298.73,253.57 298.97,253.47 C299.25,253.35 299.53,253.22 299.81,253.09 C300.04,252.98 300.32,253.08 300.43,253.32 C300.54,253.55 300.44,253.83 300.2,253.94 C299.92,254.07 299.63,254.2 299.34,254.33 C299.29,254.35 299.22,254.36 299.16,254.36 L299.16,254.36 Z M304.96,251.42 C304.8,251.42 304.64,251.34 304.56,251.19 C304.43,250.97 304.51,250.68 304.73,250.55 C305,250.4 305.26,250.24 305.53,250.08 C305.75,249.95 306.04,250.02 306.17,250.24 C306.3,250.46 306.23,250.75 306.01,250.88 C305.74,251.04 305.47,251.2 305.2,251.36 C305.12,251.4 305.04,251.42 304.96,251.42 L304.96,251.42 Z M310.41,247.88 C310.27,247.88 310.12,247.81 310.03,247.69 C309.88,247.48 309.92,247.19 310.13,247.04 C310.38,246.86 310.63,246.68 310.87,246.49 C311.07,246.33 311.37,246.38 311.52,246.58 C311.67,246.79 311.63,247.08 311.43,247.23 C311.18,247.42 310.93,247.6 310.68,247.79 C310.6,247.85 310.5,247.88 310.41,247.88 L310.41,247.88 Z M315.46,243.78 C315.33,243.78 315.21,243.73 315.11,243.63 C314.94,243.44 314.95,243.14 315.15,242.97 C315.38,242.76 315.61,242.56 315.83,242.35 C316.02,242.18 316.31,242.19 316.49,242.38 C316.66,242.57 316.65,242.86 316.46,243.04 C316.23,243.25 316,243.46 315.77,243.67 C315.68,243.74 315.57,243.78 315.46,243.78 L315.46,243.78 Z M320.09,239.21 C319.98,239.21 319.86,239.17 319.77,239.09 C319.58,238.92 319.57,238.62 319.74,238.43 C319.95,238.2 320.16,237.98 320.36,237.75 C320.53,237.56 320.83,237.54 321.02,237.71 C321.21,237.88 321.23,238.18 321.06,238.37 C320.85,238.6 320.64,238.83 320.43,239.06 C320.34,239.16 320.22,239.21 320.09,239.21 L320.09,239.21 Z M324.29,234.23 C324.19,234.23 324.09,234.2 324.01,234.13 C323.81,233.97 323.77,233.68 323.93,233.48 C324.12,233.24 324.31,232.99 324.49,232.74 C324.65,232.53 324.94,232.5 325.14,232.65 C325.35,232.81 325.39,233.1 325.23,233.3 C325.04,233.55 324.85,233.8 324.66,234.04 C324.57,234.17 324.43,234.23 324.29,234.23 L324.29,234.23 Z M328.06,228.93 C327.97,228.93 327.88,228.91 327.81,228.85 C327.59,228.71 327.53,228.42 327.67,228.21 L328.17,227.43 C328.31,227.21 328.6,227.15 328.81,227.29 C329.03,227.43 329.09,227.72 328.95,227.93 L328.44,228.72 C328.36,228.85 328.22,228.93 328.06,228.93 L328.06,228.93 Z M331.43,223.35 C331.35,223.35 331.28,223.33 331.2,223.29 C330.98,223.17 330.89,222.88 331.02,222.66 C331.17,222.39 331.32,222.12 331.47,221.85 C331.59,221.62 331.88,221.54 332.1,221.66 C332.33,221.78 332.41,222.07 332.29,222.29 C332.14,222.56 331.99,222.84 331.84,223.11 C331.76,223.26 331.6,223.35 331.43,223.35 L331.43,223.35 Z M334.42,217.56 C334.35,217.56 334.28,217.55 334.22,217.51 C333.99,217.4 333.89,217.12 334,216.89 L334.4,216.05 C334.51,215.82 334.79,215.71 335.02,215.82 C335.25,215.93 335.35,216.21 335.25,216.44 L334.85,217.29 C334.76,217.46 334.6,217.56 334.42,217.56 L334.42,217.56 Z M337.06,211.6 C337,211.6 336.94,211.59 336.88,211.57 C336.64,211.47 336.53,211.2 336.62,210.96 L336.97,210.1 C337.07,209.86 337.34,209.75 337.58,209.84 C337.82,209.94 337.93,210.21 337.84,210.45 L337.49,211.31 C337.41,211.49 337.24,211.6 337.06,211.6 L337.06,211.6 Z M339.36,205.5 C339.31,205.5 339.26,205.49 339.21,205.47 C338.97,205.39 338.84,205.12 338.92,204.88 L339.22,204 C339.3,203.76 339.57,203.63 339.81,203.71 C340.05,203.79 340.18,204.06 340.1,204.3 L339.79,205.18 C339.73,205.38 339.55,205.5 339.36,205.5 L339.36,205.5 Z M341.36,199.29 C341.32,199.29 341.27,199.28 341.23,199.27 C340.98,199.2 340.84,198.94 340.92,198.69 L341.18,197.8 C341.25,197.55 341.51,197.41 341.76,197.48 C342.01,197.55 342.15,197.81 342.08,198.06 L341.82,198.95 C341.75,199.16 341.56,199.29 341.36,199.29 L341.36,199.29 Z M343.07,192.99 C343.03,192.99 343,192.99 342.96,192.98 C342.71,192.92 342.56,192.67 342.62,192.42 L342.84,191.52 C342.9,191.27 343.15,191.11 343.4,191.18 C343.65,191.24 343.8,191.49 343.74,191.74 L343.52,192.65 C343.47,192.85 343.28,192.99 343.07,192.99 L343.07,192.99 Z M344.51,186.63 C344.48,186.63 344.45,186.63 344.42,186.62 C344.17,186.57 344.01,186.32 344.06,186.07 L344.24,185.16 C344.29,184.91 344.54,184.75 344.79,184.79 C345.04,184.84 345.21,185.08 345.16,185.34 L344.98,186.26 C344.92,186.48 344.73,186.63 344.51,186.63 L344.51,186.63 Z M345.68,180.21 C345.66,180.21 345.63,180.21 345.61,180.2 C345.36,180.16 345.18,179.92 345.22,179.67 L345.36,178.75 C345.4,178.5 345.63,178.33 345.89,178.36 C346.14,178.4 346.32,178.64 346.28,178.89 L346.14,179.81 C346.1,180.04 345.9,180.21 345.68,180.21 L345.68,180.21 Z M346.58,173.74 L346.53,173.74 C346.27,173.71 346.09,173.48 346.12,173.22 L346.22,172.3 C346.25,172.04 346.48,171.86 346.73,171.89 C346.99,171.92 347.17,172.15 347.14,172.4 L347.04,173.33 C347.01,173.56 346.81,173.74 346.58,173.74 L346.58,173.74 Z M347.16,167.22 L347.12,167.22 C346.86,167.2 346.68,166.97 346.7,166.71 L346.79,165.78 C346.81,165.52 347.06,165.35 347.3,165.36 C347.56,165.38 347.74,165.61 347.72,165.87 L347.63,166.8 C347.6,167.04 347.4,167.22 347.16,167.22 L347.16,167.22 Z M347.78,160.73 L347.74,160.73 C347.48,160.71 347.3,160.48 347.32,160.22 L347.41,159.29 C347.44,159.03 347.69,158.86 347.92,158.87 C348.18,158.89 348.36,159.12 348.34,159.38 L348.25,160.31 C348.22,160.55 348.01,160.73 347.78,160.73 L347.78,160.73 Z M348.39,154.25 L348.35,154.25 C348.09,154.23 347.91,154 347.93,153.74 L348.02,152.81 C348.04,152.55 348.28,152.37 348.53,152.39 C348.79,152.41 348.97,152.64 348.95,152.9 L348.86,153.83 C348.83,154.07 348.63,154.25 348.39,154.25 L348.39,154.25 Z M349.01,147.76 L348.97,147.76 C348.71,147.74 348.53,147.51 348.55,147.25 L348.64,146.32 C348.66,146.06 348.9,145.89 349.15,145.9 C349.41,145.92 349.59,146.15 349.57,146.41 L349.48,147.34 C349.45,147.58 349.24,147.76 349.01,147.76 L349.01,147.76 Z M349.62,141.28 L349.57,141.28 C349.31,141.26 349.13,141.03 349.15,140.77 L349.24,139.84 C349.27,139.58 349.49,139.41 349.75,139.42 C350.01,139.44 350.19,139.67 350.17,139.93 L350.08,140.86 C350.06,141.1 349.86,141.28 349.62,141.28 L349.62,141.28 Z M350.24,134.8 L350.2,134.8 C349.94,134.78 349.76,134.55 349.78,134.29 L349.87,133.36 C349.89,133.1 350.13,132.92 350.38,132.94 C350.64,132.96 350.82,133.19 350.8,133.45 L350.71,134.38 C350.68,134.62 350.47,134.8 350.24,134.8 L350.24,134.8 Z M350.85,128.31 L350.81,128.31 C350.55,128.29 350.37,128.06 350.39,127.8 L350.48,126.87 C350.5,126.61 350.74,126.44 350.99,126.45 C351.25,126.47 351.43,126.7 351.41,126.96 L351.32,127.89 C351.29,128.13 351.09,128.31 350.85,128.31 L350.85,128.31 Z M351.46,121.83 L351.41,121.83 C351.15,121.81 350.97,121.58 350.99,121.32 L351.08,120.39 C351.11,120.13 351.34,119.96 351.59,119.97 C351.85,119.99 352.03,120.22 352.01,120.48 L351.92,121.41 C351.9,121.65 351.7,121.83 351.46,121.83 L351.46,121.83 Z M352.08,115.34 L352.03,115.34 C351.77,115.32 351.59,115.09 351.61,114.83 L351.7,113.9 C351.73,113.64 351.96,113.47 352.21,113.48 C352.47,113.5 352.65,113.73 352.63,113.99 L352.54,114.92 C352.52,115.16 352.32,115.34 352.08,115.34 L352.08,115.34 Z M352.69,108.86 L352.65,108.86 C352.39,108.84 352.21,108.61 352.23,108.35 L352.32,107.42 C352.34,107.16 352.57,106.99 352.83,107 C353.09,107.02 353.27,107.25 353.25,107.51 L353.16,108.44 C353.13,108.68 352.93,108.86 352.69,108.86 L352.69,108.86 Z M353.31,102.38 L353.26,102.38 C353,102.36 352.82,102.13 352.84,101.87 L352.93,100.94 C352.96,100.68 353.18,100.51 353.44,100.52 C353.7,100.54 353.88,100.77 353.86,101.03 L353.77,101.96 C353.75,102.2 353.54,102.38 353.31,102.38 L353.31,102.38 Z M353.92,95.89 L353.87,95.89 C353.61,95.87 353.43,95.64 353.45,95.38 L353.54,94.45 C353.57,94.19 353.79,94.02 354.05,94.03 C354.31,94.05 354.49,94.28 354.47,94.54 L354.38,95.47 C354.36,95.71 354.16,95.89 353.92,95.89 L353.92,95.89 Z M354.54,89.41 L354.5,89.41 C354.24,89.39 354.06,89.16 354.08,88.9 L354.17,87.97 C354.19,87.71 354.42,87.53 354.68,87.55 C354.94,87.57 355.12,87.8 355.1,88.06 L355.01,88.99 C354.98,89.23 354.77,89.41 354.54,89.41 L354.54,89.41 Z M355.17,82.93 L355.13,82.93 C354.87,82.91 354.68,82.69 354.7,82.43 C354.72,82.15 354.74,81.84 354.76,81.51 C354.77,81.25 354.99,81.05 355.25,81.07 C355.51,81.08 355.7,81.3 355.69,81.56 C355.67,81.9 355.65,82.21 355.63,82.5 C355.62,82.74 355.41,82.93 355.17,82.93 L355.17,82.93 Z M355.21,76.41 C354.97,76.41 354.76,76.22 354.75,75.97 C354.73,75.67 354.71,75.36 354.68,75.05 C354.66,74.79 354.85,74.57 355.1,74.55 C355.35,74.53 355.58,74.72 355.6,74.97 C355.63,75.29 355.65,75.6 355.67,75.91 C355.69,76.17 355.49,76.39 355.24,76.4 C355.23,76.41 355.22,76.41 355.21,76.41 L355.21,76.41 Z M354.27,69.97 C354.06,69.97 353.87,69.82 353.82,69.61 C353.75,69.31 353.68,69.02 353.6,68.72 C353.53,68.47 353.68,68.22 353.93,68.15 C354.18,68.08 354.43,68.23 354.5,68.48 C354.58,68.79 354.66,69.09 354.73,69.4 C354.79,69.65 354.63,69.9 354.38,69.96 C354.34,69.96 354.31,69.97 354.27,69.97 L354.27,69.97 Z M352.14,63.83 C351.97,63.83 351.8,63.73 351.72,63.57 C351.59,63.3 351.45,63.03 351.31,62.76 C351.19,62.53 351.28,62.25 351.5,62.13 C351.73,62.01 352.01,62.1 352.13,62.32 C352.28,62.6 352.42,62.88 352.56,63.16 C352.67,63.39 352.57,63.67 352.34,63.78 C352.27,63.81 352.2,63.83 352.14,63.83 L352.14,63.83 Z M348.52,58.44 C348.39,58.44 348.27,58.39 348.18,58.29 C347.98,58.07 347.77,57.85 347.55,57.64 C347.37,57.46 347.37,57.16 347.55,56.98 C347.73,56.8 348.03,56.8 348.21,56.98 C348.44,57.2 348.66,57.43 348.87,57.67 C349.04,57.86 349.03,58.15 348.84,58.33 C348.74,58.4 348.63,58.44 348.52,58.44 L348.52,58.44 Z M343.42,54.45 C343.34,54.45 343.27,54.43 343.2,54.39 C342.94,54.25 342.67,54.11 342.39,53.97 C342.16,53.86 342.06,53.58 342.18,53.35 C342.3,53.12 342.57,53.02 342.8,53.14 C343.09,53.28 343.37,53.43 343.64,53.58 C343.87,53.7 343.95,53.99 343.82,54.21 C343.74,54.36 343.58,54.45 343.42,54.45 L343.42,54.45 Z M337.35,52.19 C337.32,52.19 337.28,52.19 337.25,52.18 C336.96,52.11 336.66,52.05 336.36,51.99 C336.11,51.94 335.94,51.7 335.99,51.45 C336.04,51.2 336.29,51.03 336.53,51.08 C336.84,51.14 337.15,51.21 337.46,51.27 C337.71,51.33 337.87,51.58 337.81,51.83 C337.75,52.04 337.56,52.19 337.35,52.19 L337.35,52.19 Z M330.84,51.43 L329.96,51.42 C329.7,51.42 329.5,51.2 329.5,50.95 C329.5,50.69 329.75,50.49 329.97,50.49 L330.83,50.5 L330.9,50.97 L330.84,51.43 L330.84,51.43 Z M324.33,51.36 L323.44,51.35 C323.18,51.35 322.98,51.14 322.98,50.88 C322.98,50.62 323.19,50.42 323.45,50.42 L323.45,50.42 L324.34,50.43 L324.38,50.9 L324.33,51.36 L324.33,51.36 Z M317.86,51.32 L317.86,51.32 L316.93,51.32 C316.67,51.32 316.46,51.11 316.47,50.85 C316.47,50.59 316.68,50.39 316.94,50.39 L316.94,50.39 L317.87,50.39 C318.13,50.39 318.33,50.6 318.33,50.86 C318.33,51.12 318.12,51.32 317.86,51.32 L317.86,51.32 Z M311.34,51.29 L310.42,51.29 C310.16,51.29 309.96,51.08 309.96,50.82 C309.96,50.56 310.17,50.36 310.43,50.36 L310.43,50.36 L311.35,50.36 L311.36,50.83 L311.34,51.29 L311.34,51.29 Z M304.83,51.27 L304.83,51.27 L303.9,51.27 C303.64,51.27 303.43,51.06 303.44,50.8 C303.44,50.54 303.65,50.34 303.91,50.34 L303.91,50.34 L304.84,50.34 C305.1,50.34 305.3,50.55 305.3,50.81 C305.3,51.06 305.09,51.27 304.83,51.27 L304.83,51.27 Z M298.32,51.25 L298.32,51.25 L297.39,51.25 C297.13,51.25 296.92,51.04 296.93,50.78 C296.93,50.52 297.14,50.32 297.4,50.32 L297.4,50.32 L298.33,50.32 C298.59,50.32 298.79,50.53 298.79,50.79 C298.78,51.04 298.58,51.25 298.32,51.25 L298.32,51.25 Z M291.81,51.23 L291.81,51.23 L290.88,51.23 C290.62,51.23 290.41,51.02 290.42,50.76 C290.42,50.5 290.63,50.3 290.89,50.3 L290.89,50.3 L291.82,50.3 C292.08,50.3 292.28,50.51 292.28,50.77 C292.27,51.02 292.06,51.23 291.81,51.23 L291.81,51.23 Z M285.29,51.21 L285.29,51.21 L284.36,51.21 C284.1,51.21 283.89,51 283.89,50.74 C283.89,50.48 284.1,50.27 284.36,50.27 L285.29,50.27 C285.55,50.27 285.76,50.48 285.75,50.74 C285.76,51.01 285.55,51.21 285.29,51.21 L285.29,51.21 Z" id="Shape" fill="#3E79A0"/><path d="M236.64,260.54 L235.71,260.54 C235.45,260.54 235.24,260.33 235.24,260.07 C235.24,259.81 235.45,259.6 235.71,259.6 L236.64,259.6 C236.9,259.6 237.11,259.81 237.11,260.07 C237.11,260.33 236.89,260.54 236.64,260.54 L236.64,260.54 Z M230.12,260.54 L229.19,260.54 C228.93,260.54 228.72,260.33 228.72,260.07 C228.72,259.81 228.93,259.6 229.19,259.6 L230.12,259.6 C230.38,259.6 230.59,259.81 230.59,260.07 C230.59,260.33 230.38,260.54 230.12,260.54 L230.12,260.54 Z M223.61,260.54 L222.68,260.54 C222.42,260.54 222.21,260.33 222.21,260.07 C222.21,259.81 222.42,259.6 222.68,259.6 L223.61,259.6 C223.87,259.6 224.08,259.81 224.08,260.07 C224.08,260.33 223.87,260.54 223.61,260.54 L223.61,260.54 Z M217.1,260.54 L216.17,260.54 C215.91,260.54 215.7,260.33 215.7,260.07 C215.7,259.81 215.91,259.6 216.17,259.6 L217.1,259.6 C217.36,259.6 217.57,259.81 217.57,260.07 C217.57,260.33 217.36,260.54 217.1,260.54 L217.1,260.54 Z M210.59,260.54 L209.66,260.54 C209.4,260.54 209.19,260.33 209.19,260.07 C209.19,259.81 209.4,259.6 209.66,259.6 L210.59,259.6 C210.85,259.6 211.06,259.81 211.06,260.07 C211.06,260.33 210.84,260.54 210.59,260.54 L210.59,260.54 Z M204.07,260.54 L203.14,260.54 C202.88,260.54 202.67,260.33 202.67,260.07 C202.67,259.81 202.88,259.6 203.14,259.6 L204.07,259.6 C204.33,259.6 204.54,259.81 204.54,260.07 C204.54,260.33 204.33,260.54 204.07,260.54 L204.07,260.54 Z M197.56,260.54 L196.63,260.54 C196.37,260.54 196.16,260.33 196.16,260.07 C196.16,259.81 196.37,259.6 196.63,259.6 L197.56,259.6 C197.82,259.6 198.03,259.81 198.03,260.07 C198.03,260.33 197.82,260.54 197.56,260.54 L197.56,260.54 Z M191.05,260.54 L190.12,260.54 C189.86,260.54 189.65,260.33 189.65,260.07 C189.65,259.81 189.86,259.6 190.12,259.6 L191.05,259.6 C191.31,259.6 191.52,259.81 191.52,260.07 C191.52,260.33 191.3,260.54 191.05,260.54 L191.05,260.54 Z M184.53,260.54 L183.6,260.54 C183.34,260.54 183.13,260.33 183.13,260.07 C183.13,259.81 183.34,259.6 183.6,259.6 L184.53,259.6 C184.79,259.6 185,259.81 185,260.07 C185,260.33 184.79,260.54 184.53,260.54 L184.53,260.54 Z M178.02,260.54 L177.09,260.54 C176.83,260.54 176.62,260.33 176.62,260.07 C176.62,259.81 176.83,259.6 177.09,259.6 L178.02,259.6 C178.28,259.6 178.49,259.81 178.49,260.07 C178.49,260.33 178.28,260.54 178.02,260.54 L178.02,260.54 Z M171.51,260.54 L170.58,260.54 C170.32,260.54 170.11,260.33 170.11,260.07 C170.11,259.81 170.32,259.6 170.58,259.6 L171.51,259.6 C171.77,259.6 171.98,259.81 171.98,260.07 C171.98,260.33 171.76,260.54 171.51,260.54 L171.51,260.54 Z M164.99,260.54 L164.06,260.54 C163.8,260.54 163.59,260.33 163.59,260.07 C163.59,259.81 163.8,259.6 164.06,259.6 L164.99,259.6 C165.25,259.6 165.46,259.81 165.46,260.07 C165.46,260.33 165.25,260.54 164.99,260.54 L164.99,260.54 Z M158.48,260.54 L157.55,260.54 C157.29,260.54 157.08,260.33 157.08,260.07 C157.08,259.81 157.29,259.6 157.55,259.6 L158.48,259.6 C158.74,259.6 158.95,259.81 158.95,260.07 C158.95,260.33 158.74,260.54 158.48,260.54 L158.48,260.54 Z" id="Shape" fill="#3E79A0"/><path d="M379.9,306.14 C379.64,306.14 379.43,305.93 379.43,305.67 L379.43,304.74 C379.43,304.48 379.64,304.27 379.9,304.27 C380.16,304.27 380.37,304.48 380.37,304.74 L380.37,305.67 C380.37,305.93 380.16,306.14 379.9,306.14 L379.9,306.14 Z M379.9,299.63 C379.64,299.63 379.43,299.42 379.43,299.16 L379.43,298.23 C379.43,297.97 379.64,297.76 379.9,297.76 C380.16,297.76 380.37,297.97 380.37,298.23 L380.37,299.16 C380.37,299.42 380.16,299.63 379.9,299.63 L379.9,299.63 Z M379.9,293.12 C379.64,293.12 379.43,292.91 379.43,292.65 L379.43,291.72 C379.43,291.46 379.64,291.25 379.9,291.25 C380.16,291.25 380.37,291.46 380.37,291.72 L380.37,292.65 C380.37,292.91 380.16,293.12 379.9,293.12 L379.9,293.12 Z M379.9,286.6 C379.64,286.6 379.43,286.39 379.43,286.13 L379.43,285.2 C379.43,284.94 379.64,284.73 379.9,284.73 C380.16,284.73 380.37,284.94 380.37,285.2 L380.37,286.13 C380.37,286.4 380.16,286.6 379.9,286.6 L379.9,286.6 Z M379.9,280.09 C379.64,280.09 379.43,279.88 379.43,279.62 L379.43,278.69 C379.43,278.43 379.64,278.22 379.9,278.22 C380.16,278.22 380.37,278.43 380.37,278.69 L380.37,279.62 C380.37,279.88 380.16,280.09 379.9,280.09 L379.9,280.09 Z M379.9,273.58 C379.64,273.58 379.43,273.37 379.43,273.11 L379.43,272.18 C379.43,271.92 379.64,271.71 379.9,271.71 C380.16,271.71 380.37,271.92 380.37,272.18 L380.37,273.11 C380.37,273.37 380.16,273.58 379.9,273.58 L379.9,273.58 Z M379.9,267.06 C379.64,267.06 379.43,266.85 379.43,266.59 L379.43,265.66 C379.43,265.4 379.64,265.19 379.9,265.19 C380.16,265.19 380.37,265.4 380.37,265.66 L380.37,266.59 C380.37,266.86 380.16,267.06 379.9,267.06 L379.9,267.06 Z M379.9,260.55 C379.64,260.55 379.43,260.34 379.43,260.08 L379.43,259.15 C379.43,258.89 379.64,258.68 379.9,258.68 C380.16,258.68 380.37,258.89 380.37,259.15 L380.37,260.08 C380.37,260.34 380.16,260.55 379.9,260.55 L379.9,260.55 Z M379.9,254.04 C379.64,254.04 379.43,253.83 379.43,253.57 L379.43,252.64 C379.43,252.38 379.64,252.17 379.9,252.17 C380.16,252.17 380.37,252.38 380.37,252.64 L380.37,253.57 C380.37,253.83 380.16,254.04 379.9,254.04 L379.9,254.04 Z M379.9,247.53 C379.64,247.53 379.43,247.32 379.43,247.06 L379.43,246.13 C379.43,245.87 379.64,245.66 379.9,245.66 C380.16,245.66 380.37,245.87 380.37,246.13 L380.37,247.06 C380.37,247.32 380.16,247.53 379.9,247.53 L379.9,247.53 Z M379.9,241.01 C379.64,241.01 379.43,240.8 379.43,240.54 L379.43,239.61 C379.43,239.35 379.64,239.14 379.9,239.14 C380.16,239.14 380.37,239.35 380.37,239.61 L380.37,240.54 C380.37,240.8 380.16,241.01 379.9,241.01 L379.9,241.01 Z M379.9,234.5 C379.64,234.5 379.43,234.29 379.43,234.03 L379.43,233.1 C379.43,232.84 379.64,232.63 379.9,232.63 C380.16,232.63 380.37,232.84 380.37,233.1 L380.37,234.03 C380.37,234.29 380.16,234.5 379.9,234.5 L379.9,234.5 Z M379.9,227.99 C379.64,227.99 379.43,227.78 379.43,227.52 L379.43,226.59 C379.43,226.33 379.64,226.12 379.9,226.12 C380.16,226.12 380.37,226.33 380.37,226.59 L380.37,227.52 C380.37,227.78 380.16,227.99 379.9,227.99 L379.9,227.99 Z M379.9,221.47 C379.64,221.47 379.43,221.26 379.43,221 L379.43,220.07 C379.43,219.81 379.64,219.6 379.9,219.6 C380.16,219.6 380.37,219.81 380.37,220.07 L380.37,221 C380.37,221.27 380.16,221.47 379.9,221.47 L379.9,221.47 Z M379.9,214.96 C379.64,214.96 379.43,214.75 379.43,214.49 L379.43,213.56 C379.43,213.3 379.64,213.09 379.9,213.09 C380.16,213.09 380.37,213.3 380.37,213.56 L380.37,214.49 C380.37,214.75 380.16,214.96 379.9,214.96 L379.9,214.96 Z M379.9,208.45 C379.64,208.45 379.43,208.24 379.43,207.98 L379.43,207.05 C379.43,206.79 379.64,206.58 379.9,206.58 C380.16,206.58 380.37,206.79 380.37,207.05 L380.37,207.98 C380.37,208.24 380.16,208.45 379.9,208.45 L379.9,208.45 Z M379.9,201.93 C379.64,201.93 379.43,201.72 379.43,201.46 L379.43,200.53 C379.43,200.27 379.64,200.06 379.9,200.06 C380.16,200.06 380.37,200.27 380.37,200.53 L380.37,201.46 C380.37,201.73 380.16,201.93 379.9,201.93 L379.9,201.93 Z M379.9,195.42 C379.64,195.42 379.43,195.21 379.43,194.95 L379.43,194.02 C379.43,193.76 379.64,193.55 379.9,193.55 C380.16,193.55 380.37,193.76 380.37,194.02 L380.37,194.95 C380.37,195.21 380.16,195.42 379.9,195.42 L379.9,195.42 Z M379.9,188.91 C379.64,188.91 379.43,188.7 379.43,188.44 L379.43,187.51 C379.43,187.25 379.64,187.04 379.9,187.04 C380.16,187.04 380.37,187.25 380.37,187.51 L380.37,188.44 C380.37,188.7 380.16,188.91 379.9,188.91 L379.9,188.91 Z M379.9,182.4 C379.64,182.4 379.43,182.19 379.43,181.93 L379.43,181 C379.43,180.74 379.64,180.53 379.9,180.53 C380.16,180.53 380.37,180.74 380.37,181 L380.37,181.93 C380.37,182.19 380.16,182.4 379.9,182.4 L379.9,182.4 Z M379.9,175.88 C379.64,175.88 379.43,175.67 379.43,175.41 L379.43,174.48 C379.43,174.22 379.64,174.01 379.9,174.01 C380.16,174.01 380.37,174.22 380.37,174.48 L380.37,175.41 C380.37,175.67 380.16,175.88 379.9,175.88 L379.9,175.88 Z M379.9,169.37 C379.64,169.37 379.43,169.16 379.43,168.9 L379.43,167.97 C379.43,167.71 379.64,167.5 379.9,167.5 C380.16,167.5 380.37,167.71 380.37,167.97 L380.37,168.9 C380.37,169.16 380.16,169.37 379.9,169.37 L379.9,169.37 Z M379.9,162.86 C379.64,162.86 379.43,162.65 379.43,162.39 L379.43,161.46 C379.43,161.2 379.64,160.99 379.9,160.99 C380.16,160.99 380.37,161.2 380.37,161.46 L380.37,162.39 C380.37,162.65 380.16,162.86 379.9,162.86 L379.9,162.86 Z M379.98,156.34 C379.97,156.34 379.97,156.34 379.98,156.34 C379.71,156.33 379.51,156.12 379.51,155.87 L379.52,154.94 C379.52,154.68 379.74,154.46 379.99,154.48 C380.25,154.48 380.45,154.69 380.45,154.95 L380.44,155.88 C380.44,156.14 380.23,156.34 379.98,156.34 L379.98,156.34 Z M379.93,149.83 C379.68,149.83 379.47,149.63 379.46,149.38 L379.43,148.45 C379.42,148.19 379.62,147.98 379.88,147.97 C380.15,147.97 380.35,148.16 380.36,148.42 L380.39,149.35 C380.4,149.61 380.2,149.82 379.94,149.83 C379.94,149.83 379.93,149.83 379.93,149.83 L379.93,149.83 Z M379.57,143.32 C379.33,143.32 379.13,143.13 379.11,142.89 L379.04,141.96 C379.02,141.7 379.21,141.48 379.47,141.46 C379.75,141.45 379.95,141.63 379.97,141.89 L380.04,142.82 C380.06,143.08 379.87,143.3 379.61,143.32 L379.57,143.32 L379.57,143.32 Z M378.93,136.84 C378.7,136.84 378.5,136.67 378.47,136.43 L378.36,135.51 C378.33,135.26 378.51,135.02 378.76,134.99 C379.01,134.95 379.25,135.14 379.28,135.39 L379.39,136.32 C379.42,136.57 379.24,136.81 378.98,136.84 C378.97,136.83 378.95,136.84 378.93,136.84 L378.93,136.84 Z M378.03,130.38 C377.81,130.38 377.61,130.22 377.57,129.99 L377.42,129.07 C377.38,128.82 377.55,128.58 377.8,128.53 C378.05,128.49 378.29,128.66 378.34,128.91 L378.49,129.83 C378.53,130.08 378.36,130.32 378.11,130.36 C378.08,130.38 378.05,130.38 378.03,130.38 L378.03,130.38 Z M376.84,123.98 C376.62,123.98 376.43,123.83 376.39,123.61 L376.2,122.7 C376.15,122.45 376.31,122.2 376.56,122.15 C376.81,122.1 377.06,122.26 377.11,122.51 L377.3,123.42 C377.35,123.67 377.19,123.92 376.94,123.97 C376.9,123.98 376.87,123.98 376.84,123.98 L376.84,123.98 Z M375.35,117.64 C375.14,117.64 374.95,117.5 374.9,117.29 L374.66,116.39 C374.59,116.14 374.74,115.89 374.99,115.82 C375.25,115.75 375.49,115.9 375.56,116.15 L375.8,117.05 C375.87,117.3 375.72,117.55 375.47,117.62 C375.43,117.63 375.39,117.64 375.35,117.64 L375.35,117.64 Z M373.56,111.37 C373.36,111.37 373.18,111.24 373.12,111.04 L372.84,110.16 C372.76,109.92 372.9,109.65 373.14,109.57 C373.38,109.49 373.65,109.63 373.73,109.87 L374.01,110.76 C374.09,111 373.95,111.27 373.7,111.34 C373.66,111.37 373.61,111.37 373.56,111.37 L373.56,111.37 Z M371.44,105.21 C371.25,105.21 371.07,105.1 371,104.91 L370.67,104.04 C370.58,103.8 370.7,103.53 370.94,103.44 C371.18,103.35 371.45,103.47 371.54,103.71 L371.87,104.58 C371.96,104.82 371.84,105.09 371.6,105.18 C371.55,105.2 371.49,105.21 371.44,105.21 L371.44,105.21 Z M368.97,99.19 C368.79,99.19 368.62,99.09 368.54,98.91 C368.42,98.63 368.29,98.35 368.16,98.07 C368.05,97.84 368.16,97.56 368.39,97.45 C368.63,97.35 368.9,97.45 369.01,97.68 C369.14,97.96 369.27,98.25 369.39,98.53 C369.49,98.76 369.39,99.04 369.15,99.14 C369.1,99.18 369.03,99.19 368.97,99.19 L368.97,99.19 Z M366.14,93.32 C365.97,93.32 365.81,93.23 365.73,93.07 C365.59,92.8 365.44,92.52 365.3,92.25 C365.18,92.02 365.26,91.74 365.49,91.62 C365.72,91.5 366,91.58 366.12,91.81 C366.27,92.09 366.41,92.36 366.56,92.64 C366.68,92.87 366.59,93.15 366.36,93.27 C366.28,93.31 366.21,93.32 366.14,93.32 L366.14,93.32 Z" id="Shape" fill="#3E79A0"/><path d="M17.18,308.86 C16.92,308.86 16.71,308.65 16.71,308.39 L16.71,307.46 C16.71,307.2 16.92,306.99 17.18,306.99 C17.44,306.99 17.65,307.2 17.65,307.46 L17.65,308.39 C17.65,308.65 17.44,308.86 17.18,308.86 L17.18,308.86 Z M17.18,302.34 C16.92,302.34 16.71,302.13 16.71,301.87 L16.71,300.94 C16.71,300.68 16.92,300.47 17.18,300.47 C17.44,300.47 17.65,300.68 17.65,300.94 L17.65,301.87 C17.65,302.14 17.44,302.34 17.18,302.34 L17.18,302.34 Z M17.18,295.83 C16.92,295.83 16.71,295.62 16.71,295.36 L16.71,294.43 C16.71,294.17 16.92,293.96 17.18,293.96 C17.44,293.96 17.65,294.17 17.65,294.43 L17.65,295.36 C17.65,295.62 17.44,295.83 17.18,295.83 L17.18,295.83 Z M17.18,289.32 C16.92,289.32 16.71,289.11 16.71,288.85 L16.71,287.92 C16.71,287.66 16.92,287.45 17.18,287.45 C17.44,287.45 17.65,287.66 17.65,287.92 L17.65,288.85 C17.65,289.11 17.44,289.32 17.18,289.32 L17.18,289.32 Z M17.18,282.81 C16.92,282.81 16.71,282.6 16.71,282.34 L16.71,281.41 C16.71,281.15 16.92,280.94 17.18,280.94 C17.44,280.94 17.65,281.15 17.65,281.41 L17.65,282.34 C17.65,282.6 17.44,282.81 17.18,282.81 L17.18,282.81 Z M17.18,276.29 C16.92,276.29 16.71,276.08 16.71,275.82 L16.71,274.89 C16.71,274.63 16.92,274.42 17.18,274.42 C17.44,274.42 17.65,274.63 17.65,274.89 L17.65,275.82 C17.65,276.08 17.44,276.29 17.18,276.29 L17.18,276.29 Z M17.18,269.78 C16.92,269.78 16.71,269.57 16.71,269.31 L16.71,268.38 C16.71,268.12 16.92,267.91 17.18,267.91 C17.44,267.91 17.65,268.12 17.65,268.38 L17.65,269.31 C17.65,269.57 17.44,269.78 17.18,269.78 L17.18,269.78 Z M17.18,263.27 C16.92,263.27 16.71,263.06 16.71,262.8 L16.71,261.87 C16.71,261.61 16.92,261.4 17.18,261.4 C17.44,261.4 17.65,261.61 17.65,261.87 L17.65,262.8 C17.65,263.06 17.44,263.27 17.18,263.27 L17.18,263.27 Z M17.18,256.75 C16.92,256.75 16.71,256.54 16.71,256.28 L16.71,255.35 C16.71,255.09 16.92,254.88 17.18,254.88 C17.44,254.88 17.65,255.09 17.65,255.35 L17.65,256.28 C17.65,256.55 17.44,256.75 17.18,256.75 L17.18,256.75 Z M17.18,250.24 C16.92,250.24 16.71,250.03 16.71,249.77 L16.71,248.84 C16.71,248.58 16.92,248.37 17.18,248.37 C17.44,248.37 17.65,248.58 17.65,248.84 L17.65,249.77 C17.65,250.03 17.44,250.24 17.18,250.24 L17.18,250.24 Z M17.18,243.73 C16.92,243.73 16.71,243.52 16.71,243.26 L16.71,242.33 C16.71,242.07 16.92,241.86 17.18,241.86 C17.44,241.86 17.65,242.07 17.65,242.33 L17.65,243.26 C17.65,243.52 17.44,243.73 17.18,243.73 L17.18,243.73 Z M17.18,237.21 C16.92,237.21 16.71,237 16.71,236.74 L16.71,235.81 C16.71,235.55 16.92,235.34 17.18,235.34 C17.44,235.34 17.65,235.55 17.65,235.81 L17.65,236.74 C17.65,237.01 17.44,237.21 17.18,237.21 L17.18,237.21 Z M17.18,230.7 C16.92,230.7 16.71,230.49 16.71,230.23 L16.71,229.3 C16.71,229.04 16.92,228.83 17.18,228.83 C17.44,228.83 17.65,229.04 17.65,229.3 L17.65,230.23 C17.65,230.49 17.44,230.7 17.18,230.7 L17.18,230.7 Z M17.18,224.19 C16.92,224.19 16.71,223.98 16.71,223.72 L16.71,222.79 C16.71,222.53 16.92,222.32 17.18,222.32 C17.44,222.32 17.65,222.53 17.65,222.79 L17.65,223.72 C17.65,223.98 17.44,224.19 17.18,224.19 L17.18,224.19 Z M17.18,217.68 C16.92,217.68 16.71,217.47 16.71,217.21 L16.71,216.28 C16.71,216.02 16.92,215.81 17.18,215.81 C17.44,215.81 17.65,216.02 17.65,216.28 L17.65,217.21 C17.65,217.47 17.44,217.68 17.18,217.68 L17.18,217.68 Z M17.18,211.16 C16.92,211.16 16.71,210.95 16.71,210.69 L16.71,209.76 C16.71,209.5 16.92,209.29 17.18,209.29 C17.44,209.29 17.65,209.5 17.65,209.76 L17.65,210.69 C17.65,210.95 17.44,211.16 17.18,211.16 L17.18,211.16 Z M17.18,204.65 C16.92,204.65 16.71,204.44 16.71,204.18 L16.71,203.25 C16.71,202.99 16.92,202.78 17.18,202.78 C17.44,202.78 17.65,202.99 17.65,203.25 L17.65,204.18 C17.65,204.44 17.44,204.65 17.18,204.65 L17.18,204.65 Z M17.18,198.14 C16.92,198.14 16.71,197.93 16.71,197.67 L16.71,196.74 C16.71,196.48 16.92,196.27 17.18,196.27 C17.44,196.27 17.65,196.48 17.65,196.74 L17.65,197.67 C17.65,197.93 17.44,198.14 17.18,198.14 L17.18,198.14 Z M17.18,191.62 C16.92,191.62 16.71,191.41 16.71,191.15 L16.71,190.22 C16.71,189.96 16.92,189.75 17.18,189.75 C17.44,189.75 17.65,189.96 17.65,190.22 L17.65,191.15 C17.65,191.42 17.44,191.62 17.18,191.62 L17.18,191.62 Z M17.18,185.11 C16.92,185.11 16.71,184.9 16.71,184.64 L16.71,183.71 C16.71,183.45 16.92,183.24 17.18,183.24 C17.44,183.24 17.65,183.45 17.65,183.71 L17.65,184.64 C17.65,184.9 17.44,185.11 17.18,185.11 L17.18,185.11 Z M17.18,178.6 C16.92,178.6 16.71,178.39 16.71,178.13 L16.71,177.2 C16.71,176.94 16.92,176.73 17.18,176.73 C17.44,176.73 17.65,176.94 17.65,177.2 L17.65,178.13 C17.65,178.39 17.44,178.6 17.18,178.6 L17.18,178.6 Z M17.18,172.08 C16.92,172.08 16.71,171.87 16.71,171.61 L16.71,170.68 C16.71,170.42 16.92,170.21 17.18,170.21 C17.44,170.21 17.65,170.42 17.65,170.68 L17.65,171.61 C17.65,171.88 17.44,172.08 17.18,172.08 L17.18,172.08 Z M17.18,165.57 C16.92,165.57 16.71,165.36 16.71,165.1 L16.71,164.17 C16.71,163.91 16.92,163.7 17.18,163.7 C17.44,163.7 17.65,163.91 17.65,164.17 L17.65,165.1 C17.65,165.36 17.44,165.57 17.18,165.57 L17.18,165.57 Z M17.18,159.06 C16.92,159.06 16.71,158.85 16.71,158.59 L16.69,157.68 C16.68,157.42 16.88,157.21 17.13,157.19 C17.39,157.15 17.61,157.38 17.62,157.63 L17.64,157.94 L17.64,158.03 L17.65,158.03 L17.65,158.58 C17.65,158.85 17.44,159.06 17.18,159.06 L17.18,159.06 Z M17.09,152.08 L16.62,152.07 L16.64,151.14 C16.65,150.88 16.83,150.67 17.11,150.68 C17.37,150.69 17.57,150.9 17.57,151.15 L17.56,152.01 L17.09,152.08 L17.09,152.08 Z M17.33,146.03 L17.3,146.03 C17.04,146.01 16.85,145.79 16.86,145.54 L16.92,144.61 C16.94,144.35 17.15,144.16 17.41,144.17 C17.67,144.19 17.86,144.41 17.85,144.66 L17.79,145.59 C17.78,145.84 17.57,146.03 17.33,146.03 L17.33,146.03 Z M17.85,139.54 L17.8,139.54 C17.54,139.51 17.36,139.29 17.38,139.03 L17.48,138.1 C17.51,137.84 17.75,137.66 17.99,137.69 C18.25,137.72 18.43,137.95 18.4,138.2 L18.3,139.12 C18.29,139.36 18.09,139.54 17.85,139.54 L17.85,139.54 Z M18.64,133.07 L18.57,133.07 C18.32,133.03 18.14,132.8 18.18,132.54 L18.32,131.62 C18.36,131.36 18.6,131.19 18.85,131.23 C19.1,131.27 19.28,131.5 19.24,131.76 L19.1,132.68 C19.07,132.9 18.87,133.07 18.64,133.07 L18.64,133.07 Z M19.72,126.64 C19.69,126.64 19.66,126.64 19.63,126.63 C19.38,126.58 19.21,126.34 19.26,126.09 L19.44,125.17 C19.49,124.92 19.73,124.75 19.99,124.8 C20.24,124.85 20.41,125.09 20.36,125.35 L20.18,126.26 C20.13,126.49 19.93,126.64 19.72,126.64 L19.72,126.64 Z M21.07,120.27 C21.03,120.27 21,120.27 20.96,120.26 C20.71,120.2 20.56,119.95 20.62,119.7 L20.84,118.79 C20.9,118.54 21.15,118.39 21.4,118.45 C21.65,118.51 21.8,118.76 21.74,119.01 L21.52,119.91 C21.47,120.13 21.28,120.27 21.07,120.27 L21.07,120.27 Z M22.74,113.97 C22.7,113.97 22.65,113.96 22.61,113.95 C22.36,113.88 22.22,113.62 22.29,113.37 L22.55,112.47 C22.62,112.22 22.88,112.09 23.13,112.16 C23.38,112.23 23.52,112.49 23.44,112.74 L23.18,113.63 C23.12,113.84 22.94,113.97 22.74,113.97 L22.74,113.97 Z M24.72,107.77 C24.67,107.77 24.62,107.76 24.57,107.74 C24.33,107.65 24.2,107.39 24.29,107.15 L24.6,106.27 C24.69,106.03 24.95,105.9 25.19,105.99 C25.43,106.08 25.56,106.34 25.47,106.58 L25.16,107.46 C25.09,107.65 24.91,107.77 24.72,107.77 L24.72,107.77 Z M27.04,101.68 C26.98,101.68 26.92,101.67 26.86,101.64 C26.62,101.54 26.51,101.27 26.61,101.03 L26.97,100.17 C27.07,99.93 27.35,99.82 27.58,99.92 C27.82,100.02 27.93,100.29 27.83,100.53 L27.47,101.38 C27.39,101.58 27.22,101.68 27.04,101.68 L27.04,101.68 Z M29.72,95.75 C29.65,95.75 29.58,95.73 29.52,95.7 C29.29,95.59 29.19,95.31 29.31,95.08 L29.73,94.24 C29.85,94.01 30.12,93.92 30.35,94.03 C30.58,94.15 30.67,94.42 30.56,94.65 L30.15,95.48 C30.05,95.65 29.89,95.75 29.72,95.75 L29.72,95.75 Z" id="Shape" fill="#3E79A0"/><rect id="Rectangle-path" fill="#3E79A0" x="155" y="24" width="89.3" height="1"/><path d="M146.09,268.48 L140.79,268.48 L140.79,267.48 L145.09,267.48 L145.09,263.07 L110.96,263.01 L110.96,267.48 L115.49,267.48 L115.49,268.48 L109.96,268.48 L109.96,262 L146.09,262.07 L146.09,268.48 Z" fill="#3E79A0"/><rect id="Rectangle-path" fill="#3E79A0" x="115" y="247" width="1" height="9.92"/><rect id="Rectangle-path" fill="#3E79A0" x="141" y="247" width="1" height="9.92"/><rect id="Rectangle-path" fill="#3E79A0" x="253" y="247" width="1" height="9.92"/><rect id="Rectangle-path" fill="#3E79A0" x="279" y="247" width="1" height="9.92"/><rect fill="#3E79A0" x="151" y="265" width="92.97" height="1"/></g></svg>