<svg width="115px" height="46px" viewBox="0 0 115 46" version="1.1" xmlns="http://www.w3.org/2000/svg" xmlns:xlink="http://www.w3.org/1999/xlink"><title>engineering-culture-preview-2</title><desc>Created with Sketch.</desc><defs/><g stroke="none" stroke-width="1" fill="none" fill-rule="evenodd"><path d="M89.4,43.66 C89.38,43.1 89.82,42.64 90.38,42.64 L90.38,42.64 C90.94,42.62 91.38,43.06 91.4,43.62 L91.4,43.62 C91.4,44.18 90.96,44.62 90.42,44.64 L90.42,44.64 L90.4,44.64 L90.4,44.64 C89.86,44.64 89.4,44.2 89.4,43.66 L89.4,43.66 Z M82.48,43.22 L82.48,43.22 L82.48,43.22 C81.98,43.02 81.72,42.44 81.92,41.92 L81.92,41.92 C82.12,41.4 82.7,41.16 83.22,41.36 L83.22,41.36 C83.74,41.56 83.98,42.14 83.78,42.64 L83.78,42.64 C83.64,43.04 83.26,43.28 82.86,43.28 L82.86,43.28 C82.72,43.28 82.6,43.26 82.48,43.22 L82.48,43.22 Z M96.98,42.44 C96.76,41.92 96.98,41.34 97.5,41.12 L97.5,41.12 C98,40.9 98.6,41.14 98.8,41.64 L98.8,41.64 C99.02,42.16 98.8,42.74 98.28,42.96 L98.28,42.96 C98.16,43.02 98.02,43.04 97.9,43.04 L97.9,43.04 C97.5,43.04 97.14,42.82 96.98,42.44 L96.98,42.44 Z M75.82,38.88 C75.38,38.54 75.3,37.92 75.64,37.48 L75.64,37.48 C75.98,37.04 76.6,36.96 77.04,37.3 L77.04,37.3 C77.48,37.64 77.56,38.28 77.22,38.7 L77.22,38.7 C77.02,38.96 76.72,39.1 76.42,39.1 L76.42,39.1 C76.22,39.1 76,39.02 75.82,38.88 L75.82,38.88 Z M103.52,38.42 C103.12,38.04 103.12,37.4 103.5,37.02 L103.5,37.02 C103.88,36.62 104.52,36.62 104.92,37 L104.92,37 C105.3,37.38 105.32,38.02 104.92,38.42 L104.92,38.42 C104.74,38.62 104.48,38.72 104.22,38.72 L104.22,38.72 C103.96,38.72 103.7,38.62 103.52,38.42 L103.52,38.42 Z M69.74,34.14 C69.3,33.8 69.22,33.16 69.56,32.74 L69.56,32.74 C69.9,32.3 70.52,32.22 70.96,32.56 L70.96,32.56 C71.4,32.9 71.48,33.52 71.14,33.96 L71.14,33.96 C70.94,34.22 70.64,34.34 70.34,34.34 L70.34,34.34 C70.14,34.34 69.92,34.28 69.74,34.14 L69.74,34.14 Z M108.06,32.24 C107.54,32.04 107.3,31.46 107.5,30.94 L107.5,30.94 C107.72,30.42 108.3,30.18 108.82,30.4 L108.82,30.4 C109.32,30.6 109.56,31.18 109.36,31.7 L109.36,31.7 C109.2,32.08 108.82,32.32 108.42,32.32 L108.42,32.32 C108.3,32.32 108.18,32.3 108.06,32.24 L108.06,32.24 Z M63.66,29.4 C63.22,29.06 63.14,28.42 63.48,27.98 L63.48,27.98 C63.82,27.56 64.44,27.48 64.88,27.82 L64.88,27.82 C65.32,28.16 65.4,28.78 65.06,29.22 L65.06,29.22 C64.86,29.48 64.56,29.6 64.26,29.6 L64.26,29.6 C64.06,29.6 63.84,29.54 63.66,29.4 L63.66,29.4 Z M108.9,23.8 C108.9,23.24 109.34,22.8 109.9,22.8 L109.9,22.8 C110.44,22.8 110.9,23.24 110.9,23.8 L110.9,23.8 C110.9,24.34 110.46,24.8 109.9,24.8 L109.9,24.8 C109.34,24.8 108.9,24.34 108.9,23.8 L108.9,23.8 Z M63.42,19.68 C63.08,19.24 63.14,18.62 63.58,18.26 L63.58,18.26 C64.02,17.92 64.64,18 64.98,18.44 L64.98,18.44 C65.32,18.88 65.24,19.5 64.82,19.84 L64.82,19.84 C64.64,19.98 64.42,20.06 64.2,20.06 L64.2,20.06 C63.9,20.06 63.62,19.92 63.42,19.68 L63.42,19.68 Z M107.48,16.66 L107.48,16.66 C107.28,16.16 107.52,15.56 108.02,15.36 L108.02,15.36 C108.54,15.14 109.12,15.38 109.34,15.9 L109.34,15.9 C109.54,16.42 109.3,17 108.8,17.2 L108.8,17.2 C108.66,17.26 108.54,17.28 108.4,17.28 L108.4,17.28 C108.02,17.28 107.64,17.04 107.48,16.66 L107.48,16.66 Z M69.48,14.9 C69.14,14.46 69.2,13.84 69.64,13.5 L69.64,13.5 C70.08,13.16 70.7,13.24 71.04,13.66 L71.04,13.66 C71.38,14.1 71.32,14.72 70.88,15.06 L70.88,15.06 C70.7,15.22 70.48,15.28 70.26,15.28 L70.26,15.28 C69.96,15.28 69.68,15.16 69.48,14.9 L69.48,14.9 Z M103.46,10.6 C103.08,10.2 103.08,9.58 103.46,9.18 L103.46,9.18 C103.86,8.8 104.5,8.8 104.88,9.2 L104.88,9.2 C105.26,9.58 105.26,10.22 104.88,10.6 L104.88,10.6 C104.68,10.8 104.42,10.9 104.16,10.9 L104.16,10.9 C103.92,10.9 103.66,10.8 103.46,10.6 L103.46,10.6 Z M75.54,10.14 C75.2,9.7 75.26,9.06 75.7,8.72 L75.7,8.72 C76.14,8.38 76.76,8.46 77.1,8.9 L77.1,8.9 C77.44,9.32 77.38,9.96 76.94,10.3 L76.94,10.3 C76.76,10.44 76.54,10.52 76.32,10.52 L76.32,10.52 C76.02,10.52 75.74,10.38 75.54,10.14 L75.54,10.14 Z M97.44,6.5 C96.94,6.3 96.7,5.7 96.92,5.2 L96.92,5.2 C97.12,4.68 97.72,4.46 98.22,4.66 L98.22,4.66 C98.74,4.88 98.96,5.46 98.76,5.98 L98.76,5.98 C98.6,6.36 98.22,6.58 97.84,6.58 L97.84,6.58 C97.7,6.58 97.56,6.56 97.44,6.5 L97.44,6.5 Z M81.86,5.76 C81.66,5.26 81.92,4.66 82.42,4.46 L82.42,4.46 C82.94,4.26 83.52,4.52 83.72,5.02 L83.72,5.02 C83.92,5.54 83.68,6.12 83.16,6.32 L83.16,6.32 C83.04,6.38 82.92,6.4 82.8,6.4 L82.8,6.4 C82.4,6.4 82.02,6.16 81.86,5.76 L81.86,5.76 Z M90.32,5.02 C89.76,5 89.32,4.56 89.34,4 L89.34,4 C89.34,3.44 89.8,3 90.34,3.02 L90.34,3.02 C90.9,3.02 91.34,3.48 91.34,4.02 L91.34,4.02 C91.32,4.58 90.88,5.02 90.32,5.02 L90.32,5.02 L90.32,5.02 Z" id="Shape" fill="#3E79A0" transform=""/><path d="M26.2,44.38 C14.86,44.38 5.64,35.16 5.64,23.82 C5.64,12.48 14.86,3.26 26.2,3.26 C30.32,3.26 34.3,4.48 37.7,6.78 L58.62,23.24 C58.8,23.38 58.9,23.6 58.9,23.82 C58.9,24.04 58.8,24.26 58.62,24.4 L36.72,41.48 C33.48,43.4 29.88,44.38 26.2,44.38 L26.2,44.38 Z" stroke="#3E79A0" stroke-width="1.5" transform=""/></g></svg>