<svg width="100px" height="92px" viewBox="0 0 100 92" version="1.1" xmlns="http://www.w3.org/2000/svg" xmlns:xlink="http://www.w3.org/1999/xlink"><title>engineering-culture-preview-3</title><desc>Created with Sketch.</desc><defs/><g stroke="#3E79A0" stroke-width="1.5" fill="none" fill-rule="evenodd"><path d="M49.22,82.44 C29.24,82.44 13,66.18 13,46.22 C13,26.26 29.24,10 49.22,10 C69.2,10 85.44,26.26 85.44,46.22 C85.44,66.18 69.2,82.44 49.22,82.44 L49.22,82.44 Z" id="Shape" transform=""/><path d="M48.84,66.68 C37.34,66.68 28,57.34 28,45.84 C28,34.34 37.34,25 48.84,25 C60.34,25 69.68,34.34 69.68,45.84 C69.68,57.34 60.34,66.68 48.84,66.68 L48.84,66.68 Z" id="Shape" transform=""/><path d="M49.04,54.08 C44.6,54.08 41,50.48 41,46.04 C41,41.6 44.6,38 49.04,38 C53.48,38 57.08,41.6 57.08,46.04 C57.08,50.46 53.48,54.08 49.04,54.08 L49.04,54.08 Z" id="Shape" transform=""/><path d="M16.4,5.52 L5.52,5.52 L5.52,16.4" id="Shape" stroke-linecap="round" stroke-linejoin="round" transform=""/><path d="M16.4,76.52 L5.52,76.52 L5.52,87.4" id="Shape" stroke-linecap="round" stroke-linejoin="round" transform="matrix(1 0 0 -1 0 164)"/><path d="M93.4,5.52 L82.52,5.52 L82.52,16.4" id="Shape" stroke-linecap="round" stroke-linejoin="round" transform="matrix(-1 0 0 1 176 0)"/><path d="M93.4,76.52 L82.52,76.52 L82.52,87.4" stroke-linecap="round" stroke-linejoin="round" transform="matrix(-1 0 0 -1 176 164)"/></g></svg>