<svg width="276px" height="473px" viewBox="0 0 276 473" version="1.1" xmlns="http://www.w3.org/2000/svg" xmlns:xlink="http://www.w3.org/1999/xlink"><title>engineering-culture-track-jacket</title><desc>Created with Sketch.</desc><defs/><g transform="translate(-464 -897) translate(464 897)" stroke="none" stroke-width="1" fill="none" fill-rule="evenodd"><circle fill="#2C2E2F" cx="268" cy="5" r="3"/><circle fill="#3E79A0" cx="7" cy="5" r="3"/><path d="M6.33984375,4.9765625 C6.33984375,4.9765625 136.089844,25.0039062 136.089844,159.523438" stroke="#3E79A0" stroke-width="1.5" stroke-linecap="round" stroke-linejoin="round"/><path d="M267.339844,4.9765625 C267.339844,4.9765625 136.089844,25.0039063 136.089844,159.523438 L136.089844,463.728215" stroke="#2C2E2F" stroke-width="1.5" stroke-linecap="round" stroke-linejoin="round"/><circle fill="#2C2E2F" cx="136" cy="468" r="3"/><path d="M207.71792,138.653056 L200.000091,142.014277 L192.282261,138.653056 L191,141.131783 L200.000091,145 L209,141.131783 L207.71792,138.653056 M199.999728,136.738125 C196.702719,136.738125 194.029909,134.042062 194.029909,130.717003 C194.029909,127.391761 196.702719,124.696063 199.999728,124.696063 C203.296919,124.696063 205.96991,127.391761 205.96991,130.717003 C205.96991,134.042062 203.296919,136.738125 199.999728,136.738125 L199.999728,136.738125 L199.999728,136.738125 L199.999728,136.738125 Z M200.000091,122 C195.231406,122 191.36561,125.898899 191.36561,130.708419 C191.36561,135.517938 195.231406,139.416655 200.000091,139.416655 C204.768594,139.416655 208.634571,135.517938 208.634571,130.708419 C208.634571,125.898899 204.768594,122 200.000091,122 L200.000091,122 Z" fill="#2C2E2F"/><g transform="translate(128 118)" stroke-width="1.5"><path d="M0.00693994176,8.29981423 L7.98245277,0.299814232 L16.0210787,8.29981423 L7.98325927,32.2576983 L0.00693994176,8.29981423 Z" stroke="#3E79A0" fill="#fff"/><path d="M0.8,15.2 L3.04,48 L12.96,48 L15.2,15.2 L0.8,15.2 L0.8,15.2 Z" stroke="#3E79A0" fill="#fff"/><path d="M8,35.5 L8,44.5" stroke="#2C2E2F" stroke-linecap="square"/><path d="M4.4,34.4 L4.4,45.6 L11.6,45.6 L11.6,34.4 L4.4,34.4 L4.4,34.4 Z" stroke="#3E79A0"/><rect stroke="#2C2E2F" fill="#fff" x="5.6" y="8" width="4.8" height="14.4"/></g></g></svg>