<svg width="90px" height="105px" viewBox="0 0 90 105" version="1.1" xmlns="http://www.w3.org/2000/svg" xmlns:xlink="http://www.w3.org/1999/xlink"><title>engineering-culture-preview-1</title><desc>Created with Sketch.</desc><defs/><g stroke="#3E79A0" stroke-width="1.5" fill="none" fill-rule="evenodd"><path d="M37.6,88.9 L37.6,68.82 C37.6,63.48 34.6,58.72 32.06,55.64 C25.28,47.4 25.56,39.26 25.58,38.92 C25.64,28.42 34.24,19.92 44.8,19.98 L44.92,19.98 C49.96,19.98 54.72,21.94 58.32,25.48 C61.94,29.06 63.96,33.84 64,38.94 C64.02,39.26 64.3,47.4 57.52,55.64 C55,58.72 52,63.48 52,68.82 L52,88.74" id="Shape" transform=""/><path d="M44.8,78.3 C44.7,78.3 44.6,78.28 44.5,78.24 C43.22,77.68 13.16,64.52 13.16,44.12 L13.16,5.38 C13.16,4.96 13.5,4.62 13.92,4.62 L75.7,4.62 C76.12,4.62 76.46,4.96 76.46,5.38 L76.46,44.12 C76.46,64.52 46.4,77.68 45.12,78.24 C45,78.28 44.9,78.3 44.8,78.3 L44.8,78.3 L44.8,78.3 Z" id="Shape" transform=""/><path d="M45,77.5 L45,46.4838752" id="Line" stroke-linecap="round" transform=""/><path d="M20.22,99.52 C19.98,99.52 19.76,99.42 19.62,99.22 C19.48,99.04 19.42,98.8 19.48,98.58 L22.06,88.74 C22.14,88.4 22.44,88.18 22.78,88.18 L66.78,88.18 C67.12,88.18 67.42,88.42 67.5,88.74 L70.02,98.38 C70.1,98.5 70.14,98.64 70.14,98.78 C70.16,99.18 69.82,99.52 69.4,99.52 L20.22,99.52 Z" id="Shape" transform=""/><path d="M37.24,38.48 L40.74,41.98 L44.7700002,38.48 L48.8,41.98 L52.3,38.48" stroke-linecap="round" stroke-linejoin="round" transform=""/><path d="M14.0200198,15.2802734 L4.7724609,15.2802734 L4.82421842,35.9628906 L14.0200195,41.5400391" id="Path-128" stroke-linejoin="round" transform=""/><path d="M85.0200198,15.2802734 L75.7724609,15.2802734 L75.8242184,35.9628906 L85.0200195,41.5400391" stroke-linejoin="round" transform="matrix(-1 0 0 1 161 0)"/><path d="M39.0006801,80.75 L50.6816753,80.75" id="Line" stroke-linecap="square" transform=""/><path d="M39.0006801,84.75 L50.6816753,84.75" stroke-linecap="square" transform=""/></g></svg>