<svg width="35px" height="55px" viewBox="0 0 35 55" version="1.1" xmlns="http://www.w3.org/2000/svg" xmlns:xlink="http://www.w3.org/1999/xlink"><title>getting-hired-pin</title><desc>Created with Sketch.</desc><defs/><path d="M17,2 C8.16,2 1,9.16 1,18 C1,32 17,53 17,53 C17,53 33,32 33,18 C33,9.16 25.84,2 17,2 L17,2 Z M17,24.74 C13.84,24.74 11.26,22.18 11.26,19 C11.26,15.84 13.82,13.26 17,13.26 C20.18,13.26 22.74,15.82 22.74,19 C22.74,22.16 20.18,24.74 17,24.74 L17,24.74 Z" transform="translate(0 0)" fill="#fff" stroke="none" stroke-width="1" fill-rule="evenodd"/></svg>