<svg width="1020px" height="200px" viewBox="0 0 1020 200" version="1.1" xmlns="http://www.w3.org/2000/svg" xmlns:xlink="http://www.w3.org/1999/xlink"><title>getting-hired-flow</title><desc>Created with Sketch.</desc><defs/><g stroke="#C7D6DF" stroke-width="2" fill="none" fill-rule="evenodd"><g id="Path-299-+-Path-299-+-Path-299"><path d="M0,0 C0,0 1.35447209e-14,31 0,53 C-1.08801856e-14,75 11,81.0277557 31,81 C51,81.0277557 418.017837,81.0277564 437,81.0277557 C455.982163,81.0277551 473,93 473,122 L473,361.169396" id="Path-299" transform="translate(23)"/><path d="M196,0 C196,0 196,30.9893811 196,53 C196,74.974309 207,81 227,81" id="Path-299" transform="translate(23)"/><path d="M391,0 C391,0 391,30.9893811 391,53 C391,74.974309 402,81 422,81" id="Path-299" transform="translate(23)"/></g><g><path d="M2.27373675e-13,0 C2.27373675e-13,0 2.40918396e-13,30.9854603 2.27373675e-13,52.9751419 C2.1649349e-13,74.9648234 11,80.989752 31,80.9620093 C51,80.989752 418.017837,80.9897527 437,80.989752 C455.982163,80.9897514 473,92.956381 473,121.942779 L473,361" id="Path-299" transform="matrix(-1 0 0 1 1000 0)"/><path d="M196,0 C196,0 196,30.9893811 196,53 C196,74.974309 207,81 227,81" id="Path-299" transform="matrix(-1 0 0 1 1000 0)"/><path d="M391,0 C391,0 391,30.9893811 391,53 C391,74.974309 402,81 422,81" transform="matrix(-1 0 0 1 1000 0)"/></g></g></svg>