<svg width="80px" height="80px" viewBox="0 0 80 80" version="1.1" xmlns="http://www.w3.org/2000/svg" xmlns:xlink="http://www.w3.org/1999/xlink"><title>icon-decomp-interview</title><desc>Created with Sketch.</desc><defs/><path d="M83.4999978,1 C62.2326633,1 45,18.2326642 45,39.5 C45,60.7673358 62.2326633,78 83.4999978,78 C104.767332,78 121.999996,60.7673358 121.999996,39.5 C122.010032,18.2326642 104.767332,1 83.4999978,1 L83.4999978,1 Z M70,42 L70,61 L97,61 L97,42 L70,42 Z M72,44 L72,59 L95,59 L95,44 L72,44 Z M83,20 L83,27 L97,27 L97,20 L83,20 Z M83,29 L83,40 L89,40 L89,29 L83,29 Z M91,29 L91,40 L97,40 L97,29 L91,29 Z M72,22 L72,38 L79,38 L79,22 L72,22 Z M70,20 L70,40 L81,40 L81,20 L70,20 Z" transform="translate(-44 0)" fill="#3E79A0" stroke="none" stroke-width="1" fill-rule="evenodd"/></svg>