<svg width="80px" height="80px" viewBox="0 0 80 80" version="1.1" xmlns="http://www.w3.org/2000/svg" xmlns:xlink="http://www.w3.org/1999/xlink"><title>icon-ui-interview</title><desc>Created with Sketch.</desc><defs/><path d="M59.36,1 C38.17,1 21,18.17 21,39.36 C21,60.55 38.17,77.72 59.36,77.72 C80.55,77.72 97.72,60.55 97.72,39.36 C97.73,18.17 80.55,1 59.36,1 L59.36,1 Z M40,57 L40,30 L78,30 L78,57 L40,57 Z M40,28 L40,21 L78,21 L78,28 L40,28 Z M42,33 L42,43 L76,43 L76,33 L42,33 Z M74,41 L44,41 L44,35 L74,35 L74,41 L74,41 Z M59,45 L42,45 L42,54 L59,54 L59,45 L59,45 Z M57,52 L44,52 L44,47 L57,47 L57,52 L57,52 Z M60,54 L76,54 L76,45 L60,45 L60,54 L60,54 Z M62,47 L74,47 L74,52 L62,52 L62,47 L62,47 Z M48.11,23.03 L48.11,25 L75.9999994,25 L76,23.03 L48.11,23.03 Z M43.62,26.05 C44.45395,26.05 45.13,25.37395 45.13,24.54 C45.13,23.70605 44.45395,23.03 43.62,23.03 C42.78605,23.03 42.11,23.70605 42.11,24.54 C42.11,25.37395 42.78605,26.05 43.62,26.05 Z" transform="translate(-19 0)" fill="#3E79A0" stroke="none" stroke-width="1" fill-rule="evenodd"/></svg>