<svg width="80px" height="80px" viewBox="0 0 80 80" version="1.1" xmlns="http://www.w3.org/2000/svg" xmlns:xlink="http://www.w3.org/1999/xlink"><title>icon-coding-interview</title><desc>Created with Sketch.</desc><defs/><path d="M60.36,1 C39.17,1 22,18.17 22,39.36 C22,60.55 39.17,77.72 60.36,77.72 C81.55,77.72 98.72,60.55 98.72,39.36 C98.72,18.17 81.55,1 60.36,1 L60.36,1 Z M80,28 L41,28 L41,21 L80,21 L80,28 Z M55,45.1776972 L52.076087,42.4950136 L55,39.81233 L55,37 L49,42.4950136 L55,48 L55,45.1776972 Z M67,37 L67,39.81233 L69.9183303,42.4950136 L67,45.1776972 L67,48 L73,42.4950136 L67,37 Z M61.385577,35 L58,50.033996 L59.9512,50.473396 L63.336777,35.4394 L61.385577,35 Z M41,30 L80,30 L80,55.9897773 L41,55.9897773 L41,30 Z M49,23 L49,25 L78,25 L78,23 L49,23 Z M43.5,26 C44.3284271,26 45,25.3284271 45,24.5 C45,23.6715729 44.3284271,23 43.5,23 C42.6715729,23 42,23.6715729 42,24.5 C42,25.3284271 42.6715729,26 43.5,26 Z" transform="translate(-20 0)" fill="#3E79A0" stroke="none" stroke-width="1" fill-rule="evenodd"/></svg>