<svg width="80px" height="80px" viewBox="0 0 80 80" version="1.1" xmlns="http://www.w3.org/2000/svg" xmlns:xlink="http://www.w3.org/1999/xlink"><title>icon-systems-interview</title><desc>Created with Sketch.</desc><defs/><path d="M60.36,1 C39.17,1 22,18.17 22,39.36 C22,60.55 39.17,77.72 60.36,77.72 C81.55,77.72 98.72,60.55 98.72,39.36 C98.72,18.17 81.55,1 60.36,1 L60.36,1 Z M66,51 L66,45 L70,45 L70,40 L52,40 L52,45 L56,45 L56,51 L46,51 L46,45 L50,45 L50,38 L60,38 L60,30 L55,30 L55,24 L67,24 L67,30 L62,30 L62,38 L72,38 L72,45 L76,45 L76,51 L66,51 Z" transform="translate(-20 0)" fill="#3E79A0" stroke="none" stroke-width="1" fill-rule="evenodd"/></svg>